<?xml version="1.0" encoding="UTF-8"?>
<svg width="1101px" height="93px" viewBox="0 0 1101 93" version="1.1" xmlns="http://www.w3.org/2000/svg" xmlns:xlink="http://www.w3.org/1999/xlink">
    <!-- Generator: Sketch 60.1 (88133) - https://sketch.com -->
    <title>1100 house</title>
    <desc>Created with Sketch.</desc>
    <g id="Boplats-landing-page" stroke="none" stroke-width="1" fill="none" fill-rule="evenodd">
        <g id="Desktop-HD" transform="translate(-169.000000, -916.000000)">
            <g id="1100-house" transform="translate(170.000000, 916.000000)">
                <g id="Pink-House" transform="translate(202.000000, 1.000000)">
                    <rect id="Rectangle" fill="#F7C3DB" x="9.17011508" y="13.7551726" width="670.182577" height="77.9459782"></rect>
                    <polygon id="Rectangle" fill="#E01171" points="9.17011508 0 679.352692 0 686.994455 13.7551726 0 13.7551726"></polygon>
                    <g id="Light-purple-window" transform="translate(359.927017, 22.925288)">
                        <rect id="Rectangle" stroke="#FFFFFF" stroke-width="1.52835251" fill="#FFEDF5" x="0.764176257" y="0.955220321" width="74.8892732" height="59.605748"></rect>
                        <line x1="50.435633" y1="2.48357283" x2="50.435633" y2="59.7967921" id="Line-19" stroke="#FFFFFF" stroke-width="3.05670503" stroke-linecap="square"></line>
                        <line x1="38.3998569" y1="-23.689464" x2="38.781945" y2="46.9968398" id="Line-19" stroke="#FFFFFF" stroke-width="3.05670503" stroke-linecap="square" transform="translate(38.399857, 11.844732) rotate(-90.000000) translate(-38.399857, -11.844732) "></line>
                        <g id="Balcony" transform="translate(0.000000, 34.578976)">
                            <rect id="Rectangle" fill="#76085C" x="0" y="22.9252877" width="76.4176257" height="3.82088128"></rect>
                            <line x1="1.11341162" y1="0.382088128" x2="75.3668288" y2="0.382088128" id="Line-20" stroke="#76085C" stroke-width="2.29252877" stroke-linecap="square"></line>
                            <line x1="1.14626439" y1="0.382088128" x2="1.14626439" y2="23.3073758" id="Line-21" stroke="#76085C" stroke-width="2.29252877" stroke-linecap="square"></line>
                            <line x1="75.2713613" y1="0.382088128" x2="75.2713613" y2="23.3073758" id="Line-21" stroke="#76085C" stroke-width="2.29252877" stroke-linecap="square"></line>
                            <line x1="38.590901" y1="1.91044064" x2="38.590901" y2="23.3073758" id="Line-22" stroke="#76085C" stroke-width="1.52835251" stroke-linecap="square"></line>
                            <line x1="19.8685827" y1="1.52835251" x2="19.8685827" y2="22.9252877" id="Line-22" stroke="#76085C" stroke-width="1.52835251" stroke-linecap="square"></line>
                            <line x1="10.6984676" y1="1.52835251" x2="10.6984676" y2="22.9252877" id="Line-22" stroke="#76085C" stroke-width="0.764176257" stroke-linecap="square"></line>
                            <line x1="6.11341005" y1="1.52835251" x2="6.11341005" y2="22.9252877" id="Line-22" stroke="#76085C" stroke-width="0.764176257" stroke-linecap="square"></line>
                            <line x1="15.2835251" y1="1.52835251" x2="15.2835251" y2="22.9252877" id="Line-22" stroke="#76085C" stroke-width="0.764176257" stroke-linecap="square"></line>
                            <line x1="29.0386978" y1="1.52835251" x2="29.0386978" y2="22.9252877" id="Line-22" stroke="#76085C" stroke-width="0.764176257" stroke-linecap="square"></line>
                            <line x1="33.6237553" y1="1.52835251" x2="33.6237553" y2="22.9252877" id="Line-22" stroke="#76085C" stroke-width="0.764176257" stroke-linecap="square"></line>
                            <line x1="24.4536402" y1="1.52835251" x2="24.4536402" y2="22.9252877" id="Line-22" stroke="#76085C" stroke-width="0.764176257" stroke-linecap="square"></line>
                            <line x1="48.1431042" y1="1.52835251" x2="48.1431042" y2="22.9252877" id="Line-22" stroke="#76085C" stroke-width="0.764176257" stroke-linecap="square"></line>
                            <line x1="51.9639855" y1="1.52835251" x2="51.9639855" y2="22.9252877" id="Line-22" stroke="#76085C" stroke-width="0.764176257" stroke-linecap="square"></line>
                            <line x1="43.5580466" y1="1.52835251" x2="43.5580466" y2="22.9252877" id="Line-22" stroke="#76085C" stroke-width="0.764176257" stroke-linecap="square"></line>
                            <line x1="65.7191581" y1="1.52835251" x2="65.7191581" y2="22.9252877" id="Line-22" stroke="#76085C" stroke-width="0.764176257" stroke-linecap="square"></line>
                            <line x1="70.3042156" y1="1.52835251" x2="70.3042156" y2="22.9252877" id="Line-22" stroke="#76085C" stroke-width="0.764176257" stroke-linecap="square"></line>
                            <line x1="61.1341005" y1="1.52835251" x2="61.1341005" y2="22.9252877" id="Line-22" stroke="#76085C" stroke-width="0.764176257" stroke-linecap="square"></line>
                            <line x1="56.549043" y1="1.52835251" x2="56.549043" y2="22.9252877" id="Line-22" stroke="#76085C" stroke-width="1.52835251" stroke-linecap="square"></line>
                        </g>
                    </g>
                    <g id="Light-purple-window" transform="translate(144.429313, 22.925288)">
                        <rect id="Rectangle" stroke="#FFFFFF" stroke-width="1.52835251" fill="#FFEDF5" x="0.764176257" y="0.955220321" width="74.8892732" height="59.605748"></rect>
                        <line x1="50.435633" y1="2.48357283" x2="50.435633" y2="59.7967921" id="Line-19" stroke="#FFFFFF" stroke-width="3.05670503" stroke-linecap="square"></line>
                        <line x1="38.3998569" y1="-23.689464" x2="38.781945" y2="46.9968398" id="Line-19" stroke="#FFFFFF" stroke-width="3.05670503" stroke-linecap="square" transform="translate(38.399857, 11.844732) rotate(-90.000000) translate(-38.399857, -11.844732) "></line>
                        <g id="Balcony" transform="translate(0.000000, 34.578976)">
                            <rect id="Rectangle" fill="#76085C" x="0" y="22.9252877" width="76.4176257" height="3.82088128"></rect>
                            <line x1="1.11341162" y1="0.382088128" x2="75.3668288" y2="0.382088128" id="Line-20" stroke="#76085C" stroke-width="2.29252877" stroke-linecap="square"></line>
                            <line x1="1.14626439" y1="0.382088128" x2="1.14626439" y2="23.3073758" id="Line-21" stroke="#76085C" stroke-width="2.29252877" stroke-linecap="square"></line>
                            <line x1="75.2713613" y1="0.382088128" x2="75.2713613" y2="23.3073758" id="Line-21" stroke="#76085C" stroke-width="2.29252877" stroke-linecap="square"></line>
                            <line x1="38.590901" y1="1.91044064" x2="38.590901" y2="23.3073758" id="Line-22" stroke="#76085C" stroke-width="1.52835251" stroke-linecap="square"></line>
                            <line x1="19.8685827" y1="1.52835251" x2="19.8685827" y2="22.9252877" id="Line-22" stroke="#76085C" stroke-width="1.52835251" stroke-linecap="square"></line>
                            <line x1="10.6984676" y1="1.52835251" x2="10.6984676" y2="22.9252877" id="Line-22" stroke="#76085C" stroke-width="0.764176257" stroke-linecap="square"></line>
                            <line x1="6.11341005" y1="1.52835251" x2="6.11341005" y2="22.9252877" id="Line-22" stroke="#76085C" stroke-width="0.764176257" stroke-linecap="square"></line>
                            <line x1="15.2835251" y1="1.52835251" x2="15.2835251" y2="22.9252877" id="Line-22" stroke="#76085C" stroke-width="0.764176257" stroke-linecap="square"></line>
                            <line x1="29.0386978" y1="1.52835251" x2="29.0386978" y2="22.9252877" id="Line-22" stroke="#76085C" stroke-width="0.764176257" stroke-linecap="square"></line>
                            <line x1="33.6237553" y1="1.52835251" x2="33.6237553" y2="22.9252877" id="Line-22" stroke="#76085C" stroke-width="0.764176257" stroke-linecap="square"></line>
                            <line x1="24.4536402" y1="1.52835251" x2="24.4536402" y2="22.9252877" id="Line-22" stroke="#76085C" stroke-width="0.764176257" stroke-linecap="square"></line>
                            <line x1="48.1431042" y1="1.52835251" x2="48.1431042" y2="22.9252877" id="Line-22" stroke="#76085C" stroke-width="0.764176257" stroke-linecap="square"></line>
                            <line x1="51.9639855" y1="1.52835251" x2="51.9639855" y2="22.9252877" id="Line-22" stroke="#76085C" stroke-width="0.764176257" stroke-linecap="square"></line>
                            <line x1="43.5580466" y1="1.52835251" x2="43.5580466" y2="22.9252877" id="Line-22" stroke="#76085C" stroke-width="0.764176257" stroke-linecap="square"></line>
                            <line x1="65.7191581" y1="1.52835251" x2="65.7191581" y2="22.9252877" id="Line-22" stroke="#76085C" stroke-width="0.764176257" stroke-linecap="square"></line>
                            <line x1="70.3042156" y1="1.52835251" x2="70.3042156" y2="22.9252877" id="Line-22" stroke="#76085C" stroke-width="0.764176257" stroke-linecap="square"></line>
                            <line x1="61.1341005" y1="1.52835251" x2="61.1341005" y2="22.9252877" id="Line-22" stroke="#76085C" stroke-width="0.764176257" stroke-linecap="square"></line>
                            <line x1="56.549043" y1="1.52835251" x2="56.549043" y2="22.9252877" id="Line-22" stroke="#76085C" stroke-width="1.52835251" stroke-linecap="square"></line>
                        </g>
                    </g>
                    <g id="Light-purple-window" transform="translate(252.178165, 22.925288)">
                        <rect id="Rectangle" stroke="#FFFFFF" stroke-width="1.52835251" fill="#FFEDF5" x="0.764176257" y="0.955220321" width="74.8892732" height="59.605748"></rect>
                        <line x1="50.435633" y1="2.48357283" x2="50.435633" y2="59.7967921" id="Line-19" stroke="#FFFFFF" stroke-width="3.05670503" stroke-linecap="square"></line>
                        <line x1="38.3998569" y1="-23.689464" x2="38.781945" y2="46.9968398" id="Line-19" stroke="#FFFFFF" stroke-width="3.05670503" stroke-linecap="square" transform="translate(38.399857, 11.844732) rotate(-90.000000) translate(-38.399857, -11.844732) "></line>
                        <g id="Balcony" transform="translate(0.000000, 34.578976)">
                            <rect id="Rectangle" fill="#76085C" x="0" y="22.9252877" width="76.4176257" height="3.82088128"></rect>
                            <line x1="1.11341162" y1="0.382088128" x2="75.3668288" y2="0.382088128" id="Line-20" stroke="#76085C" stroke-width="2.29252877" stroke-linecap="square"></line>
                            <line x1="1.14626439" y1="0.382088128" x2="1.14626439" y2="23.3073758" id="Line-21" stroke="#76085C" stroke-width="2.29252877" stroke-linecap="square"></line>
                            <line x1="75.2713613" y1="0.382088128" x2="75.2713613" y2="23.3073758" id="Line-21" stroke="#76085C" stroke-width="2.29252877" stroke-linecap="square"></line>
                            <line x1="38.590901" y1="1.91044064" x2="38.590901" y2="23.3073758" id="Line-22" stroke="#76085C" stroke-width="1.52835251" stroke-linecap="square"></line>
                            <line x1="19.8685827" y1="1.52835251" x2="19.8685827" y2="22.9252877" id="Line-22" stroke="#76085C" stroke-width="1.52835251" stroke-linecap="square"></line>
                            <line x1="10.6984676" y1="1.52835251" x2="10.6984676" y2="22.9252877" id="Line-22" stroke="#76085C" stroke-width="0.764176257" stroke-linecap="square"></line>
                            <line x1="6.11341005" y1="1.52835251" x2="6.11341005" y2="22.9252877" id="Line-22" stroke="#76085C" stroke-width="0.764176257" stroke-linecap="square"></line>
                            <line x1="15.2835251" y1="1.52835251" x2="15.2835251" y2="22.9252877" id="Line-22" stroke="#76085C" stroke-width="0.764176257" stroke-linecap="square"></line>
                            <line x1="29.0386978" y1="1.52835251" x2="29.0386978" y2="22.9252877" id="Line-22" stroke="#76085C" stroke-width="0.764176257" stroke-linecap="square"></line>
                            <line x1="33.6237553" y1="1.52835251" x2="33.6237553" y2="22.9252877" id="Line-22" stroke="#76085C" stroke-width="0.764176257" stroke-linecap="square"></line>
                            <line x1="24.4536402" y1="1.52835251" x2="24.4536402" y2="22.9252877" id="Line-22" stroke="#76085C" stroke-width="0.764176257" stroke-linecap="square"></line>
                            <line x1="48.1431042" y1="1.52835251" x2="48.1431042" y2="22.9252877" id="Line-22" stroke="#76085C" stroke-width="0.764176257" stroke-linecap="square"></line>
                            <line x1="51.9639855" y1="1.52835251" x2="51.9639855" y2="22.9252877" id="Line-22" stroke="#76085C" stroke-width="0.764176257" stroke-linecap="square"></line>
                            <line x1="43.5580466" y1="1.52835251" x2="43.5580466" y2="22.9252877" id="Line-22" stroke="#76085C" stroke-width="0.764176257" stroke-linecap="square"></line>
                            <line x1="65.7191581" y1="1.52835251" x2="65.7191581" y2="22.9252877" id="Line-22" stroke="#76085C" stroke-width="0.764176257" stroke-linecap="square"></line>
                            <line x1="70.3042156" y1="1.52835251" x2="70.3042156" y2="22.9252877" id="Line-22" stroke="#76085C" stroke-width="0.764176257" stroke-linecap="square"></line>
                            <line x1="61.1341005" y1="1.52835251" x2="61.1341005" y2="22.9252877" id="Line-22" stroke="#76085C" stroke-width="0.764176257" stroke-linecap="square"></line>
                            <line x1="56.549043" y1="1.52835251" x2="56.549043" y2="22.9252877" id="Line-22" stroke="#76085C" stroke-width="1.52835251" stroke-linecap="square"></line>
                        </g>
                    </g>
                    <g id="Light-purple-window" transform="translate(575.424721, 22.925288)">
                        <rect id="Rectangle" stroke="#FFFFFF" stroke-width="1.52835251" fill="#FFEDF5" x="0.764176257" y="0.955220321" width="74.8892732" height="59.605748"></rect>
                        <line x1="50.435633" y1="2.48357283" x2="50.435633" y2="59.7967921" id="Line-19" stroke="#FFFFFF" stroke-width="3.05670503" stroke-linecap="square"></line>
                        <line x1="38.3998569" y1="-23.689464" x2="38.781945" y2="46.9968398" id="Line-19" stroke="#FFFFFF" stroke-width="3.05670503" stroke-linecap="square" transform="translate(38.399857, 11.844732) rotate(-90.000000) translate(-38.399857, -11.844732) "></line>
                        <g id="Balcony" transform="translate(0.000000, 34.578976)">
                            <rect id="Rectangle" fill="#76085C" x="0" y="22.9252877" width="76.4176257" height="3.82088128"></rect>
                            <line x1="1.11341162" y1="0.382088128" x2="75.3668288" y2="0.382088128" id="Line-20" stroke="#76085C" stroke-width="2.29252877" stroke-linecap="square"></line>
                            <line x1="1.14626439" y1="0.382088128" x2="1.14626439" y2="23.3073758" id="Line-21" stroke="#76085C" stroke-width="2.29252877" stroke-linecap="square"></line>
                            <line x1="75.2713613" y1="0.382088128" x2="75.2713613" y2="23.3073758" id="Line-21" stroke="#76085C" stroke-width="2.29252877" stroke-linecap="square"></line>
                            <line x1="38.590901" y1="1.91044064" x2="38.590901" y2="23.3073758" id="Line-22" stroke="#76085C" stroke-width="1.52835251" stroke-linecap="square"></line>
                            <line x1="19.8685827" y1="1.52835251" x2="19.8685827" y2="22.9252877" id="Line-22" stroke="#76085C" stroke-width="1.52835251" stroke-linecap="square"></line>
                            <line x1="10.6984676" y1="1.52835251" x2="10.6984676" y2="22.9252877" id="Line-22" stroke="#76085C" stroke-width="0.764176257" stroke-linecap="square"></line>
                            <line x1="6.11341005" y1="1.52835251" x2="6.11341005" y2="22.9252877" id="Line-22" stroke="#76085C" stroke-width="0.764176257" stroke-linecap="square"></line>
                            <line x1="15.2835251" y1="1.52835251" x2="15.2835251" y2="22.9252877" id="Line-22" stroke="#76085C" stroke-width="0.764176257" stroke-linecap="square"></line>
                            <line x1="29.0386978" y1="1.52835251" x2="29.0386978" y2="22.9252877" id="Line-22" stroke="#76085C" stroke-width="0.764176257" stroke-linecap="square"></line>
                            <line x1="33.6237553" y1="1.52835251" x2="33.6237553" y2="22.9252877" id="Line-22" stroke="#76085C" stroke-width="0.764176257" stroke-linecap="square"></line>
                            <line x1="24.4536402" y1="1.52835251" x2="24.4536402" y2="22.9252877" id="Line-22" stroke="#76085C" stroke-width="0.764176257" stroke-linecap="square"></line>
                            <line x1="48.1431042" y1="1.52835251" x2="48.1431042" y2="22.9252877" id="Line-22" stroke="#76085C" stroke-width="0.764176257" stroke-linecap="square"></line>
                            <line x1="51.9639855" y1="1.52835251" x2="51.9639855" y2="22.9252877" id="Line-22" stroke="#76085C" stroke-width="0.764176257" stroke-linecap="square"></line>
                            <line x1="43.5580466" y1="1.52835251" x2="43.5580466" y2="22.9252877" id="Line-22" stroke="#76085C" stroke-width="0.764176257" stroke-linecap="square"></line>
                            <line x1="65.7191581" y1="1.52835251" x2="65.7191581" y2="22.9252877" id="Line-22" stroke="#76085C" stroke-width="0.764176257" stroke-linecap="square"></line>
                            <line x1="70.3042156" y1="1.52835251" x2="70.3042156" y2="22.9252877" id="Line-22" stroke="#76085C" stroke-width="0.764176257" stroke-linecap="square"></line>
                            <line x1="61.1341005" y1="1.52835251" x2="61.1341005" y2="22.9252877" id="Line-22" stroke="#76085C" stroke-width="0.764176257" stroke-linecap="square"></line>
                            <line x1="56.549043" y1="1.52835251" x2="56.549043" y2="22.9252877" id="Line-22" stroke="#76085C" stroke-width="1.52835251" stroke-linecap="square"></line>
                        </g>
                    </g>
                    <g id="Light-purple-window" transform="translate(467.675869, 22.925288)">
                        <rect id="Rectangle" stroke="#FFFFFF" stroke-width="1.52835251" fill="#FFEDF5" x="0.764176257" y="0.955220321" width="74.8892732" height="59.605748"></rect>
                        <line x1="50.435633" y1="2.48357283" x2="50.435633" y2="59.7967921" id="Line-19" stroke="#FFFFFF" stroke-width="3.05670503" stroke-linecap="square"></line>
                        <line x1="38.3998569" y1="-23.689464" x2="38.781945" y2="46.9968398" id="Line-19" stroke="#FFFFFF" stroke-width="3.05670503" stroke-linecap="square" transform="translate(38.399857, 11.844732) rotate(-90.000000) translate(-38.399857, -11.844732) "></line>
                        <g id="Pot-tree" transform="translate(3.056705, 12.990996)">
                            <g id="Flower-pot" transform="translate(5.458402, 36.930145)">
                                <path d="M0.851102157,0.851102157 L11.064328,0.851102157 L9.40844135,7.88862061 C9.38130326,8.00395746 9.27838468,8.08547049 9.15989811,8.08547049 L2.75553209,8.08547049 C2.63704552,8.08547049 2.53412694,8.00395746 2.50698885,7.88862061 L0.851102157,0.851102157 L0.851102157,0.851102157 Z" id="Rectangle" fill="#D9833D"></path>
                                <rect id="Rectangle" fill="#EE964E" x="0" y="0" width="11.9154302" height="1.70220431" rx="0.340440863"></rect>
                            </g>
                            <line x1="11.4797014" y1="16.0306439" x2="11.4285288" y2="35.72524" id="Line-25" stroke="#650000" stroke-width="2.55180308" stroke-linecap="square"></line>
                            <path d="M9.75689328,0 C11.3388342,0 12.7531177,0.717826565 13.6917893,1.8455251 C14.2112041,1.66631866 14.7701486,1.56929053 15.3517552,1.56929053 C18.1779352,1.56929053 20.4690069,3.86036216 20.4690069,6.68654225 C20.4690069,6.69929092 20.4689603,6.71202871 20.4688672,6.72475545 C21.9038336,7.62997384 22.8570577,9.23030007 22.8570577,11.0532637 C22.8570577,13.8794438 20.565986,16.1705154 17.739806,16.1705154 C16.8292708,16.1705154 15.9742794,15.9327041 15.2335545,15.5158043 C14.2969885,16.6254364 12.8939157,17.3304258 11.3261838,17.3304258 C9.79444819,17.3304258 8.4198971,16.6574389 7.48208557,15.5910201 C6.77559786,15.9615249 5.97083097,16.1705154 5.11725172,16.1705154 C2.29107163,16.1705154 0,13.8794438 0,11.0532637 C0,8.36456615 2.07359011,6.1601815 4.70880521,5.9520749 C4.66282856,5.68047006 4.63964156,5.4015687 4.63964156,5.11725172 C4.63964156,2.29107163 6.93071319,0 9.75689328,0 Z" id="Combined-Shape" fill="#419D34"></path>
                            <circle id="Oval" fill="#F18500" cx="8.97224802" cy="13.8984557" r="1"></circle>
                            <circle id="Oval" fill="#FF9A00" cx="8.15348774" cy="7.27430507" r="1"></circle>
                            <circle id="Oval" fill="#F29200" cx="14.3624198" cy="11.7150949" r="1"></circle>
                            <circle id="Oval" fill="#FFBB53" cx="14.3624198" cy="6.18846308" r="1"></circle>
                            <circle id="Oval" fill="#F29200" cx="3.30915611" cy="12.1927051" r="1"></circle>
                            <circle id="Oval" fill="#F18500" cx="19.8208217" cy="12.6020852" r="1"></circle>
                            <path d="M8.51112029,13.33092 C8.6744107,13.33092 8.82224241,13.228575 8.95461544,13.0238849 C8.82224241,12.8191948 8.6744107,12.7168498 8.51112029,12.7168498 C8.34782989,12.7168498 8.19999817,12.8191948 8.06762514,13.0238849 C8.19999817,13.228575 8.34782989,13.33092 8.51112029,13.33092 Z" id="Oval" fill="#54D741" transform="translate(8.511120, 13.023885) rotate(23.000000) translate(-8.511120, -13.023885) "></path>
                            <path d="M9.26165055,13.33092 C9.42494095,13.33092 9.57277267,13.228575 9.70514569,13.0238849 C9.57277267,12.8191948 9.42494095,12.7168498 9.26165055,12.7168498 C9.09836014,12.7168498 8.95052842,12.8191948 8.8181554,13.0238849 C8.95052842,13.228575 9.09836014,13.33092 9.26165055,13.33092 Z" id="Oval" fill="#2F6B26" transform="translate(9.261651, 13.023885) scale(-1, 1) rotate(23.000000) translate(-9.261651, -13.023885) "></path>
                            <path d="M14.2259598,5.54027786 C14.3892502,5.54027786 14.5370819,5.43793283 14.6694549,5.23324276 C14.5370819,5.02855269 14.3892502,4.92620766 14.2259598,4.92620766 C14.0626694,4.92620766 13.9148377,5.02855269 13.7824646,5.23324276 C13.9148377,5.43793283 14.0626694,5.54027786 14.2259598,5.54027786 Z" id="Oval" fill="#75F064" transform="translate(14.225960, 5.233243) rotate(49.000000) translate(-14.225960, -5.233243) "></path>
                            <path d="M14.90826,5.67673791 C15.0715504,5.67673791 15.2193821,5.57439287 15.3517552,5.3697028 C15.2193821,5.16501274 15.0715504,5.0626677 14.90826,5.0626677 C14.7449696,5.0626677 14.5971379,5.16501274 14.4647649,5.3697028 C14.5971379,5.57439287 14.7449696,5.67673791 14.90826,5.67673791 Z" id="Oval" fill="#4CD239" transform="translate(14.908260, 5.369703) scale(-1, 1) rotate(23.000000) translate(-14.908260, -5.369703) "></path>
                            <path d="M2.62685588,11.6809799 C2.79014629,11.6809799 2.937978,11.5786349 3.07035103,11.3739448 C2.937978,11.1692548 2.79014629,11.0669097 2.62685588,11.0669097 C2.46356548,11.0669097 2.31573376,11.1692548 2.18336073,11.3739448 C2.31573376,11.5786349 2.46356548,11.6809799 2.62685588,11.6809799 Z" id="Oval" fill="#16560C"></path>
                            <path d="M14.3624198,11.5445199 C14.5257102,11.5445199 14.6735419,11.4421748 14.805915,11.2374848 C14.6735419,11.0327947 14.5257102,10.9304497 14.3624198,10.9304497 C14.1991294,10.9304497 14.0512977,11.0327947 13.9189247,11.2374848 C14.0512977,11.4421748 14.1991294,11.5445199 14.3624198,11.5445199 Z" id="Oval" fill="#16560C" transform="translate(14.362420, 11.237485) rotate(-128.000000) translate(-14.362420, -11.237485) "></path>
                            <path d="M13.8165796,11.5445199 C13.97987,11.5445199 14.1277018,11.4421748 14.2600748,11.2374848 C14.1277018,11.0327947 13.97987,10.9304497 13.8165796,10.9304497 C13.6532892,10.9304497 13.5054575,11.0327947 13.3730845,11.2374848 C13.5054575,11.4421748 13.6532892,11.5445199 13.8165796,11.5445199 Z" id="Oval" fill="#218014" transform="translate(13.816580, 11.237485) scale(-1, 1) rotate(-128.000000) translate(-13.816580, -11.237485) "></path>
                            <path d="M8.56286788,7.17196004 C8.72615828,7.17196004 8.87399,7.06961501 9.00636303,6.86492494 C8.87399,6.66023487 8.72615828,6.55788983 8.56286788,6.55788983 C8.39957747,6.55788983 8.25174576,6.66023487 8.11937273,6.86492494 C8.25174576,7.06961501 8.39957747,7.17196004 8.56286788,7.17196004 Z" id="Oval" fill="#238914" transform="translate(8.562868, 6.864925) rotate(-114.000000) translate(-8.562868, -6.864925) "></path>
                            <path d="M8.08525772,7.03549999 C8.24854812,7.03549999 8.39637984,6.93315496 8.52875287,6.72846489 C8.39637984,6.52377482 8.24854812,6.42142979 8.08525772,6.42142979 C7.92196731,6.42142979 7.7741356,6.52377482 7.64176257,6.72846489 C7.7741356,6.93315496 7.92196731,7.03549999 8.08525772,7.03549999 Z" id="Oval" fill="#39EA20" transform="translate(8.085258, 6.728465) scale(-1, 1) rotate(-145.000000) translate(-8.085258, -6.728465) "></path>
                            <path d="M3.30915611,11.4080598 C3.47244652,11.4080598 3.62027823,11.3057148 3.75265126,11.1010247 C3.62027823,10.8963347 3.47244652,10.7939896 3.30915611,10.7939896 C3.14586571,10.7939896 2.99803399,10.8963347 2.86566096,11.1010247 C2.99803399,11.3057148 3.14586571,11.4080598 3.30915611,11.4080598 Z" id="Oval" fill="#377F2D" transform="translate(3.309156, 11.101025) scale(-1, 1) rotate(49.000000) translate(-3.309156, -11.101025) "></path>
                            <path d="M19.4796715,12.0465481 C19.642962,12.0465481 19.7907937,11.944203 19.9231667,11.739513 C19.7907937,11.5348229 19.642962,11.4324779 19.4796715,11.4324779 C19.3163811,11.4324779 19.1685494,11.5348229 19.0361764,11.739513 C19.1685494,11.944203 19.3163811,12.0465481 19.4796715,12.0465481 Z" id="Oval" fill="#16560C"></path>
                            <path d="M19.9572817,12.4315102 C20.1205721,12.4315102 20.2684038,12.3291651 20.4007769,12.1244751 C20.2684038,11.919785 20.1205721,11.81744 19.9572817,11.81744 C19.7939913,11.81744 19.6461596,11.919785 19.5137866,12.1244751 C19.6461596,12.3291651 19.7939913,12.4315102 19.9572817,12.4315102 Z" id="Oval" fill="#377F2D" transform="translate(19.957282, 12.124475) scale(-1, 1) rotate(-73.000000) translate(-19.957282, -12.124475) "></path>
                        </g>
                        <g id="Balcony" transform="translate(0.000000, 34.578976)">
                            <rect id="Rectangle" fill="#76085C" x="0" y="22.9252877" width="76.4176257" height="3.82088128"></rect>
                            <line x1="1.11341162" y1="0.382088128" x2="75.3668288" y2="0.382088128" id="Line-20" stroke="#76085C" stroke-width="2.29252877" stroke-linecap="square"></line>
                            <line x1="1.14626439" y1="0.382088128" x2="1.14626439" y2="23.3073758" id="Line-21" stroke="#76085C" stroke-width="2.29252877" stroke-linecap="square"></line>
                            <line x1="75.2713613" y1="0.382088128" x2="75.2713613" y2="23.3073758" id="Line-21" stroke="#76085C" stroke-width="2.29252877" stroke-linecap="square"></line>
                            <line x1="38.590901" y1="1.91044064" x2="38.590901" y2="23.3073758" id="Line-22" stroke="#76085C" stroke-width="1.52835251" stroke-linecap="square"></line>
                            <line x1="19.8685827" y1="1.52835251" x2="19.8685827" y2="22.9252877" id="Line-22" stroke="#76085C" stroke-width="1.52835251" stroke-linecap="square"></line>
                            <line x1="10.6984676" y1="1.52835251" x2="10.6984676" y2="22.9252877" id="Line-22" stroke="#76085C" stroke-width="0.764176257" stroke-linecap="square"></line>
                            <line x1="6.11341005" y1="1.52835251" x2="6.11341005" y2="22.9252877" id="Line-22" stroke="#76085C" stroke-width="0.764176257" stroke-linecap="square"></line>
                            <line x1="15.2835251" y1="1.52835251" x2="15.2835251" y2="22.9252877" id="Line-22" stroke="#76085C" stroke-width="0.764176257" stroke-linecap="square"></line>
                            <line x1="29.0386978" y1="1.52835251" x2="29.0386978" y2="22.9252877" id="Line-22" stroke="#76085C" stroke-width="0.764176257" stroke-linecap="square"></line>
                            <line x1="33.6237553" y1="1.52835251" x2="33.6237553" y2="22.9252877" id="Line-22" stroke="#76085C" stroke-width="0.764176257" stroke-linecap="square"></line>
                            <line x1="24.4536402" y1="1.52835251" x2="24.4536402" y2="22.9252877" id="Line-22" stroke="#76085C" stroke-width="0.764176257" stroke-linecap="square"></line>
                            <line x1="48.1431042" y1="1.52835251" x2="48.1431042" y2="22.9252877" id="Line-22" stroke="#76085C" stroke-width="0.764176257" stroke-linecap="square"></line>
                            <line x1="51.9639855" y1="1.52835251" x2="51.9639855" y2="22.9252877" id="Line-22" stroke="#76085C" stroke-width="0.764176257" stroke-linecap="square"></line>
                            <line x1="43.5580466" y1="1.52835251" x2="43.5580466" y2="22.9252877" id="Line-22" stroke="#76085C" stroke-width="0.764176257" stroke-linecap="square"></line>
                            <line x1="65.7191581" y1="1.52835251" x2="65.7191581" y2="22.9252877" id="Line-22" stroke="#76085C" stroke-width="0.764176257" stroke-linecap="square"></line>
                            <line x1="70.3042156" y1="1.52835251" x2="70.3042156" y2="22.9252877" id="Line-22" stroke="#76085C" stroke-width="0.764176257" stroke-linecap="square"></line>
                            <line x1="61.1341005" y1="1.52835251" x2="61.1341005" y2="22.9252877" id="Line-22" stroke="#76085C" stroke-width="0.764176257" stroke-linecap="square"></line>
                            <line x1="56.549043" y1="1.52835251" x2="56.549043" y2="22.9252877" id="Line-22" stroke="#76085C" stroke-width="1.52835251" stroke-linecap="square"></line>
                        </g>
                    </g>
                    <g id="Light-purple-window" transform="translate(36.680460, 22.925288)">
                        <rect id="Rectangle" stroke="#FFFFFF" stroke-width="1.52835251" fill="#FFEDF5" x="0.764176257" y="0.955220321" width="74.8892732" height="59.605748"></rect>
                        <line x1="50.435633" y1="2.48357283" x2="50.435633" y2="59.7967921" id="Line-19" stroke="#FFFFFF" stroke-width="3.05670503" stroke-linecap="square"></line>
                        <line x1="38.3998569" y1="-23.689464" x2="38.781945" y2="46.9968398" id="Line-19" stroke="#FFFFFF" stroke-width="3.05670503" stroke-linecap="square" transform="translate(38.399857, 11.844732) rotate(-90.000000) translate(-38.399857, -11.844732) "></line>
                        <g id="Balcony" transform="translate(0.000000, 34.578976)">
                            <rect id="Rectangle" fill="#76085C" x="0" y="22.9252877" width="76.4176257" height="3.82088128"></rect>
                            <line x1="1.11341162" y1="0.382088128" x2="75.3668288" y2="0.382088128" id="Line-20" stroke="#76085C" stroke-width="2.29252877" stroke-linecap="square"></line>
                            <line x1="1.14626439" y1="0.382088128" x2="1.14626439" y2="23.3073758" id="Line-21" stroke="#76085C" stroke-width="2.29252877" stroke-linecap="square"></line>
                            <line x1="75.2713613" y1="0.382088128" x2="75.2713613" y2="23.3073758" id="Line-21" stroke="#76085C" stroke-width="2.29252877" stroke-linecap="square"></line>
                            <line x1="38.590901" y1="1.91044064" x2="38.590901" y2="23.3073758" id="Line-22" stroke="#76085C" stroke-width="1.52835251" stroke-linecap="square"></line>
                            <line x1="19.8685827" y1="1.52835251" x2="19.8685827" y2="22.9252877" id="Line-22" stroke="#76085C" stroke-width="1.52835251" stroke-linecap="square"></line>
                            <line x1="10.6984676" y1="1.52835251" x2="10.6984676" y2="22.9252877" id="Line-22" stroke="#76085C" stroke-width="0.764176257" stroke-linecap="square"></line>
                            <line x1="6.11341005" y1="1.52835251" x2="6.11341005" y2="22.9252877" id="Line-22" stroke="#76085C" stroke-width="0.764176257" stroke-linecap="square"></line>
                            <line x1="15.2835251" y1="1.52835251" x2="15.2835251" y2="22.9252877" id="Line-22" stroke="#76085C" stroke-width="0.764176257" stroke-linecap="square"></line>
                            <line x1="29.0386978" y1="1.52835251" x2="29.0386978" y2="22.9252877" id="Line-22" stroke="#76085C" stroke-width="0.764176257" stroke-linecap="square"></line>
                            <line x1="33.6237553" y1="1.52835251" x2="33.6237553" y2="22.9252877" id="Line-22" stroke="#76085C" stroke-width="0.764176257" stroke-linecap="square"></line>
                            <line x1="24.4536402" y1="1.52835251" x2="24.4536402" y2="22.9252877" id="Line-22" stroke="#76085C" stroke-width="0.764176257" stroke-linecap="square"></line>
                            <line x1="48.1431042" y1="1.52835251" x2="48.1431042" y2="22.9252877" id="Line-22" stroke="#76085C" stroke-width="0.764176257" stroke-linecap="square"></line>
                            <line x1="51.9639855" y1="1.52835251" x2="51.9639855" y2="22.9252877" id="Line-22" stroke="#76085C" stroke-width="0.764176257" stroke-linecap="square"></line>
                            <line x1="43.5580466" y1="1.52835251" x2="43.5580466" y2="22.9252877" id="Line-22" stroke="#76085C" stroke-width="0.764176257" stroke-linecap="square"></line>
                            <line x1="65.7191581" y1="1.52835251" x2="65.7191581" y2="22.9252877" id="Line-22" stroke="#76085C" stroke-width="0.764176257" stroke-linecap="square"></line>
                            <line x1="70.3042156" y1="1.52835251" x2="70.3042156" y2="22.9252877" id="Line-22" stroke="#76085C" stroke-width="0.764176257" stroke-linecap="square"></line>
                            <line x1="61.1341005" y1="1.52835251" x2="61.1341005" y2="22.9252877" id="Line-22" stroke="#76085C" stroke-width="0.764176257" stroke-linecap="square"></line>
                            <line x1="56.549043" y1="1.52835251" x2="56.549043" y2="22.9252877" id="Line-22" stroke="#76085C" stroke-width="1.52835251" stroke-linecap="square"></line>
                        </g>
                    </g>
                    <g id="Balcony-flowers" transform="translate(377.503071, 42.029694)">
                        <path d="M3.50117161,10.5458782 C4.05754076,10.5458782 3.9521162,10.3993364 3.9521162,9.46607203 C3.9521162,9.01852562 3.49121043,8.31484826 2.24668225,7.87854748 C1.98224323,7.7858417 1.72069899,7.55639383 1.46204952,7.19020387 C1.3140904,7.75116181 1.34104391,8.33907586 1.54291004,8.95394601 C1.84570924,9.87625124 2.94480246,10.5458782 3.50117161,10.5458782 Z" id="Oval" fill="#156C0A"></path>
                        <path d="M5.6243822,8.30756118 C6.03744094,8.39185535 5.92260137,8.48437139 5.92260137,7.55110701 C5.92260137,7.10356059 5.51655544,6.69343592 4.84708704,6.58055119 C4.57316709,6.53436322 4.28191359,6.39022794 3.97332655,6.14814534 C3.99461377,6.58460074 4.06465582,6.97651916 4.1834527,7.32390061 C4.36164802,7.84497279 5.21132346,8.22326701 5.6243822,8.30756118 Z" id="Oval" fill="#1DA10C" transform="translate(4.955296, 7.252955) scale(-1, 1) translate(-4.955296, -7.252955) "></path>
                        <line x1="3.92122362" y1="4.42874876" x2="3.92122362" y2="15.3703633" id="Line-23" stroke="#1D8B0F" stroke-width="0.529642487" stroke-linecap="square"></line>
                        <path d="M3.65541024,2.72071027 L4.18532493,2.72071027 C4.3114415,1.86178295 4.37449979,1.39396903 4.37449979,1.31726851 C4.37449979,1.20221774 4.3278872,0.937852679 3.90722065,0.937852679 C3.48655409,0.937852679 3.48655409,1.16777654 3.45590006,1.31726851 C3.43546404,1.41692983 3.50196743,1.88474375 3.65541024,2.72071027 Z" id="Path-20" fill="#130887"></path>
                        <path d="M5.21849804,3.5543571 L5.74841273,3.5543571 C5.8745293,2.69542977 5.93758759,2.22761585 5.93758759,2.15091534 C5.93758759,2.03586456 5.890975,1.7714995 5.47030844,1.7714995 C5.04964189,1.7714995 5.04964189,2.00142337 5.01898786,2.15091534 C4.99855184,2.25057665 5.06505523,2.71839057 5.21849804,3.5543571 Z" id="Path-20" fill="#0F0766" transform="translate(5.476486, 2.662928) rotate(56.000000) translate(-5.476486, -2.662928) "></path>
                        <path d="M4.59326292,2.92912198 L5.12317761,2.92912198 C5.24929418,2.07019465 5.31235247,1.60238074 5.31235247,1.52568022 C5.31235247,1.41062945 5.26573988,1.14626439 4.84507333,1.14626439 C4.42440677,1.14626439 4.42440677,1.37618825 4.39375274,1.52568022 C4.37331672,1.62534153 4.43982011,2.09315545 4.59326292,2.92912198 Z" id="Path-20" fill="#1E11A9" transform="translate(4.851251, 2.037693) rotate(30.000000) translate(-4.851251, -2.037693) "></path>
                        <path d="M5.5311156,4.49220977 L6.06103029,4.49220977 C6.18714686,3.63328245 6.25020515,3.16546853 6.25020515,3.08876802 C6.25020515,2.97371724 6.20359256,2.70935218 5.782926,2.70935218 C5.36225945,2.70935218 5.36225945,2.93927605 5.33160542,3.08876802 C5.3111694,3.18842933 5.37767279,3.65624325 5.5311156,4.49220977 Z" id="Path-20" fill="#130887" transform="translate(5.789104, 3.600781) rotate(90.000000) translate(-5.789104, -3.600781) "></path>
                        <path d="M4.59326292,6.05529757 L5.12317761,6.05529757 C5.24929418,5.19637025 5.31235247,4.72855633 5.31235247,4.65185582 C5.31235247,4.53680504 5.26573988,4.27243998 4.84507333,4.27243998 C4.42440677,4.27243998 4.42440677,4.50236384 4.39375274,4.65185582 C4.37331672,4.75151713 4.43982011,5.21933105 4.59326292,6.05529757 Z" id="Path-20" fill="#0F0766" transform="translate(4.851251, 5.163869) rotate(146.000000) translate(-4.851251, -5.163869) "></path>
                        <path d="M5.3227039,5.43006245 L5.85261858,5.43006245 C5.97873516,4.57113513 6.04179344,4.10332121 6.04179344,4.0266207 C6.04179344,3.91156992 5.99518085,3.64720486 5.5745143,3.64720486 C5.15384774,3.64720486 5.15384774,3.87712873 5.12319371,4.0266207 C5.10275769,4.12628201 5.16926109,4.59409593 5.3227039,5.43006245 Z" id="Path-20" fill="#1E11A9" transform="translate(5.580692, 4.538634) rotate(120.000000) translate(-5.580692, -4.538634) "></path>
                        <path d="M1.88391074,4.49220977 L2.41382542,4.49220977 C2.539942,3.63328245 2.60300029,3.16546853 2.60300029,3.08876802 C2.60300029,2.97371724 2.5563877,2.70935218 2.13572114,2.70935218 C1.71505459,2.70935218 1.71505459,2.93927605 1.68440056,3.08876802 C1.66396453,3.18842933 1.73046793,3.65624325 1.88391074,4.49220977 Z" id="Path-20" fill="#130887" transform="translate(2.141899, 3.600781) scale(-1, 1) rotate(90.000000) translate(-2.141899, -3.600781) "></path>
                        <path d="M2.09232245,3.5543571 L2.62223713,3.5543571 C2.74835371,2.69542977 2.81141199,2.22761585 2.81141199,2.15091534 C2.81141199,2.03586456 2.7647994,1.7714995 2.34413285,1.7714995 C1.92346629,1.7714995 1.92346629,2.00142337 1.89281226,2.15091534 C1.87237624,2.25057665 1.93887964,2.71839057 2.09232245,3.5543571 Z" id="Path-20" fill="#1E11A9" transform="translate(2.350311, 2.662928) scale(-1, 1) rotate(60.000000) translate(-2.350311, -2.662928) "></path>
                        <path d="M2.71755757,2.92912198 L3.24747225,2.92912198 C3.37358883,2.07019465 3.43664711,1.60238074 3.43664711,1.52568022 C3.43664711,1.41062945 3.39003452,1.14626439 2.96936797,1.14626439 C2.54870141,1.14626439 2.54870141,1.37618825 2.51804738,1.52568022 C2.49761136,1.62534153 2.56411476,2.09315545 2.71755757,2.92912198 Z" id="Path-20" fill="#0F0766" transform="translate(2.975546, 2.037693) scale(-1, 1) rotate(30.000000) translate(-2.975546, -2.037693) "></path>
                        <path d="M3.65541024,6.36791513 L4.18532493,6.36791513 C4.3114415,5.50898781 4.37449979,5.04117389 4.37449979,4.96447338 C4.37449979,4.8494226 4.3278872,4.58505754 3.90722065,4.58505754 C3.48655409,4.58505754 3.48655409,4.8149814 3.45590006,4.96447338 C3.43546404,5.06413469 3.50196743,5.53194861 3.65541024,6.36791513 Z" id="Path-20" fill="#130887" transform="translate(3.913399, 5.476486) scale(1, -1) translate(-3.913399, -5.476486) "></path>
                        <path d="M2.09232245,5.43006245 L2.62223713,5.43006245 C2.74835371,4.57113513 2.81141199,4.10332121 2.81141199,4.0266207 C2.81141199,3.91156992 2.7647994,3.64720486 2.34413285,3.64720486 C1.92346629,3.64720486 1.92346629,3.87712873 1.89281226,4.0266207 C1.87237624,4.12628201 1.93887964,4.59409593 2.09232245,5.43006245 Z" id="Path-20" fill="#0F0766" transform="translate(2.350311, 4.538634) scale(1, -1) rotate(-56.000000) translate(-2.350311, -4.538634) "></path>
                        <path d="M2.71755757,6.05529757 L3.24747225,6.05529757 C3.37358883,5.19637025 3.43664711,4.72855633 3.43664711,4.65185582 C3.43664711,4.53680504 3.39003452,4.27243998 2.96936797,4.27243998 C2.54870141,4.27243998 2.54870141,4.50236384 2.51804738,4.65185582 C2.49761136,4.75151713 2.56411476,5.21933105 2.71755757,6.05529757 Z" id="Path-20" fill="#1E11A9" transform="translate(2.975546, 5.163869) scale(1, -1) rotate(-30.000000) translate(-2.975546, -5.163869) "></path>
                        <circle id="Oval" fill="#FFE36E" cx="3.97332655" cy="3.64720486" r="1.04205853"></circle>
                        <path d="M11.003993,12.9426128 C11.5603622,12.9426128 11.4549376,12.796071 11.4549376,11.8628067 C11.4549376,11.4152602 10.9940319,10.7115829 9.74950368,10.2752821 C9.48506466,10.1825763 9.22352042,9.95312846 8.96487095,9.5869385 C8.81691183,10.1478964 8.84386534,10.7358105 9.04573147,11.3506806 C9.34853067,12.2729859 10.4476239,12.9426128 11.003993,12.9426128 Z" id="Oval" fill="#156C0A"></path>
                        <path d="M13.1272036,10.7042958 C13.5402624,10.78859 13.4254228,10.881106 13.4254228,9.94784163 C13.4254228,9.50029522 13.0193769,9.09017055 12.3499085,8.97728581 C12.0759885,8.93109785 11.784735,8.78696256 11.476148,8.54487996 C11.4974352,8.98133536 11.5674773,9.37325379 11.6862741,9.72063524 C11.8644695,10.2417074 12.7141449,10.6200016 13.1272036,10.7042958 Z" id="Oval" fill="#1DA10C" transform="translate(12.458118, 9.649690) scale(-1, 1) translate(-12.458118, -9.649690) "></path>
                        <line x1="11.4240451" y1="6.82548339" x2="11.4240451" y2="17.767098" id="Line-23" stroke="#1D8B0F" stroke-width="0.529642487" stroke-linecap="square"></line>
                        <path d="M11.1582317,5.11744489 L11.6881464,5.11744489 C11.8142629,4.25851757 11.8773212,3.79070365 11.8773212,3.71400314 C11.8773212,3.59895236 11.8307086,3.3345873 11.4100421,3.3345873 C10.9893755,3.3345873 10.9893755,3.56451117 10.9587215,3.71400314 C10.9382855,3.81366445 11.0047889,4.28147837 11.1582317,5.11744489 Z" id="Path-20" fill="#2110E1"></path>
                        <path d="M12.7213195,5.95109172 L13.2512342,5.95109172 C13.3773507,5.0921644 13.440409,4.62435048 13.440409,4.54764996 C13.440409,4.43259919 13.3937964,4.16823413 12.9731299,4.16823413 C12.5524633,4.16823413 12.5524633,4.39815799 12.5218093,4.54764996 C12.5013733,4.64731128 12.5678767,5.1151252 12.7213195,5.95109172 Z" id="Path-20" fill="#0F0766" transform="translate(12.979308, 5.059663) rotate(56.000000) translate(-12.979308, -5.059663) "></path>
                        <path d="M12.0960844,5.3258566 L12.625999,5.3258566 C12.7521156,4.46692928 12.8151739,3.99911536 12.8151739,3.92241484 C12.8151739,3.80736407 12.7685613,3.54299901 12.3478948,3.54299901 C11.9272282,3.54299901 11.9272282,3.77292287 11.8965742,3.92241484 C11.8761381,4.02207616 11.9426415,4.48989008 12.0960844,5.3258566 Z" id="Path-20" fill="#1E11A9" transform="translate(12.354073, 4.434428) rotate(30.000000) translate(-12.354073, -4.434428) "></path>
                        <path d="M13.033937,6.8889444 L13.5638517,6.8889444 C13.6899683,6.03001708 13.7530266,5.56220316 13.7530266,5.48550264 C13.7530266,5.37045187 13.706414,5.10608681 13.2857474,5.10608681 C12.8650809,5.10608681 12.8650809,5.33601067 12.8344268,5.48550264 C12.8139908,5.58516396 12.8804942,6.05297787 13.033937,6.8889444 Z" id="Path-20" fill="#2110E1" transform="translate(13.291925, 5.997516) rotate(90.000000) translate(-13.291925, -5.997516) "></path>
                        <path d="M12.0960844,8.4520322 L12.625999,8.4520322 C12.7521156,7.59310487 12.8151739,7.12529096 12.8151739,7.04859044 C12.8151739,6.93353967 12.7685613,6.66917461 12.3478948,6.66917461 C11.9272282,6.66917461 11.9272282,6.89909847 11.8965742,7.04859044 C11.8761381,7.14825175 11.9426415,7.61606567 12.0960844,8.4520322 Z" id="Path-20" fill="#0F0766" transform="translate(12.354073, 7.560603) rotate(146.000000) translate(-12.354073, -7.560603) "></path>
                        <path d="M12.8255253,7.82679708 L13.35544,7.82679708 C13.4815566,6.96786975 13.5446149,6.50005584 13.5446149,6.42335532 C13.5446149,6.30830455 13.4980023,6.04393949 13.0773357,6.04393949 C12.6566692,6.04393949 12.6566692,6.27386335 12.6260151,6.42335532 C12.6055791,6.52301663 12.6720825,6.99083055 12.8255253,7.82679708 Z" id="Path-20" fill="#1E11A9" transform="translate(13.083514, 6.935368) rotate(120.000000) translate(-13.083514, -6.935368) "></path>
                        <path d="M9.38673217,6.8889444 L9.91664686,6.8889444 C10.0427634,6.03001708 10.1058217,5.56220316 10.1058217,5.48550264 C10.1058217,5.37045187 10.0592091,5.10608681 9.63854257,5.10608681 C9.21787602,5.10608681 9.21787602,5.33601067 9.18722199,5.48550264 C9.16678597,5.58516396 9.23328936,6.05297787 9.38673217,6.8889444 Z" id="Path-20" fill="#2110E1" transform="translate(9.644720, 5.997516) scale(-1, 1) rotate(90.000000) translate(-9.644720, -5.997516) "></path>
                        <path d="M9.59514388,5.95109172 L10.1250586,5.95109172 C10.2511751,5.0921644 10.3142334,4.62435048 10.3142334,4.54764996 C10.3142334,4.43259919 10.2676208,4.16823413 9.84695428,4.16823413 C9.42628773,4.16823413 9.42628773,4.39815799 9.39563369,4.54764996 C9.37519767,4.64731128 9.44170107,5.1151252 9.59514388,5.95109172 Z" id="Path-20" fill="#1E11A9" transform="translate(9.853132, 5.059663) scale(-1, 1) rotate(60.000000) translate(-9.853132, -5.059663) "></path>
                        <path d="M10.220379,5.3258566 L10.7502937,5.3258566 C10.8764103,4.46692928 10.9394685,3.99911536 10.9394685,3.92241484 C10.9394685,3.80736407 10.892856,3.54299901 10.4721894,3.54299901 C10.0515228,3.54299901 10.0515228,3.77292287 10.0208688,3.92241484 C10.0004328,4.02207616 10.0669362,4.48989008 10.220379,5.3258566 Z" id="Path-20" fill="#0F0766" transform="translate(10.478367, 4.434428) scale(-1, 1) rotate(30.000000) translate(-10.478367, -4.434428) "></path>
                        <path d="M11.1582317,8.76464976 L11.6881464,8.76464976 C11.8142629,7.90572243 11.8773212,7.43790851 11.8773212,7.361208 C11.8773212,7.24615723 11.8307086,6.98179216 11.4100421,6.98179216 C10.9893755,6.98179216 10.9893755,7.21171603 10.9587215,7.361208 C10.9382855,7.46086931 11.0047889,7.92868323 11.1582317,8.76464976 Z" id="Path-20" fill="#2110E1" transform="translate(11.416220, 7.873221) scale(1, -1) translate(-11.416220, -7.873221) "></path>
                        <path d="M9.59514388,7.82679708 L10.1250586,7.82679708 C10.2511751,6.96786975 10.3142334,6.50005584 10.3142334,6.42335532 C10.3142334,6.30830455 10.2676208,6.04393949 9.84695428,6.04393949 C9.42628773,6.04393949 9.42628773,6.27386335 9.39563369,6.42335532 C9.37519767,6.52301663 9.44170107,6.99083055 9.59514388,7.82679708 Z" id="Path-20" fill="#0F0766" transform="translate(9.853132, 6.935368) scale(1, -1) rotate(-56.000000) translate(-9.853132, -6.935368) "></path>
                        <path d="M10.220379,8.4520322 L10.7502937,8.4520322 C10.8764103,7.59310487 10.9394685,7.12529096 10.9394685,7.04859044 C10.9394685,6.93353967 10.892856,6.66917461 10.4721894,6.66917461 C10.0515228,6.66917461 10.0515228,6.89909847 10.0208688,7.04859044 C10.0004328,7.14825175 10.0669362,7.61606567 10.220379,8.4520322 Z" id="Path-20" fill="#1E11A9" transform="translate(10.478367, 7.560603) scale(1, -1) rotate(-30.000000) translate(-10.478367, -7.560603) "></path>
                        <circle id="Oval" fill="#FF9A59" cx="11.476148" cy="6.04393949" r="1.04205853"></circle>
                        <path d="M18.5068145,9.60802548 C19.0631836,9.60802548 18.9577591,9.46148373 18.9577591,8.52821935 C18.9577591,8.08067294 18.4968533,7.37699558 17.2523251,6.9406948 C16.9878861,6.84798902 16.7263419,6.61854115 16.4676924,6.25235119 C16.3197333,6.81330913 16.3466868,7.40122318 16.5485529,8.01609333 C16.8513521,8.93839856 17.9504453,9.60802548 18.5068145,9.60802548 Z" id="Oval" fill="#156C0A"></path>
                        <path d="M20.6300251,7.3697085 C21.0430838,7.45400267 20.9282442,7.54651871 20.9282442,6.61325433 C20.9282442,6.16570791 20.5221983,5.75558324 19.8527299,5.64269851 C19.5788099,5.59651054 19.2875565,5.45237526 18.9789694,5.21029266 C19.0002566,5.64674806 19.0702987,6.03866648 19.1890956,6.38604793 C19.3672909,6.90712011 20.2169663,7.28541433 20.6300251,7.3697085 Z" id="Oval" fill="#1DA10C" transform="translate(19.960939, 6.315102) scale(-1, 1) translate(-19.960939, -6.315102) "></path>
                        <line x1="18.9268665" y1="3.49089608" x2="18.9268665" y2="14.4325107" id="Line-23" stroke="#1D8B0F" stroke-width="0.529642487" stroke-linecap="square"></line>
                        <path d="M18.6610531,1.78285759 L19.1909678,1.78285759 C19.3170844,0.923930269 19.3801427,0.45611635 19.3801427,0.379415834 C19.3801427,0.26436506 19.3335301,3.73034936e-14 18.9128635,3.73034936e-14 C18.492197,3.73034936e-14 18.492197,0.229923863 18.4615429,0.379415834 C18.4411069,0.479077148 18.5076103,0.946891067 18.6610531,1.78285759 Z" id="Path-20" fill="#1187A8"></path>
                        <path d="M20.2241409,2.61650442 L20.7540556,2.61650442 C20.8801722,1.75757709 20.9432305,1.28976318 20.9432305,1.21306266 C20.9432305,1.09801189 20.8966179,0.833646826 20.4759513,0.833646826 C20.0552848,0.833646826 20.0552848,1.06357069 20.0246307,1.21306266 C20.0041947,1.31272397 20.0706981,1.78053789 20.2241409,2.61650442 Z" id="Path-20" fill="#1CB5E0" transform="translate(20.482129, 1.725076) rotate(56.000000) translate(-20.482129, -1.725076) "></path>
                        <path d="M19.5989058,1.9912693 L20.1288205,1.9912693 C20.254937,1.13234198 20.3179953,0.664528056 20.3179953,0.58782754 C20.3179953,0.472776767 20.2713827,0.208411706 19.8507162,0.208411706 C19.4300496,0.208411706 19.4300496,0.43833557 19.3993956,0.58782754 C19.3789596,0.687488854 19.445463,1.15530277 19.5989058,1.9912693 Z" id="Path-20" fill="#095368" transform="translate(19.856894, 1.099841) rotate(30.000000) translate(-19.856894, -1.099841) "></path>
                        <path d="M20.5367585,3.5543571 L21.0666731,3.5543571 C21.1927897,2.69542977 21.255848,2.22761585 21.255848,2.15091534 C21.255848,2.03586456 21.2092354,1.7714995 20.7885689,1.7714995 C20.3679023,1.7714995 20.3679023,2.00142337 20.3372483,2.15091534 C20.3168123,2.25057665 20.3833157,2.71839057 20.5367585,3.5543571 Z" id="Path-20" fill="#1187A8" transform="translate(20.794747, 2.662928) rotate(90.000000) translate(-20.794747, -2.662928) "></path>
                        <path d="M19.5989058,5.11744489 L20.1288205,5.11744489 C20.254937,4.25851757 20.3179953,3.79070365 20.3179953,3.71400314 C20.3179953,3.59895236 20.2713827,3.3345873 19.8507162,3.3345873 C19.4300496,3.3345873 19.4300496,3.56451117 19.3993956,3.71400314 C19.3789596,3.81366445 19.445463,4.28147837 19.5989058,5.11744489 Z" id="Path-20" fill="#1CB5E0" transform="translate(19.856894, 4.226016) rotate(146.000000) translate(-19.856894, -4.226016) "></path>
                        <path d="M20.3283468,4.49220977 L20.8582614,4.49220977 C20.984378,3.63328245 21.0474363,3.16546853 21.0474363,3.08876802 C21.0474363,2.97371724 21.0008237,2.70935218 20.5801572,2.70935218 C20.1594906,2.70935218 20.1594906,2.93927605 20.1288366,3.08876802 C20.1084006,3.18842933 20.1749039,3.65624325 20.3283468,4.49220977 Z" id="Path-20" fill="#095368" transform="translate(20.586335, 3.600781) rotate(120.000000) translate(-20.586335, -3.600781) "></path>
                        <path d="M16.8895536,3.5543571 L17.4194683,3.5543571 C17.5455849,2.69542977 17.6086431,2.22761585 17.6086431,2.15091534 C17.6086431,2.03586456 17.5620306,1.7714995 17.141364,1.7714995 C16.7206975,1.7714995 16.7206975,2.00142337 16.6900434,2.15091534 C16.6696074,2.25057665 16.7361108,2.71839057 16.8895536,3.5543571 Z" id="Path-20" fill="#1187A8" transform="translate(17.147542, 2.662928) scale(-1, 1) rotate(90.000000) translate(-17.147542, -2.662928) "></path>
                        <path d="M17.0979653,2.61650442 L17.62788,2.61650442 C17.7539966,1.75757709 17.8170549,1.28976318 17.8170549,1.21306266 C17.8170549,1.09801189 17.7704423,0.833646826 17.3497757,0.833646826 C16.9291092,0.833646826 16.9291092,1.06357069 16.8984551,1.21306266 C16.8780191,1.31272397 16.9445225,1.78053789 17.0979653,2.61650442 Z" id="Path-20" fill="#095368" transform="translate(17.355954, 1.725076) scale(-1, 1) rotate(60.000000) translate(-17.355954, -1.725076) "></path>
                        <path d="M17.7232004,1.9912693 L18.2531151,1.9912693 C18.3792317,1.13234198 18.44229,0.664528056 18.44229,0.58782754 C18.44229,0.472776767 18.3956774,0.208411706 17.9750108,0.208411706 C17.5543443,0.208411706 17.5543443,0.43833557 17.5236902,0.58782754 C17.5032542,0.687488854 17.5697576,1.15530277 17.7232004,1.9912693 Z" id="Path-20" fill="#1CB5E0" transform="translate(17.981189, 1.099841) scale(-1, 1) rotate(30.000000) translate(-17.981189, -1.099841) "></path>
                        <path d="M18.6610531,5.43006245 L19.1909678,5.43006245 C19.3170844,4.57113513 19.3801427,4.10332121 19.3801427,4.0266207 C19.3801427,3.91156992 19.3335301,3.64720486 18.9128635,3.64720486 C18.492197,3.64720486 18.492197,3.87712873 18.4615429,4.0266207 C18.4411069,4.12628201 18.5076103,4.59409593 18.6610531,5.43006245 Z" id="Path-20" fill="#1187A8" transform="translate(18.919041, 4.538634) scale(1, -1) translate(-18.919041, -4.538634) "></path>
                        <path d="M17.0979653,4.49220977 L17.62788,4.49220977 C17.7539966,3.63328245 17.8170549,3.16546853 17.8170549,3.08876802 C17.8170549,2.97371724 17.7704423,2.70935218 17.3497757,2.70935218 C16.9291092,2.70935218 16.9291092,2.93927605 16.8984551,3.08876802 C16.8780191,3.18842933 16.9445225,3.65624325 17.0979653,4.49220977 Z" id="Path-20" fill="#1CB5E0" transform="translate(17.355954, 3.600781) scale(1, -1) rotate(-56.000000) translate(-17.355954, -3.600781) "></path>
                        <path d="M17.7232004,5.11744489 L18.2531151,5.11744489 C18.3792317,4.25851757 18.44229,3.79070365 18.44229,3.71400314 C18.44229,3.59895236 18.3956774,3.3345873 17.9750108,3.3345873 C17.5543443,3.3345873 17.5543443,3.56451117 17.5236902,3.71400314 C17.5032542,3.81366445 17.5697576,4.28147837 17.7232004,5.11744489 Z" id="Path-20" fill="#095368" transform="translate(17.981189, 4.226016) scale(1, -1) rotate(-30.000000) translate(-17.981189, -4.226016) "></path>
                        <circle id="Oval" fill="#FFE89E" cx="18.9789694" cy="2.70935218" r="1.04205853"></circle>
                        <path d="M1.29283804,14.2762019 L21.6324497,14.2762019 C21.7475523,14.2762019 21.8408614,14.369511 21.8408614,14.4846136 C21.8408614,14.497406 21.8396836,14.5101712 21.8373429,14.5227476 L20.8728622,19.7048766 C20.8544923,19.8035775 20.7683648,19.8751542 20.6679689,19.8751542 L2.25731877,19.8751542 C2.15692295,19.8751542 2.07079543,19.8035775 2.05242555,19.7048766 L1.08794481,14.5227476 C1.06688396,14.4095882 1.14154459,14.3007812 1.25470399,14.2797204 C1.26728042,14.2773797 1.28004564,14.2762019 1.29283804,14.2762019 Z" id="Rectangle" fill="#D9833D"></path>
                        <rect id="Rectangle" fill="#EE964E" x="0" y="13.6509668" width="22.9252877" height="1.29986511" rx="0.259973023"></rect>
                    </g>
                    <g id="Balcony-aloe" transform="translate(85.587741, 48.907280)">
                        <g id="Aloe">
                            <path d="M4.07726942,7.86472956 C4.37532231,7.86472956 4.59535502,6.9892021 4.59535502,4.98628667 C4.59535502,3.65100973 4.74856321,2.28242622 5.05497957,0.880536152 C4.80915414,1.30798621 4.51547628,2.09914048 4.173946,3.25399896 C3.66165059,4.98628667 3.77921653,7.86472956 4.07726942,7.86472956 Z" id="Oval" fill="#16B315"></path>
                            <path d="M4.33286211,7.8448556 C4.630915,7.8448556 5.29455463,6.6469716 5.29455463,4.64405618 C5.29455463,3.30877923 5.55566028,1.97394596 6.07787157,0.639556352 C5.43105748,1.48048324 4.9368853,2.47837593 4.59535502,3.6332344 C4.08305961,5.36552212 4.03480922,7.8448556 4.33286211,7.8448556 Z" id="Oval" fill="#139B12"></path>
                            <path d="M1.42706834,7.97961385 C1.72512123,7.97961385 2.37697597,7.67866692 2.37697597,5.67575149 C2.37697597,4.34047455 2.68927573,2.87169922 3.31387524,1.26942552 C2.60335875,2.18337193 2.07733537,3.21777438 1.73580509,4.37263285 C1.22350968,6.10492057 1.12901545,7.97961385 1.42706834,7.97961385 Z" id="Oval" fill="#139B12" transform="translate(2.286286, 4.624520) scale(-1, 1) translate(-2.286286, -4.624520) "></path>
                            <path d="M3.59890752,7.8448556 C3.89696041,7.8448556 4.11699311,6.96932815 4.11699311,4.96641272 C4.11699311,4.19854679 4.07726942,3.55378599 3.97137867,2.32371469 C3.91162178,1.62955367 3.72776698,0.854982103 3.41981429,-2.84217094e-14 C3.53920977,1.26085953 3.53920977,2.26041159 3.41981429,2.99865619 C3.17983952,4.48246506 3.43435129,7.8448556 3.59890752,7.8448556 Z" id="Oval" fill="#139B12"></path>
                            <path d="M2.48511045,7.8448556 C2.78316334,7.8448556 3.15085318,6.94035505 3.15085318,4.93743962 C3.15085318,3.60216267 3.35587628,2.43743505 3.76592247,1.44325676 C3.17056393,2.09252272 2.77585211,2.68947881 2.58178702,3.23412501 C2.2906894,4.05109431 2.18705755,7.8448556 2.48511045,7.8448556 Z" id="Oval" fill="#16B315" transform="translate(3.036090, 4.644056) scale(-1, 1) translate(-3.036090, -4.644056) "></path>
                            <path d="M1.24047183,7.58706249 C1.53499899,7.56885472 1.82468003,7.52924376 2.12523301,7.45487913 C2.94589588,7.25182578 3.40263131,6.86787853 3.40263131,6.24868659 C3.40263131,5.59565274 3.50867491,4.93769047 3.7200858,4.27525481 C3.55578815,4.51876331 3.42962768,4.7572116 3.34138284,4.99032363 C3.21437505,5.32583384 2.90930595,5.74917463 2.434887,6.29312955 C2.33832747,6.40384188 2.23506789,6.51912814 2.12261873,6.64211854 C1.95031819,6.83057091 1.40286159,7.41152778 1.24047183,7.58706249 Z M0.737840952,7.59990845 C0.737759713,7.59990836 0.737678466,7.59990831 0.73759721,7.59990831 C0.737679617,7.5999084 0.737761471,7.59990849 0.737842782,7.59990858 Z" id="Oval" stroke="#979797" stroke-width="0.529642487" fill="#B2B2B2" transform="translate(2.666476, 5.369817) scale(-1, 1) translate(-2.666476, -5.369817) "></path>
                            <path d="M3.71926093,7.62919599 C4.01731382,7.62919599 5.41380623,7.35149139 5.41380623,5.69277338 C5.41380623,4.58696138 5.84029257,3.27847425 6.69326525,1.767312 C5.92019477,2.46572889 5.41073887,3.13965075 5.16489757,3.78907758 C4.79613561,4.76321781 3.42120804,7.62919599 3.71926093,7.62919599 Z" id="Oval" fill="#16B315"></path>
                            <path d="M4.43832815,7.7587457 C4.73638105,7.7587457 5.63996405,6.24600336 5.75405566,5.36981711 C5.85194275,4.61807636 6.14324341,3.91893283 6.62795766,3.27238652 C6.10256328,3.45437108 5.71694544,3.87007676 5.47110413,4.51950359 C5.10234218,5.49364383 4.14027526,7.7587457 4.43832815,7.7587457 Z" id="Oval" fill="#139B12"></path>
                            <path d="M4.43832815,7.86472956 C4.8103443,7.86472956 5.54412368,7.14026288 5.85215599,6.53653867 C6.00621502,6.23459253 6.14372357,5.9658859 6.35966599,5.63023531 C6.50362761,5.40646825 6.92465735,5.07774188 7.62275523,4.64405618 C6.50375779,4.69667182 5.82133842,5.04769305 5.57549712,5.69711987 C5.20673516,6.67126011 4.14027526,7.86472956 4.43832815,7.86472956 Z" id="Oval" fill="#16B315"></path>
                            <path d="M0.0568786708,7.92911081 C0.200074251,7.92911081 0.563123309,8.00621403 0.752378544,7.8448556 C1.05480052,7.58701157 1.19220814,7.00032695 1.38167338,6.62898685 C1.53573241,6.32704071 1.64831832,5.8522649 1.86426074,5.51661431 C2.00822236,5.29284726 2.36360652,4.92900971 2.93041322,4.42510167 C1.94270696,4.54793965 1.32593317,4.93407205 1.08009187,5.58349888 C0.711329908,6.55763911 -0.24117422,7.92911081 0.0568786708,7.92911081 Z" id="Oval" fill="#139B12" transform="translate(1.465207, 6.186312) scale(-1, 1) translate(-1.465207, -6.186312) "></path>
                            <path d="M0.73759721,7.86472956 C1.0356501,7.86472956 3.66745255,7.90740459 3.66745255,6.24868659 C3.66745255,5.14287459 3.98566204,4.01824654 4.62208102,2.87480246 C3.84901054,3.57321935 3.33955465,4.24714121 3.09371335,4.89656804 C2.72495139,5.87070828 0.43954432,7.86472956 0.73759721,7.86472956 Z" id="Oval" fill="#16B315" transform="translate(2.666476, 5.369817) scale(-1, 1) translate(-2.666476, -5.369817) "></path>
                        </g>
                        <g id="Aloe" transform="translate(7.641763, 0.000000)">
                            <path d="M4.07726942,7.86472956 C4.37532231,7.86472956 4.59535502,6.9892021 4.59535502,4.98628667 C4.59535502,3.65100973 4.74856321,2.28242622 5.05497957,0.880536152 C4.80915414,1.30798621 4.51547628,2.09914048 4.173946,3.25399896 C3.66165059,4.98628667 3.77921653,7.86472956 4.07726942,7.86472956 Z" id="Oval" fill="#16B315"></path>
                            <path d="M4.33286211,7.8448556 C4.630915,7.8448556 5.29455463,6.6469716 5.29455463,4.64405618 C5.29455463,3.30877923 5.55566028,1.97394596 6.07787157,0.639556352 C5.43105748,1.48048324 4.9368853,2.47837593 4.59535502,3.6332344 C4.08305961,5.36552212 4.03480922,7.8448556 4.33286211,7.8448556 Z" id="Oval" fill="#139B12"></path>
                            <path d="M1.42706834,7.97961385 C1.72512123,7.97961385 2.37697597,7.67866692 2.37697597,5.67575149 C2.37697597,4.34047455 2.68927573,2.87169922 3.31387524,1.26942552 C2.60335875,2.18337193 2.07733537,3.21777438 1.73580509,4.37263285 C1.22350968,6.10492057 1.12901545,7.97961385 1.42706834,7.97961385 Z" id="Oval" fill="#139B12" transform="translate(2.286286, 4.624520) scale(-1, 1) translate(-2.286286, -4.624520) "></path>
                            <path d="M3.59890752,7.8448556 C3.89696041,7.8448556 4.11699311,6.96932815 4.11699311,4.96641272 C4.11699311,4.19854679 4.07726942,3.55378599 3.97137867,2.32371469 C3.91162178,1.62955367 3.72776698,0.854982103 3.41981429,-2.84217094e-14 C3.53920977,1.26085953 3.53920977,2.26041159 3.41981429,2.99865619 C3.17983952,4.48246506 3.43435129,7.8448556 3.59890752,7.8448556 Z" id="Oval" fill="#139B12"></path>
                            <path d="M2.48511045,7.8448556 C2.78316334,7.8448556 3.15085318,6.94035505 3.15085318,4.93743962 C3.15085318,3.60216267 3.35587628,2.43743505 3.76592247,1.44325676 C3.17056393,2.09252272 2.77585211,2.68947881 2.58178702,3.23412501 C2.2906894,4.05109431 2.18705755,7.8448556 2.48511045,7.8448556 Z" id="Oval" fill="#16B315" transform="translate(3.036090, 4.644056) scale(-1, 1) translate(-3.036090, -4.644056) "></path>
                            <path d="M1.24047183,7.58706249 C1.53499899,7.56885472 1.82468003,7.52924376 2.12523301,7.45487913 C2.94589588,7.25182578 3.40263131,6.86787853 3.40263131,6.24868659 C3.40263131,5.59565274 3.50867491,4.93769047 3.7200858,4.27525481 C3.55578815,4.51876331 3.42962768,4.7572116 3.34138284,4.99032363 C3.21437505,5.32583384 2.90930595,5.74917463 2.434887,6.29312955 C2.33832747,6.40384188 2.23506789,6.51912814 2.12261873,6.64211854 C1.95031819,6.83057091 1.40286159,7.41152778 1.24047183,7.58706249 Z M0.737840952,7.59990845 C0.737759713,7.59990836 0.737678466,7.59990831 0.73759721,7.59990831 C0.737679617,7.5999084 0.737761471,7.59990849 0.737842782,7.59990858 Z" id="Oval" stroke="#979797" stroke-width="0.529642487" fill="#B2B2B2" transform="translate(2.666476, 5.369817) scale(-1, 1) translate(-2.666476, -5.369817) "></path>
                            <path d="M3.71926093,7.62919599 C4.01731382,7.62919599 5.41380623,7.35149139 5.41380623,5.69277338 C5.41380623,4.58696138 5.84029257,3.27847425 6.69326525,1.767312 C5.92019477,2.46572889 5.41073887,3.13965075 5.16489757,3.78907758 C4.79613561,4.76321781 3.42120804,7.62919599 3.71926093,7.62919599 Z" id="Oval" fill="#16B315"></path>
                            <path d="M4.43832815,7.7587457 C4.73638105,7.7587457 5.63996405,6.24600336 5.75405566,5.36981711 C5.85194275,4.61807636 6.14324341,3.91893283 6.62795766,3.27238652 C6.10256328,3.45437108 5.71694544,3.87007676 5.47110413,4.51950359 C5.10234218,5.49364383 4.14027526,7.7587457 4.43832815,7.7587457 Z" id="Oval" fill="#139B12"></path>
                            <path d="M4.43832815,7.86472956 C4.8103443,7.86472956 5.54412368,7.14026288 5.85215599,6.53653867 C6.00621502,6.23459253 6.14372357,5.9658859 6.35966599,5.63023531 C6.50362761,5.40646825 6.92465735,5.07774188 7.62275523,4.64405618 C6.50375779,4.69667182 5.82133842,5.04769305 5.57549712,5.69711987 C5.20673516,6.67126011 4.14027526,7.86472956 4.43832815,7.86472956 Z" id="Oval" fill="#16B315"></path>
                            <path d="M0.0568786708,7.92911081 C0.200074251,7.92911081 0.563123309,8.00621403 0.752378544,7.8448556 C1.05480052,7.58701157 1.19220814,7.00032695 1.38167338,6.62898685 C1.53573241,6.32704071 1.64831832,5.8522649 1.86426074,5.51661431 C2.00822236,5.29284726 2.36360652,4.92900971 2.93041322,4.42510167 C1.94270696,4.54793965 1.32593317,4.93407205 1.08009187,5.58349888 C0.711329908,6.55763911 -0.24117422,7.92911081 0.0568786708,7.92911081 Z" id="Oval" fill="#139B12" transform="translate(1.465207, 6.186312) scale(-1, 1) translate(-1.465207, -6.186312) "></path>
                            <path d="M0.73759721,7.86472956 C1.0356501,7.86472956 3.66745255,7.90740459 3.66745255,6.24868659 C3.66745255,5.14287459 3.98566204,4.01824654 4.62208102,2.87480246 C3.84901054,3.57321935 3.33955465,4.24714121 3.09371335,4.89656804 C2.72495139,5.87070828 0.43954432,7.86472956 0.73759721,7.86472956 Z" id="Oval" fill="#16B315" transform="translate(2.666476, 5.369817) scale(-1, 1) translate(-2.666476, -5.369817) "></path>
                        </g>
                        <g id="Aloe" transform="translate(15.283525, 0.000000)">
                            <path d="M4.07726942,7.86472956 C4.37532231,7.86472956 4.59535502,6.9892021 4.59535502,4.98628667 C4.59535502,3.65100973 4.74856321,2.28242622 5.05497957,0.880536152 C4.80915414,1.30798621 4.51547628,2.09914048 4.173946,3.25399896 C3.66165059,4.98628667 3.77921653,7.86472956 4.07726942,7.86472956 Z" id="Oval" fill="#16B315"></path>
                            <path d="M4.33286211,7.8448556 C4.630915,7.8448556 5.29455463,6.6469716 5.29455463,4.64405618 C5.29455463,3.30877923 5.55566028,1.97394596 6.07787157,0.639556352 C5.43105748,1.48048324 4.9368853,2.47837593 4.59535502,3.6332344 C4.08305961,5.36552212 4.03480922,7.8448556 4.33286211,7.8448556 Z" id="Oval" fill="#139B12"></path>
                            <path d="M1.42706834,7.97961385 C1.72512123,7.97961385 2.37697597,7.67866692 2.37697597,5.67575149 C2.37697597,4.34047455 2.68927573,2.87169922 3.31387524,1.26942552 C2.60335875,2.18337193 2.07733537,3.21777438 1.73580509,4.37263285 C1.22350968,6.10492057 1.12901545,7.97961385 1.42706834,7.97961385 Z" id="Oval" fill="#139B12" transform="translate(2.286286, 4.624520) scale(-1, 1) translate(-2.286286, -4.624520) "></path>
                            <path d="M3.59890752,7.8448556 C3.89696041,7.8448556 4.11699311,6.96932815 4.11699311,4.96641272 C4.11699311,4.19854679 4.07726942,3.55378599 3.97137867,2.32371469 C3.91162178,1.62955367 3.72776698,0.854982103 3.41981429,-2.84217094e-14 C3.53920977,1.26085953 3.53920977,2.26041159 3.41981429,2.99865619 C3.17983952,4.48246506 3.43435129,7.8448556 3.59890752,7.8448556 Z" id="Oval" fill="#139B12"></path>
                            <path d="M2.48511045,7.8448556 C2.78316334,7.8448556 3.15085318,6.94035505 3.15085318,4.93743962 C3.15085318,3.60216267 3.35587628,2.43743505 3.76592247,1.44325676 C3.17056393,2.09252272 2.77585211,2.68947881 2.58178702,3.23412501 C2.2906894,4.05109431 2.18705755,7.8448556 2.48511045,7.8448556 Z" id="Oval" fill="#16B315" transform="translate(3.036090, 4.644056) scale(-1, 1) translate(-3.036090, -4.644056) "></path>
                            <path d="M1.24047183,7.58706249 C1.53499899,7.56885472 1.82468003,7.52924376 2.12523301,7.45487913 C2.94589588,7.25182578 3.40263131,6.86787853 3.40263131,6.24868659 C3.40263131,5.59565274 3.50867491,4.93769047 3.7200858,4.27525481 C3.55578815,4.51876331 3.42962768,4.7572116 3.34138284,4.99032363 C3.21437505,5.32583384 2.90930595,5.74917463 2.434887,6.29312955 C2.33832747,6.40384188 2.23506789,6.51912814 2.12261873,6.64211854 C1.95031819,6.83057091 1.40286159,7.41152778 1.24047183,7.58706249 Z M0.737840952,7.59990845 C0.737759713,7.59990836 0.737678466,7.59990831 0.73759721,7.59990831 C0.737679617,7.5999084 0.737761471,7.59990849 0.737842782,7.59990858 Z" id="Oval" stroke="#979797" stroke-width="0.529642487" fill="#B2B2B2" transform="translate(2.666476, 5.369817) scale(-1, 1) translate(-2.666476, -5.369817) "></path>
                            <path d="M3.71926093,7.62919599 C4.01731382,7.62919599 5.41380623,7.35149139 5.41380623,5.69277338 C5.41380623,4.58696138 5.84029257,3.27847425 6.69326525,1.767312 C5.92019477,2.46572889 5.41073887,3.13965075 5.16489757,3.78907758 C4.79613561,4.76321781 3.42120804,7.62919599 3.71926093,7.62919599 Z" id="Oval" fill="#16B315"></path>
                            <path d="M4.43832815,7.7587457 C4.73638105,7.7587457 5.63996405,6.24600336 5.75405566,5.36981711 C5.85194275,4.61807636 6.14324341,3.91893283 6.62795766,3.27238652 C6.10256328,3.45437108 5.71694544,3.87007676 5.47110413,4.51950359 C5.10234218,5.49364383 4.14027526,7.7587457 4.43832815,7.7587457 Z" id="Oval" fill="#139B12"></path>
                            <path d="M4.43832815,7.86472956 C4.8103443,7.86472956 5.54412368,7.14026288 5.85215599,6.53653867 C6.00621502,6.23459253 6.14372357,5.9658859 6.35966599,5.63023531 C6.50362761,5.40646825 6.92465735,5.07774188 7.62275523,4.64405618 C6.50375779,4.69667182 5.82133842,5.04769305 5.57549712,5.69711987 C5.20673516,6.67126011 4.14027526,7.86472956 4.43832815,7.86472956 Z" id="Oval" fill="#16B315"></path>
                            <path d="M0.0568786708,7.92911081 C0.200074251,7.92911081 0.563123309,8.00621403 0.752378544,7.8448556 C1.05480052,7.58701157 1.19220814,7.00032695 1.38167338,6.62898685 C1.53573241,6.32704071 1.64831832,5.8522649 1.86426074,5.51661431 C2.00822236,5.29284726 2.36360652,4.92900971 2.93041322,4.42510167 C1.94270696,4.54793965 1.32593317,4.93407205 1.08009187,5.58349888 C0.711329908,6.55763911 -0.24117422,7.92911081 0.0568786708,7.92911081 Z" id="Oval" fill="#139B12" transform="translate(1.465207, 6.186312) scale(-1, 1) translate(-1.465207, -6.186312) "></path>
                            <path d="M0.73759721,7.86472956 C1.0356501,7.86472956 3.66745255,7.90740459 3.66745255,6.24868659 C3.66745255,5.14287459 3.98566204,4.01824654 4.62208102,2.87480246 C3.84901054,3.57321935 3.33955465,4.24714121 3.09371335,4.89656804 C2.72495139,5.87070828 0.43954432,7.86472956 0.73759721,7.86472956 Z" id="Oval" fill="#16B315" transform="translate(2.666476, 5.369817) scale(-1, 1) translate(-2.666476, -5.369817) "></path>
                        </g>
                        <g id="Long-plat-pot" transform="translate(0.000000, 7.537557)">
                            <path d="M1.29283804,0.625235119 L21.6324497,0.625235119 C21.7475523,0.625235119 21.8408614,0.718544219 21.8408614,0.833646826 C21.8408614,0.84643922 21.8396836,0.859204448 21.8373429,0.871780877 L20.8728622,6.05390979 C20.8544923,6.15261069 20.7683648,6.22418745 20.6679689,6.22418745 L2.25731877,6.22418745 C2.15692295,6.22418745 2.07079543,6.15261069 2.05242555,6.05390979 L1.08794481,0.871780877 C1.06688396,0.758621473 1.14154459,0.649814456 1.25470399,0.628753601 C1.26728042,0.626412918 1.28004564,0.625235119 1.29283804,0.625235119 Z" id="Rectangle" fill="#D9833D"></path>
                            <rect id="Rectangle" fill="#EE964E" x="0" y="5.41788836e-14" width="22.9252877" height="1.29986511" rx="0.259973023"></rect>
                        </g>
                    </g>
                </g>
                <g id="Purple-House" transform="translate(925.000000, 2.000000)">
                    <rect id="Rectangle" fill="#EBBDFF" x="3.05670503" y="25.9810188" width="171.939658" height="64.9756776"></rect>
                    <g id="Window-purple" transform="translate(22.925288, 45.085425)">
                        <rect id="Rectangle" fill="#F5DFFF" x="3.82088128" y="0" width="30.5670503" height="45.8505754"></rect>
                        <rect id="Rectangle" fill="#2E0041" x="0" y="0" width="38.2088128" height="7.64176257"></rect>
                        <rect id="Rectangle" fill="#2E0041" x="0" y="38.2088128" width="38.2088128" height="7.64176257"></rect>
                        <line x1="19.1044064" y1="8.40593883" x2="19.1044064" y2="37.4446366" id="Line-17" stroke="#FFFFFF" stroke-width="1.52835251" stroke-linecap="square"></line>
                        <line x1="19.1044064" y1="8.40593883" x2="19.1044064" y2="37.4446366" id="Line-17" stroke="#FFFFFF" stroke-width="1.52835251" stroke-linecap="square" transform="translate(19.104406, 22.925288) rotate(-90.000000) translate(-19.104406, -22.925288) "></line>
                    </g>
                    <g id="Window-purple" transform="translate(76.417626, 45.085425)">
                        <rect id="Rectangle" fill="#F5DFFF" x="3.82088128" y="0" width="30.5670503" height="45.8505754"></rect>
                        <rect id="Rectangle" fill="#2E0041" x="0" y="0" width="38.2088128" height="7.64176257"></rect>
                        <rect id="Rectangle" fill="#2E0041" x="0" y="38.2088128" width="38.2088128" height="7.64176257"></rect>
                        <line x1="19.1044064" y1="8.40593883" x2="19.1044064" y2="37.4446366" id="Line-17" stroke="#FFFFFF" stroke-width="1.52835251" stroke-linecap="square"></line>
                        <line x1="19.1044064" y1="8.40593883" x2="19.1044064" y2="37.4446366" id="Line-17" stroke="#FFFFFF" stroke-width="1.52835251" stroke-linecap="square" transform="translate(19.104406, 22.925288) rotate(-90.000000) translate(-19.104406, -22.925288) "></line>
                    </g>
                    <g id="Window-purple" transform="translate(129.909964, 45.085425)">
                        <rect id="Rectangle" fill="#F5DFFF" x="3.82088128" y="0" width="30.5670503" height="45.8505754"></rect>
                        <rect id="Rectangle" fill="#2E0041" x="0" y="0" width="38.2088128" height="7.64176257"></rect>
                        <rect id="Rectangle" fill="#2E0041" x="0" y="38.2088128" width="38.2088128" height="7.64176257"></rect>
                        <line x1="19.1044064" y1="8.40593883" x2="19.1044064" y2="37.4446366" id="Line-17" stroke="#FFFFFF" stroke-width="1.52835251" stroke-linecap="square"></line>
                        <line x1="19.1044064" y1="8.40593883" x2="19.1044064" y2="37.4446366" id="Line-17" stroke="#FFFFFF" stroke-width="1.52835251" stroke-linecap="square" transform="translate(19.104406, 22.925288) rotate(-90.000000) translate(-19.104406, -22.925288) "></line>
                    </g>
                    <rect id="Rectangle" fill="#2E0041" x="0" y="16.8109037" width="174.996363" height="9.17011508"></rect>
                    <rect id="Rectangle" fill="#2E0041" x="7.64176257" y="12.2258462" width="167.3546" height="4.58505754"></rect>
                    <rect id="Rectangle" fill="#14001D" x="24.4536402" y="3.05280936" width="11.4626439" height="9.17303683"></rect>
                    <rect id="Rectangle" fill="#14001D" x="45.0863992" y="0.759550154" width="11.4626439" height="11.466296"></rect>
                </g>
                <g id="Blue-House">
                    <rect id="Rectangle" fill="#BBBAFF" x="0" y="15.2825512" width="170.411305" height="77.2063933"></rect>
                    <g id="Group" transform="translate(107.748852, 29.796787)">
                        <path d="M19.1044064,0 C29.6554787,0 38.2088128,8.5533341 38.2088128,19.1044064 L38.2088128,19.1044064 L38.2088128,62.6624531 L0,62.6624531 L0,19.1044064 L0.00295866713,18.7647503 C0.184173648,8.37038037 8.66678649,0 19.1044064,0 Z" id="Combined-Shape" fill="#E6E6FF"></path>
                        <rect id="Rectangle" fill="#060235" x="0" y="55.0206905" width="38.2088128" height="7.64176257"></rect>
                        <line x1="0.764176257" y1="18.7223183" x2="37.4053225" y2="18.7223183" id="Line-16" stroke="#FFFFFF" stroke-width="1.52835251" stroke-linecap="square"></line>
                        <line x1="19.1044064" y1="19.1044064" x2="19.1044064" y2="54.2565142" id="Line-16" stroke="#FFFFFF" stroke-width="1.52835251" stroke-linecap="square"></line>
                    </g>
                    <g id="Group" transform="translate(38.972989, 29.796787)">
                        <path d="M19.1044064,0 C29.6554787,0 38.2088128,8.5533341 38.2088128,19.1044064 L38.2088128,19.1044064 L38.2088128,62.6624531 L0,62.6624531 L0,19.1044064 L0.00295866713,18.7647503 C0.184173648,8.37038037 8.66678649,0 19.1044064,0 Z" id="Combined-Shape" fill="#E6E6FF"></path>
                        <rect id="Rectangle" fill="#060235" x="0" y="55.0206905" width="38.2088128" height="7.64176257"></rect>
                        <line x1="0.764176257" y1="18.7223183" x2="37.4053225" y2="18.7223183" id="Line-16" stroke="#FFFFFF" stroke-width="1.52835251" stroke-linecap="square"></line>
                        <line x1="19.1044064" y1="19.1044064" x2="19.1044064" y2="54.2565142" id="Line-16" stroke="#FFFFFF" stroke-width="1.52835251" stroke-linecap="square"></line>
                    </g>
                    <rect id="Rectangle" fill="#060235" x="0" y="15.2825512" width="174.232187" height="7.64176257"></rect>
                    <path d="M8.40298016,48.5615374 L8.40593883,48.9011935 L8.40593883,92.4592401 L0,92.4585341 L0.000750028913,33.0715341 C4.9852177,36.4471126 8.29059289,42.1150788 8.40298016,48.5615374 Z" id="Combined-Shape" fill="#E6E6FF"></path>
                    <rect id="Rectangle" fill="#390000" x="3.05670503" y="3.81625518" width="11.4626439" height="11.466296"></rect>
                    <rect id="Rectangle" fill="#390000" x="22.1611114" y="6.10951439" width="11.4626439" height="9.17303683"></rect>
                    <rect id="Rectangle" fill="#290000" x="20.6327589" y="2.29228529" width="14.5193489" height="3.82088128"></rect>
                    <rect id="Rectangle" fill="#290000" x="1.52835251" y="0" width="14.5193489" height="3.82088128"></rect>
                    <g id="Tulips" transform="translate(61.898277, 63.420542)">
                        <path d="M2.7982648,11.5938936 C3.41027087,11.5938936 3.29430385,11.4326977 3.29430385,10.4061069 C3.29430385,9.91380585 2.7873075,9.13976076 1.41832651,8.6598299 C1.12744359,8.55785355 0.839744922,8.30546089 0.555230506,7.90265193 C0.392475475,8.51970566 0.422124332,9.16641111 0.644177077,9.84276828 C0.977256193,10.857304 2.18625874,11.5938936 2.7982648,11.5938936 Z" id="Oval" fill="#156C0A"></path>
                        <path d="M4.72778794,8.23774908 C5.18215255,8.33047267 5.05582903,8.43224031 5.05582903,7.40564949 C5.05582903,6.91334844 4.6091785,6.4622113 3.87276327,6.33803809 C3.57145132,6.28723133 3.25107247,6.12868252 2.91162673,5.86239166 C2.93504267,6.3424926 3.01208893,6.77360286 3.1427655,7.15572246 C3.33878035,7.72890186 4.27342333,8.14502549 4.72778794,8.23774908 Z" id="Oval" fill="#1DA10C" transform="translate(3.991793, 7.077682) scale(-1, 1) translate(-3.991793, -7.077682) "></path>
                        <path d="M8.17900094,13.9571556 C8.23720263,13.9571556 8.50704202,14.1516468 8.50704202,13.125056 C8.50704202,12.6327549 8.0603915,12.1816178 7.32397627,12.0574446 C7.02266432,12.0066378 6.70228547,11.848089 6.36283973,11.5817982 C6.38625567,12.0618991 6.46330193,12.4930094 6.59397849,12.875129 C6.78999335,13.4483084 8.12079924,13.9571556 8.17900094,13.9571556 Z" id="Oval" fill="#126707" transform="translate(7.434941, 12.776820) scale(-1, 1) rotate(-24.000000) translate(-7.434941, -12.776820) "></path>
                        <line x1="2.71671809" y1="5.64791392" x2="4.28955487" y2="20.661356" id="Line-23" stroke="#1D8B0F" stroke-width="0.529642487" stroke-linecap="square"></line>
                        <line x1="6.97052667" y1="10.4736631" x2="4.11082342" y2="20.3396394" id="Line-23" stroke="#1D8B0F" stroke-width="0.529642487" stroke-linecap="square"></line>
                        <path d="M1.28686646,0.869376958 C1.53722059,0.398926656 1.79358056,0.136655939 2.05594637,0.0825648068 C2.31831217,0.0284736749 2.63514492,0.172571054 3.00644462,0.514856945 L2.1846425,1.63553479 L1.28686646,0.869376958 Z" id="Path-19" fill="#8B0F6D"></path>
                        <path d="M3.63827736,5.61546117 C4.5320329,5.61546117 5.01811239,3.84431823 4.78107763,2.91496946 C4.66731033,2.46891886 4.44962895,1.7973565 3.99279804,1.23485992 C3.49640346,0.623648544 3.08945781,0.21202857 2.77196109,1.42108547e-14 C1.92488317,1.08443127 1.50134421,2.12020019 1.50134421,3.10730675 C1.50134421,3.98029971 1.50134421,4.48470776 2.12993578,5.12389237 C2.59327266,5.59503741 3.09542829,5.61546117 3.63827736,5.61546117 Z" id="Oval" fill="#AC1488" transform="translate(3.171083, 2.807731) scale(-1, 1) translate(-3.171083, -2.807731) "></path>
                        <path d="M2.39531422,5.68688572 C3.28906976,5.68695376 3.70169983,4.199957 3.46466507,3.27060822 C3.35089777,2.82455763 3.15283258,2.40607864 2.69600168,1.84358206 C2.1996071,1.23237069 1.47539359,0.713166774 0.523361142,0.285970325 C0.174453714,1.10609773 1.91846539e-13,2.00971472 1.91846539e-13,2.99682128 C1.91846539e-13,3.86981424 0.371144446,4.87087852 1.09345902,5.3567934 C1.59624273,5.69502566 1.85246514,5.68688572 2.39531422,5.68688572 Z" id="Oval" fill="#D818AA"></path>
                        <g id="Group" transform="translate(7.642219, 8.415237) rotate(26.000000) translate(-7.642219, -8.415237) translate(5.642219, 5.915237)">
                            <path d="M1.045579,0.706368778 C1.24899173,0.324127908 1.45728421,0.11103295 1.67045642,0.0670839055 C1.88362864,0.0231348609 2.14105525,0.140213982 2.44273625,0.418321268 L1.77502203,1.32887202 L1.045579,0.706368778 Z" id="Path-19" fill="#8B0F6D"></path>
                            <path d="M2.95610035,4.5625622 C3.68227673,4.5625622 4.07721632,3.12350856 3.88462557,2.36841269 C3.79218964,2.00599658 3.61532352,1.46035215 3.24414841,1.00332369 C2.84082781,0.506714442 2.51018447,0.172273213 2.25221838,1.42108547e-14 C1.56396757,0.881100411 1.21984217,1.72266266 1.21984217,2.52468673 C1.21984217,3.23399352 1.21984217,3.64382505 1.73057282,4.16316255 C2.10703404,4.54596789 2.51503548,4.5625622 2.95610035,4.5625622 Z" id="Oval" fill="#AC1488" transform="translate(2.576505, 2.281281) scale(-1, 1) translate(-2.576505, -2.281281) "></path>
                            <path d="M1.9461928,4.62059465 C2.67236918,4.62064993 3.00763111,3.41246506 2.81504037,2.65736918 C2.72260444,2.29495307 2.56167647,1.95493889 2.19050136,1.49791043 C1.78718077,1.00130118 1.19875729,0.579448004 0.425230928,0.232350889 C0.141743643,0.898704409 1.91846539e-13,1.63289321 1.91846539e-13,2.43491729 C1.91846539e-13,3.14422407 0.301554862,3.9575888 0.888435455,4.35239464 C1.29694722,4.62720835 1.50512793,4.62059465 1.9461928,4.62059465 Z" id="Oval" fill="#D818AA"></path>
                        </g>
                        <g id="Flower-pot" transform="translate(0.000000, 14.870457)">
                            <path d="M0.714925812,0.714925812 L9.29403556,0.714925812 L7.90309073,6.62644131 C7.88029474,6.72332427 7.79384313,6.79179521 7.69431442,6.79179521 L2.31464695,6.79179521 C2.21511824,6.79179521 2.12866663,6.72332427 2.10587064,6.62644131 L0.714925812,0.714925812 L0.714925812,0.714925812 Z" id="Rectangle" fill="#D9833D"></path>
                            <rect id="Rectangle" fill="#EE964E" x="0" y="0" width="10.0089614" height="1.42985162" rx="0.285970325"></rect>
                        </g>
                    </g>
                    <line x1="0" y1="48.9011935" x2="7.60244844" y2="48.9011935" id="Line-16" stroke="#FFFFFF" stroke-width="1.52835251" stroke-linecap="square"></line>
                    <rect id="Rectangle" fill="#060235" x="0" y="84.8174775" width="8.40593883" height="7.64176257"></rect>
                </g>
            </g>
        </g>
    </g>
</svg>