<?xml version="1.0" encoding="UTF-8"?>
<svg width="369px" height="300px" viewBox="0 0 369 300" version="1.1" xmlns="http://www.w3.org/2000/svg" xmlns:xlink="http://www.w3.org/1999/xlink">
    <!-- Generator: Sketch 59 (86127) - https://sketch.com -->
    <title>Contract</title>
    <desc>Created with Sketch.</desc>
    <g id="Boplats-landing-page" stroke="none" stroke-width="1" fill="none" fill-rule="evenodd">
        <g id="Desktop-HD" transform="translate(-952.000000, -3673.000000)">
            <g id="Contract" transform="translate(952.000000, 3673.000000)">
                <rect id="Rectangle" fill="#EBBDFF" x="0" y="0" width="369" height="300" rx="6"></rect>
                <circle id="Oval" fill="#59097B" cx="56" cy="56" r="40"></circle>
                <text id="6" font-family="Verdana-Bold, Verdana" font-size="24" font-weight="bold" line-spacing="14.6666667" fill="#FFFFFF">
                    <tspan x="47" y="73">6</tspan>
                </text>
                <g id="Group" transform="translate(110.000000, 93.000000)">
                    <g id="Contract" transform="translate(0.000000, -0.000000)">
                        <rect id="Rectangle" fill="#FFFFFF" x="0" y="0" width="94.5017182" height="113.402062" rx="5.67010309"></rect>
                        <line x1="18.9003436" y1="35.9106529" x2="75.6013746" y2="35.9106529" id="Path-16" stroke="#59097B" stroke-width="5.67010309" stroke-linecap="round"></line>
                        <line x1="18.9003436" y1="51.0309278" x2="75.6013746" y2="51.0309278" id="Path-16" stroke="#59097B" stroke-width="5.67010309" stroke-linecap="round"></line>
                        <line x1="18.9003436" y1="66.1512027" x2="75.6013746" y2="66.1512027" id="Path-16" stroke="#59097B" stroke-width="5.67010309" stroke-linecap="round"></line>
                        <line x1="18.9003436" y1="81.2714777" x2="75.6013746" y2="81.2714777" id="Path-16" stroke="#59097B" stroke-width="5.67010309" stroke-linecap="round"></line>
                    </g>
                    <g id="Key" transform="translate(107.216495, 13.402062)">
                        <path d="M20.7230426,0 L29.0122597,4.14460853 L29.0122597,10.3615213 L26.9399554,12.4338256 L29.0122597,14.5061298 L29.0122597,16.5784341 L26.9399554,20.7230426 L29.0122597,22.7953469 L29.0122597,26.9399554 L26.9399554,29.0122597 L29.0122597,31.0845639 L29.0131199,47.3154079 C36.3316445,50.5134044 41.4460853,57.8162996 41.4460853,66.3137364 C41.4460853,77.7587568 32.168063,87.036779 20.7230426,87.036779 C9.27802222,87.036779 0,77.7587568 0,66.3137364 C0,57.8162996 5.1144408,50.5134044 12.4329654,47.3154079 L12.4338256,4.14460853 L20.7230426,0 Z" id="Combined-Shape" fill="#59097B"></path>
                        <circle id="Oval" fill="#FFFFFF" cx="20.7230426" cy="74.6029535" r="4.14460853"></circle>
                    </g>
                </g>
            </g>
        </g>
    </g>
</svg>