<?xml version="1.0" encoding="UTF-8"?>
<svg width="373px" height="300px" viewBox="0 0 373 300" version="1.1" xmlns="http://www.w3.org/2000/svg" xmlns:xlink="http://www.w3.org/1999/xlink">
    <!-- Generator: Sketch 59 (86127) - https://sketch.com -->
    <title>Flat offer</title>
    <desc>Created with Sketch.</desc>
    <g id="Boplats-landing-page" stroke="none" stroke-width="1" fill="none" fill-rule="evenodd">
        <g id="Desktop-HD" transform="translate(-537.000000, -3673.000000)">
            <g id="Flat-offer" transform="translate(537.000000, 3673.000000)">
                <rect id="Rectangle" fill="#BBBAFF" x="0" y="0" width="373" height="300" rx="6"></rect>
                <g id="Number-5" transform="translate(16.000000, 16.000000)">
                    <circle id="Oval" fill="#0F0766" cx="40" cy="40" r="40"></circle>
                    <text id="5" font-family="Verdana-Bold, Verdana" font-size="30" font-weight="bold" line-spacing="30" fill="#FFFFFF">
                        <tspan x="29" y="52">5</tspan>
                    </text>
                </g>
                <g id="Door" transform="translate(137.000000, 76.000000)">
                    <path d="M0,42.4908425 C1.49090675,14.1636142 17.890881,0 49.1999229,0 C80.5089647,0 97.2816657,14.1636142 99.5180258,42.4908425 L99.5180258,148.717949 L0,148.717949 L0,42.4908425 Z" id="Rectangle" fill="#FFFFFF"></path>
                    <path d="M49.8226174,8.54127903 L49.8225585,42.504279 L12.8397662,42.5044266 C11.5892788,42.5044244 10.5755585,41.4907041 10.5755585,40.2402167 C10.5755585,40.050857 10.5993128,39.8622452 10.6462652,39.6787988 C13.257061,29.4782262 17.7391985,21.7839148 24.0926777,16.5958647 L49.7203699,42.222279 L49.720141,8.54127903 L49.8226174,8.54127903 L49.8226174,8.54127903 Z" id="Combined-Shape" fill="#BBBAFF"></path>
                    <path d="M88.8914348,8.54127903 L88.8913758,42.504279 L51.9085836,42.5044266 C50.6580962,42.5044244 49.6443758,41.4907041 49.6443758,40.2402167 C49.6443758,40.050857 49.6681302,39.8622452 49.7150825,39.6787988 C52.3258784,29.4782262 56.8080159,21.7839148 63.1614951,16.5958647 L88.7891872,42.222279 L88.7889584,8.54127903 L88.8914348,8.54127903 L88.8914348,8.54127903 Z" id="Combined-Shape" fill="#0F0766" transform="translate(69.267905, 25.522853) scale(-1, 1) translate(-69.267905, -25.522853) "></path>
                    <path d="M49.6443758,8.54127903 C60.1937126,8.54330926 68.7514008,11.2127261 75.3174402,16.5495297 L49.6441469,42.222279 Z" id="Combined-Shape" fill="#BBBAFF"></path>
                    <path d="M24.0473055,8.54127903 C34.5966423,8.54330926 43.1543305,11.2127261 49.7203699,16.5495297 L24.0470766,42.222279 Z" id="Combined-Shape" fill="#0F0766" transform="translate(36.883723, 25.381779) scale(-1, 1) translate(-36.883723, -25.381779) "></path>
                    <rect id="Rectangle" fill="#0F0766" x="9.80572708" y="52.5575198" width="34.8688327" height="86.4928187" rx="2.26420991"></rect>
                    <rect id="Rectangle" fill="#0F0766" x="55.0899253" y="52.5575198" width="34.8688327" height="86.4928187" rx="2.26420991"></rect>
                    <path d="M20.2198915,89.3735729 C21.7204778,89.3735729 22.9369434,90.5900385 22.9369434,92.0906248 L22.9369434,97.5247286 C22.9369434,99.025315 21.7204778,100.241781 20.2198915,100.241781 C18.7193052,100.241781 17.5028396,99.025315 17.5028396,97.5247286 L17.5028396,92.0906248 C17.5028396,90.5900385 18.7193052,89.3735729 20.2198915,89.3735729 Z" id="Rectangle" fill="#FFFFFF" transform="translate(20.219891, 94.807677) rotate(90.000000) translate(-20.219891, -94.807677) "></path>
                </g>
            </g>
        </g>
    </g>
</svg>