<?xml version="1.0" encoding="UTF-8"?>
<svg width="1440px" height="280px" viewBox="0 0 1440 280" version="1.1" xmlns="http://www.w3.org/2000/svg" xmlns:xlink="http://www.w3.org/1999/xlink">
    <!-- Generator: Sketch 59 (86127) - https://sketch.com -->
    <title>House-Illustration</title>
    <desc>Created with Sketch.</desc>
    <g id="Boplats-landing-page" stroke="none" stroke-width="1" fill="none" fill-rule="evenodd">
        <g id="Desktop-HD" transform="translate(0.000000, -743.000000)">
            <g id="House-Illustration" transform="translate(-0.000000, 743.000000)">
                <line x1="605.500062" y1="56" x2="597.500062" y2="86.044353" id="Path-21" stroke="#363636" stroke-width="2"></line>
                <line x1="635.500062" y1="56" x2="626.500062" y2="86" id="Path-21" stroke="#363636" stroke-width="2" transform="translate(631.000000, 71.000000) scale(-1, 1) translate(-631.000000, -71.000000) "></line>
                <rect id="Rectangle" fill="#363636" x="362" y="131" width="20" height="29"></rect>
                <line x1="361.500062" y1="130" x2="353.500062" y2="160.044353" id="Path-21" stroke="#363636" stroke-width="2"></line>
                <line x1="391.500062" y1="130" x2="382.500062" y2="160" id="Path-21" stroke="#363636" stroke-width="2" transform="translate(387.000000, 145.000000) scale(-1, 1) translate(-387.000000, -145.000000) "></line>
                <rect id="Rectangle" fill="#363636" x="562" y="131" width="20" height="29"></rect>
                <line x1="561.500062" y1="130" x2="553.500062" y2="160.044353" id="Path-21" stroke="#363636" stroke-width="2"></line>
                <line x1="590.500062" y1="130" x2="581.500062" y2="160" id="Path-21" stroke="#363636" stroke-width="2" transform="translate(586.000000, 145.000000) scale(-1, 1) translate(-586.000000, -145.000000) "></line>
                <rect id="Rectangle" fill="#363636" x="851" y="132" width="20" height="29"></rect>
                <line x1="850.500062" y1="131" x2="842.500062" y2="161.044353" id="Path-21" stroke="#363636" stroke-width="2"></line>
                <line x1="880.500062" y1="131" x2="871.500062" y2="161" id="Path-21" stroke="#363636" stroke-width="2" transform="translate(876.000000, 146.000000) scale(-1, 1) translate(-876.000000, -146.000000) "></line>
                <rect id="Rectangle" fill="#363636" x="1051" y="132" width="20" height="29"></rect>
                <line x1="1050.50006" y1="131" x2="1042.50006" y2="161.044353" id="Path-21" stroke="#363636" stroke-width="2"></line>
                <line x1="1079.50006" y1="131" x2="1070.50006" y2="161" id="Path-21" stroke="#363636" stroke-width="2" transform="translate(1075.000000, 146.000000) scale(-1, 1) translate(-1075.000000, -146.000000) "></line>
                <rect id="Rectangle" fill="#363636" x="606" y="56" width="20" height="29"></rect>
                <rect id="Rectangle" fill="#363636" x="806" y="57" width="20" height="29"></rect>
                <line x1="805.500062" y1="56" x2="797.500062" y2="86.044353" id="Path-21" stroke="#363636" stroke-width="2"></line>
                <line x1="834.500062" y1="56" x2="825.500062" y2="86" id="Path-21" stroke="#363636" stroke-width="2" transform="translate(830.000000, 71.000000) scale(-1, 1) translate(-830.000000, -71.000000) "></line>
                <rect id="Rectangle" fill="#D8D8D8" x="234" y="74" width="468" height="58"></rect>
                <rect id="Rectangle" fill="#D8D8D8" x="731" y="74" width="468" height="58"></rect>
                <rect id="Rectangle" fill="#D8D8D8" x="482" y="0" width="468" height="58"></rect>
                <rect id="Rectangle" fill="#F7C3DB" x="278" y="178" width="877" height="102"></rect>
                <polygon id="Rectangle" fill="#E01171" points="278 160 1155 160 1165 178 266 178"></polygon>
                <g id="Light-purple-window" transform="translate(737.000000, 190.000000)">
                    <rect id="Rectangle" stroke="#FFFFFF" stroke-width="2" fill="#FFEDF5" x="1" y="1.25" width="98" height="78"></rect>
                    <line x1="66" y1="3.25" x2="66" y2="78.25" id="Line-19" stroke="#FFFFFF" stroke-width="4" stroke-linecap="square"></line>
                    <line x1="50.25" y1="-31" x2="50.75" y2="61.5" id="Line-19" stroke="#FFFFFF" stroke-width="4" stroke-linecap="square" transform="translate(50.250000, 15.500000) rotate(-90.000000) translate(-50.250000, -15.500000) "></line>
                    <g id="Balcony" transform="translate(0.000000, 45.250000)">
                        <rect id="Rectangle" fill="#76085C" x="0" y="30" width="100" height="5"></rect>
                        <line x1="1.45700892" y1="0.5" x2="98.6249286" y2="0.5" id="Line-20" stroke="#76085C" stroke-width="3" stroke-linecap="square"></line>
                        <line x1="1.5" y1="0.5" x2="1.5" y2="30.5" id="Line-21" stroke="#76085C" stroke-width="3" stroke-linecap="square"></line>
                        <line x1="98.5" y1="0.5" x2="98.5" y2="30.5" id="Line-21" stroke="#76085C" stroke-width="3" stroke-linecap="square"></line>
                        <line x1="50.5" y1="2.5" x2="50.5" y2="30.5" id="Line-22" stroke="#76085C" stroke-width="2" stroke-linecap="square"></line>
                        <line x1="26" y1="2" x2="26" y2="30" id="Line-22" stroke="#76085C" stroke-width="2" stroke-linecap="square"></line>
                        <line x1="14" y1="2" x2="14" y2="30" id="Line-22" stroke="#76085C" stroke-linecap="square"></line>
                        <line x1="8" y1="2" x2="8" y2="30" id="Line-22" stroke="#76085C" stroke-linecap="square"></line>
                        <line x1="20" y1="2" x2="20" y2="30" id="Line-22" stroke="#76085C" stroke-linecap="square"></line>
                        <line x1="38" y1="2" x2="38" y2="30" id="Line-22" stroke="#76085C" stroke-linecap="square"></line>
                        <line x1="44" y1="2" x2="44" y2="30" id="Line-22" stroke="#76085C" stroke-linecap="square"></line>
                        <line x1="32" y1="2" x2="32" y2="30" id="Line-22" stroke="#76085C" stroke-linecap="square"></line>
                        <line x1="63" y1="2" x2="63" y2="30" id="Line-22" stroke="#76085C" stroke-linecap="square"></line>
                        <line x1="68" y1="2" x2="68" y2="30" id="Line-22" stroke="#76085C" stroke-linecap="square"></line>
                        <line x1="57" y1="2" x2="57" y2="30" id="Line-22" stroke="#76085C" stroke-linecap="square"></line>
                        <line x1="86" y1="2" x2="86" y2="30" id="Line-22" stroke="#76085C" stroke-linecap="square"></line>
                        <line x1="92" y1="2" x2="92" y2="30" id="Line-22" stroke="#76085C" stroke-linecap="square"></line>
                        <line x1="80" y1="2" x2="80" y2="30" id="Line-22" stroke="#76085C" stroke-linecap="square"></line>
                        <line x1="74" y1="2" x2="74" y2="30" id="Line-22" stroke="#76085C" stroke-width="2" stroke-linecap="square"></line>
                    </g>
                </g>
                <g id="Light-purple-window" transform="translate(455.000000, 190.000000)">
                    <rect id="Rectangle" stroke="#FFFFFF" stroke-width="2" fill="#FFEDF5" x="1" y="1.25" width="98" height="78"></rect>
                    <line x1="66" y1="3.25" x2="66" y2="78.25" id="Line-19" stroke="#FFFFFF" stroke-width="4" stroke-linecap="square"></line>
                    <line x1="50.25" y1="-31" x2="50.75" y2="61.5" id="Line-19" stroke="#FFFFFF" stroke-width="4" stroke-linecap="square" transform="translate(50.250000, 15.500000) rotate(-90.000000) translate(-50.250000, -15.500000) "></line>
                    <g id="Balcony" transform="translate(0.000000, 45.250000)">
                        <rect id="Rectangle" fill="#76085C" x="0" y="30" width="100" height="5"></rect>
                        <line x1="1.45700892" y1="0.5" x2="98.6249286" y2="0.5" id="Line-20" stroke="#76085C" stroke-width="3" stroke-linecap="square"></line>
                        <line x1="1.5" y1="0.5" x2="1.5" y2="30.5" id="Line-21" stroke="#76085C" stroke-width="3" stroke-linecap="square"></line>
                        <line x1="98.5" y1="0.5" x2="98.5" y2="30.5" id="Line-21" stroke="#76085C" stroke-width="3" stroke-linecap="square"></line>
                        <line x1="50.5" y1="2.5" x2="50.5" y2="30.5" id="Line-22" stroke="#76085C" stroke-width="2" stroke-linecap="square"></line>
                        <line x1="26" y1="2" x2="26" y2="30" id="Line-22" stroke="#76085C" stroke-width="2" stroke-linecap="square"></line>
                        <line x1="14" y1="2" x2="14" y2="30" id="Line-22" stroke="#76085C" stroke-linecap="square"></line>
                        <line x1="8" y1="2" x2="8" y2="30" id="Line-22" stroke="#76085C" stroke-linecap="square"></line>
                        <line x1="20" y1="2" x2="20" y2="30" id="Line-22" stroke="#76085C" stroke-linecap="square"></line>
                        <line x1="38" y1="2" x2="38" y2="30" id="Line-22" stroke="#76085C" stroke-linecap="square"></line>
                        <line x1="44" y1="2" x2="44" y2="30" id="Line-22" stroke="#76085C" stroke-linecap="square"></line>
                        <line x1="32" y1="2" x2="32" y2="30" id="Line-22" stroke="#76085C" stroke-linecap="square"></line>
                        <line x1="63" y1="2" x2="63" y2="30" id="Line-22" stroke="#76085C" stroke-linecap="square"></line>
                        <line x1="68" y1="2" x2="68" y2="30" id="Line-22" stroke="#76085C" stroke-linecap="square"></line>
                        <line x1="57" y1="2" x2="57" y2="30" id="Line-22" stroke="#76085C" stroke-linecap="square"></line>
                        <line x1="86" y1="2" x2="86" y2="30" id="Line-22" stroke="#76085C" stroke-linecap="square"></line>
                        <line x1="92" y1="2" x2="92" y2="30" id="Line-22" stroke="#76085C" stroke-linecap="square"></line>
                        <line x1="80" y1="2" x2="80" y2="30" id="Line-22" stroke="#76085C" stroke-linecap="square"></line>
                        <line x1="74" y1="2" x2="74" y2="30" id="Line-22" stroke="#76085C" stroke-width="2" stroke-linecap="square"></line>
                    </g>
                </g>
                <g id="Light-purple-window" transform="translate(596.000000, 190.000000)">
                    <rect id="Rectangle" stroke="#FFFFFF" stroke-width="2" fill="#FFEDF5" x="1" y="1.25" width="98" height="78"></rect>
                    <line x1="66" y1="3.25" x2="66" y2="78.25" id="Line-19" stroke="#FFFFFF" stroke-width="4" stroke-linecap="square"></line>
                    <line x1="50.25" y1="-31" x2="50.75" y2="61.5" id="Line-19" stroke="#FFFFFF" stroke-width="4" stroke-linecap="square" transform="translate(50.250000, 15.500000) rotate(-90.000000) translate(-50.250000, -15.500000) "></line>
                    <g id="Balcony" transform="translate(0.000000, 45.250000)">
                        <rect id="Rectangle" fill="#76085C" x="0" y="30" width="100" height="5"></rect>
                        <line x1="1.45700892" y1="0.5" x2="98.6249286" y2="0.5" id="Line-20" stroke="#76085C" stroke-width="3" stroke-linecap="square"></line>
                        <line x1="1.5" y1="0.5" x2="1.5" y2="30.5" id="Line-21" stroke="#76085C" stroke-width="3" stroke-linecap="square"></line>
                        <line x1="98.5" y1="0.5" x2="98.5" y2="30.5" id="Line-21" stroke="#76085C" stroke-width="3" stroke-linecap="square"></line>
                        <line x1="50.5" y1="2.5" x2="50.5" y2="30.5" id="Line-22" stroke="#76085C" stroke-width="2" stroke-linecap="square"></line>
                        <line x1="26" y1="2" x2="26" y2="30" id="Line-22" stroke="#76085C" stroke-width="2" stroke-linecap="square"></line>
                        <line x1="14" y1="2" x2="14" y2="30" id="Line-22" stroke="#76085C" stroke-linecap="square"></line>
                        <line x1="8" y1="2" x2="8" y2="30" id="Line-22" stroke="#76085C" stroke-linecap="square"></line>
                        <line x1="20" y1="2" x2="20" y2="30" id="Line-22" stroke="#76085C" stroke-linecap="square"></line>
                        <line x1="38" y1="2" x2="38" y2="30" id="Line-22" stroke="#76085C" stroke-linecap="square"></line>
                        <line x1="44" y1="2" x2="44" y2="30" id="Line-22" stroke="#76085C" stroke-linecap="square"></line>
                        <line x1="32" y1="2" x2="32" y2="30" id="Line-22" stroke="#76085C" stroke-linecap="square"></line>
                        <line x1="63" y1="2" x2="63" y2="30" id="Line-22" stroke="#76085C" stroke-linecap="square"></line>
                        <line x1="68" y1="2" x2="68" y2="30" id="Line-22" stroke="#76085C" stroke-linecap="square"></line>
                        <line x1="57" y1="2" x2="57" y2="30" id="Line-22" stroke="#76085C" stroke-linecap="square"></line>
                        <line x1="86" y1="2" x2="86" y2="30" id="Line-22" stroke="#76085C" stroke-linecap="square"></line>
                        <line x1="92" y1="2" x2="92" y2="30" id="Line-22" stroke="#76085C" stroke-linecap="square"></line>
                        <line x1="80" y1="2" x2="80" y2="30" id="Line-22" stroke="#76085C" stroke-linecap="square"></line>
                        <line x1="74" y1="2" x2="74" y2="30" id="Line-22" stroke="#76085C" stroke-width="2" stroke-linecap="square"></line>
                    </g>
                </g>
                <g id="Light-purple-window" transform="translate(1019.000000, 190.000000)">
                    <rect id="Rectangle" stroke="#FFFFFF" stroke-width="2" fill="#FFEDF5" x="1" y="1.25" width="98" height="78"></rect>
                    <line x1="66" y1="3.25" x2="66" y2="78.25" id="Line-19" stroke="#FFFFFF" stroke-width="4" stroke-linecap="square"></line>
                    <line x1="50.25" y1="-31" x2="50.75" y2="61.5" id="Line-19" stroke="#FFFFFF" stroke-width="4" stroke-linecap="square" transform="translate(50.250000, 15.500000) rotate(-90.000000) translate(-50.250000, -15.500000) "></line>
                    <g id="Balcony" transform="translate(0.000000, 45.250000)">
                        <rect id="Rectangle" fill="#76085C" x="0" y="30" width="100" height="5"></rect>
                        <line x1="1.45700892" y1="0.5" x2="98.6249286" y2="0.5" id="Line-20" stroke="#76085C" stroke-width="3" stroke-linecap="square"></line>
                        <line x1="1.5" y1="0.5" x2="1.5" y2="30.5" id="Line-21" stroke="#76085C" stroke-width="3" stroke-linecap="square"></line>
                        <line x1="98.5" y1="0.5" x2="98.5" y2="30.5" id="Line-21" stroke="#76085C" stroke-width="3" stroke-linecap="square"></line>
                        <line x1="50.5" y1="2.5" x2="50.5" y2="30.5" id="Line-22" stroke="#76085C" stroke-width="2" stroke-linecap="square"></line>
                        <line x1="26" y1="2" x2="26" y2="30" id="Line-22" stroke="#76085C" stroke-width="2" stroke-linecap="square"></line>
                        <line x1="14" y1="2" x2="14" y2="30" id="Line-22" stroke="#76085C" stroke-linecap="square"></line>
                        <line x1="8" y1="2" x2="8" y2="30" id="Line-22" stroke="#76085C" stroke-linecap="square"></line>
                        <line x1="20" y1="2" x2="20" y2="30" id="Line-22" stroke="#76085C" stroke-linecap="square"></line>
                        <line x1="38" y1="2" x2="38" y2="30" id="Line-22" stroke="#76085C" stroke-linecap="square"></line>
                        <line x1="44" y1="2" x2="44" y2="30" id="Line-22" stroke="#76085C" stroke-linecap="square"></line>
                        <line x1="32" y1="2" x2="32" y2="30" id="Line-22" stroke="#76085C" stroke-linecap="square"></line>
                        <line x1="63" y1="2" x2="63" y2="30" id="Line-22" stroke="#76085C" stroke-linecap="square"></line>
                        <line x1="68" y1="2" x2="68" y2="30" id="Line-22" stroke="#76085C" stroke-linecap="square"></line>
                        <line x1="57" y1="2" x2="57" y2="30" id="Line-22" stroke="#76085C" stroke-linecap="square"></line>
                        <line x1="86" y1="2" x2="86" y2="30" id="Line-22" stroke="#76085C" stroke-linecap="square"></line>
                        <line x1="92" y1="2" x2="92" y2="30" id="Line-22" stroke="#76085C" stroke-linecap="square"></line>
                        <line x1="80" y1="2" x2="80" y2="30" id="Line-22" stroke="#76085C" stroke-linecap="square"></line>
                        <line x1="74" y1="2" x2="74" y2="30" id="Line-22" stroke="#76085C" stroke-width="2" stroke-linecap="square"></line>
                    </g>
                </g>
                <g id="Light-purple-window" transform="translate(878.000000, 190.000000)">
                    <rect id="Rectangle" stroke="#FFFFFF" stroke-width="2" fill="#FFEDF5" x="1" y="1.25" width="98" height="78"></rect>
                    <line x1="66" y1="3.25" x2="66" y2="78.25" id="Line-19" stroke="#FFFFFF" stroke-width="4" stroke-linecap="square"></line>
                    <line x1="50.25" y1="-31" x2="50.75" y2="61.5" id="Line-19" stroke="#FFFFFF" stroke-width="4" stroke-linecap="square" transform="translate(50.250000, 15.500000) rotate(-90.000000) translate(-50.250000, -15.500000) "></line>
                    <g id="Pot-tree" transform="translate(4.000000, 17.000000)">
                        <g id="Flower-pot" transform="translate(7.142857, 48.326737)">
                            <path d="M1.11375111,1.11375111 L14.4787645,1.11375111 L12.3118734,10.3230381 C12.2763606,10.4739677 12.1416814,10.5806356 11.9866301,10.5806356 L3.6058855,10.5806356 C3.45083415,10.5806356 3.31615503,10.4739677 3.28064217,10.3230381 L1.11375111,1.11375111 L1.11375111,1.11375111 Z" id="Rectangle" fill="#D9833D"></path>
                            <rect id="Rectangle" fill="#EE964E" x="0" y="0" width="15.5925156" height="2.22750223" rx="0.445500446"></rect>
                        </g>
                        <line x1="15.0223214" y1="20.9776786" x2="14.9553571" y2="46.75" id="Line-25" stroke="#650000" stroke-width="3.339286" stroke-linecap="square"></line>
                        <path d="M12.7678571,0 C14.8374909,0 16.6878327,0.938900421 17.9161808,2.41399955 C18.5971305,2.18047838 19.3283877,2.05357143 20.0892857,2.05357143 C23.7876211,2.05357143 26.7857143,5.05166462 26.7857143,8.75 C26.7857143,8.76607244 26.7856577,8.78213165 26.7855446,8.79817746 C28.6632512,9.98444679 29.9107143,12.0786859 29.9107143,14.4642857 C29.9107143,18.1626211 26.9126211,21.1607143 23.2142857,21.1607143 C22.0236122,21.1607143 20.9055194,20.8499594 19.9366871,20.3051296 C18.7080304,21.7565202 16.8724078,22.6785714 14.8214286,22.6785714 C12.8172839,22.6785714 11.0187728,21.7981499 9.79156578,20.4029775 C8.86663665,20.8872039 7.8134735,21.1607143 6.69642857,21.1607143 C2.99809319,21.1607143 0,18.1626211 0,14.4642857 C0,10.9461492 2.71305071,8.0616797 6.16108494,7.7889443 C6.1017946,7.43373849 6.07142857,7.06862971 6.07142857,6.69642857 C6.07142857,2.99809319 9.06952176,0 12.7678571,0 Z" id="Combined-Shape" fill="#419D34"></path>
                        <circle id="Oval" fill="#F18500" cx="11.7410714" cy="18.1875" r="1.11607143"></circle>
                        <circle id="Oval" fill="#FF9A00" cx="10.6696429" cy="9.51914563" r="1.11607143"></circle>
                        <circle id="Oval" fill="#F29200" cx="18.7946429" cy="15.3303571" r="1.11607143"></circle>
                        <circle id="Oval" fill="#FFBB53" cx="18.7946429" cy="8.09821429" r="1.11607143"></circle>
                        <circle id="Oval" fill="#F29200" cx="4.33035714" cy="15.9553571" r="1.11607143"></circle>
                        <circle id="Oval" fill="#F18500" cx="25.9375" cy="16.4910714" r="1.11607143"></circle>
                        <path d="M11.1376403,17.4448236 C11.3513219,17.4448236 11.5447743,17.310895 11.7179975,17.0430379 C11.5447743,16.7751807 11.3513219,16.6412522 11.1376403,16.6412522 C10.9239587,16.6412522 10.7305063,16.7751807 10.5572832,17.0430379 C10.7305063,17.310895 10.9239587,17.4448236 11.1376403,17.4448236 Z" id="Oval" fill="#54D741" transform="translate(11.137640, 17.043038) rotate(23.000000) translate(-11.137640, -17.043038) "></path>
                        <path d="M12.1197832,17.4448236 C12.3334648,17.4448236 12.5269172,17.310895 12.7001403,17.0430379 C12.5269172,16.7751807 12.3334648,16.6412522 12.1197832,16.6412522 C11.9061016,16.6412522 11.7126492,16.7751807 11.539426,17.0430379 C11.7126492,17.310895 11.9061016,17.4448236 12.1197832,17.4448236 Z" id="Oval" fill="#2F6B26" transform="translate(12.119783, 17.043038) scale(-1, 1) rotate(23.000000) translate(-12.119783, -17.043038) "></path>
                        <path d="M18.6160714,7.25 C18.829753,7.25 19.0232054,7.11607143 19.1964286,6.84821429 C19.0232054,6.58035714 18.829753,6.44642857 18.6160714,6.44642857 C18.4023898,6.44642857 18.2089374,6.58035714 18.0357143,6.84821429 C18.2089374,7.11607143 18.4023898,7.25 18.6160714,7.25 Z" id="Oval" fill="#75F064" transform="translate(18.616071, 6.848214) rotate(49.000000) translate(-18.616071, -6.848214) "></path>
                        <path d="M19.5089286,7.42857143 C19.7226102,7.42857143 19.9160626,7.29464286 20.0892857,7.02678571 C19.9160626,6.75892857 19.7226102,6.625 19.5089286,6.625 C19.295247,6.625 19.1017946,6.75892857 18.9285714,7.02678571 C19.1017946,7.29464286 19.295247,7.42857143 19.5089286,7.42857143 Z" id="Oval" fill="#4CD239" transform="translate(19.508929, 7.026786) scale(-1, 1) rotate(23.000000) translate(-19.508929, -7.026786) "></path>
                        <path d="M3.4375,15.2857143 C3.6511816,15.2857143 3.84463398,15.1517857 4.01785714,14.8839286 C3.84463398,14.6160714 3.6511816,14.4821429 3.4375,14.4821429 C3.2238184,14.4821429 3.03036602,14.6160714 2.85714286,14.8839286 C3.03036602,15.1517857 3.2238184,15.2857143 3.4375,15.2857143 Z" id="Oval" fill="#16560C"></path>
                        <path d="M18.7946429,15.1071429 C19.0083245,15.1071429 19.2017768,14.9732143 19.375,14.7053571 C19.2017768,14.4375 19.0083245,14.3035714 18.7946429,14.3035714 C18.5809613,14.3035714 18.3875089,14.4375 18.2142857,14.7053571 C18.3875089,14.9732143 18.5809613,15.1071429 18.7946429,15.1071429 Z" id="Oval" fill="#16560C" transform="translate(18.794643, 14.705357) rotate(-128.000000) translate(-18.794643, -14.705357) "></path>
                        <path d="M18.0803571,15.1071429 C18.2940387,15.1071429 18.4874911,14.9732143 18.6607143,14.7053571 C18.4874911,14.4375 18.2940387,14.3035714 18.0803571,14.3035714 C17.8666755,14.3035714 17.6732232,14.4375 17.5,14.7053571 C17.6732232,14.9732143 17.8666755,15.1071429 18.0803571,15.1071429 Z" id="Oval" fill="#218014" transform="translate(18.080357, 14.705357) scale(-1, 1) rotate(-128.000000) translate(-18.080357, -14.705357) "></path>
                        <path d="M11.2053571,9.38521706 C11.4190387,9.38521706 11.6124911,9.25128849 11.7857143,8.98343134 C11.6124911,8.7155742 11.4190387,8.58164563 11.2053571,8.58164563 C10.9916755,8.58164563 10.7982232,8.7155742 10.625,8.98343134 C10.7982232,9.25128849 10.9916755,9.38521706 11.2053571,9.38521706 Z" id="Oval" fill="#238914" transform="translate(11.205357, 8.983431) rotate(-114.000000) translate(-11.205357, -8.983431) "></path>
                        <path d="M10.5803571,9.20664563 C10.7940387,9.20664563 10.9874911,9.07271706 11.1607143,8.80485991 C10.9874911,8.53700277 10.7940387,8.4030742 10.5803571,8.4030742 C10.3666755,8.4030742 10.1732232,8.53700277 10,8.80485991 C10.1732232,9.07271706 10.3666755,9.20664563 10.5803571,9.20664563 Z" id="Oval" fill="#39EA20" transform="translate(10.580357, 8.804860) scale(-1, 1) rotate(-145.000000) translate(-10.580357, -8.804860) "></path>
                        <path d="M4.33035714,14.9285714 C4.54403874,14.9285714 4.73749112,14.7946429 4.91071429,14.5267857 C4.73749112,14.2589286 4.54403874,14.125 4.33035714,14.125 C4.11667554,14.125 3.92322316,14.2589286 3.75,14.5267857 C3.92322316,14.7946429 4.11667554,14.9285714 4.33035714,14.9285714 Z" id="Oval" fill="#377F2D" transform="translate(4.330357, 14.526786) scale(-1, 1) rotate(49.000000) translate(-4.330357, -14.526786) "></path>
                        <path d="M25.4910714,15.7640962 C25.704753,15.7640962 25.8982054,15.6301677 26.0714286,15.3623105 C25.8982054,15.0944534 25.704753,14.9605248 25.4910714,14.9605248 C25.2773898,14.9605248 25.0839374,15.0944534 24.9107143,15.3623105 C25.0839374,15.6301677 25.2773898,15.7640962 25.4910714,15.7640962 Z" id="Oval" fill="#16560C"></path>
                        <path d="M26.1160714,16.2678571 C26.329753,16.2678571 26.5232054,16.1339286 26.6964286,15.8660714 C26.5232054,15.5982143 26.329753,15.4642857 26.1160714,15.4642857 C25.9023898,15.4642857 25.7089374,15.5982143 25.5357143,15.8660714 C25.7089374,16.1339286 25.9023898,16.2678571 26.1160714,16.2678571 Z" id="Oval" fill="#377F2D" transform="translate(26.116071, 15.866071) scale(-1, 1) rotate(-73.000000) translate(-26.116071, -15.866071) "></path>
                    </g>
                    <g id="Balcony" transform="translate(0.000000, 45.250000)">
                        <rect id="Rectangle" fill="#76085C" x="0" y="30" width="100" height="5"></rect>
                        <line x1="1.45700892" y1="0.5" x2="98.6249286" y2="0.5" id="Line-20" stroke="#76085C" stroke-width="3" stroke-linecap="square"></line>
                        <line x1="1.5" y1="0.5" x2="1.5" y2="30.5" id="Line-21" stroke="#76085C" stroke-width="3" stroke-linecap="square"></line>
                        <line x1="98.5" y1="0.5" x2="98.5" y2="30.5" id="Line-21" stroke="#76085C" stroke-width="3" stroke-linecap="square"></line>
                        <line x1="50.5" y1="2.5" x2="50.5" y2="30.5" id="Line-22" stroke="#76085C" stroke-width="2" stroke-linecap="square"></line>
                        <line x1="26" y1="2" x2="26" y2="30" id="Line-22" stroke="#76085C" stroke-width="2" stroke-linecap="square"></line>
                        <line x1="14" y1="2" x2="14" y2="30" id="Line-22" stroke="#76085C" stroke-linecap="square"></line>
                        <line x1="8" y1="2" x2="8" y2="30" id="Line-22" stroke="#76085C" stroke-linecap="square"></line>
                        <line x1="20" y1="2" x2="20" y2="30" id="Line-22" stroke="#76085C" stroke-linecap="square"></line>
                        <line x1="38" y1="2" x2="38" y2="30" id="Line-22" stroke="#76085C" stroke-linecap="square"></line>
                        <line x1="44" y1="2" x2="44" y2="30" id="Line-22" stroke="#76085C" stroke-linecap="square"></line>
                        <line x1="32" y1="2" x2="32" y2="30" id="Line-22" stroke="#76085C" stroke-linecap="square"></line>
                        <line x1="63" y1="2" x2="63" y2="30" id="Line-22" stroke="#76085C" stroke-linecap="square"></line>
                        <line x1="68" y1="2" x2="68" y2="30" id="Line-22" stroke="#76085C" stroke-linecap="square"></line>
                        <line x1="57" y1="2" x2="57" y2="30" id="Line-22" stroke="#76085C" stroke-linecap="square"></line>
                        <line x1="86" y1="2" x2="86" y2="30" id="Line-22" stroke="#76085C" stroke-linecap="square"></line>
                        <line x1="92" y1="2" x2="92" y2="30" id="Line-22" stroke="#76085C" stroke-linecap="square"></line>
                        <line x1="80" y1="2" x2="80" y2="30" id="Line-22" stroke="#76085C" stroke-linecap="square"></line>
                        <line x1="74" y1="2" x2="74" y2="30" id="Line-22" stroke="#76085C" stroke-width="2" stroke-linecap="square"></line>
                    </g>
                </g>
                <g id="Light-purple-window" transform="translate(314.000000, 190.000000)">
                    <rect id="Rectangle" stroke="#FFFFFF" stroke-width="2" fill="#FFEDF5" x="1" y="1.25" width="98" height="78"></rect>
                    <line x1="66" y1="3.25" x2="66" y2="78.25" id="Line-19" stroke="#FFFFFF" stroke-width="4" stroke-linecap="square"></line>
                    <line x1="50.25" y1="-31" x2="50.75" y2="61.5" id="Line-19" stroke="#FFFFFF" stroke-width="4" stroke-linecap="square" transform="translate(50.250000, 15.500000) rotate(-90.000000) translate(-50.250000, -15.500000) "></line>
                    <g id="Balcony" transform="translate(0.000000, 45.250000)">
                        <rect id="Rectangle" fill="#76085C" x="0" y="30" width="100" height="5"></rect>
                        <line x1="1.45700892" y1="0.5" x2="98.6249286" y2="0.5" id="Line-20" stroke="#76085C" stroke-width="3" stroke-linecap="square"></line>
                        <line x1="1.5" y1="0.5" x2="1.5" y2="30.5" id="Line-21" stroke="#76085C" stroke-width="3" stroke-linecap="square"></line>
                        <line x1="98.5" y1="0.5" x2="98.5" y2="30.5" id="Line-21" stroke="#76085C" stroke-width="3" stroke-linecap="square"></line>
                        <line x1="50.5" y1="2.5" x2="50.5" y2="30.5" id="Line-22" stroke="#76085C" stroke-width="2" stroke-linecap="square"></line>
                        <line x1="26" y1="2" x2="26" y2="30" id="Line-22" stroke="#76085C" stroke-width="2" stroke-linecap="square"></line>
                        <line x1="14" y1="2" x2="14" y2="30" id="Line-22" stroke="#76085C" stroke-linecap="square"></line>
                        <line x1="8" y1="2" x2="8" y2="30" id="Line-22" stroke="#76085C" stroke-linecap="square"></line>
                        <line x1="20" y1="2" x2="20" y2="30" id="Line-22" stroke="#76085C" stroke-linecap="square"></line>
                        <line x1="38" y1="2" x2="38" y2="30" id="Line-22" stroke="#76085C" stroke-linecap="square"></line>
                        <line x1="44" y1="2" x2="44" y2="30" id="Line-22" stroke="#76085C" stroke-linecap="square"></line>
                        <line x1="32" y1="2" x2="32" y2="30" id="Line-22" stroke="#76085C" stroke-linecap="square"></line>
                        <line x1="63" y1="2" x2="63" y2="30" id="Line-22" stroke="#76085C" stroke-linecap="square"></line>
                        <line x1="68" y1="2" x2="68" y2="30" id="Line-22" stroke="#76085C" stroke-linecap="square"></line>
                        <line x1="57" y1="2" x2="57" y2="30" id="Line-22" stroke="#76085C" stroke-linecap="square"></line>
                        <line x1="86" y1="2" x2="86" y2="30" id="Line-22" stroke="#76085C" stroke-linecap="square"></line>
                        <line x1="92" y1="2" x2="92" y2="30" id="Line-22" stroke="#76085C" stroke-linecap="square"></line>
                        <line x1="80" y1="2" x2="80" y2="30" id="Line-22" stroke="#76085C" stroke-linecap="square"></line>
                        <line x1="74" y1="2" x2="74" y2="30" id="Line-22" stroke="#76085C" stroke-width="2" stroke-linecap="square"></line>
                    </g>
                </g>
                <g id="Balcony-flowers" transform="translate(760.000000, 215.000000)">
                    <path d="M4.58162836,13.8003217 C5.30969226,13.8003217 5.17173383,13.6085573 5.17173383,12.3872889 C5.17173383,11.8016302 4.56859317,10.880799 2.94000531,10.3098564 C2.59396077,10.1885418 2.25170433,9.88828659 1.91323599,9.40909091 C1.71961689,10.1431597 1.75488822,10.9125032 2.01904996,11.7171214 C2.41529257,12.9240488 3.85356445,13.8003217 4.58162836,13.8003217 Z" id="Oval" fill="#156C0A"></path>
                    <path d="M7.36005882,10.8712631 C7.90058692,10.9815704 7.75030801,11.1026367 7.75030801,9.88136826 C7.75030801,9.29570963 7.21895686,8.75902105 6.34289145,8.61130024 C5.98444017,8.55085874 5.60330624,8.36224351 5.19948967,8.04545455 C5.2273461,8.61659948 5.31900303,9.12946339 5.47446046,9.58404628 C5.70764661,10.2659206 6.81953072,10.7609559 7.36005882,10.8712631 Z" id="Oval" fill="#1DA10C" transform="translate(6.484494, 9.491207) scale(-1, 1) translate(-6.484494, -9.491207) "></path>
                    <line x1="5.13130785" y1="5.79545455" x2="5.13130785" y2="20.1136364" id="Line-23" stroke="#1D8B0F" stroke-width="0.6" stroke-linecap="square"></line>
                    <path d="M4.78346482,3.56031772 L5.47691045,3.56031772 C5.64194643,2.43632661 5.72446442,1.82414596 5.72446442,1.72377577 C5.72446442,1.57322048 5.66346725,1.22727273 5.11298357,1.22727273 C4.5624999,1.22727273 4.5624999,1.52815078 4.52238607,1.72377577 C4.49564352,1.85419242 4.58266977,2.46637308 4.78346482,3.56031772 Z" id="Path-20" fill="#130887"></path>
                    <path d="M6.82891937,4.65122681 L7.522365,4.65122681 C7.68740098,3.5272357 7.76991896,2.91505505 7.76991896,2.81468486 C7.76991896,2.66412957 7.70892179,2.31818182 7.15843812,2.31818182 C6.60795444,2.31818182 6.60795444,2.61905987 6.56784062,2.81468486 C6.54109807,2.94510152 6.62812432,3.55728217 6.82891937,4.65122681 Z" id="Path-20" fill="#0F0766" transform="translate(7.166522, 3.484704) rotate(56.000000) translate(-7.166522, -3.484704) "></path>
                    <path d="M6.01073755,3.83304499 L6.70418318,3.83304499 C6.86921916,2.70905388 6.95173715,2.09687323 6.95173715,1.99650304 C6.95173715,1.84594775 6.89073997,1.5 6.3402563,1.5 C5.78977262,1.5 5.78977262,1.80087805 5.7496588,1.99650304 C5.72291625,2.1269197 5.8099425,2.73910035 6.01073755,3.83304499 Z" id="Path-20" fill="#1E11A9" transform="translate(6.348341, 2.666522) rotate(30.000000) translate(-6.348341, -2.666522) "></path>
                    <path d="M7.23801028,5.87849954 L7.93145591,5.87849954 C8.09649188,4.75450843 8.17900987,4.14232777 8.17900987,4.04195758 C8.17900987,3.8914023 8.1180127,3.54545455 7.56752903,3.54545455 C7.01704535,3.54545455 7.01704535,3.8463326 6.97693153,4.04195758 C6.95018898,4.17237424 7.03721523,4.78455489 7.23801028,5.87849954 Z" id="Path-20" fill="#130887" transform="translate(7.575613, 4.711977) rotate(90.000000) translate(-7.575613, -4.711977) "></path>
                    <path d="M6.01073755,7.92395409 L6.70418318,7.92395409 C6.86921916,6.79996297 6.95173715,6.18778232 6.95173715,6.08741213 C6.95173715,5.93685685 6.89073997,5.59090909 6.3402563,5.59090909 C5.78977262,5.59090909 5.78977262,5.89178714 5.7496588,6.08741213 C5.72291625,6.21782879 5.8099425,6.83000944 6.01073755,7.92395409 Z" id="Path-20" fill="#0F0766" transform="translate(6.348341, 6.757432) rotate(146.000000) translate(-6.348341, -6.757432) "></path>
                    <path d="M6.96528301,7.10577227 L7.65872863,7.10577227 C7.82376461,5.98178115 7.9062826,5.3696005 7.9062826,5.26923031 C7.9062826,5.11867503 7.84528543,4.77272727 7.29480175,4.77272727 C6.74431808,4.77272727 6.74431808,5.07360532 6.70420425,5.26923031 C6.6774617,5.39964697 6.76448796,6.01182762 6.96528301,7.10577227 Z" id="Path-20" fill="#1E11A9" transform="translate(7.302886, 5.939250) rotate(120.000000) translate(-7.302886, -5.939250) "></path>
                    <path d="M2.46528301,5.87849954 L3.15872863,5.87849954 C3.32376461,4.75450843 3.4062826,4.14232777 3.4062826,4.04195758 C3.4062826,3.8914023 3.34528543,3.54545455 2.79480175,3.54545455 C2.24431808,3.54545455 2.24431808,3.8463326 2.20420425,4.04195758 C2.1774617,4.17237424 2.26448796,4.78455489 2.46528301,5.87849954 Z" id="Path-20" fill="#130887" transform="translate(2.802886, 4.711977) scale(-1, 1) rotate(90.000000) translate(-2.802886, -4.711977) "></path>
                    <path d="M2.73801028,4.65122681 L3.43145591,4.65122681 C3.59649188,3.5272357 3.67900987,2.91505505 3.67900987,2.81468486 C3.67900987,2.66412957 3.6180127,2.31818182 3.06752903,2.31818182 C2.51704535,2.31818182 2.51704535,2.61905987 2.47693153,2.81468486 C2.45018898,2.94510152 2.53721523,3.55728217 2.73801028,4.65122681 Z" id="Path-20" fill="#1E11A9" transform="translate(3.075613, 3.484704) scale(-1, 1) rotate(60.000000) translate(-3.075613, -3.484704) "></path>
                    <path d="M3.5561921,3.83304499 L4.24963773,3.83304499 C4.4146737,2.70905388 4.49719169,2.09687323 4.49719169,1.99650304 C4.49719169,1.84594775 4.43619452,1.5 3.88571084,1.5 C3.33522717,1.5 3.33522717,1.80087805 3.29511335,1.99650304 C3.2683708,2.1269197 3.35539705,2.73910035 3.5561921,3.83304499 Z" id="Path-20" fill="#0F0766" transform="translate(3.893795, 2.666522) scale(-1, 1) rotate(30.000000) translate(-3.893795, -2.666522) "></path>
                    <path d="M4.78346482,8.33304499 L5.47691045,8.33304499 C5.64194643,7.20905388 5.72446442,6.59687323 5.72446442,6.49650304 C5.72446442,6.34594775 5.66346725,6 5.11298357,6 C4.5624999,6 4.5624999,6.30087805 4.52238607,6.49650304 C4.49564352,6.6269197 4.58266977,7.23910035 4.78346482,8.33304499 Z" id="Path-20" fill="#130887" transform="translate(5.121068, 7.166522) scale(1, -1) translate(-5.121068, -7.166522) "></path>
                    <path d="M2.73801028,7.10577227 L3.43145591,7.10577227 C3.59649188,5.98178115 3.67900987,5.3696005 3.67900987,5.26923031 C3.67900987,5.11867503 3.6180127,4.77272727 3.06752903,4.77272727 C2.51704535,4.77272727 2.51704535,5.07360532 2.47693153,5.26923031 C2.45018898,5.39964697 2.53721523,6.01182762 2.73801028,7.10577227 Z" id="Path-20" fill="#0F0766" transform="translate(3.075613, 5.939250) scale(1, -1) rotate(-56.000000) translate(-3.075613, -5.939250) "></path>
                    <path d="M3.5561921,7.92395409 L4.24963773,7.92395409 C4.4146737,6.79996297 4.49719169,6.18778232 4.49719169,6.08741213 C4.49719169,5.93685685 4.43619452,5.59090909 3.88571084,5.59090909 C3.33522717,5.59090909 3.33522717,5.89178714 3.29511335,6.08741213 C3.2683708,6.21782879 3.35539705,6.83000944 3.5561921,7.92395409 Z" id="Path-20" fill="#1E11A9" transform="translate(3.893795, 6.757432) scale(1, -1) rotate(-30.000000) translate(-3.893795, -6.757432) "></path>
                    <circle id="Oval" fill="#FFE36E" cx="5.19948967" cy="4.77272727" r="1.36363636"></circle>
                    <path d="M14.3998102,16.9366853 C15.1278741,16.9366853 14.9899157,16.744921 14.9899157,15.5236525 C14.9899157,14.9379939 14.386775,14.0171626 12.7581871,13.44622 C12.4121426,13.3249054 12.0698862,13.0246502 11.7314178,12.5454545 C11.5377987,13.2795233 11.57307,14.0488668 11.8372318,14.8534851 C12.2334744,16.0604124 13.6717463,16.9366853 14.3998102,16.9366853 Z" id="Oval" fill="#156C0A"></path>
                    <path d="M17.1782406,14.0076268 C17.7187687,14.117934 17.5684898,14.2390004 17.5684898,13.0177319 C17.5684898,12.4320733 17.0371387,11.8953847 16.1610733,11.7476639 C15.802622,11.6872224 15.4214881,11.4986071 15.0176715,11.1818182 C15.0455279,11.7529631 15.1371848,12.265827 15.2926423,12.7204099 C15.5258284,13.4022843 16.6377125,13.8973195 17.1782406,14.0076268 Z" id="Oval" fill="#1DA10C" transform="translate(16.302676, 12.627571) scale(-1, 1) translate(-16.302676, -12.627571) "></path>
                    <line x1="14.9494897" y1="8.93181818" x2="14.9494897" y2="23.25" id="Line-23" stroke="#1D8B0F" stroke-width="0.6" stroke-linecap="square"></line>
                    <path d="M14.6016466,6.69668136 L15.2950923,6.69668136 C15.4601282,5.57269024 15.5426462,4.96050959 15.5426462,4.8601394 C15.5426462,4.70958412 15.4816491,4.36363636 14.9311654,4.36363636 C14.3806817,4.36363636 14.3806817,4.66451442 14.3405679,4.8601394 C14.3138253,4.99055606 14.4008516,5.60273671 14.6016466,6.69668136 Z" id="Path-20" fill="#2110E1"></path>
                    <path d="M16.6471012,7.78759045 L17.3405468,7.78759045 C17.5055828,6.66359934 17.5881008,6.05141868 17.5881008,5.95104849 C17.5881008,5.80049321 17.5271036,5.45454545 16.9766199,5.45454545 C16.4261363,5.45454545 16.4261363,5.75542351 16.3860224,5.95104849 C16.3592799,6.08146515 16.4463061,6.6936458 16.6471012,7.78759045 Z" id="Path-20" fill="#0F0766" transform="translate(16.984704, 6.621068) rotate(56.000000) translate(-16.984704, -6.621068) "></path>
                    <path d="M15.8289194,6.96940863 L16.522365,6.96940863 C16.687401,5.84541752 16.769919,5.23323687 16.769919,5.13286668 C16.769919,4.98231139 16.7089218,4.63636364 16.1584381,4.63636364 C15.6079544,4.63636364 15.6079544,4.93724169 15.5678406,5.13286668 C15.5410981,5.26328333 15.6281243,5.87546399 15.8289194,6.96940863 Z" id="Path-20" fill="#1E11A9" transform="translate(16.166522, 5.802886) rotate(30.000000) translate(-16.166522, -5.802886) "></path>
                    <path d="M17.0561921,9.01486318 L17.7496377,9.01486318 C17.9146737,7.89087206 17.9971917,7.27869141 17.9971917,7.17832122 C17.9971917,7.02776594 17.9361945,6.68181818 17.3857108,6.68181818 C16.8352272,6.68181818 16.8352272,6.98269623 16.7951133,7.17832122 C16.7683708,7.30873788 16.855397,7.92091853 17.0561921,9.01486318 Z" id="Path-20" fill="#2110E1" transform="translate(17.393795, 7.848341) rotate(90.000000) translate(-17.393795, -7.848341) "></path>
                    <path d="M15.8289194,11.0603177 L16.522365,11.0603177 C16.687401,9.93632661 16.769919,9.32414596 16.769919,9.22377577 C16.769919,9.07322048 16.7089218,8.72727273 16.1584381,8.72727273 C15.6079544,8.72727273 15.6079544,9.02815078 15.5678406,9.22377577 C15.5410981,9.35419242 15.6281243,9.96637308 15.8289194,11.0603177 Z" id="Path-20" fill="#0F0766" transform="translate(16.166522, 9.893795) rotate(146.000000) translate(-16.166522, -9.893795) "></path>
                    <path d="M16.7834648,10.2421359 L17.4769105,10.2421359 C17.6419464,9.11814479 17.7244644,8.50596414 17.7244644,8.40559395 C17.7244644,8.25503866 17.6634672,7.90909091 17.1129836,7.90909091 C16.5624999,7.90909091 16.5624999,8.20996896 16.5223861,8.40559395 C16.4956435,8.53601061 16.5826698,9.14819126 16.7834648,10.2421359 Z" id="Path-20" fill="#1E11A9" transform="translate(17.121068, 9.075613) rotate(120.000000) translate(-17.121068, -9.075613) "></path>
                    <path d="M12.2834648,9.01486318 L12.9769105,9.01486318 C13.1419464,7.89087206 13.2244644,7.27869141 13.2244644,7.17832122 C13.2244644,7.02776594 13.1634672,6.68181818 12.6129836,6.68181818 C12.0624999,6.68181818 12.0624999,6.98269623 12.0223861,7.17832122 C11.9956435,7.30873788 12.0826698,7.92091853 12.2834648,9.01486318 Z" id="Path-20" fill="#2110E1" transform="translate(12.621068, 7.848341) scale(-1, 1) rotate(90.000000) translate(-12.621068, -7.848341) "></path>
                    <path d="M12.5561921,7.78759045 L13.2496377,7.78759045 C13.4146737,6.66359934 13.4971917,6.05141868 13.4971917,5.95104849 C13.4971917,5.80049321 13.4361945,5.45454545 12.8857108,5.45454545 C12.3352272,5.45454545 12.3352272,5.75542351 12.2951133,5.95104849 C12.2683708,6.08146515 12.355397,6.6936458 12.5561921,7.78759045 Z" id="Path-20" fill="#1E11A9" transform="translate(12.893795, 6.621068) scale(-1, 1) rotate(60.000000) translate(-12.893795, -6.621068) "></path>
                    <path d="M13.3743739,6.96940863 L14.0678195,6.96940863 C14.2328555,5.84541752 14.3153735,5.23323687 14.3153735,5.13286668 C14.3153735,4.98231139 14.2543763,4.63636364 13.7038927,4.63636364 C13.153409,4.63636364 13.153409,4.93724169 13.1132952,5.13286668 C13.0865526,5.26328333 13.1735789,5.87546399 13.3743739,6.96940863 Z" id="Path-20" fill="#0F0766" transform="translate(13.711977, 5.802886) scale(-1, 1) rotate(30.000000) translate(-13.711977, -5.802886) "></path>
                    <path d="M14.6016466,11.4694086 L15.2950923,11.4694086 C15.4601282,10.3454175 15.5426462,9.73323687 15.5426462,9.63286668 C15.5426462,9.48231139 15.4816491,9.13636364 14.9311654,9.13636364 C14.3806817,9.13636364 14.3806817,9.43724169 14.3405679,9.63286668 C14.3138253,9.76328333 14.4008516,10.375464 14.6016466,11.4694086 Z" id="Path-20" fill="#2110E1" transform="translate(14.939250, 10.302886) scale(1, -1) translate(-14.939250, -10.302886) "></path>
                    <path d="M12.5561921,10.2421359 L13.2496377,10.2421359 C13.4146737,9.11814479 13.4971917,8.50596414 13.4971917,8.40559395 C13.4971917,8.25503866 13.4361945,7.90909091 12.8857108,7.90909091 C12.3352272,7.90909091 12.3352272,8.20996896 12.2951133,8.40559395 C12.2683708,8.53601061 12.355397,9.14819126 12.5561921,10.2421359 Z" id="Path-20" fill="#0F0766" transform="translate(12.893795, 9.075613) scale(1, -1) rotate(-56.000000) translate(-12.893795, -9.075613) "></path>
                    <path d="M13.3743739,11.0603177 L14.0678195,11.0603177 C14.2328555,9.93632661 14.3153735,9.32414596 14.3153735,9.22377577 C14.3153735,9.07322048 14.2543763,8.72727273 13.7038927,8.72727273 C13.153409,8.72727273 13.153409,9.02815078 13.1132952,9.22377577 C13.0865526,9.35419242 13.1735789,9.96637308 13.3743739,11.0603177 Z" id="Path-20" fill="#1E11A9" transform="translate(13.711977, 9.893795) scale(1, -1) rotate(-30.000000) translate(-13.711977, -9.893795) "></path>
                    <circle id="Oval" fill="#FF9A59" cx="15.0176715" cy="7.90909091" r="1.36363636"></circle>
                    <path d="M24.217992,12.5730489 C24.9460559,12.5730489 24.8080975,12.3812846 24.8080975,11.1600161 C24.8080975,10.5743575 24.2049568,9.65352628 22.5763689,9.08258368 C22.2303244,8.96126903 21.888068,8.66101386 21.5495996,8.18181818 C21.3559805,8.91588697 21.3912519,9.68523048 21.6554136,10.4898487 C22.0516562,11.6967761 23.4899281,12.5730489 24.217992,12.5730489 Z" id="Oval" fill="#156C0A"></path>
                    <path d="M26.9964225,9.64399042 C27.5369506,9.75429766 27.3866716,9.87536402 27.3866716,8.65409553 C27.3866716,8.06843691 26.8553205,7.53174833 25.9792551,7.38402752 C25.6208038,7.32358601 25.2396699,7.13497078 24.8358533,6.81818182 C24.8637097,7.38932675 24.9553667,7.90219067 25.1108241,8.35677356 C25.3440102,9.03864789 26.4558944,9.53368318 26.9964225,9.64399042 Z" id="Oval" fill="#1DA10C" transform="translate(26.120857, 8.263934) scale(-1, 1) translate(-26.120857, -8.263934) "></path>
                    <line x1="24.7676715" y1="4.56818182" x2="24.7676715" y2="18.8863636" id="Line-23" stroke="#1D8B0F" stroke-width="0.6" stroke-linecap="square"></line>
                    <path d="M24.4198285,2.33304499 L25.1132741,2.33304499 C25.2783101,1.20905388 25.3608281,0.596873229 25.3608281,0.496503039 C25.3608281,0.345947755 25.2998309,3.73034936e-14 24.7493472,3.73034936e-14 C24.1988635,3.73034936e-14 24.1988635,0.300878052 24.1587497,0.496503039 C24.1320072,0.626919698 24.2190334,1.23910035 24.4198285,2.33304499 Z" id="Path-20" fill="#1187A8"></path>
                    <path d="M26.465283,3.42395409 L27.1587286,3.42395409 C27.3237646,2.29996297 27.4062826,1.68778232 27.4062826,1.58741213 C27.4062826,1.43685685 27.3452854,1.09090909 26.7948018,1.09090909 C26.2443181,1.09090909 26.2443181,1.39178714 26.2042043,1.58741213 C26.1774617,1.71782879 26.264488,2.33000944 26.465283,3.42395409 Z" id="Path-20" fill="#1CB5E0" transform="translate(26.802886, 2.257432) rotate(56.000000) translate(-26.802886, -2.257432) "></path>
                    <path d="M25.6471012,2.60577227 L26.3405468,2.60577227 C26.5055828,1.48178115 26.5881008,0.869600502 26.5881008,0.769230312 C26.5881008,0.618675027 26.5271036,0.272727273 25.9766199,0.272727273 C25.4261363,0.272727273 25.4261363,0.573605324 25.3860224,0.769230312 C25.3592799,0.89964697 25.4463061,1.51182762 25.6471012,2.60577227 Z" id="Path-20" fill="#095368" transform="translate(25.984704, 1.439250) rotate(30.000000) translate(-25.984704, -1.439250) "></path>
                    <path d="M26.8743739,4.65122681 L27.5678195,4.65122681 C27.7328555,3.5272357 27.8153735,2.91505505 27.8153735,2.81468486 C27.8153735,2.66412957 27.7543763,2.31818182 27.2038927,2.31818182 C26.653409,2.31818182 26.653409,2.61905987 26.6132952,2.81468486 C26.5865526,2.94510152 26.6735789,3.55728217 26.8743739,4.65122681 Z" id="Path-20" fill="#1187A8" transform="translate(27.211977, 3.484704) rotate(90.000000) translate(-27.211977, -3.484704) "></path>
                    <path d="M25.6471012,6.69668136 L26.3405468,6.69668136 C26.5055828,5.57269024 26.5881008,4.96050959 26.5881008,4.8601394 C26.5881008,4.70958412 26.5271036,4.36363636 25.9766199,4.36363636 C25.4261363,4.36363636 25.4261363,4.66451442 25.3860224,4.8601394 C25.3592799,4.99055606 25.4463061,5.60273671 25.6471012,6.69668136 Z" id="Path-20" fill="#1CB5E0" transform="translate(25.984704, 5.530159) rotate(146.000000) translate(-25.984704, -5.530159) "></path>
                    <path d="M26.6016466,5.87849954 L27.2950923,5.87849954 C27.4601282,4.75450843 27.5426462,4.14232777 27.5426462,4.04195758 C27.5426462,3.8914023 27.4816491,3.54545455 26.9311654,3.54545455 C26.3806817,3.54545455 26.3806817,3.8463326 26.3405679,4.04195758 C26.3138253,4.17237424 26.4008516,4.78455489 26.6016466,5.87849954 Z" id="Path-20" fill="#095368" transform="translate(26.939250, 4.711977) rotate(120.000000) translate(-26.939250, -4.711977) "></path>
                    <path d="M22.1016466,4.65122681 L22.7950923,4.65122681 C22.9601282,3.5272357 23.0426462,2.91505505 23.0426462,2.81468486 C23.0426462,2.66412957 22.9816491,2.31818182 22.4311654,2.31818182 C21.8806817,2.31818182 21.8806817,2.61905987 21.8405679,2.81468486 C21.8138253,2.94510152 21.9008516,3.55728217 22.1016466,4.65122681 Z" id="Path-20" fill="#1187A8" transform="translate(22.439250, 3.484704) scale(-1, 1) rotate(90.000000) translate(-22.439250, -3.484704) "></path>
                    <path d="M22.3743739,3.42395409 L23.0678195,3.42395409 C23.2328555,2.29996297 23.3153735,1.68778232 23.3153735,1.58741213 C23.3153735,1.43685685 23.2543763,1.09090909 22.7038927,1.09090909 C22.153409,1.09090909 22.153409,1.39178714 22.1132952,1.58741213 C22.0865526,1.71782879 22.1735789,2.33000944 22.3743739,3.42395409 Z" id="Path-20" fill="#095368" transform="translate(22.711977, 2.257432) scale(-1, 1) rotate(60.000000) translate(-22.711977, -2.257432) "></path>
                    <path d="M23.1925557,2.60577227 L23.8860014,2.60577227 C24.0510373,1.48178115 24.1335553,0.869600502 24.1335553,0.769230312 C24.1335553,0.618675027 24.0725582,0.272727273 23.5220745,0.272727273 C22.9715908,0.272727273 22.9715908,0.573605324 22.931477,0.769230312 C22.9047344,0.89964697 22.9917607,1.51182762 23.1925557,2.60577227 Z" id="Path-20" fill="#1CB5E0" transform="translate(23.530159, 1.439250) scale(-1, 1) rotate(30.000000) translate(-23.530159, -1.439250) "></path>
                    <path d="M24.4198285,7.10577227 L25.1132741,7.10577227 C25.2783101,5.98178115 25.3608281,5.3696005 25.3608281,5.26923031 C25.3608281,5.11867503 25.2998309,4.77272727 24.7493472,4.77272727 C24.1988635,4.77272727 24.1988635,5.07360532 24.1587497,5.26923031 C24.1320072,5.39964697 24.2190334,6.01182762 24.4198285,7.10577227 Z" id="Path-20" fill="#1187A8" transform="translate(24.757432, 5.939250) scale(1, -1) translate(-24.757432, -5.939250) "></path>
                    <path d="M22.3743739,5.87849954 L23.0678195,5.87849954 C23.2328555,4.75450843 23.3153735,4.14232777 23.3153735,4.04195758 C23.3153735,3.8914023 23.2543763,3.54545455 22.7038927,3.54545455 C22.153409,3.54545455 22.153409,3.8463326 22.1132952,4.04195758 C22.0865526,4.17237424 22.1735789,4.78455489 22.3743739,5.87849954 Z" id="Path-20" fill="#1CB5E0" transform="translate(22.711977, 4.711977) scale(1, -1) rotate(-56.000000) translate(-22.711977, -4.711977) "></path>
                    <path d="M23.1925557,6.69668136 L23.8860014,6.69668136 C24.0510373,5.57269024 24.1335553,4.96050959 24.1335553,4.8601394 C24.1335553,4.70958412 24.0725582,4.36363636 23.5220745,4.36363636 C22.9715908,4.36363636 22.9715908,4.66451442 22.931477,4.8601394 C22.9047344,4.99055606 22.9917607,5.60273671 23.1925557,6.69668136 Z" id="Path-20" fill="#095368" transform="translate(23.530159, 5.530159) scale(1, -1) rotate(-30.000000) translate(-23.530159, -5.530159) "></path>
                    <circle id="Oval" fill="#FFE89E" cx="24.8358533" cy="3.54545455" r="1.36363636"></circle>
                    <path d="M1.69180608,18.6818182 L28.3081939,18.6818182 C28.458817,18.6818182 28.5809212,18.8039223 28.5809212,18.9545455 C28.5809212,18.9712856 28.5793799,18.9879901 28.5763169,19.0044476 L27.3141987,25.7857744 C27.2901599,25.9149343 27.1774536,26.0085995 27.0460758,26.0085995 L2.95392425,26.0085995 C2.82254641,26.0085995 2.70984006,25.9149343 2.68580125,25.7857744 L1.42368309,19.0044476 C1.39612288,18.8563674 1.49382368,18.7139827 1.64190392,18.6864225 C1.65836141,18.6833594 1.67506597,18.6818182 1.69180608,18.6818182 Z" id="Rectangle" fill="#D9833D"></path>
                    <rect id="Rectangle" fill="#EE964E" x="0" y="17.8636364" width="30" height="1.7010017" rx="0.34020034"></rect>
                </g>
                <g id="Balcony-aloe" transform="translate(378.000000, 224.000000)">
                    <g id="Aloe">
                        <path d="M5.33550917,10.2917743 C5.72554077,10.2917743 6.01347527,9.14606026 6.01347527,6.52504789 C6.01347527,4.77770631 6.21396329,2.98677981 6.61493933,1.1522684 C6.2932525,1.71162896 5.90894606,2.74693235 5.46202001,4.25817857 C4.79163093,6.52504789 4.94547756,10.2917743 5.33550917,10.2917743 Z" id="Oval" fill="#16B315"></path>
                        <path d="M5.66997741,10.2657673 C6.06000901,10.2657673 6.92844692,8.69821791 6.92844692,6.07720554 C6.92844692,4.32986396 7.27012941,2.58310297 7.95349439,0.836922564 C7.10707436,1.93735834 6.46040132,3.24319933 6.01347527,4.75444555 C5.34308619,7.02131488 5.27994581,10.2657673 5.66997741,10.2657673 Z" id="Oval" fill="#139B12"></path>
                        <path d="M1.86745967,10.4421117 C2.25749127,10.4421117 3.1105075,10.048293 3.1105075,7.42728061 C3.1105075,5.67993903 3.51918253,3.75790165 4.33653259,1.66116849 C3.40675169,2.85715751 2.71839821,4.21077513 2.27147216,5.72202135 C1.60108308,7.98889067 1.47742807,10.4421117 1.86745967,10.4421117 Z" id="Oval" fill="#139B12" transform="translate(2.991830, 6.051640) scale(-1, 1) translate(-2.991830, -6.051640) "></path>
                        <path d="M4.70952543,10.2657673 C5.09955704,10.2657673 5.38749153,9.12005324 5.38749153,6.49904087 C5.38749153,5.49421256 5.33550917,4.65047947 5.19694067,3.04080985 C5.11874288,2.13243169 4.87815076,1.11882841 4.47516428,-2.84217094e-14 C4.63140505,1.64995905 4.63140505,2.9579715 4.47516428,3.92403737 C4.16113363,5.86574761 4.49418738,10.2657673 4.70952543,10.2657673 Z" id="Oval" fill="#139B12"></path>
                        <path d="M3.25201211,10.2657673 C3.64204372,10.2657673 4.12320215,9.08213908 4.12320215,6.46112671 C4.12320215,4.71378513 4.39149509,3.18962416 4.92808098,1.88864381 C4.1489956,2.73827236 3.63247626,3.51944827 3.37852295,4.23217154 C2.997593,5.30125645 2.86198051,10.2657673 3.25201211,10.2657673 Z" id="Oval" fill="#16B315" transform="translate(3.973024, 6.077206) scale(-1, 1) translate(-3.973024, -6.077206) "></path>
                        <path d="M1.3964187,10.0359347 C1.86826135,10.0197047 2.32516058,9.96770622 2.80426543,9.84916321 C3.91621526,9.57403788 4.54922337,9.04190984 4.54922337,8.17702269 C4.54922337,7.13743641 4.75716335,6.0874729 5.17185362,5.02793262 C4.75830343,5.53153309 4.46201229,6.02124766 4.28223722,6.49615058 C4.12139457,6.92104066 3.72700536,7.46832992 3.11353038,8.17172241 C2.98770332,8.31599205 2.85307292,8.4663029 2.7064034,8.62672155 C2.46346882,8.89242935 1.64643555,9.75881971 1.51077891,9.9081566 C1.46885284,9.9543107 1.43076119,9.99686561 1.3964187,10.0359347 Z M0.965429525,10.0417744 C0.965359255,10.0417743 0.965288978,10.0417743 0.965218696,10.0417743 C0.965289645,10.0417744 0.965360277,10.0417745 0.965430594,10.0417745 Z" id="Oval" stroke="#979797" stroke-width="0.5" fill="#B2B2B2" transform="translate(3.489347, 7.026935) scale(-1, 1) translate(-3.489347, -7.026935) "></path>
                        <path d="M4.86701974,9.98355539 C5.25705135,9.98355539 7.08449939,9.62015153 7.08449939,7.44955543 C7.08449939,6.00249136 7.64259883,4.2902069 8.75879771,2.31270205 C7.74715874,3.22664944 7.08048546,4.10854266 6.75877786,4.95838171 C6.27621647,6.23314029 4.47698814,9.98355539 4.86701974,9.98355539 Z" id="Oval" fill="#16B315"></path>
                        <path d="M5.80799013,10.153084 C6.19802173,10.153084 7.3804492,8.17351141 7.52974934,7.02693529 C7.65784424,6.04320838 8.03903989,5.12831011 8.67333629,4.28224051 C7.98580593,4.52038524 7.48118695,5.06437714 7.15947935,5.91421619 C6.67691796,7.18897476 5.41795852,10.153084 5.80799013,10.153084 Z" id="Oval" fill="#139B12"></path>
                        <path d="M5.80799013,10.2917743 C6.29480994,10.2917743 7.25503263,9.34373819 7.65812329,8.55370553 C7.85972472,8.15857922 8.03966822,7.80695009 8.32225018,7.36771819 C8.51063815,7.07489693 9.0615971,6.64472604 9.97512702,6.07720554 C8.51080851,6.14605829 7.61779546,6.60540419 7.29608787,7.45524324 C6.81352647,8.73000182 5.41795852,10.2917743 5.80799013,10.2917743 Z" id="Oval" fill="#16B315"></path>
                        <path d="M0.0744313505,10.3760235 C0.26181689,10.3760235 0.736902389,10.4769207 0.984561529,10.2657673 C1.38031051,9.92835292 1.56012194,9.16061823 1.80805589,8.67468308 C2.00965732,8.27955678 2.15698709,7.65826581 2.43956905,7.21903391 C2.62795702,6.92621265 3.09301224,6.45009533 3.83473471,5.79068197 C2.54222366,5.95142758 1.73511433,6.45671991 1.41340673,7.30655896 C0.93084534,8.58131754 -0.315600252,10.3760235 0.0744313505,10.3760235 Z" id="Oval" fill="#139B12" transform="translate(1.917367, 8.095400) scale(-1, 1) translate(-1.917367, -8.095400) "></path>
                        <path d="M0.965218696,10.2917743 C1.3552503,10.2917743 4.79922337,10.3476188 4.79922337,8.17702269 C4.79922337,6.72995862 5.21563187,5.25827191 6.04844888,3.76196255 C5.03680991,4.67590994 4.37013663,5.55780316 4.04842903,6.40764221 C3.56586764,7.68240079 0.575187093,10.2917743 0.965218696,10.2917743 Z" id="Oval" fill="#16B315" transform="translate(3.489347, 7.026935) scale(-1, 1) translate(-3.489347, -7.026935) "></path>
                    </g>
                    <g id="Aloe" transform="translate(10.000000, 0.000000)">
                        <path d="M5.33550917,10.2917743 C5.72554077,10.2917743 6.01347527,9.14606026 6.01347527,6.52504789 C6.01347527,4.77770631 6.21396329,2.98677981 6.61493933,1.1522684 C6.2932525,1.71162896 5.90894606,2.74693235 5.46202001,4.25817857 C4.79163093,6.52504789 4.94547756,10.2917743 5.33550917,10.2917743 Z" id="Oval" fill="#16B315"></path>
                        <path d="M5.66997741,10.2657673 C6.06000901,10.2657673 6.92844692,8.69821791 6.92844692,6.07720554 C6.92844692,4.32986396 7.27012941,2.58310297 7.95349439,0.836922564 C7.10707436,1.93735834 6.46040132,3.24319933 6.01347527,4.75444555 C5.34308619,7.02131488 5.27994581,10.2657673 5.66997741,10.2657673 Z" id="Oval" fill="#139B12"></path>
                        <path d="M1.86745967,10.4421117 C2.25749127,10.4421117 3.1105075,10.048293 3.1105075,7.42728061 C3.1105075,5.67993903 3.51918253,3.75790165 4.33653259,1.66116849 C3.40675169,2.85715751 2.71839821,4.21077513 2.27147216,5.72202135 C1.60108308,7.98889067 1.47742807,10.4421117 1.86745967,10.4421117 Z" id="Oval" fill="#139B12" transform="translate(2.991830, 6.051640) scale(-1, 1) translate(-2.991830, -6.051640) "></path>
                        <path d="M4.70952543,10.2657673 C5.09955704,10.2657673 5.38749153,9.12005324 5.38749153,6.49904087 C5.38749153,5.49421256 5.33550917,4.65047947 5.19694067,3.04080985 C5.11874288,2.13243169 4.87815076,1.11882841 4.47516428,-2.84217094e-14 C4.63140505,1.64995905 4.63140505,2.9579715 4.47516428,3.92403737 C4.16113363,5.86574761 4.49418738,10.2657673 4.70952543,10.2657673 Z" id="Oval" fill="#139B12"></path>
                        <path d="M3.25201211,10.2657673 C3.64204372,10.2657673 4.12320215,9.08213908 4.12320215,6.46112671 C4.12320215,4.71378513 4.39149509,3.18962416 4.92808098,1.88864381 C4.1489956,2.73827236 3.63247626,3.51944827 3.37852295,4.23217154 C2.997593,5.30125645 2.86198051,10.2657673 3.25201211,10.2657673 Z" id="Oval" fill="#16B315" transform="translate(3.973024, 6.077206) scale(-1, 1) translate(-3.973024, -6.077206) "></path>
                        <path d="M1.3964187,10.0359347 C1.86826135,10.0197047 2.32516058,9.96770622 2.80426543,9.84916321 C3.91621526,9.57403788 4.54922337,9.04190984 4.54922337,8.17702269 C4.54922337,7.13743641 4.75716335,6.0874729 5.17185362,5.02793262 C4.75830343,5.53153309 4.46201229,6.02124766 4.28223722,6.49615058 C4.12139457,6.92104066 3.72700536,7.46832992 3.11353038,8.17172241 C2.98770332,8.31599205 2.85307292,8.4663029 2.7064034,8.62672155 C2.46346882,8.89242935 1.64643555,9.75881971 1.51077891,9.9081566 C1.46885284,9.9543107 1.43076119,9.99686561 1.3964187,10.0359347 Z M0.965429525,10.0417744 C0.965359255,10.0417743 0.965288978,10.0417743 0.965218696,10.0417743 C0.965289645,10.0417744 0.965360277,10.0417745 0.965430594,10.0417745 Z" id="Oval" stroke="#979797" stroke-width="0.5" fill="#B2B2B2" transform="translate(3.489347, 7.026935) scale(-1, 1) translate(-3.489347, -7.026935) "></path>
                        <path d="M4.86701974,9.98355539 C5.25705135,9.98355539 7.08449939,9.62015153 7.08449939,7.44955543 C7.08449939,6.00249136 7.64259883,4.2902069 8.75879771,2.31270205 C7.74715874,3.22664944 7.08048546,4.10854266 6.75877786,4.95838171 C6.27621647,6.23314029 4.47698814,9.98355539 4.86701974,9.98355539 Z" id="Oval" fill="#16B315"></path>
                        <path d="M5.80799013,10.153084 C6.19802173,10.153084 7.3804492,8.17351141 7.52974934,7.02693529 C7.65784424,6.04320838 8.03903989,5.12831011 8.67333629,4.28224051 C7.98580593,4.52038524 7.48118695,5.06437714 7.15947935,5.91421619 C6.67691796,7.18897476 5.41795852,10.153084 5.80799013,10.153084 Z" id="Oval" fill="#139B12"></path>
                        <path d="M5.80799013,10.2917743 C6.29480994,10.2917743 7.25503263,9.34373819 7.65812329,8.55370553 C7.85972472,8.15857922 8.03966822,7.80695009 8.32225018,7.36771819 C8.51063815,7.07489693 9.0615971,6.64472604 9.97512702,6.07720554 C8.51080851,6.14605829 7.61779546,6.60540419 7.29608787,7.45524324 C6.81352647,8.73000182 5.41795852,10.2917743 5.80799013,10.2917743 Z" id="Oval" fill="#16B315"></path>
                        <path d="M0.0744313505,10.3760235 C0.26181689,10.3760235 0.736902389,10.4769207 0.984561529,10.2657673 C1.38031051,9.92835292 1.56012194,9.16061823 1.80805589,8.67468308 C2.00965732,8.27955678 2.15698709,7.65826581 2.43956905,7.21903391 C2.62795702,6.92621265 3.09301224,6.45009533 3.83473471,5.79068197 C2.54222366,5.95142758 1.73511433,6.45671991 1.41340673,7.30655896 C0.93084534,8.58131754 -0.315600252,10.3760235 0.0744313505,10.3760235 Z" id="Oval" fill="#139B12" transform="translate(1.917367, 8.095400) scale(-1, 1) translate(-1.917367, -8.095400) "></path>
                        <path d="M0.965218696,10.2917743 C1.3552503,10.2917743 4.79922337,10.3476188 4.79922337,8.17702269 C4.79922337,6.72995862 5.21563187,5.25827191 6.04844888,3.76196255 C5.03680991,4.67590994 4.37013663,5.55780316 4.04842903,6.40764221 C3.56586764,7.68240079 0.575187093,10.2917743 0.965218696,10.2917743 Z" id="Oval" fill="#16B315" transform="translate(3.489347, 7.026935) scale(-1, 1) translate(-3.489347, -7.026935) "></path>
                    </g>
                    <g id="Aloe" transform="translate(20.000000, 0.000000)">
                        <path d="M5.33550917,10.2917743 C5.72554077,10.2917743 6.01347527,9.14606026 6.01347527,6.52504789 C6.01347527,4.77770631 6.21396329,2.98677981 6.61493933,1.1522684 C6.2932525,1.71162896 5.90894606,2.74693235 5.46202001,4.25817857 C4.79163093,6.52504789 4.94547756,10.2917743 5.33550917,10.2917743 Z" id="Oval" fill="#16B315"></path>
                        <path d="M5.66997741,10.2657673 C6.06000901,10.2657673 6.92844692,8.69821791 6.92844692,6.07720554 C6.92844692,4.32986396 7.27012941,2.58310297 7.95349439,0.836922564 C7.10707436,1.93735834 6.46040132,3.24319933 6.01347527,4.75444555 C5.34308619,7.02131488 5.27994581,10.2657673 5.66997741,10.2657673 Z" id="Oval" fill="#139B12"></path>
                        <path d="M1.86745967,10.4421117 C2.25749127,10.4421117 3.1105075,10.048293 3.1105075,7.42728061 C3.1105075,5.67993903 3.51918253,3.75790165 4.33653259,1.66116849 C3.40675169,2.85715751 2.71839821,4.21077513 2.27147216,5.72202135 C1.60108308,7.98889067 1.47742807,10.4421117 1.86745967,10.4421117 Z" id="Oval" fill="#139B12" transform="translate(2.991830, 6.051640) scale(-1, 1) translate(-2.991830, -6.051640) "></path>
                        <path d="M4.70952543,10.2657673 C5.09955704,10.2657673 5.38749153,9.12005324 5.38749153,6.49904087 C5.38749153,5.49421256 5.33550917,4.65047947 5.19694067,3.04080985 C5.11874288,2.13243169 4.87815076,1.11882841 4.47516428,-2.84217094e-14 C4.63140505,1.64995905 4.63140505,2.9579715 4.47516428,3.92403737 C4.16113363,5.86574761 4.49418738,10.2657673 4.70952543,10.2657673 Z" id="Oval" fill="#139B12"></path>
                        <path d="M3.25201211,10.2657673 C3.64204372,10.2657673 4.12320215,9.08213908 4.12320215,6.46112671 C4.12320215,4.71378513 4.39149509,3.18962416 4.92808098,1.88864381 C4.1489956,2.73827236 3.63247626,3.51944827 3.37852295,4.23217154 C2.997593,5.30125645 2.86198051,10.2657673 3.25201211,10.2657673 Z" id="Oval" fill="#16B315" transform="translate(3.973024, 6.077206) scale(-1, 1) translate(-3.973024, -6.077206) "></path>
                        <path d="M1.3964187,10.0359347 C1.86826135,10.0197047 2.32516058,9.96770622 2.80426543,9.84916321 C3.91621526,9.57403788 4.54922337,9.04190984 4.54922337,8.17702269 C4.54922337,7.13743641 4.75716335,6.0874729 5.17185362,5.02793262 C4.75830343,5.53153309 4.46201229,6.02124766 4.28223722,6.49615058 C4.12139457,6.92104066 3.72700536,7.46832992 3.11353038,8.17172241 C2.98770332,8.31599205 2.85307292,8.4663029 2.7064034,8.62672155 C2.46346882,8.89242935 1.64643555,9.75881971 1.51077891,9.9081566 C1.46885284,9.9543107 1.43076119,9.99686561 1.3964187,10.0359347 Z M0.965429525,10.0417744 C0.965359255,10.0417743 0.965288978,10.0417743 0.965218696,10.0417743 C0.965289645,10.0417744 0.965360277,10.0417745 0.965430594,10.0417745 Z" id="Oval" stroke="#979797" stroke-width="0.5" fill="#B2B2B2" transform="translate(3.489347, 7.026935) scale(-1, 1) translate(-3.489347, -7.026935) "></path>
                        <path d="M4.86701974,9.98355539 C5.25705135,9.98355539 7.08449939,9.62015153 7.08449939,7.44955543 C7.08449939,6.00249136 7.64259883,4.2902069 8.75879771,2.31270205 C7.74715874,3.22664944 7.08048546,4.10854266 6.75877786,4.95838171 C6.27621647,6.23314029 4.47698814,9.98355539 4.86701974,9.98355539 Z" id="Oval" fill="#16B315"></path>
                        <path d="M5.80799013,10.153084 C6.19802173,10.153084 7.3804492,8.17351141 7.52974934,7.02693529 C7.65784424,6.04320838 8.03903989,5.12831011 8.67333629,4.28224051 C7.98580593,4.52038524 7.48118695,5.06437714 7.15947935,5.91421619 C6.67691796,7.18897476 5.41795852,10.153084 5.80799013,10.153084 Z" id="Oval" fill="#139B12"></path>
                        <path d="M5.80799013,10.2917743 C6.29480994,10.2917743 7.25503263,9.34373819 7.65812329,8.55370553 C7.85972472,8.15857922 8.03966822,7.80695009 8.32225018,7.36771819 C8.51063815,7.07489693 9.0615971,6.64472604 9.97512702,6.07720554 C8.51080851,6.14605829 7.61779546,6.60540419 7.29608787,7.45524324 C6.81352647,8.73000182 5.41795852,10.2917743 5.80799013,10.2917743 Z" id="Oval" fill="#16B315"></path>
                        <path d="M0.0744313505,10.3760235 C0.26181689,10.3760235 0.736902389,10.4769207 0.984561529,10.2657673 C1.38031051,9.92835292 1.56012194,9.16061823 1.80805589,8.67468308 C2.00965732,8.27955678 2.15698709,7.65826581 2.43956905,7.21903391 C2.62795702,6.92621265 3.09301224,6.45009533 3.83473471,5.79068197 C2.54222366,5.95142758 1.73511433,6.45671991 1.41340673,7.30655896 C0.93084534,8.58131754 -0.315600252,10.3760235 0.0744313505,10.3760235 Z" id="Oval" fill="#139B12" transform="translate(1.917367, 8.095400) scale(-1, 1) translate(-1.917367, -8.095400) "></path>
                        <path d="M0.965218696,10.2917743 C1.3552503,10.2917743 4.79922337,10.3476188 4.79922337,8.17702269 C4.79922337,6.72995862 5.21563187,5.25827191 6.04844888,3.76196255 C5.03680991,4.67590994 4.37013663,5.55780316 4.04842903,6.40764221 C3.56586764,7.68240079 0.575187093,10.2917743 0.965218696,10.2917743 Z" id="Oval" fill="#16B315" transform="translate(3.489347, 7.026935) scale(-1, 1) translate(-3.489347, -7.026935) "></path>
                    </g>
                    <g id="Long-plat-pot" transform="translate(0.000000, 9.863636)">
                        <path d="M1.69180608,0.818181818 L28.3081939,0.818181818 C28.458817,0.818181818 28.5809212,0.940285977 28.5809212,1.09090909 C28.5809212,1.1076492 28.5793799,1.12435376 28.5763169,1.14081126 L27.3141987,7.92213804 C27.2901599,8.0512979 27.1774536,8.14496314 27.0460758,8.14496314 L2.95392425,8.14496314 C2.82254641,8.14496314 2.70984006,8.0512979 2.68580125,7.92213804 L1.42368309,1.14081126 C1.39612288,0.992731018 1.49382368,0.850346304 1.64190392,0.822786099 C1.65836141,0.819723083 1.67506597,0.818181818 1.69180608,0.818181818 Z" id="Rectangle" fill="#D9833D"></path>
                        <rect id="Rectangle" fill="#EE964E" x="0" y="5.41788836e-14" width="30" height="1.7010017" rx="0.34020034"></rect>
                    </g>
                </g>
                <rect id="Rectangle" fill="#EBBDFF" x="1215" y="120" width="225" height="160"></rect>
                <g id="Window-purple" transform="translate(1241.000000, 145.000000)">
                    <rect id="Rectangle" fill="#F5DFFF" x="5" y="0" width="40" height="60"></rect>
                    <rect id="Rectangle" fill="#2E0041" x="0" y="0" width="50" height="10"></rect>
                    <rect id="Rectangle" fill="#2E0041" x="0" y="50" width="50" height="10"></rect>
                    <line x1="25" y1="11" x2="25" y2="49" id="Line-17" stroke="#FFFFFF" stroke-width="2" stroke-linecap="square"></line>
                    <line x1="25" y1="11" x2="25" y2="49" id="Line-17" stroke="#FFFFFF" stroke-width="2" stroke-linecap="square" transform="translate(25.000000, 30.000000) rotate(-90.000000) translate(-25.000000, -30.000000) "></line>
                </g>
                <g id="Window-purple" transform="translate(1311.000000, 145.000000)">
                    <rect id="Rectangle" fill="#F5DFFF" x="5" y="0" width="40" height="60"></rect>
                    <rect id="Rectangle" fill="#2E0041" x="0" y="0" width="50" height="10"></rect>
                    <rect id="Rectangle" fill="#2E0041" x="0" y="50" width="50" height="10"></rect>
                    <line x1="25" y1="11" x2="25" y2="49" id="Line-17" stroke="#FFFFFF" stroke-width="2" stroke-linecap="square"></line>
                    <line x1="25" y1="11" x2="25" y2="49" id="Line-17" stroke="#FFFFFF" stroke-width="2" stroke-linecap="square" transform="translate(25.000000, 30.000000) rotate(-90.000000) translate(-25.000000, -30.000000) "></line>
                </g>
                <g id="Window-purple" transform="translate(1381.000000, 145.000000)">
                    <rect id="Rectangle" fill="#F5DFFF" x="5" y="0" width="40" height="60"></rect>
                    <rect id="Rectangle" fill="#2E0041" x="0" y="0" width="50" height="10"></rect>
                    <rect id="Rectangle" fill="#2E0041" x="0" y="50" width="50" height="10"></rect>
                    <line x1="25" y1="11" x2="25" y2="49" id="Line-17" stroke="#FFFFFF" stroke-width="2" stroke-linecap="square"></line>
                    <line x1="25" y1="11" x2="25" y2="49" id="Line-17" stroke="#FFFFFF" stroke-width="2" stroke-linecap="square" transform="translate(25.000000, 30.000000) rotate(-90.000000) translate(-25.000000, -30.000000) "></line>
                </g>
                <g id="Window-purple" transform="translate(1241.000000, 220.000000)">
                    <rect id="Rectangle" fill="#F5DFFF" x="5" y="0" width="40" height="60"></rect>
                    <rect id="Rectangle" fill="#2E0041" x="0" y="0" width="50" height="10"></rect>
                    <rect id="Rectangle" fill="#2E0041" x="0" y="50" width="50" height="10"></rect>
                    <line x1="25" y1="11" x2="25" y2="49" id="Line-17" stroke="#FFFFFF" stroke-width="2" stroke-linecap="square"></line>
                    <line x1="25" y1="11" x2="25" y2="49" id="Line-17" stroke="#FFFFFF" stroke-width="2" stroke-linecap="square" transform="translate(25.000000, 30.000000) rotate(-90.000000) translate(-25.000000, -30.000000) "></line>
                </g>
                <g id="Window-purple" transform="translate(1311.000000, 220.000000)">
                    <rect id="Rectangle" fill="#F5DFFF" x="5" y="0" width="40" height="60"></rect>
                    <rect id="Rectangle" fill="#2E0041" x="0" y="0" width="50" height="10"></rect>
                    <rect id="Rectangle" fill="#2E0041" x="0" y="50" width="50" height="10"></rect>
                    <line x1="25" y1="11" x2="25" y2="49" id="Line-17" stroke="#FFFFFF" stroke-width="2" stroke-linecap="square"></line>
                    <line x1="25" y1="11" x2="25" y2="49" id="Line-17" stroke="#FFFFFF" stroke-width="2" stroke-linecap="square" transform="translate(25.000000, 30.000000) rotate(-90.000000) translate(-25.000000, -30.000000) "></line>
                </g>
                <g id="Window-purple" transform="translate(1381.000000, 220.000000)">
                    <rect id="Rectangle" fill="#F5DFFF" x="5" y="0" width="40" height="60"></rect>
                    <rect id="Rectangle" fill="#2E0041" x="0" y="0" width="50" height="10"></rect>
                    <rect id="Rectangle" fill="#2E0041" x="0" y="50" width="50" height="10"></rect>
                    <line x1="25" y1="11" x2="25" y2="49" id="Line-17" stroke="#FFFFFF" stroke-width="2" stroke-linecap="square"></line>
                    <line x1="25" y1="11" x2="25" y2="49" id="Line-17" stroke="#FFFFFF" stroke-width="2" stroke-linecap="square" transform="translate(25.000000, 30.000000) rotate(-90.000000) translate(-25.000000, -30.000000) "></line>
                </g>
                <rect id="Rectangle" fill="#2E0041" x="1211" y="108" width="229" height="12"></rect>
                <rect id="Rectangle" fill="#2E0041" x="1221" y="102" width="219" height="6"></rect>
                <rect id="Rectangle" fill="#14001D" x="1243" y="87" width="15" height="15"></rect>
                <rect id="Rectangle" fill="#14001D" x="1270" y="82" width="15" height="20"></rect>
                <g id="Group-5" transform="translate(-0.000000, 110.000000)">
                    <rect id="Rectangle" fill="#FFFFFF" x="121" y="64" width="80" height="80"></rect>
                    <rect id="Rectangle" fill="#BBBAFF" x="0" y="24" width="223" height="146"></rect>
                    <g id="Group" transform="translate(141.000000, 64.000000)">
                        <path d="M25,0 C38.8071187,0 50,11.1928813 50,25 L50,25 L50,82 L0,82 L0,25 L0.00334928573,24.5865793 C0.224119049,10.9701429 11.3309524,0 25,0 Z" id="Combined-Shape" fill="#E6E6FF"></path>
                        <rect id="Rectangle" fill="#060235" x="0" y="72" width="50" height="10"></rect>
                        <line x1="1" y1="24.5" x2="48.9485536" y2="24.5" id="Line-16" stroke="#FFFFFF" stroke-width="2" stroke-linecap="square"></line>
                        <line x1="25" y1="25" x2="25" y2="71" id="Line-16" stroke="#FFFFFF" stroke-width="2" stroke-linecap="square"></line>
                    </g>
                    <g id="Group" transform="translate(51.000000, 64.000000)">
                        <path d="M25,0 C38.8071187,0 50,11.1928813 50,25 L50,25 L50,82 L0,82 L0,25 L0.00334928573,24.5865793 C0.224119049,10.9701429 11.3309524,0 25,0 Z" id="Combined-Shape" fill="#E6E6FF"></path>
                        <rect id="Rectangle" fill="#060235" x="0" y="72" width="50" height="10"></rect>
                        <line x1="1" y1="24.5" x2="48.9485536" y2="24.5" id="Line-16" stroke="#FFFFFF" stroke-width="2" stroke-linecap="square"></line>
                        <line x1="25" y1="25" x2="25" y2="71" id="Line-16" stroke="#FFFFFF" stroke-width="2" stroke-linecap="square"></line>
                    </g>
                    <rect id="Rectangle" fill="#060235" x="0" y="24" width="228" height="10"></rect>
                    <path d="M10.9966507,88.5865793 L11,89 L11,146 L0,145.999721 L8.33612024e-05,68.2847213 C6.53125448,72.707345 10.859662,80.1375161 10.9966507,88.5865793 Z" id="Combined-Shape" fill="#E6E6FF"></path>
                    <rect id="Rectangle" fill="#390000" x="4" y="4" width="15" height="20"></rect>
                    <rect id="Rectangle" fill="#390000" x="29" y="9" width="15" height="15"></rect>
                    <rect id="Rectangle" fill="#290000" x="27" y="4" width="19" height="5"></rect>
                    <rect id="Rectangle" fill="#290000" x="2" y="0" width="19" height="5"></rect>
                    <g id="Tulips" transform="translate(81.000000, 108.000000)">
                        <path d="M3.66180548,15.1717533 C4.46267577,15.1717533 4.3109215,14.9608125 4.3109215,13.6174172 C4.3109215,12.9731927 3.64746677,11.9602784 1.85602013,11.3322415 C1.47537113,11.1987954 1.09888905,10.8685147 0.726573878,10.3413995 C0.513592868,11.1488751 0.552391321,11.995153 0.842969238,12.8802331 C1.27883611,14.2078531 2.86093518,15.1717533 3.66180548,15.1717533 Z" id="Oval" fill="#156C0A"></path>
                        <path d="M6.1867768,10.7799071 C6.78135771,10.9012451 6.61605092,11.0344181 6.61605092,9.69102275 C6.61605092,9.04679827 6.03156465,8.45644083 5.0678927,8.29394794 C4.67359629,8.22746228 4.25434897,8.01998553 3.81015074,7.67151767 C3.84079281,8.2997771 3.94161544,8.8639274 4.11261861,9.36396858 C4.36912338,10.1140304 5.59219589,10.6585692 6.1867768,10.7799071 Z" id="Oval" fill="#1DA10C" transform="translate(5.223655, 9.261845) scale(-1, 1) translate(-5.223655, -9.261845) "></path>
                        <path d="M10.7030294,18.2643146 C10.7791921,18.2643146 11.1323035,18.5188256 11.1323035,17.1754302 C11.1323035,16.5312058 10.5478172,15.9408483 9.58414529,15.7783554 C9.18984888,15.7118698 8.77060156,15.504393 8.32640333,15.1559252 C8.3570454,15.7841846 8.45786802,16.3483349 8.6288712,16.8483761 C8.88537596,17.5984378 10.6268667,18.2643146 10.7030294,18.2643146 Z" id="Oval" fill="#126707" transform="translate(9.729353, 16.719729) scale(-1, 1) rotate(-24.000000) translate(-9.729353, -16.719729) "></path>
                        <line x1="3.55509356" y1="7.39085239" x2="5.61330561" y2="27.037422" id="Line-23" stroke="#1D8B0F" stroke-width="0.576923077" stroke-linecap="square"></line>
                        <line x1="9.12162162" y1="13.7058212" x2="5.37941788" y2="26.6164241" id="Line-23" stroke="#1D8B0F" stroke-width="0.576923077" stroke-linecap="square"></line>
                        <path d="M1.68399168,1.13766549 C2.01160476,0.522034874 2.34707706,0.178827774 2.69040859,0.108044193 C3.03374013,0.0372606119 3.44834703,0.225826245 3.9342293,0.673741091 L2.85882018,2.14025858 L1.68399168,1.13766549 Z" id="Path-19" fill="#8B0F6D"></path>
                        <path d="M4.76104475,7.34838478 C5.93061202,7.34838478 6.56669498,5.03066956 6.25651161,3.81452503 C6.10763589,3.23082383 5.82277833,2.35201824 5.22497003,1.615936 C4.57538877,0.816105627 4.04286025,0.277460295 3.62738447,1.42108547e-14 C2.51889947,1.41908528 1.96465696,2.77449106 1.96465696,4.06621734 C1.96465696,5.20861474 1.96465696,5.86868241 2.78723104,6.70511852 C3.39355304,7.32165826 4.0506732,7.34838478 4.76104475,7.34838478 Z" id="Oval" fill="#AC1488" transform="translate(4.149674, 3.674192) scale(-1, 1) translate(-4.149674, -3.674192) "></path>
                        <path d="M3.1345049,7.44185084 C4.30407216,7.44193987 4.84403932,5.49605796 4.53385595,4.27991343 C4.38498022,3.69621223 4.12579239,3.1485912 3.52798409,2.41250896 C2.87840283,1.61267859 1.93069802,0.933249061 0.684869672,0.374220374 C0.228289891,1.44743798 1.91846539e-13,2.62990992 1.91846539e-13,3.92163621 C1.91846539e-13,5.0640336 0.485679112,6.37402494 1.43089897,7.00989249 C2.08884104,7.45250275 2.42413334,7.44185084 3.1345049,7.44185084 Z" id="Oval" fill="#D818AA"></path>
                        <g id="Group" transform="translate(10.244489, 11.385354) rotate(26.000000) translate(-10.244489, -11.385354) translate(7.244489, 7.885354)">
                            <path d="M1.36824324,0.924353213 C1.63442887,0.424153335 1.90700011,0.145297566 2.18595698,0.0877859066 C2.46491385,0.0302742472 2.80178196,0.183483824 3.1965613,0.547414636 L2.32279139,1.7389601 L1.36824324,0.924353213 Z" id="Path-19" fill="#8B0F6D"></path>
                            <path d="M3.86834886,5.97056263 C4.81862227,5.97056263 5.33543967,4.08741902 5.08341569,3.09930159 C4.96245416,2.62504437 4.73100739,1.91101482 4.24528815,1.312948 C3.71750337,0.663085822 3.28482395,0.22543649 2.94724988,1.42108547e-14 C2.04660582,1.15300679 1.59628378,2.25427398 1.59628378,3.30380159 C1.59628378,4.23199947 1.59628378,4.76830446 2.26462522,5.44790879 C2.75726184,5.94884734 3.29117198,5.97056263 3.86834886,5.97056263 Z" id="Oval" fill="#AC1488" transform="translate(3.371611, 2.985281) scale(-1, 1) translate(-3.371611, -2.985281) "></path>
                            <path d="M2.54678523,6.04650381 C3.49705863,6.04657615 3.93578194,4.46554709 3.68375796,3.47742966 C3.56279643,3.00317244 3.35220632,2.55823035 2.86648707,1.96016353 C2.3387023,1.31030135 1.56869214,0.758264862 0.556456608,0.304054054 C0.185485536,1.17604336 1.91846539e-13,2.13680181 1.91846539e-13,3.18632942 C1.91846539e-13,4.1145273 0.394614279,5.17889526 1.16260542,5.69553765 C1.69718335,6.05515849 1.96960834,6.04650381 2.54678523,6.04650381 Z" id="Oval" fill="#D818AA"></path>
                        </g>
                        <g id="Flower-pot" transform="translate(0.000000, 19.459459)">
                            <path d="M0.935550936,0.935550936 L12.1621622,0.935550936 L10.3419737,8.671352 C10.3121429,8.7981329 10.1990124,8.88773389 10.0687693,8.88773389 L3.02894382,8.88773389 C2.89870068,8.88773389 2.78557022,8.7981329 2.75573942,8.671352 L0.935550936,0.935550936 L0.935550936,0.935550936 Z" id="Rectangle" fill="#D9833D"></path>
                            <rect id="Rectangle" fill="#EE964E" x="0" y="0" width="13.0977131" height="1.87110187" rx="0.374220374"></rect>
                        </g>
                    </g>
                    <line x1="0" y1="89" x2="9.94855359" y2="89" id="Line-16" stroke="#FFFFFF" stroke-width="2" stroke-linecap="square"></line>
                    <rect id="Rectangle" fill="#060235" x="0" y="136" width="11" height="10"></rect>
                </g>
            </g>
        </g>
    </g>
</svg>