<?xml version="1.0" encoding="UTF-8"?>
<svg width="750px" height="101px" viewBox="0 0 750 101" version="1.1" xmlns="http://www.w3.org/2000/svg" xmlns:xlink="http://www.w3.org/1999/xlink">
    <!-- Generator: Sketch 60.1 (88133) - https://sketch.com -->
    <title>Pink House</title>
    <desc>Created with Sketch.</desc>
    <g id="Boplats-landing-page" stroke="none" stroke-width="1" fill="none" fill-rule="evenodd">
        <g id="Desktop-HD" transform="translate(-340.000000, -913.000000)">
            <g id="Pink-House" transform="translate(340.000000, 913.000000)">
                <rect id="Rectangle" fill="#F7C3DB" x="10.0037619" y="15.0056429" width="731.108266" height="85.0319762"></rect>
                <polygon id="Rectangle" fill="#E01171" points="10.0037619 0 741.112028 0 749.448496 15.0056429 0 15.0056429"></polygon>
                <g id="Light-purple-window" transform="translate(392.647655, 25.009405)">
                    <rect id="Rectangle" stroke="#FFFFFF" stroke-width="1.66729365" fill="#FFEDF5" x="0.833646826" y="1.04205853" width="81.6973889" height="65.0244524"></rect>
                    <line x1="55.0206905" y1="2.70935218" x2="55.0206905" y2="65.2328641" id="Line-19" stroke="#FFFFFF" stroke-width="3.3345873" stroke-linecap="square"></line>
                    <line x1="41.890753" y1="-25.8430516" x2="42.3075764" y2="51.2692798" id="Line-19" stroke="#FFFFFF" stroke-width="3.3345873" stroke-linecap="square" transform="translate(41.890753, 12.921526) rotate(-90.000000) translate(-41.890753, -12.921526) "></line>
                    <g id="Balcony" transform="translate(0.000000, 37.722519)">
                        <rect id="Rectangle" fill="#76085C" x="0" y="25.0094048" width="83.3646826" height="4.16823413"></rect>
                        <line x1="1.21463086" y1="0.416823413" x2="82.2183587" y2="0.416823413" id="Line-20" stroke="#76085C" stroke-width="2.50094048" stroke-linecap="square"></line>
                        <line x1="1.25047024" y1="0.416823413" x2="1.25047024" y2="25.4262282" id="Line-21" stroke="#76085C" stroke-width="2.50094048" stroke-linecap="square"></line>
                        <line x1="82.1142123" y1="0.416823413" x2="82.1142123" y2="25.4262282" id="Line-21" stroke="#76085C" stroke-width="2.50094048" stroke-linecap="square"></line>
                        <line x1="42.0991647" y1="2.08411706" x2="42.0991647" y2="25.4262282" id="Line-22" stroke="#76085C" stroke-width="1.66729365" stroke-linecap="square"></line>
                        <line x1="21.6748175" y1="1.66729365" x2="21.6748175" y2="25.0094048" id="Line-22" stroke="#76085C" stroke-width="1.66729365" stroke-linecap="square"></line>
                        <line x1="11.6710556" y1="1.66729365" x2="11.6710556" y2="25.0094048" id="Line-22" stroke="#76085C" stroke-width="0.833646826" stroke-linecap="square"></line>
                        <line x1="6.66917461" y1="1.66729365" x2="6.66917461" y2="25.0094048" id="Line-22" stroke="#76085C" stroke-width="0.833646826" stroke-linecap="square"></line>
                        <line x1="16.6729365" y1="1.66729365" x2="16.6729365" y2="25.0094048" id="Line-22" stroke="#76085C" stroke-width="0.833646826" stroke-linecap="square"></line>
                        <line x1="31.6785794" y1="1.66729365" x2="31.6785794" y2="25.0094048" id="Line-22" stroke="#76085C" stroke-width="0.833646826" stroke-linecap="square"></line>
                        <line x1="36.6804603" y1="1.66729365" x2="36.6804603" y2="25.0094048" id="Line-22" stroke="#76085C" stroke-width="0.833646826" stroke-linecap="square"></line>
                        <line x1="26.6766984" y1="1.66729365" x2="26.6766984" y2="25.0094048" id="Line-22" stroke="#76085C" stroke-width="0.833646826" stroke-linecap="square"></line>
                        <line x1="52.51975" y1="1.66729365" x2="52.51975" y2="25.0094048" id="Line-22" stroke="#76085C" stroke-width="0.833646826" stroke-linecap="square"></line>
                        <line x1="56.6879841" y1="1.66729365" x2="56.6879841" y2="25.0094048" id="Line-22" stroke="#76085C" stroke-width="0.833646826" stroke-linecap="square"></line>
                        <line x1="47.5178691" y1="1.66729365" x2="47.5178691" y2="25.0094048" id="Line-22" stroke="#76085C" stroke-width="0.833646826" stroke-linecap="square"></line>
                        <line x1="71.693627" y1="1.66729365" x2="71.693627" y2="25.0094048" id="Line-22" stroke="#76085C" stroke-width="0.833646826" stroke-linecap="square"></line>
                        <line x1="76.695508" y1="1.66729365" x2="76.695508" y2="25.0094048" id="Line-22" stroke="#76085C" stroke-width="0.833646826" stroke-linecap="square"></line>
                        <line x1="66.6917461" y1="1.66729365" x2="66.6917461" y2="25.0094048" id="Line-22" stroke="#76085C" stroke-width="0.833646826" stroke-linecap="square"></line>
                        <line x1="61.6898651" y1="1.66729365" x2="61.6898651" y2="25.0094048" id="Line-22" stroke="#76085C" stroke-width="1.66729365" stroke-linecap="square"></line>
                    </g>
                </g>
                <g id="Light-purple-window" transform="translate(157.559250, 25.009405)">
                    <rect id="Rectangle" stroke="#FFFFFF" stroke-width="1.66729365" fill="#FFEDF5" x="0.833646826" y="1.04205853" width="81.6973889" height="65.0244524"></rect>
                    <line x1="55.0206905" y1="2.70935218" x2="55.0206905" y2="65.2328641" id="Line-19" stroke="#FFFFFF" stroke-width="3.3345873" stroke-linecap="square"></line>
                    <line x1="41.890753" y1="-25.8430516" x2="42.3075764" y2="51.2692798" id="Line-19" stroke="#FFFFFF" stroke-width="3.3345873" stroke-linecap="square" transform="translate(41.890753, 12.921526) rotate(-90.000000) translate(-41.890753, -12.921526) "></line>
                    <g id="Balcony" transform="translate(0.000000, 37.722519)">
                        <rect id="Rectangle" fill="#76085C" x="0" y="25.0094048" width="83.3646826" height="4.16823413"></rect>
                        <line x1="1.21463086" y1="0.416823413" x2="82.2183587" y2="0.416823413" id="Line-20" stroke="#76085C" stroke-width="2.50094048" stroke-linecap="square"></line>
                        <line x1="1.25047024" y1="0.416823413" x2="1.25047024" y2="25.4262282" id="Line-21" stroke="#76085C" stroke-width="2.50094048" stroke-linecap="square"></line>
                        <line x1="82.1142123" y1="0.416823413" x2="82.1142123" y2="25.4262282" id="Line-21" stroke="#76085C" stroke-width="2.50094048" stroke-linecap="square"></line>
                        <line x1="42.0991647" y1="2.08411706" x2="42.0991647" y2="25.4262282" id="Line-22" stroke="#76085C" stroke-width="1.66729365" stroke-linecap="square"></line>
                        <line x1="21.6748175" y1="1.66729365" x2="21.6748175" y2="25.0094048" id="Line-22" stroke="#76085C" stroke-width="1.66729365" stroke-linecap="square"></line>
                        <line x1="11.6710556" y1="1.66729365" x2="11.6710556" y2="25.0094048" id="Line-22" stroke="#76085C" stroke-width="0.833646826" stroke-linecap="square"></line>
                        <line x1="6.66917461" y1="1.66729365" x2="6.66917461" y2="25.0094048" id="Line-22" stroke="#76085C" stroke-width="0.833646826" stroke-linecap="square"></line>
                        <line x1="16.6729365" y1="1.66729365" x2="16.6729365" y2="25.0094048" id="Line-22" stroke="#76085C" stroke-width="0.833646826" stroke-linecap="square"></line>
                        <line x1="31.6785794" y1="1.66729365" x2="31.6785794" y2="25.0094048" id="Line-22" stroke="#76085C" stroke-width="0.833646826" stroke-linecap="square"></line>
                        <line x1="36.6804603" y1="1.66729365" x2="36.6804603" y2="25.0094048" id="Line-22" stroke="#76085C" stroke-width="0.833646826" stroke-linecap="square"></line>
                        <line x1="26.6766984" y1="1.66729365" x2="26.6766984" y2="25.0094048" id="Line-22" stroke="#76085C" stroke-width="0.833646826" stroke-linecap="square"></line>
                        <line x1="52.51975" y1="1.66729365" x2="52.51975" y2="25.0094048" id="Line-22" stroke="#76085C" stroke-width="0.833646826" stroke-linecap="square"></line>
                        <line x1="56.6879841" y1="1.66729365" x2="56.6879841" y2="25.0094048" id="Line-22" stroke="#76085C" stroke-width="0.833646826" stroke-linecap="square"></line>
                        <line x1="47.5178691" y1="1.66729365" x2="47.5178691" y2="25.0094048" id="Line-22" stroke="#76085C" stroke-width="0.833646826" stroke-linecap="square"></line>
                        <line x1="71.693627" y1="1.66729365" x2="71.693627" y2="25.0094048" id="Line-22" stroke="#76085C" stroke-width="0.833646826" stroke-linecap="square"></line>
                        <line x1="76.695508" y1="1.66729365" x2="76.695508" y2="25.0094048" id="Line-22" stroke="#76085C" stroke-width="0.833646826" stroke-linecap="square"></line>
                        <line x1="66.6917461" y1="1.66729365" x2="66.6917461" y2="25.0094048" id="Line-22" stroke="#76085C" stroke-width="0.833646826" stroke-linecap="square"></line>
                        <line x1="61.6898651" y1="1.66729365" x2="61.6898651" y2="25.0094048" id="Line-22" stroke="#76085C" stroke-width="1.66729365" stroke-linecap="square"></line>
                    </g>
                </g>
                <g id="Light-purple-window" transform="translate(275.103452, 25.009405)">
                    <rect id="Rectangle" stroke="#FFFFFF" stroke-width="1.66729365" fill="#FFEDF5" x="0.833646826" y="1.04205853" width="81.6973889" height="65.0244524"></rect>
                    <line x1="55.0206905" y1="2.70935218" x2="55.0206905" y2="65.2328641" id="Line-19" stroke="#FFFFFF" stroke-width="3.3345873" stroke-linecap="square"></line>
                    <line x1="41.890753" y1="-25.8430516" x2="42.3075764" y2="51.2692798" id="Line-19" stroke="#FFFFFF" stroke-width="3.3345873" stroke-linecap="square" transform="translate(41.890753, 12.921526) rotate(-90.000000) translate(-41.890753, -12.921526) "></line>
                    <g id="Balcony" transform="translate(0.000000, 37.722519)">
                        <rect id="Rectangle" fill="#76085C" x="0" y="25.0094048" width="83.3646826" height="4.16823413"></rect>
                        <line x1="1.21463086" y1="0.416823413" x2="82.2183587" y2="0.416823413" id="Line-20" stroke="#76085C" stroke-width="2.50094048" stroke-linecap="square"></line>
                        <line x1="1.25047024" y1="0.416823413" x2="1.25047024" y2="25.4262282" id="Line-21" stroke="#76085C" stroke-width="2.50094048" stroke-linecap="square"></line>
                        <line x1="82.1142123" y1="0.416823413" x2="82.1142123" y2="25.4262282" id="Line-21" stroke="#76085C" stroke-width="2.50094048" stroke-linecap="square"></line>
                        <line x1="42.0991647" y1="2.08411706" x2="42.0991647" y2="25.4262282" id="Line-22" stroke="#76085C" stroke-width="1.66729365" stroke-linecap="square"></line>
                        <line x1="21.6748175" y1="1.66729365" x2="21.6748175" y2="25.0094048" id="Line-22" stroke="#76085C" stroke-width="1.66729365" stroke-linecap="square"></line>
                        <line x1="11.6710556" y1="1.66729365" x2="11.6710556" y2="25.0094048" id="Line-22" stroke="#76085C" stroke-width="0.833646826" stroke-linecap="square"></line>
                        <line x1="6.66917461" y1="1.66729365" x2="6.66917461" y2="25.0094048" id="Line-22" stroke="#76085C" stroke-width="0.833646826" stroke-linecap="square"></line>
                        <line x1="16.6729365" y1="1.66729365" x2="16.6729365" y2="25.0094048" id="Line-22" stroke="#76085C" stroke-width="0.833646826" stroke-linecap="square"></line>
                        <line x1="31.6785794" y1="1.66729365" x2="31.6785794" y2="25.0094048" id="Line-22" stroke="#76085C" stroke-width="0.833646826" stroke-linecap="square"></line>
                        <line x1="36.6804603" y1="1.66729365" x2="36.6804603" y2="25.0094048" id="Line-22" stroke="#76085C" stroke-width="0.833646826" stroke-linecap="square"></line>
                        <line x1="26.6766984" y1="1.66729365" x2="26.6766984" y2="25.0094048" id="Line-22" stroke="#76085C" stroke-width="0.833646826" stroke-linecap="square"></line>
                        <line x1="52.51975" y1="1.66729365" x2="52.51975" y2="25.0094048" id="Line-22" stroke="#76085C" stroke-width="0.833646826" stroke-linecap="square"></line>
                        <line x1="56.6879841" y1="1.66729365" x2="56.6879841" y2="25.0094048" id="Line-22" stroke="#76085C" stroke-width="0.833646826" stroke-linecap="square"></line>
                        <line x1="47.5178691" y1="1.66729365" x2="47.5178691" y2="25.0094048" id="Line-22" stroke="#76085C" stroke-width="0.833646826" stroke-linecap="square"></line>
                        <line x1="71.693627" y1="1.66729365" x2="71.693627" y2="25.0094048" id="Line-22" stroke="#76085C" stroke-width="0.833646826" stroke-linecap="square"></line>
                        <line x1="76.695508" y1="1.66729365" x2="76.695508" y2="25.0094048" id="Line-22" stroke="#76085C" stroke-width="0.833646826" stroke-linecap="square"></line>
                        <line x1="66.6917461" y1="1.66729365" x2="66.6917461" y2="25.0094048" id="Line-22" stroke="#76085C" stroke-width="0.833646826" stroke-linecap="square"></line>
                        <line x1="61.6898651" y1="1.66729365" x2="61.6898651" y2="25.0094048" id="Line-22" stroke="#76085C" stroke-width="1.66729365" stroke-linecap="square"></line>
                    </g>
                </g>
                <g id="Light-purple-window" transform="translate(627.736060, 25.009405)">
                    <rect id="Rectangle" stroke="#FFFFFF" stroke-width="1.66729365" fill="#FFEDF5" x="0.833646826" y="1.04205853" width="81.6973889" height="65.0244524"></rect>
                    <line x1="55.0206905" y1="2.70935218" x2="55.0206905" y2="65.2328641" id="Line-19" stroke="#FFFFFF" stroke-width="3.3345873" stroke-linecap="square"></line>
                    <line x1="41.890753" y1="-25.8430516" x2="42.3075764" y2="51.2692798" id="Line-19" stroke="#FFFFFF" stroke-width="3.3345873" stroke-linecap="square" transform="translate(41.890753, 12.921526) rotate(-90.000000) translate(-41.890753, -12.921526) "></line>
                    <g id="Balcony" transform="translate(0.000000, 37.722519)">
                        <rect id="Rectangle" fill="#76085C" x="0" y="25.0094048" width="83.3646826" height="4.16823413"></rect>
                        <line x1="1.21463086" y1="0.416823413" x2="82.2183587" y2="0.416823413" id="Line-20" stroke="#76085C" stroke-width="2.50094048" stroke-linecap="square"></line>
                        <line x1="1.25047024" y1="0.416823413" x2="1.25047024" y2="25.4262282" id="Line-21" stroke="#76085C" stroke-width="2.50094048" stroke-linecap="square"></line>
                        <line x1="82.1142123" y1="0.416823413" x2="82.1142123" y2="25.4262282" id="Line-21" stroke="#76085C" stroke-width="2.50094048" stroke-linecap="square"></line>
                        <line x1="42.0991647" y1="2.08411706" x2="42.0991647" y2="25.4262282" id="Line-22" stroke="#76085C" stroke-width="1.66729365" stroke-linecap="square"></line>
                        <line x1="21.6748175" y1="1.66729365" x2="21.6748175" y2="25.0094048" id="Line-22" stroke="#76085C" stroke-width="1.66729365" stroke-linecap="square"></line>
                        <line x1="11.6710556" y1="1.66729365" x2="11.6710556" y2="25.0094048" id="Line-22" stroke="#76085C" stroke-width="0.833646826" stroke-linecap="square"></line>
                        <line x1="6.66917461" y1="1.66729365" x2="6.66917461" y2="25.0094048" id="Line-22" stroke="#76085C" stroke-width="0.833646826" stroke-linecap="square"></line>
                        <line x1="16.6729365" y1="1.66729365" x2="16.6729365" y2="25.0094048" id="Line-22" stroke="#76085C" stroke-width="0.833646826" stroke-linecap="square"></line>
                        <line x1="31.6785794" y1="1.66729365" x2="31.6785794" y2="25.0094048" id="Line-22" stroke="#76085C" stroke-width="0.833646826" stroke-linecap="square"></line>
                        <line x1="36.6804603" y1="1.66729365" x2="36.6804603" y2="25.0094048" id="Line-22" stroke="#76085C" stroke-width="0.833646826" stroke-linecap="square"></line>
                        <line x1="26.6766984" y1="1.66729365" x2="26.6766984" y2="25.0094048" id="Line-22" stroke="#76085C" stroke-width="0.833646826" stroke-linecap="square"></line>
                        <line x1="52.51975" y1="1.66729365" x2="52.51975" y2="25.0094048" id="Line-22" stroke="#76085C" stroke-width="0.833646826" stroke-linecap="square"></line>
                        <line x1="56.6879841" y1="1.66729365" x2="56.6879841" y2="25.0094048" id="Line-22" stroke="#76085C" stroke-width="0.833646826" stroke-linecap="square"></line>
                        <line x1="47.5178691" y1="1.66729365" x2="47.5178691" y2="25.0094048" id="Line-22" stroke="#76085C" stroke-width="0.833646826" stroke-linecap="square"></line>
                        <line x1="71.693627" y1="1.66729365" x2="71.693627" y2="25.0094048" id="Line-22" stroke="#76085C" stroke-width="0.833646826" stroke-linecap="square"></line>
                        <line x1="76.695508" y1="1.66729365" x2="76.695508" y2="25.0094048" id="Line-22" stroke="#76085C" stroke-width="0.833646826" stroke-linecap="square"></line>
                        <line x1="66.6917461" y1="1.66729365" x2="66.6917461" y2="25.0094048" id="Line-22" stroke="#76085C" stroke-width="0.833646826" stroke-linecap="square"></line>
                        <line x1="61.6898651" y1="1.66729365" x2="61.6898651" y2="25.0094048" id="Line-22" stroke="#76085C" stroke-width="1.66729365" stroke-linecap="square"></line>
                    </g>
                </g>
                <g id="Light-purple-window" transform="translate(510.191857, 25.009405)">
                    <rect id="Rectangle" stroke="#FFFFFF" stroke-width="1.66729365" fill="#FFEDF5" x="0.833646826" y="1.04205853" width="81.6973889" height="65.0244524"></rect>
                    <line x1="55.0206905" y1="2.70935218" x2="55.0206905" y2="65.2328641" id="Line-19" stroke="#FFFFFF" stroke-width="3.3345873" stroke-linecap="square"></line>
                    <line x1="41.890753" y1="-25.8430516" x2="42.3075764" y2="51.2692798" id="Line-19" stroke="#FFFFFF" stroke-width="3.3345873" stroke-linecap="square" transform="translate(41.890753, 12.921526) rotate(-90.000000) translate(-41.890753, -12.921526) "></line>
                    <g id="Pot-tree" transform="translate(3.334587, 14.171996)">
                        <g id="Flower-pot" transform="translate(5.954620, 40.287431)">
                            <path d="M0.928475081,0.928475081 L12.070176,0.928475081 L10.2637542,8.60576794 C10.234149,8.73158996 10.1218742,8.82051327 9.99261612,8.82051327 L3.006035,8.82051327 C2.87677693,8.82051327 2.76450211,8.73158996 2.73489693,8.60576794 L0.928475081,0.928475081 L0.928475081,0.928475081 Z" id="Rectangle" fill="#D9833D"></path>
                            <rect id="Rectangle" fill="#EE964E" x="0" y="0" width="12.9986511" height="1.85695016" rx="0.371390032"></rect>
                        </g>
                        <line x1="12.5233106" y1="17.4879752" x2="12.467486" y2="38.9729891" id="Line-25" stroke="#650000" stroke-width="2.78378517" stroke-linecap="square"></line>
                        <path d="M10.6438836,0 C12.3696559,0 13.9125253,0.783100379 14.9365305,2.01333982 C15.5033956,1.81775638 16.1130266,1.7119533 16.7473693,1.7119533 C19.8304748,1.7119533 22.3298257,4.21130418 22.3298257,7.29440972 C22.3298257,7.30781745 22.3297784,7.32121413 22.329684,7.33459961 C23.8946312,8.32283566 24.934972,10.0689785 24.934972,12.0581059 C24.934972,15.1412114 22.4356211,17.6405623 19.3525156,17.6405623 C18.3594783,17.6405623 17.4270008,17.3812748 16.6190914,16.926708 C15.595443,18.1374786 14.0653794,18.9059191 12.3558369,18.9059191 C10.6853384,18.9059191 9.1862143,18.1721784 8.16316769,17.0094003 C7.3920377,17.4124488 6.51388644,17.6405623 5.58245642,17.6405623 C2.49935087,17.6405623 0,15.1412114 0,12.0581059 C0,9.12557059 2.26118936,6.72116439 5.13514563,6.49330972 C5.08676187,6.19735499 5.06142716,5.89286433 5.06142716,5.58245642 C5.06142716,2.49935087 7.56077803,0 10.6438836,0 Z" id="Combined-Shape" fill="#419D34"></path>
                        <circle id="Oval" fill="#F18500" cx="9.78790693" cy="15.1619516" r="1"></circle>
                        <circle id="Oval" fill="#FF9A00" cx="8.8947139" cy="7.93560554" r="1"></circle>
                        <circle id="Oval" fill="#F29200" cx="15.6680944" cy="12.7801036" r="1"></circle>
                        <circle id="Oval" fill="#FFBB53" cx="15.6680944" cy="6.75105063" r="1"></circle>
                        <circle id="Oval" fill="#F29200" cx="3.60998849" cy="13.3011328" r="1"></circle>
                        <circle id="Oval" fill="#F18500" cx="21.6227145" cy="13.7477293" r="1"></circle>
                        <path d="M9.2848585,14.5428218 C9.46299349,14.5428218 9.62426445,14.4311727 9.76867139,14.2078744 C9.62426445,13.9845762 9.46299349,13.872927 9.2848585,13.872927 C9.10672351,13.872927 8.94545255,13.9845762 8.80104561,14.2078744 C8.94545255,14.4311727 9.10672351,14.5428218 9.2848585,14.5428218 Z" id="Oval" fill="#54D741" transform="translate(9.284859, 14.207874) rotate(23.000000) translate(-9.284859, -14.207874) "></path>
                        <path d="M10.1036188,14.5428218 C10.2817538,14.5428218 10.4430247,14.4311727 10.5874317,14.2078744 C10.4430247,13.9845762 10.2817538,13.872927 10.1036188,13.872927 C9.92548379,13.872927 9.76421283,13.9845762 9.61980589,14.2078744 C9.76421283,14.4311727 9.92548379,14.5428218 10.1036188,14.5428218 Z" id="Oval" fill="#2F6B26" transform="translate(10.103619, 14.207874) scale(-1, 1) rotate(23.000000) translate(-10.103619, -14.207874) "></path>
                        <path d="M15.5192289,6.04393949 C15.6973638,6.04393949 15.8586348,5.93229036 16.0030417,5.7089921 C15.8586348,5.48569384 15.6973638,5.37404472 15.5192289,5.37404472 C15.3410939,5.37404472 15.1798229,5.48569384 15.035416,5.7089921 C15.1798229,5.93229036 15.3410939,6.04393949 15.5192289,6.04393949 Z" id="Oval" fill="#75F064" transform="translate(15.519229, 5.708992) rotate(49.000000) translate(-15.519229, -5.708992) "></path>
                        <path d="M16.2635564,6.19280499 C16.4416914,6.19280499 16.6029623,6.08115586 16.7473693,5.85785761 C16.6029623,5.63455935 16.4416914,5.52291022 16.2635564,5.52291022 C16.0854214,5.52291022 15.9241504,5.63455935 15.7797435,5.85785761 C15.9241504,6.08115586 16.0854214,6.19280499 16.2635564,6.19280499 Z" id="Oval" fill="#4CD239" transform="translate(16.263556, 5.857858) scale(-1, 1) rotate(23.000000) translate(-16.263556, -5.857858) "></path>
                        <path d="M2.86566096,12.7428872 C3.04379595,12.7428872 3.20506691,12.6312381 3.34947385,12.4079398 C3.20506691,12.1846416 3.04379595,12.0729924 2.86566096,12.0729924 C2.68752598,12.0729924 2.52625501,12.1846416 2.38184807,12.4079398 C2.52625501,12.6312381 2.68752598,12.7428872 2.86566096,12.7428872 Z" id="Oval" fill="#16560C"></path>
                        <path d="M15.6680944,12.5940217 C15.8462293,12.5940217 16.0075003,12.4823726 16.1519072,12.2590743 C16.0075003,12.035776 15.8462293,11.9241269 15.6680944,11.9241269 C15.4899594,11.9241269 15.3286884,12.035776 15.1842815,12.2590743 C15.3286884,12.4823726 15.4899594,12.5940217 15.6680944,12.5940217 Z" id="Oval" fill="#16560C" transform="translate(15.668094, 12.259074) rotate(-128.000000) translate(-15.668094, -12.259074) "></path>
                        <path d="M15.0726323,12.5940217 C15.2507673,12.5940217 15.4120383,12.4823726 15.5564452,12.2590743 C15.4120383,12.035776 15.2507673,11.9241269 15.0726323,11.9241269 C14.8944974,11.9241269 14.7332264,12.035776 14.5888194,12.2590743 C14.7332264,12.4823726 14.8944974,12.5940217 15.0726323,12.5940217 Z" id="Oval" fill="#218014" transform="translate(15.072632, 12.259074) scale(-1, 1) rotate(-128.000000) translate(-15.072632, -12.259074) "></path>
                        <path d="M9.34131041,7.82395641 C9.5194454,7.82395641 9.68071636,7.71230728 9.8251233,7.48900902 C9.68071636,7.26571077 9.5194454,7.15406164 9.34131041,7.15406164 C9.16317543,7.15406164 9.00190446,7.26571077 8.85749752,7.48900902 C9.00190446,7.71230728 9.16317543,7.82395641 9.34131041,7.82395641 Z" id="Oval" fill="#238914" transform="translate(9.341310, 7.489009) rotate(-114.000000) translate(-9.341310, -7.489009) "></path>
                        <path d="M8.82028115,7.6750909 C8.99841613,7.6750909 9.1596871,7.56344177 9.30409404,7.34014352 C9.1596871,7.11684526 8.99841613,7.00519613 8.82028115,7.00519613 C8.64214616,7.00519613 8.4808752,7.11684526 8.33646826,7.34014352 C8.4808752,7.56344177 8.64214616,7.6750909 8.82028115,7.6750909 Z" id="Oval" fill="#39EA20" transform="translate(8.820281, 7.340144) scale(-1, 1) rotate(-145.000000) translate(-8.820281, -7.340144) "></path>
                        <path d="M3.60998849,12.4451562 C3.78812347,12.4451562 3.94939444,12.3335071 4.09380138,12.1102088 C3.94939444,11.8869105 3.78812347,11.7752614 3.60998849,11.7752614 C3.4318535,11.7752614 3.27058254,11.8869105 3.1261756,12.1102088 C3.27058254,12.3335071 3.4318535,12.4451562 3.60998849,12.4451562 Z" id="Oval" fill="#377F2D" transform="translate(3.609988, 12.110209) scale(-1, 1) rotate(49.000000) translate(-3.609988, -12.110209) "></path>
                        <path d="M21.2505508,13.1416888 C21.4286858,13.1416888 21.5899567,13.0300397 21.7343637,12.8067414 C21.5899567,12.5834431 21.4286858,12.471794 21.2505508,12.471794 C21.0724158,12.471794 20.9111448,12.5834431 20.7667379,12.8067414 C20.9111448,13.0300397 21.0724158,13.1416888 21.2505508,13.1416888 Z" id="Oval" fill="#16560C"></path>
                        <path d="M21.77158,13.5616475 C21.949715,13.5616475 22.110986,13.4499983 22.2553929,13.2267001 C22.110986,13.0034018 21.949715,12.8917527 21.77158,12.8917527 C21.5934451,12.8917527 21.4321741,13.0034018 21.2877672,13.2267001 C21.4321741,13.4499983 21.5934451,13.5616475 21.77158,13.5616475 Z" id="Oval" fill="#377F2D" transform="translate(21.771580, 13.226700) scale(-1, 1) rotate(-73.000000) translate(-21.771580, -13.226700) "></path>
                    </g>
                    <g id="Balcony" transform="translate(0.000000, 37.722519)">
                        <rect id="Rectangle" fill="#76085C" x="0" y="25.0094048" width="83.3646826" height="4.16823413"></rect>
                        <line x1="1.21463086" y1="0.416823413" x2="82.2183587" y2="0.416823413" id="Line-20" stroke="#76085C" stroke-width="2.50094048" stroke-linecap="square"></line>
                        <line x1="1.25047024" y1="0.416823413" x2="1.25047024" y2="25.4262282" id="Line-21" stroke="#76085C" stroke-width="2.50094048" stroke-linecap="square"></line>
                        <line x1="82.1142123" y1="0.416823413" x2="82.1142123" y2="25.4262282" id="Line-21" stroke="#76085C" stroke-width="2.50094048" stroke-linecap="square"></line>
                        <line x1="42.0991647" y1="2.08411706" x2="42.0991647" y2="25.4262282" id="Line-22" stroke="#76085C" stroke-width="1.66729365" stroke-linecap="square"></line>
                        <line x1="21.6748175" y1="1.66729365" x2="21.6748175" y2="25.0094048" id="Line-22" stroke="#76085C" stroke-width="1.66729365" stroke-linecap="square"></line>
                        <line x1="11.6710556" y1="1.66729365" x2="11.6710556" y2="25.0094048" id="Line-22" stroke="#76085C" stroke-width="0.833646826" stroke-linecap="square"></line>
                        <line x1="6.66917461" y1="1.66729365" x2="6.66917461" y2="25.0094048" id="Line-22" stroke="#76085C" stroke-width="0.833646826" stroke-linecap="square"></line>
                        <line x1="16.6729365" y1="1.66729365" x2="16.6729365" y2="25.0094048" id="Line-22" stroke="#76085C" stroke-width="0.833646826" stroke-linecap="square"></line>
                        <line x1="31.6785794" y1="1.66729365" x2="31.6785794" y2="25.0094048" id="Line-22" stroke="#76085C" stroke-width="0.833646826" stroke-linecap="square"></line>
                        <line x1="36.6804603" y1="1.66729365" x2="36.6804603" y2="25.0094048" id="Line-22" stroke="#76085C" stroke-width="0.833646826" stroke-linecap="square"></line>
                        <line x1="26.6766984" y1="1.66729365" x2="26.6766984" y2="25.0094048" id="Line-22" stroke="#76085C" stroke-width="0.833646826" stroke-linecap="square"></line>
                        <line x1="52.51975" y1="1.66729365" x2="52.51975" y2="25.0094048" id="Line-22" stroke="#76085C" stroke-width="0.833646826" stroke-linecap="square"></line>
                        <line x1="56.6879841" y1="1.66729365" x2="56.6879841" y2="25.0094048" id="Line-22" stroke="#76085C" stroke-width="0.833646826" stroke-linecap="square"></line>
                        <line x1="47.5178691" y1="1.66729365" x2="47.5178691" y2="25.0094048" id="Line-22" stroke="#76085C" stroke-width="0.833646826" stroke-linecap="square"></line>
                        <line x1="71.693627" y1="1.66729365" x2="71.693627" y2="25.0094048" id="Line-22" stroke="#76085C" stroke-width="0.833646826" stroke-linecap="square"></line>
                        <line x1="76.695508" y1="1.66729365" x2="76.695508" y2="25.0094048" id="Line-22" stroke="#76085C" stroke-width="0.833646826" stroke-linecap="square"></line>
                        <line x1="66.6917461" y1="1.66729365" x2="66.6917461" y2="25.0094048" id="Line-22" stroke="#76085C" stroke-width="0.833646826" stroke-linecap="square"></line>
                        <line x1="61.6898651" y1="1.66729365" x2="61.6898651" y2="25.0094048" id="Line-22" stroke="#76085C" stroke-width="1.66729365" stroke-linecap="square"></line>
                    </g>
                </g>
                <g id="Light-purple-window" transform="translate(40.015048, 25.009405)">
                    <rect id="Rectangle" stroke="#FFFFFF" stroke-width="1.66729365" fill="#FFEDF5" x="0.833646826" y="1.04205853" width="81.6973889" height="65.0244524"></rect>
                    <line x1="55.0206905" y1="2.70935218" x2="55.0206905" y2="65.2328641" id="Line-19" stroke="#FFFFFF" stroke-width="3.3345873" stroke-linecap="square"></line>
                    <line x1="41.890753" y1="-25.8430516" x2="42.3075764" y2="51.2692798" id="Line-19" stroke="#FFFFFF" stroke-width="3.3345873" stroke-linecap="square" transform="translate(41.890753, 12.921526) rotate(-90.000000) translate(-41.890753, -12.921526) "></line>
                    <g id="Balcony" transform="translate(0.000000, 37.722519)">
                        <rect id="Rectangle" fill="#76085C" x="0" y="25.0094048" width="83.3646826" height="4.16823413"></rect>
                        <line x1="1.21463086" y1="0.416823413" x2="82.2183587" y2="0.416823413" id="Line-20" stroke="#76085C" stroke-width="2.50094048" stroke-linecap="square"></line>
                        <line x1="1.25047024" y1="0.416823413" x2="1.25047024" y2="25.4262282" id="Line-21" stroke="#76085C" stroke-width="2.50094048" stroke-linecap="square"></line>
                        <line x1="82.1142123" y1="0.416823413" x2="82.1142123" y2="25.4262282" id="Line-21" stroke="#76085C" stroke-width="2.50094048" stroke-linecap="square"></line>
                        <line x1="42.0991647" y1="2.08411706" x2="42.0991647" y2="25.4262282" id="Line-22" stroke="#76085C" stroke-width="1.66729365" stroke-linecap="square"></line>
                        <line x1="21.6748175" y1="1.66729365" x2="21.6748175" y2="25.0094048" id="Line-22" stroke="#76085C" stroke-width="1.66729365" stroke-linecap="square"></line>
                        <line x1="11.6710556" y1="1.66729365" x2="11.6710556" y2="25.0094048" id="Line-22" stroke="#76085C" stroke-width="0.833646826" stroke-linecap="square"></line>
                        <line x1="6.66917461" y1="1.66729365" x2="6.66917461" y2="25.0094048" id="Line-22" stroke="#76085C" stroke-width="0.833646826" stroke-linecap="square"></line>
                        <line x1="16.6729365" y1="1.66729365" x2="16.6729365" y2="25.0094048" id="Line-22" stroke="#76085C" stroke-width="0.833646826" stroke-linecap="square"></line>
                        <line x1="31.6785794" y1="1.66729365" x2="31.6785794" y2="25.0094048" id="Line-22" stroke="#76085C" stroke-width="0.833646826" stroke-linecap="square"></line>
                        <line x1="36.6804603" y1="1.66729365" x2="36.6804603" y2="25.0094048" id="Line-22" stroke="#76085C" stroke-width="0.833646826" stroke-linecap="square"></line>
                        <line x1="26.6766984" y1="1.66729365" x2="26.6766984" y2="25.0094048" id="Line-22" stroke="#76085C" stroke-width="0.833646826" stroke-linecap="square"></line>
                        <line x1="52.51975" y1="1.66729365" x2="52.51975" y2="25.0094048" id="Line-22" stroke="#76085C" stroke-width="0.833646826" stroke-linecap="square"></line>
                        <line x1="56.6879841" y1="1.66729365" x2="56.6879841" y2="25.0094048" id="Line-22" stroke="#76085C" stroke-width="0.833646826" stroke-linecap="square"></line>
                        <line x1="47.5178691" y1="1.66729365" x2="47.5178691" y2="25.0094048" id="Line-22" stroke="#76085C" stroke-width="0.833646826" stroke-linecap="square"></line>
                        <line x1="71.693627" y1="1.66729365" x2="71.693627" y2="25.0094048" id="Line-22" stroke="#76085C" stroke-width="0.833646826" stroke-linecap="square"></line>
                        <line x1="76.695508" y1="1.66729365" x2="76.695508" y2="25.0094048" id="Line-22" stroke="#76085C" stroke-width="0.833646826" stroke-linecap="square"></line>
                        <line x1="66.6917461" y1="1.66729365" x2="66.6917461" y2="25.0094048" id="Line-22" stroke="#76085C" stroke-width="0.833646826" stroke-linecap="square"></line>
                        <line x1="61.6898651" y1="1.66729365" x2="61.6898651" y2="25.0094048" id="Line-22" stroke="#76085C" stroke-width="1.66729365" stroke-linecap="square"></line>
                    </g>
                </g>
                <g id="Balcony-flowers" transform="translate(411.821532, 45.850575)">
                    <path d="M3.81945994,11.5045944 C4.4264081,11.5045944 4.31139949,11.3447306 4.31139949,10.326624 C4.31139949,9.83839158 3.80859319,9.07074356 2.45092609,8.59477907 C2.16244716,8.49364549 1.87712617,8.24333873 1.59496311,7.84385877 C1.43355317,8.45581288 1.46295699,9.09717366 1.68317459,9.7679411 C2.01350099,10.7740923 3.21251177,11.5045944 3.81945994,11.5045944 Z" id="Oval" fill="#156C0A"></path>
                    <path d="M6.13568967,9.06279401 C6.5862992,9.15475129 6.46101967,9.25567788 6.46101967,8.23757128 C6.46101967,7.74933883 6.01806047,7.3019301 5.28773132,7.17878311 C4.98890955,7.12839624 4.67117846,6.97115775 4.33453806,6.70706764 C4.35776048,7.1832008 4.43416999,7.61074818 4.56376659,7.98970976 C4.75816148,8.55815214 5.68508014,8.97083674 6.13568967,9.06279401 Z" id="Oval" fill="#1DA10C" transform="translate(5.405778, 7.912314) scale(-1, 1) translate(-5.405778, -7.912314) "></path>
                    <line x1="4.2776985" y1="4.83136229" x2="4.2776985" y2="16.7676691" id="Line-23" stroke="#1D8B0F" stroke-width="0.577791804" stroke-linecap="square"></line>
                    <path d="M3.98772027,2.96804757 L4.56580901,2.96804757 C4.70339073,2.03103594 4.77218159,1.52069349 4.77218159,1.4370202 C4.77218159,1.31151026 4.72133149,1.02311201 4.26242252,1.02311201 C3.80351356,1.02311201 3.80351356,1.27393805 3.77007279,1.4370202 C3.74777895,1.54574163 3.82032811,2.05608409 3.98772027,2.96804757 Z" id="Path-20" fill="#130887"></path>
                    <path d="M5.69290696,3.87748047 L6.2709957,3.87748047 C6.40857742,2.94046884 6.47736828,2.43012639 6.47736828,2.3464531 C6.47736828,2.22094316 6.42651818,1.93254491 5.96760921,1.93254491 C5.50870024,1.93254491 5.50870024,2.18337095 5.47525948,2.3464531 C5.45296564,2.45517453 5.5255148,2.96551699 5.69290696,3.87748047 Z" id="Path-20" fill="#0F0766" transform="translate(5.974349, 2.905013) rotate(56.000000) translate(-5.974349, -2.905013) "></path>
                    <path d="M5.01083228,3.19540579 L5.58892103,3.19540579 C5.72650275,2.25839417 5.7952936,1.74805171 5.7952936,1.66437842 C5.7952936,1.53886849 5.7444435,1.25047024 5.28553454,1.25047024 C4.82662557,1.25047024 4.82662557,1.50129627 4.79318481,1.66437842 C4.77089097,1.77309985 4.84344012,2.28344231 5.01083228,3.19540579 Z" id="Path-20" fill="#1E11A9" transform="translate(5.292274, 2.222938) rotate(30.000000) translate(-5.292274, -2.222938) "></path>
                    <path d="M6.03394429,4.90059248 L6.61203304,4.90059248 C6.74961476,3.96358086 6.81840562,3.4532384 6.81840562,3.36956511 C6.81840562,3.24405517 6.76755552,2.95565693 6.30864655,2.95565693 C5.84973758,2.95565693 5.84973758,3.20648296 5.81629682,3.36956511 C5.79400298,3.47828654 5.86655214,3.988629 6.03394429,4.90059248 Z" id="Path-20" fill="#130887" transform="translate(6.315386, 3.928125) rotate(90.000000) translate(-6.315386, -3.928125) "></path>
                    <path d="M5.01083228,6.60577917 L5.58892103,6.60577917 C5.72650275,5.66876755 5.7952936,5.15842509 5.7952936,5.0747518 C5.7952936,4.94924186 5.7444435,4.66084362 5.28553454,4.66084362 C4.82662557,4.66084362 4.82662557,4.91166965 4.79318481,5.0747518 C4.77089097,5.18347323 4.84344012,5.69381569 5.01083228,6.60577917 Z" id="Path-20" fill="#0F0766" transform="translate(5.292274, 5.633311) rotate(146.000000) translate(-5.292274, -5.633311) "></path>
                    <path d="M5.80658607,5.92370449 L6.38467481,5.92370449 C6.52225653,4.98669287 6.59104739,4.47635041 6.59104739,4.39267712 C6.59104739,4.26716719 6.54019729,3.97876894 6.08128833,3.97876894 C5.62237936,3.97876894 5.62237936,4.22959497 5.5889386,4.39267712 C5.56664475,4.50139856 5.63919391,5.01174101 5.80658607,5.92370449 Z" id="Path-20" fill="#1E11A9" transform="translate(6.088028, 4.951237) rotate(120.000000) translate(-6.088028, -4.951237) "></path>
                    <path d="M2.05517535,4.90059248 L2.6332641,4.90059248 C2.77084582,3.96358086 2.83963668,3.4532384 2.83963668,3.36956511 C2.83963668,3.24405517 2.78878658,2.95565693 2.32987761,2.95565693 C1.87096864,2.95565693 1.87096864,3.20648296 1.83752788,3.36956511 C1.81523404,3.47828654 1.8877832,3.988629 2.05517535,4.90059248 Z" id="Path-20" fill="#130887" transform="translate(2.336617, 3.928125) scale(-1, 1) rotate(90.000000) translate(-2.336617, -3.928125) "></path>
                    <path d="M2.28253358,3.87748047 L2.86062232,3.87748047 C2.99820404,2.94046884 3.0669949,2.43012639 3.0669949,2.3464531 C3.0669949,2.22094316 3.0161448,1.93254491 2.55723583,1.93254491 C2.09832687,1.93254491 2.09832687,2.18337095 2.0648861,2.3464531 C2.04259226,2.45517453 2.11514142,2.96551699 2.28253358,3.87748047 Z" id="Path-20" fill="#1E11A9" transform="translate(2.563975, 2.905013) scale(-1, 1) rotate(60.000000) translate(-2.563975, -2.905013) "></path>
                    <path d="M2.96460825,3.19540579 L3.542697,3.19540579 C3.68027872,2.25839417 3.74906958,1.74805171 3.74906958,1.66437842 C3.74906958,1.53886849 3.69821948,1.25047024 3.23931051,1.25047024 C2.78040154,1.25047024 2.78040154,1.50129627 2.74696078,1.66437842 C2.72466694,1.77309985 2.7972161,2.28344231 2.96460825,3.19540579 Z" id="Path-20" fill="#0F0766" transform="translate(3.246050, 2.222938) scale(-1, 1) rotate(30.000000) translate(-3.246050, -2.222938) "></path>
                    <path d="M3.98772027,6.94681651 L4.56580901,6.94681651 C4.70339073,6.00980488 4.77218159,5.49946243 4.77218159,5.41578914 C4.77218159,5.2902792 4.72133149,5.00188095 4.26242252,5.00188095 C3.80351356,5.00188095 3.80351356,5.25270699 3.77007279,5.41578914 C3.74777895,5.52451057 3.82032811,6.03485303 3.98772027,6.94681651 Z" id="Path-20" fill="#130887" transform="translate(4.269162, 5.974349) scale(1, -1) translate(-4.269162, -5.974349) "></path>
                    <path d="M2.28253358,5.92370449 L2.86062232,5.92370449 C2.99820404,4.98669287 3.0669949,4.47635041 3.0669949,4.39267712 C3.0669949,4.26716719 3.0161448,3.97876894 2.55723583,3.97876894 C2.09832687,3.97876894 2.09832687,4.22959497 2.0648861,4.39267712 C2.04259226,4.50139856 2.11514142,5.01174101 2.28253358,5.92370449 Z" id="Path-20" fill="#0F0766" transform="translate(2.563975, 4.951237) scale(1, -1) rotate(-56.000000) translate(-2.563975, -4.951237) "></path>
                    <path d="M2.96460825,6.60577917 L3.542697,6.60577917 C3.68027872,5.66876755 3.74906958,5.15842509 3.74906958,5.0747518 C3.74906958,4.94924186 3.69821948,4.66084362 3.23931051,4.66084362 C2.78040154,4.66084362 2.78040154,4.91166965 2.74696078,5.0747518 C2.72466694,5.18347323 2.7972161,5.69381569 2.96460825,6.60577917 Z" id="Path-20" fill="#1E11A9" transform="translate(3.246050, 5.633311) scale(1, -1) rotate(-30.000000) translate(-3.246050, -5.633311) "></path>
                    <circle id="Oval" fill="#FFE36E" cx="4.33453806" cy="3.97876894" r="1.13679113"></circle>
                    <path d="M12.004356,14.1192139 C12.6113042,14.1192139 12.4962956,13.9593502 12.4962956,12.9412436 C12.4962956,12.4530112 11.9934893,11.6853631 10.6358222,11.2093987 C10.3473433,11.1082651 10.0620223,10.8579583 9.77985922,10.4584784 C9.61844927,11.0704325 9.6478531,11.7117932 9.86807069,12.3825607 C10.1983971,13.3887118 11.3974079,14.1192139 12.004356,14.1192139 Z" id="Oval" fill="#156C0A"></path>
                    <path d="M14.3205858,11.6774136 C14.7711953,11.7693709 14.6459158,11.8702975 14.6459158,10.8521909 C14.6459158,10.3639584 14.2029566,9.91654969 13.4726274,9.7934027 C13.1738057,9.74301583 12.8560746,9.58577734 12.5194342,9.32168723 C12.5426566,9.79782039 12.6190661,10.2253678 12.7486627,10.6043294 C12.9430576,11.1727717 13.8699762,11.5854563 14.3205858,11.6774136 Z" id="Oval" fill="#1DA10C" transform="translate(13.590674, 10.526934) scale(-1, 1) translate(-13.590674, -10.526934) "></path>
                    <line x1="12.4625946" y1="7.44598187" x2="12.4625946" y2="19.3822887" id="Line-23" stroke="#1D8B0F" stroke-width="0.577791804" stroke-linecap="square"></line>
                    <path d="M12.1726164,5.58266716 L12.7507051,5.58266716 C12.8882868,4.64565553 12.9570777,4.13531308 12.9570777,4.05163979 C12.9570777,3.92612985 12.9062276,3.6377316 12.4473186,3.6377316 C11.9884097,3.6377316 11.9884097,3.88855764 11.9549689,4.05163979 C11.9326751,4.16036122 12.0052242,4.67070368 12.1726164,5.58266716 Z" id="Path-20" fill="#2110E1"></path>
                    <path d="M13.8778031,6.49210006 L14.4558918,6.49210006 C14.5934735,5.55508843 14.6622644,5.04474598 14.6622644,4.96107269 C14.6622644,4.83556275 14.6114143,4.5471645 14.1525053,4.5471645 C13.6935964,4.5471645 13.6935964,4.79799054 13.6601556,4.96107269 C13.6378617,5.06979412 13.7104109,5.58013658 13.8778031,6.49210006 Z" id="Path-20" fill="#0F0766" transform="translate(14.159245, 5.519632) rotate(56.000000) translate(-14.159245, -5.519632) "></path>
                    <path d="M13.1957284,5.81002538 L13.7738171,5.81002538 C13.9113989,4.87301376 13.9801897,4.3626713 13.9801897,4.27899801 C13.9801897,4.15348808 13.9293396,3.86508983 13.4704306,3.86508983 C13.0115217,3.86508983 13.0115217,4.11591586 12.9780809,4.27899801 C12.9557871,4.38771944 13.0283362,4.8980619 13.1957284,5.81002538 Z" id="Path-20" fill="#1E11A9" transform="translate(13.477170, 4.837558) rotate(30.000000) translate(-13.477170, -4.837558) "></path>
                    <path d="M14.2188404,7.51521207 L14.7969291,7.51521207 C14.9345109,6.57820045 15.0033017,6.06785799 15.0033017,5.9841847 C15.0033017,5.85867476 14.9524516,5.57027652 14.4935427,5.57027652 C14.0346337,5.57027652 14.0346337,5.82110255 14.0011929,5.9841847 C13.9788991,6.09290613 14.0514482,6.60324859 14.2188404,7.51521207 Z" id="Path-20" fill="#2110E1" transform="translate(14.500282, 6.542744) rotate(90.000000) translate(-14.500282, -6.542744) "></path>
                    <path d="M13.1957284,9.22039876 L13.7738171,9.22039876 C13.9113989,8.28338714 13.9801897,7.77304468 13.9801897,7.68937139 C13.9801897,7.56386145 13.9293396,7.27546321 13.4704306,7.27546321 C13.0115217,7.27546321 13.0115217,7.52628924 12.9780809,7.68937139 C12.9557871,7.79809282 13.0283362,8.30843528 13.1957284,9.22039876 Z" id="Path-20" fill="#0F0766" transform="translate(13.477170, 8.247931) rotate(146.000000) translate(-13.477170, -8.247931) "></path>
                    <path d="M13.9914822,8.53832408 L14.5695709,8.53832408 C14.7071526,7.60131246 14.7759435,7.09097 14.7759435,7.00729671 C14.7759435,6.88178678 14.7250934,6.59338853 14.2661844,6.59338853 C13.8072755,6.59338853 13.8072755,6.84421456 13.7738347,7.00729671 C13.7515409,7.11601815 13.82409,7.6263606 13.9914822,8.53832408 Z" id="Path-20" fill="#1E11A9" transform="translate(14.272924, 7.565856) rotate(120.000000) translate(-14.272924, -7.565856) "></path>
                    <path d="M10.2400715,7.51521207 L10.8181602,7.51521207 C10.9557419,6.57820045 11.0245328,6.06785799 11.0245328,5.9841847 C11.0245328,5.85867476 10.9736827,5.57027652 10.5147737,5.57027652 C10.0558647,5.57027652 10.0558647,5.82110255 10.022424,5.9841847 C10.0001301,6.09290613 10.0726793,6.60324859 10.2400715,7.51521207 Z" id="Path-20" fill="#2110E1" transform="translate(10.521513, 6.542744) scale(-1, 1) rotate(90.000000) translate(-10.521513, -6.542744) "></path>
                    <path d="M10.4674297,6.49210006 L11.0455184,6.49210006 C11.1831001,5.55508843 11.251891,5.04474598 11.251891,4.96107269 C11.251891,4.83556275 11.2010409,4.5471645 10.7421319,4.5471645 C10.283223,4.5471645 10.283223,4.79799054 10.2497822,4.96107269 C10.2274884,5.06979412 10.3000375,5.58013658 10.4674297,6.49210006 Z" id="Path-20" fill="#1E11A9" transform="translate(10.748871, 5.519632) scale(-1, 1) rotate(60.000000) translate(-10.748871, -5.519632) "></path>
                    <path d="M11.1495044,5.81002538 L11.7275931,5.81002538 C11.8651748,4.87301376 11.9339657,4.3626713 11.9339657,4.27899801 C11.9339657,4.15348808 11.8831156,3.86508983 11.4242066,3.86508983 C10.9652976,3.86508983 10.9652976,4.11591586 10.9318569,4.27899801 C10.909563,4.38771944 10.9821122,4.8980619 11.1495044,5.81002538 Z" id="Path-20" fill="#0F0766" transform="translate(11.430946, 4.837558) scale(-1, 1) rotate(30.000000) translate(-11.430946, -4.837558) "></path>
                    <path d="M12.1726164,9.5614361 L12.7507051,9.5614361 C12.8882868,8.62442447 12.9570777,8.11408202 12.9570777,8.03040873 C12.9570777,7.90489879 12.9062276,7.61650054 12.4473186,7.61650054 C11.9884097,7.61650054 11.9884097,7.86732658 11.9549689,8.03040873 C11.9326751,8.13913016 12.0052242,8.64947262 12.1726164,9.5614361 Z" id="Path-20" fill="#2110E1" transform="translate(12.454058, 8.588968) scale(1, -1) translate(-12.454058, -8.588968) "></path>
                    <path d="M10.4674297,8.53832408 L11.0455184,8.53832408 C11.1831001,7.60131246 11.251891,7.09097 11.251891,7.00729671 C11.251891,6.88178678 11.2010409,6.59338853 10.7421319,6.59338853 C10.283223,6.59338853 10.283223,6.84421456 10.2497822,7.00729671 C10.2274884,7.11601815 10.3000375,7.6263606 10.4674297,8.53832408 Z" id="Path-20" fill="#0F0766" transform="translate(10.748871, 7.565856) scale(1, -1) rotate(-56.000000) translate(-10.748871, -7.565856) "></path>
                    <path d="M11.1495044,9.22039876 L11.7275931,9.22039876 C11.8651748,8.28338714 11.9339657,7.77304468 11.9339657,7.68937139 C11.9339657,7.56386145 11.8831156,7.27546321 11.4242066,7.27546321 C10.9652976,7.27546321 10.9652976,7.52628924 10.9318569,7.68937139 C10.909563,7.79809282 10.9821122,8.30843528 11.1495044,9.22039876 Z" id="Path-20" fill="#1E11A9" transform="translate(11.430946, 8.247931) scale(1, -1) rotate(-30.000000) translate(-11.430946, -8.247931) "></path>
                    <circle id="Oval" fill="#FF9A59" cx="12.5194342" cy="6.59338853" r="1.13679113"></circle>
                    <path d="M20.1892521,10.4814823 C20.7962003,10.4814823 20.6811917,10.3216186 20.6811917,9.30351202 C20.6811917,8.81527957 20.1783854,8.04763154 18.8207183,7.57166705 C18.5322394,7.47053348 18.2469184,7.22022671 17.9647553,6.82074676 C17.8033454,7.43270087 17.8327492,8.07406165 18.0529668,8.74482909 C18.3832932,9.75098024 19.582304,10.4814823 20.1892521,10.4814823 Z" id="Oval" fill="#156C0A"></path>
                    <path d="M22.5054819,8.039682 C22.9560914,8.13163928 22.8308119,8.23256587 22.8308119,7.21445927 C22.8308119,6.72622682 22.3878527,6.27881808 21.6575235,6.1556711 C21.3587018,6.10528423 21.0409707,5.94804574 20.7043303,5.68395563 C20.7275527,6.16008879 20.8039622,6.58763616 20.9335588,6.96659775 C21.1279537,7.53504012 22.0548723,7.94772472 22.5054819,8.039682 Z" id="Oval" fill="#1DA10C" transform="translate(21.775570, 6.889202) scale(-1, 1) translate(-21.775570, -6.889202) "></path>
                    <line x1="20.6474907" y1="3.80825027" x2="20.6474907" y2="15.7445571" id="Line-23" stroke="#1D8B0F" stroke-width="0.577791804" stroke-linecap="square"></line>
                    <path d="M20.3575125,1.94493555 L20.9356012,1.94493555 C21.0731829,1.00792393 21.1419738,0.497581473 21.1419738,0.413908183 C21.1419738,0.288398247 21.0911237,3.73034936e-14 20.6322147,3.73034936e-14 C20.1733058,3.73034936e-14 20.1733058,0.250826033 20.139865,0.413908183 C20.1175712,0.522629616 20.1901203,1.03297207 20.3575125,1.94493555 Z" id="Path-20" fill="#1187A8"></path>
                    <path d="M22.0626992,2.85436845 L22.6407879,2.85436845 C22.7783696,1.91735683 22.8471605,1.40701437 22.8471605,1.32334108 C22.8471605,1.19783115 22.7963104,0.909432901 22.3374014,0.909432901 C21.8784925,0.909432901 21.8784925,1.16025893 21.8450517,1.32334108 C21.8227579,1.43206252 21.895307,1.94240497 22.0626992,2.85436845 Z" id="Path-20" fill="#1CB5E0" transform="translate(22.344141, 1.881901) rotate(56.000000) translate(-22.344141, -1.881901) "></path>
                    <path d="M21.3806245,2.17229378 L21.9587132,2.17229378 C22.096295,1.23528215 22.1650858,0.724939698 22.1650858,0.641266408 C22.1650858,0.515756473 22.1142357,0.227358225 21.6553267,0.227358225 C21.1964178,0.227358225 21.1964178,0.478184258 21.162977,0.641266408 C21.1406832,0.749987841 21.2132323,1.2603303 21.3806245,2.17229378 Z" id="Path-20" fill="#095368" transform="translate(21.662066, 1.199826) rotate(30.000000) translate(-21.662066, -1.199826) "></path>
                    <path d="M22.4037365,3.87748047 L22.9818253,3.87748047 C23.119407,2.94046884 23.1881978,2.43012639 23.1881978,2.3464531 C23.1881978,2.22094316 23.1373477,1.93254491 22.6784388,1.93254491 C22.2195298,1.93254491 22.2195298,2.18337095 22.186089,2.3464531 C22.1637952,2.45517453 22.2363443,2.96551699 22.4037365,3.87748047 Z" id="Path-20" fill="#1187A8" transform="translate(22.685178, 2.905013) rotate(90.000000) translate(-22.685178, -2.905013) "></path>
                    <path d="M21.3806245,5.58266716 L21.9587132,5.58266716 C22.096295,4.64565553 22.1650858,4.13531308 22.1650858,4.05163979 C22.1650858,3.92612985 22.1142357,3.6377316 21.6553267,3.6377316 C21.1964178,3.6377316 21.1964178,3.88855764 21.162977,4.05163979 C21.1406832,4.16036122 21.2132323,4.67070368 21.3806245,5.58266716 Z" id="Path-20" fill="#1CB5E0" transform="translate(21.662066, 4.610199) rotate(146.000000) translate(-21.662066, -4.610199) "></path>
                    <path d="M22.1763783,4.90059248 L22.754467,4.90059248 C22.8920487,3.96358086 22.9608396,3.4532384 22.9608396,3.36956511 C22.9608396,3.24405517 22.9099895,2.95565693 22.4510805,2.95565693 C21.9921716,2.95565693 21.9921716,3.20648296 21.9587308,3.36956511 C21.936437,3.47828654 22.0089861,3.988629 22.1763783,4.90059248 Z" id="Path-20" fill="#095368" transform="translate(22.457820, 3.928125) rotate(120.000000) translate(-22.457820, -3.928125) "></path>
                    <path d="M18.4249676,3.87748047 L19.0030563,3.87748047 C19.140638,2.94046884 19.2094289,2.43012639 19.2094289,2.3464531 C19.2094289,2.22094316 19.1585788,1.93254491 18.6996698,1.93254491 C18.2407609,1.93254491 18.2407609,2.18337095 18.2073201,2.3464531 C18.1850263,2.45517453 18.2575754,2.96551699 18.4249676,3.87748047 Z" id="Path-20" fill="#1187A8" transform="translate(18.706409, 2.905013) scale(-1, 1) rotate(90.000000) translate(-18.706409, -2.905013) "></path>
                    <path d="M18.6523258,2.85436845 L19.2304145,2.85436845 C19.3679963,1.91735683 19.4367871,1.40701437 19.4367871,1.32334108 C19.4367871,1.19783115 19.385937,0.909432901 18.927028,0.909432901 C18.4681191,0.909432901 18.4681191,1.16025893 18.4346783,1.32334108 C18.4123845,1.43206252 18.4849336,1.94240497 18.6523258,2.85436845 Z" id="Path-20" fill="#095368" transform="translate(18.933768, 1.881901) scale(-1, 1) rotate(60.000000) translate(-18.933768, -1.881901) "></path>
                    <path d="M19.3344005,2.17229378 L19.9124892,2.17229378 C20.0500709,1.23528215 20.1188618,0.724939698 20.1188618,0.641266408 C20.1188618,0.515756473 20.0680117,0.227358225 19.6091027,0.227358225 C19.1501938,0.227358225 19.1501938,0.478184258 19.116753,0.641266408 C19.0944592,0.749987841 19.1670083,1.2603303 19.3344005,2.17229378 Z" id="Path-20" fill="#1CB5E0" transform="translate(19.615842, 1.199826) scale(-1, 1) rotate(30.000000) translate(-19.615842, -1.199826) "></path>
                    <path d="M20.3575125,5.92370449 L20.9356012,5.92370449 C21.0731829,4.98669287 21.1419738,4.47635041 21.1419738,4.39267712 C21.1419738,4.26716719 21.0911237,3.97876894 20.6322147,3.97876894 C20.1733058,3.97876894 20.1733058,4.22959497 20.139865,4.39267712 C20.1175712,4.50139856 20.1901203,5.01174101 20.3575125,5.92370449 Z" id="Path-20" fill="#1187A8" transform="translate(20.638954, 4.951237) scale(1, -1) translate(-20.638954, -4.951237) "></path>
                    <path d="M18.6523258,4.90059248 L19.2304145,4.90059248 C19.3679963,3.96358086 19.4367871,3.4532384 19.4367871,3.36956511 C19.4367871,3.24405517 19.385937,2.95565693 18.927028,2.95565693 C18.4681191,2.95565693 18.4681191,3.20648296 18.4346783,3.36956511 C18.4123845,3.47828654 18.4849336,3.988629 18.6523258,4.90059248 Z" id="Path-20" fill="#1CB5E0" transform="translate(18.933768, 3.928125) scale(1, -1) rotate(-56.000000) translate(-18.933768, -3.928125) "></path>
                    <path d="M19.3344005,5.58266716 L19.9124892,5.58266716 C20.0500709,4.64565553 20.1188618,4.13531308 20.1188618,4.05163979 C20.1188618,3.92612985 20.0680117,3.6377316 19.6091027,3.6377316 C19.1501938,3.6377316 19.1501938,3.88855764 19.116753,4.05163979 C19.0944592,4.16036122 19.1670083,4.67070368 19.3344005,5.58266716 Z" id="Path-20" fill="#095368" transform="translate(19.615842, 4.610199) scale(1, -1) rotate(-30.000000) translate(-19.615842, -4.610199) "></path>
                    <circle id="Oval" fill="#FFE89E" cx="20.7043303" cy="2.95565693" r="1.13679113"></circle>
                    <path d="M1.41036877,15.5740384 L23.599036,15.5740384 C23.7246025,15.5740384 23.8263942,15.6758302 23.8263942,15.8013967 C23.8263942,15.815352 23.8251094,15.8292777 23.8225559,15.8429974 L22.7703951,21.496229 C22.7503552,21.6039027 22.6563979,21.6819864 22.5468752,21.6819864 L2.46252957,21.6819864 C2.35300686,21.6819864 2.25904957,21.6039027 2.23900969,21.496229 L1.18684889,15.8429974 C1.16387341,15.7195508 1.24532137,15.6008522 1.36876799,15.5778768 C1.38248773,15.5753233 1.39641343,15.5740384 1.41036877,15.5740384 Z" id="Rectangle" fill="#D9833D"></path>
                    <rect id="Rectangle" fill="#EE964E" x="0" y="14.8919637" width="25.0094048" height="1.41803467" rx="0.283606934"></rect>
                </g>
                <g id="Balcony-aloe" transform="translate(93.368444, 53.353397)">
                    <g id="Aloe">
                        <path d="M4.44793028,8.57970497 C4.77307889,8.57970497 5.01311457,7.62458411 5.01311457,5.43958546 C5.01311457,3.9829197 5.18025077,2.48991951 5.51452317,0.960584893 C5.24634997,1.42689405 4.92597412,2.28997144 4.55339564,3.54981705 C3.99452791,5.43958546 4.12278167,8.57970497 4.44793028,8.57970497 Z" id="Oval" fill="#16B315"></path>
                        <path d="M4.72675867,8.5580243 C5.05190728,8.5580243 5.77587778,7.25124175 5.77587778,5.06624311 C5.77587778,3.60957734 6.0607203,2.15339559 6.63040535,0.697697839 C5.92478998,1.61507263 5.38569305,2.70368283 5.01311457,3.96352844 C4.45424684,5.85329686 4.40161006,8.5580243 4.72675867,8.5580243 Z" id="Oval" fill="#139B12"></path>
                        <path d="M1.55680183,8.70503329 C1.88195043,8.70503329 2.5930647,8.37672755 2.5930647,6.1917289 C2.5930647,4.73506314 2.93375534,3.13276278 3.61513663,1.38482783 C2.84002773,2.38186029 2.26618404,3.51029932 1.89360555,4.77014493 C1.33473783,6.65991335 1.23165322,8.70503329 1.55680183,8.70503329 Z" id="Oval" fill="#139B12" transform="translate(2.494130, 5.044931) scale(-1, 1) translate(-2.494130, -5.044931) "></path>
                        <path d="M3.92608093,8.5580243 C4.25122954,8.5580243 4.49126522,7.60290343 4.49126522,5.41790479 C4.49126522,4.58023286 4.44793028,3.87685745 4.33241309,2.53496148 C4.26722376,1.77769491 4.06665489,0.932707749 3.7307065,-2.84217094e-14 C3.86095612,1.37548312 3.86095612,2.46590355 3.7307065,3.2712613 C3.46891584,4.88996188 3.74656504,8.5580243 3.92608093,8.5580243 Z" id="Oval" fill="#139B12"></path>
                        <path d="M2.71102958,8.5580243 C3.03617818,8.5580243 3.43729438,7.57129641 3.43729438,5.38629777 C3.43729438,3.92963201 3.66095594,2.65902006 4.10827906,1.57446192 C3.45879701,2.28275206 3.0282023,2.93397688 2.81649493,3.52813637 C2.49893389,4.41937561 2.38588097,8.5580243 2.71102958,8.5580243 Z" id="Oval" fill="#16B315" transform="translate(3.312099, 5.066243) scale(-1, 1) translate(-3.312099, -5.066243) "></path>
                        <path d="M1.353242,8.27679544 C1.67454435,8.25693243 1.99056003,8.21372047 2.31843601,8.13259542 C3.2137046,7.91108267 3.71196142,7.49223112 3.71196142,6.81674901 C3.71196142,6.10434845 3.82764535,5.38657142 4.05827542,4.66391434 C3.87904161,4.92955998 3.74141202,5.18968539 3.64514492,5.44398941 C3.50659096,5.81000055 3.17378831,6.27182687 2.65624036,6.86523223 C2.5509027,6.98600932 2.43825588,7.11177616 2.31558406,7.2459475 C2.12761985,7.4515319 1.53039446,8.08530303 1.353242,8.27679544 Z M0.804917403,8.29080922 C0.804828778,8.29080912 0.804740144,8.29080907 0.804651502,8.29080907 C0.8047414,8.29080917 0.804830696,8.29080927 0.804919399,8.29080936 Z" id="Oval" stroke="#979797" stroke-width="0.577791804" fill="#B2B2B2" transform="translate(2.908883, 5.857982) scale(-1, 1) translate(-2.908883, -5.857982) "></path>
                        <path d="M4.05737556,8.32275926 C4.38252417,8.32275926 5.90597043,8.01980879 5.90597043,6.21029824 C5.90597043,5.00395787 6.37122825,3.57651736 7.3017439,1.92797672 C6.45839429,2.68988606 5.90262422,3.42507355 5.63443371,4.13353917 C5.23214794,5.19623761 3.73222695,8.32275926 4.05737556,8.32275926 Z" id="Oval" fill="#16B315"></path>
                        <path d="M4.84181253,8.46408622 C5.16696114,8.46408622 6.15268805,6.81382184 6.27715163,5.8579823 C6.38393754,5.03790148 6.70172009,4.27519945 7.23049926,3.56987621 C6.65734176,3.76840481 6.23666775,4.22190192 5.96847724,4.93036755 C5.56619146,5.99306599 4.51666392,8.46408622 4.84181253,8.46408622 Z" id="Oval" fill="#139B12"></path>
                        <path d="M4.84181253,8.57970497 C5.24764833,8.57970497 6.04813493,7.78937769 6.38417017,7.13076946 C6.55223456,6.80137367 6.70224389,6.50823916 6.93781744,6.14207489 C7.09486648,5.89796537 7.55417166,5.53935477 8.31573297,5.06624311 C7.0950085,5.12364198 6.35055101,5.50657424 6.08236049,6.21503986 C5.68007472,7.2777383 4.51666392,8.57970497 4.84181253,8.57970497 Z" id="Oval" fill="#16B315"></path>
                        <path d="M0.0620494591,8.64993907 C0.218262819,8.64993907 0.614316337,8.73405167 0.820776593,8.5580243 C1.15069147,8.2767399 1.3005907,7.63672031 1.50728005,7.23162202 C1.67534445,6.90222623 1.79816544,6.38428898 2.03373899,6.01812471 C2.19078803,5.77401519 2.57847984,5.3771015 3.19681442,4.82738364 C2.11931668,4.96138871 1.44647255,5.38262406 1.17828204,6.09108968 C0.775996263,7.15378812 -0.263099149,8.64993907 0.0620494591,8.64993907 Z" id="Oval" fill="#139B12" transform="translate(1.598407, 6.748704) scale(-1, 1) translate(-1.598407, -6.748704) "></path>
                        <path d="M0.804651502,8.57970497 C1.12980011,8.57970497 4.00085733,8.62625956 4.00085733,6.81674901 C4.00085733,5.61040864 4.34799495,4.38354168 5.04227021,3.13614814 C4.19892059,3.89805748 3.64315053,4.63324496 3.37496001,5.34171059 C2.97267424,6.40440903 0.479502894,8.57970497 0.804651502,8.57970497 Z" id="Oval" fill="#16B315" transform="translate(2.908883, 5.857982) scale(-1, 1) translate(-2.908883, -5.857982) "></path>
                    </g>
                    <g id="Aloe" transform="translate(8.336468, 0.000000)">
                        <path d="M4.44793028,8.57970497 C4.77307889,8.57970497 5.01311457,7.62458411 5.01311457,5.43958546 C5.01311457,3.9829197 5.18025077,2.48991951 5.51452317,0.960584893 C5.24634997,1.42689405 4.92597412,2.28997144 4.55339564,3.54981705 C3.99452791,5.43958546 4.12278167,8.57970497 4.44793028,8.57970497 Z" id="Oval" fill="#16B315"></path>
                        <path d="M4.72675867,8.5580243 C5.05190728,8.5580243 5.77587778,7.25124175 5.77587778,5.06624311 C5.77587778,3.60957734 6.0607203,2.15339559 6.63040535,0.697697839 C5.92478998,1.61507263 5.38569305,2.70368283 5.01311457,3.96352844 C4.45424684,5.85329686 4.40161006,8.5580243 4.72675867,8.5580243 Z" id="Oval" fill="#139B12"></path>
                        <path d="M1.55680183,8.70503329 C1.88195043,8.70503329 2.5930647,8.37672755 2.5930647,6.1917289 C2.5930647,4.73506314 2.93375534,3.13276278 3.61513663,1.38482783 C2.84002773,2.38186029 2.26618404,3.51029932 1.89360555,4.77014493 C1.33473783,6.65991335 1.23165322,8.70503329 1.55680183,8.70503329 Z" id="Oval" fill="#139B12" transform="translate(2.494130, 5.044931) scale(-1, 1) translate(-2.494130, -5.044931) "></path>
                        <path d="M3.92608093,8.5580243 C4.25122954,8.5580243 4.49126522,7.60290343 4.49126522,5.41790479 C4.49126522,4.58023286 4.44793028,3.87685745 4.33241309,2.53496148 C4.26722376,1.77769491 4.06665489,0.932707749 3.7307065,-2.84217094e-14 C3.86095612,1.37548312 3.86095612,2.46590355 3.7307065,3.2712613 C3.46891584,4.88996188 3.74656504,8.5580243 3.92608093,8.5580243 Z" id="Oval" fill="#139B12"></path>
                        <path d="M2.71102958,8.5580243 C3.03617818,8.5580243 3.43729438,7.57129641 3.43729438,5.38629777 C3.43729438,3.92963201 3.66095594,2.65902006 4.10827906,1.57446192 C3.45879701,2.28275206 3.0282023,2.93397688 2.81649493,3.52813637 C2.49893389,4.41937561 2.38588097,8.5580243 2.71102958,8.5580243 Z" id="Oval" fill="#16B315" transform="translate(3.312099, 5.066243) scale(-1, 1) translate(-3.312099, -5.066243) "></path>
                        <path d="M1.353242,8.27679544 C1.67454435,8.25693243 1.99056003,8.21372047 2.31843601,8.13259542 C3.2137046,7.91108267 3.71196142,7.49223112 3.71196142,6.81674901 C3.71196142,6.10434845 3.82764535,5.38657142 4.05827542,4.66391434 C3.87904161,4.92955998 3.74141202,5.18968539 3.64514492,5.44398941 C3.50659096,5.81000055 3.17378831,6.27182687 2.65624036,6.86523223 C2.5509027,6.98600932 2.43825588,7.11177616 2.31558406,7.2459475 C2.12761985,7.4515319 1.53039446,8.08530303 1.353242,8.27679544 Z M0.804917403,8.29080922 C0.804828778,8.29080912 0.804740144,8.29080907 0.804651502,8.29080907 C0.8047414,8.29080917 0.804830696,8.29080927 0.804919399,8.29080936 Z" id="Oval" stroke="#979797" stroke-width="0.577791804" fill="#B2B2B2" transform="translate(2.908883, 5.857982) scale(-1, 1) translate(-2.908883, -5.857982) "></path>
                        <path d="M4.05737556,8.32275926 C4.38252417,8.32275926 5.90597043,8.01980879 5.90597043,6.21029824 C5.90597043,5.00395787 6.37122825,3.57651736 7.3017439,1.92797672 C6.45839429,2.68988606 5.90262422,3.42507355 5.63443371,4.13353917 C5.23214794,5.19623761 3.73222695,8.32275926 4.05737556,8.32275926 Z" id="Oval" fill="#16B315"></path>
                        <path d="M4.84181253,8.46408622 C5.16696114,8.46408622 6.15268805,6.81382184 6.27715163,5.8579823 C6.38393754,5.03790148 6.70172009,4.27519945 7.23049926,3.56987621 C6.65734176,3.76840481 6.23666775,4.22190192 5.96847724,4.93036755 C5.56619146,5.99306599 4.51666392,8.46408622 4.84181253,8.46408622 Z" id="Oval" fill="#139B12"></path>
                        <path d="M4.84181253,8.57970497 C5.24764833,8.57970497 6.04813493,7.78937769 6.38417017,7.13076946 C6.55223456,6.80137367 6.70224389,6.50823916 6.93781744,6.14207489 C7.09486648,5.89796537 7.55417166,5.53935477 8.31573297,5.06624311 C7.0950085,5.12364198 6.35055101,5.50657424 6.08236049,6.21503986 C5.68007472,7.2777383 4.51666392,8.57970497 4.84181253,8.57970497 Z" id="Oval" fill="#16B315"></path>
                        <path d="M0.0620494591,8.64993907 C0.218262819,8.64993907 0.614316337,8.73405167 0.820776593,8.5580243 C1.15069147,8.2767399 1.3005907,7.63672031 1.50728005,7.23162202 C1.67534445,6.90222623 1.79816544,6.38428898 2.03373899,6.01812471 C2.19078803,5.77401519 2.57847984,5.3771015 3.19681442,4.82738364 C2.11931668,4.96138871 1.44647255,5.38262406 1.17828204,6.09108968 C0.775996263,7.15378812 -0.263099149,8.64993907 0.0620494591,8.64993907 Z" id="Oval" fill="#139B12" transform="translate(1.598407, 6.748704) scale(-1, 1) translate(-1.598407, -6.748704) "></path>
                        <path d="M0.804651502,8.57970497 C1.12980011,8.57970497 4.00085733,8.62625956 4.00085733,6.81674901 C4.00085733,5.61040864 4.34799495,4.38354168 5.04227021,3.13614814 C4.19892059,3.89805748 3.64315053,4.63324496 3.37496001,5.34171059 C2.97267424,6.40440903 0.479502894,8.57970497 0.804651502,8.57970497 Z" id="Oval" fill="#16B315" transform="translate(2.908883, 5.857982) scale(-1, 1) translate(-2.908883, -5.857982) "></path>
                    </g>
                    <g id="Aloe" transform="translate(16.672937, 0.000000)">
                        <path d="M4.44793028,8.57970497 C4.77307889,8.57970497 5.01311457,7.62458411 5.01311457,5.43958546 C5.01311457,3.9829197 5.18025077,2.48991951 5.51452317,0.960584893 C5.24634997,1.42689405 4.92597412,2.28997144 4.55339564,3.54981705 C3.99452791,5.43958546 4.12278167,8.57970497 4.44793028,8.57970497 Z" id="Oval" fill="#16B315"></path>
                        <path d="M4.72675867,8.5580243 C5.05190728,8.5580243 5.77587778,7.25124175 5.77587778,5.06624311 C5.77587778,3.60957734 6.0607203,2.15339559 6.63040535,0.697697839 C5.92478998,1.61507263 5.38569305,2.70368283 5.01311457,3.96352844 C4.45424684,5.85329686 4.40161006,8.5580243 4.72675867,8.5580243 Z" id="Oval" fill="#139B12"></path>
                        <path d="M1.55680183,8.70503329 C1.88195043,8.70503329 2.5930647,8.37672755 2.5930647,6.1917289 C2.5930647,4.73506314 2.93375534,3.13276278 3.61513663,1.38482783 C2.84002773,2.38186029 2.26618404,3.51029932 1.89360555,4.77014493 C1.33473783,6.65991335 1.23165322,8.70503329 1.55680183,8.70503329 Z" id="Oval" fill="#139B12" transform="translate(2.494130, 5.044931) scale(-1, 1) translate(-2.494130, -5.044931) "></path>
                        <path d="M3.92608093,8.5580243 C4.25122954,8.5580243 4.49126522,7.60290343 4.49126522,5.41790479 C4.49126522,4.58023286 4.44793028,3.87685745 4.33241309,2.53496148 C4.26722376,1.77769491 4.06665489,0.932707749 3.7307065,-2.84217094e-14 C3.86095612,1.37548312 3.86095612,2.46590355 3.7307065,3.2712613 C3.46891584,4.88996188 3.74656504,8.5580243 3.92608093,8.5580243 Z" id="Oval" fill="#139B12"></path>
                        <path d="M2.71102958,8.5580243 C3.03617818,8.5580243 3.43729438,7.57129641 3.43729438,5.38629777 C3.43729438,3.92963201 3.66095594,2.65902006 4.10827906,1.57446192 C3.45879701,2.28275206 3.0282023,2.93397688 2.81649493,3.52813637 C2.49893389,4.41937561 2.38588097,8.5580243 2.71102958,8.5580243 Z" id="Oval" fill="#16B315" transform="translate(3.312099, 5.066243) scale(-1, 1) translate(-3.312099, -5.066243) "></path>
                        <path d="M1.353242,8.27679544 C1.67454435,8.25693243 1.99056003,8.21372047 2.31843601,8.13259542 C3.2137046,7.91108267 3.71196142,7.49223112 3.71196142,6.81674901 C3.71196142,6.10434845 3.82764535,5.38657142 4.05827542,4.66391434 C3.87904161,4.92955998 3.74141202,5.18968539 3.64514492,5.44398941 C3.50659096,5.81000055 3.17378831,6.27182687 2.65624036,6.86523223 C2.5509027,6.98600932 2.43825588,7.11177616 2.31558406,7.2459475 C2.12761985,7.4515319 1.53039446,8.08530303 1.353242,8.27679544 Z M0.804917403,8.29080922 C0.804828778,8.29080912 0.804740144,8.29080907 0.804651502,8.29080907 C0.8047414,8.29080917 0.804830696,8.29080927 0.804919399,8.29080936 Z" id="Oval" stroke="#979797" stroke-width="0.577791804" fill="#B2B2B2" transform="translate(2.908883, 5.857982) scale(-1, 1) translate(-2.908883, -5.857982) "></path>
                        <path d="M4.05737556,8.32275926 C4.38252417,8.32275926 5.90597043,8.01980879 5.90597043,6.21029824 C5.90597043,5.00395787 6.37122825,3.57651736 7.3017439,1.92797672 C6.45839429,2.68988606 5.90262422,3.42507355 5.63443371,4.13353917 C5.23214794,5.19623761 3.73222695,8.32275926 4.05737556,8.32275926 Z" id="Oval" fill="#16B315"></path>
                        <path d="M4.84181253,8.46408622 C5.16696114,8.46408622 6.15268805,6.81382184 6.27715163,5.8579823 C6.38393754,5.03790148 6.70172009,4.27519945 7.23049926,3.56987621 C6.65734176,3.76840481 6.23666775,4.22190192 5.96847724,4.93036755 C5.56619146,5.99306599 4.51666392,8.46408622 4.84181253,8.46408622 Z" id="Oval" fill="#139B12"></path>
                        <path d="M4.84181253,8.57970497 C5.24764833,8.57970497 6.04813493,7.78937769 6.38417017,7.13076946 C6.55223456,6.80137367 6.70224389,6.50823916 6.93781744,6.14207489 C7.09486648,5.89796537 7.55417166,5.53935477 8.31573297,5.06624311 C7.0950085,5.12364198 6.35055101,5.50657424 6.08236049,6.21503986 C5.68007472,7.2777383 4.51666392,8.57970497 4.84181253,8.57970497 Z" id="Oval" fill="#16B315"></path>
                        <path d="M0.0620494591,8.64993907 C0.218262819,8.64993907 0.614316337,8.73405167 0.820776593,8.5580243 C1.15069147,8.2767399 1.3005907,7.63672031 1.50728005,7.23162202 C1.67534445,6.90222623 1.79816544,6.38428898 2.03373899,6.01812471 C2.19078803,5.77401519 2.57847984,5.3771015 3.19681442,4.82738364 C2.11931668,4.96138871 1.44647255,5.38262406 1.17828204,6.09108968 C0.775996263,7.15378812 -0.263099149,8.64993907 0.0620494591,8.64993907 Z" id="Oval" fill="#139B12" transform="translate(1.598407, 6.748704) scale(-1, 1) translate(-1.598407, -6.748704) "></path>
                        <path d="M0.804651502,8.57970497 C1.12980011,8.57970497 4.00085733,8.62625956 4.00085733,6.81674901 C4.00085733,5.61040864 4.34799495,4.38354168 5.04227021,3.13614814 C4.19892059,3.89805748 3.64315053,4.63324496 3.37496001,5.34171059 C2.97267424,6.40440903 0.479502894,8.57970497 0.804651502,8.57970497 Z" id="Oval" fill="#16B315" transform="translate(2.908883, 5.857982) scale(-1, 1) translate(-2.908883, -5.857982) "></path>
                    </g>
                    <g id="Long-plat-pot" transform="translate(0.000000, 8.222789)">
                        <path d="M1.41036877,0.682074676 L23.599036,0.682074676 C23.7246025,0.682074676 23.8263942,0.78386642 23.8263942,0.909432901 C23.8263942,0.92338824 23.8251094,0.937313943 23.8225559,0.951033683 L22.7703951,6.60426523 C22.7503552,6.71193894 22.6563979,6.79002267 22.5468752,6.79002267 L2.46252957,6.79002267 C2.35300686,6.79002267 2.25904957,6.71193894 2.23900969,6.60426523 L1.18684889,0.951033683 C1.16387341,0.827587062 1.24532137,0.708888497 1.36876799,0.685913019 C1.38248773,0.683359546 1.39641343,0.682074676 1.41036877,0.682074676 Z" id="Rectangle" fill="#D9833D"></path>
                        <rect id="Rectangle" fill="#EE964E" x="0" y="5.41788836e-14" width="25.0094048" height="1.41803467" rx="0.283606934"></rect>
                    </g>
                </g>
            </g>
        </g>
    </g>
</svg>