<?xml version="1.0" encoding="UTF-8"?>
<svg width="229px" height="198px" viewBox="0 0 229 198" version="1.1" xmlns="http://www.w3.org/2000/svg" xmlns:xlink="http://www.w3.org/1999/xlink">
    <!-- Generator: Sketch 59 (86127) - https://sketch.com -->
    <title>Purple House</title>
    <desc>Created with Sketch.</desc>
    <g id="Boplats-landing-page" stroke="none" stroke-width="1" fill="none" fill-rule="evenodd">
        <g id="Desktop-HD" transform="translate(-1211.000000, -825.000000)">
            <g id="Purple-House" transform="translate(1211.000000, 825.000000)">
                <rect id="Rectangle" fill="#EBBDFF" x="4" y="38" width="280" height="160"></rect>
                <g id="Window-purple" transform="translate(30.000000, 63.000000)">
                    <rect id="Rectangle" fill="#F5DFFF" x="5" y="0" width="40" height="60"></rect>
                    <rect id="Rectangle" fill="#2E0041" x="0" y="0" width="50" height="10"></rect>
                    <rect id="Rectangle" fill="#2E0041" x="0" y="50" width="50" height="10"></rect>
                    <line x1="25" y1="11" x2="25" y2="49" id="Line-17" stroke="#FFFFFF" stroke-width="2" stroke-linecap="square"></line>
                    <line x1="25" y1="11" x2="25" y2="49" id="Line-17" stroke="#FFFFFF" stroke-width="2" stroke-linecap="square" transform="translate(25.000000, 30.000000) rotate(-90.000000) translate(-25.000000, -30.000000) "></line>
                </g>
                <g id="Window-purple" transform="translate(100.000000, 63.000000)">
                    <rect id="Rectangle" fill="#F5DFFF" x="5" y="0" width="40" height="60"></rect>
                    <rect id="Rectangle" fill="#2E0041" x="0" y="0" width="50" height="10"></rect>
                    <rect id="Rectangle" fill="#2E0041" x="0" y="50" width="50" height="10"></rect>
                    <line x1="25" y1="11" x2="25" y2="49" id="Line-17" stroke="#FFFFFF" stroke-width="2" stroke-linecap="square"></line>
                    <line x1="25" y1="11" x2="25" y2="49" id="Line-17" stroke="#FFFFFF" stroke-width="2" stroke-linecap="square" transform="translate(25.000000, 30.000000) rotate(-90.000000) translate(-25.000000, -30.000000) "></line>
                </g>
                <g id="Window-purple" transform="translate(170.000000, 63.000000)">
                    <rect id="Rectangle" fill="#F5DFFF" x="5" y="0" width="40" height="60"></rect>
                    <rect id="Rectangle" fill="#2E0041" x="0" y="0" width="50" height="10"></rect>
                    <rect id="Rectangle" fill="#2E0041" x="0" y="50" width="50" height="10"></rect>
                    <line x1="25" y1="11" x2="25" y2="49" id="Line-17" stroke="#FFFFFF" stroke-width="2" stroke-linecap="square"></line>
                    <line x1="25" y1="11" x2="25" y2="49" id="Line-17" stroke="#FFFFFF" stroke-width="2" stroke-linecap="square" transform="translate(25.000000, 30.000000) rotate(-90.000000) translate(-25.000000, -30.000000) "></line>
                </g>
                <g id="Window-purple" transform="translate(30.000000, 138.000000)">
                    <rect id="Rectangle" fill="#F5DFFF" x="5" y="0" width="40" height="60"></rect>
                    <rect id="Rectangle" fill="#2E0041" x="0" y="0" width="50" height="10"></rect>
                    <rect id="Rectangle" fill="#2E0041" x="0" y="50" width="50" height="10"></rect>
                    <line x1="25" y1="11" x2="25" y2="49" id="Line-17" stroke="#FFFFFF" stroke-width="2" stroke-linecap="square"></line>
                    <line x1="25" y1="11" x2="25" y2="49" id="Line-17" stroke="#FFFFFF" stroke-width="2" stroke-linecap="square" transform="translate(25.000000, 30.000000) rotate(-90.000000) translate(-25.000000, -30.000000) "></line>
                </g>
                <g id="Window-purple" transform="translate(100.000000, 138.000000)">
                    <rect id="Rectangle" fill="#F5DFFF" x="5" y="0" width="40" height="60"></rect>
                    <rect id="Rectangle" fill="#2E0041" x="0" y="0" width="50" height="10"></rect>
                    <rect id="Rectangle" fill="#2E0041" x="0" y="50" width="50" height="10"></rect>
                    <line x1="25" y1="11" x2="25" y2="49" id="Line-17" stroke="#FFFFFF" stroke-width="2" stroke-linecap="square"></line>
                    <line x1="25" y1="11" x2="25" y2="49" id="Line-17" stroke="#FFFFFF" stroke-width="2" stroke-linecap="square" transform="translate(25.000000, 30.000000) rotate(-90.000000) translate(-25.000000, -30.000000) "></line>
                </g>
                <g id="Window-purple" transform="translate(170.000000, 138.000000)">
                    <rect id="Rectangle" fill="#F5DFFF" x="5" y="0" width="40" height="60"></rect>
                    <rect id="Rectangle" fill="#2E0041" x="0" y="0" width="50" height="10"></rect>
                    <rect id="Rectangle" fill="#2E0041" x="0" y="50" width="50" height="10"></rect>
                    <line x1="25" y1="11" x2="25" y2="49" id="Line-17" stroke="#FFFFFF" stroke-width="2" stroke-linecap="square"></line>
                    <line x1="25" y1="11" x2="25" y2="49" id="Line-17" stroke="#FFFFFF" stroke-width="2" stroke-linecap="square" transform="translate(25.000000, 30.000000) rotate(-90.000000) translate(-25.000000, -30.000000) "></line>
                </g>
                <rect id="Rectangle" fill="#2E0041" x="0" y="26" width="284" height="12"></rect>
                <rect id="Rectangle" fill="#2E0041" x="10" y="20" width="274" height="6"></rect>
                <rect id="Rectangle" fill="#14001D" x="32" y="5" width="15" height="15"></rect>
                <rect id="Rectangle" fill="#14001D" x="59" y="0" width="15" height="20"></rect>
            </g>
        </g>
    </g>
</svg>