<?xml version="1.0" encoding="UTF-8"?>
<svg width="370px" height="300px" viewBox="0 0 370 300" version="1.1" xmlns="http://www.w3.org/2000/svg" xmlns:xlink="http://www.w3.org/1999/xlink">
    <!-- Generator: Sketch 59 (86127) - https://sketch.com -->
    <title>Reply</title>
    <desc>Created with Sketch.</desc>
    <g id="Boplats-landing-page" stroke="none" stroke-width="1" fill="none" fill-rule="evenodd">
        <g id="Desktop-HD" transform="translate(-122.000000, -3675.000000)">
            <g id="Reply" transform="translate(122.000000, 3675.000000)">
                <rect id="Rectangle" fill="#F7C3DB" x="0" y="0" width="370" height="300" rx="6"></rect>
                <circle id="Oval" fill="#E01171" cx="57" cy="56" r="40"></circle>
                <text id="4" font-family="Verdana-Bold, Verdana" font-size="24" font-weight="bold" line-spacing="14.6666667" fill="#FFFFFF">
                    <tspan x="48" y="73">4</tspan>
                </text>
                <g id="Choice" transform="translate(95.000000, 112.000000)" stroke-width="4.76190476">
                    <rect id="Rectangle" stroke="#FFFFFF" fill="#E01171" x="2.38095238" y="2.38095238" width="74.2857143" height="71.4285714" rx="9.52380952"></rect>
                    <rect id="Rectangle" stroke="#FFFFFF" fill="#FFFFFF" x="102.380952" y="2.38095238" width="74.2857143" height="71.4285714" rx="9.52380952"></rect>
                    <path d="M21.9047619,41.9047619 C28.8888889,47.6190476 32.3809524,50.4761905 32.3809524,50.4761905 C32.3809524,50.4761905 40.6349206,41.9047619 57.1428571,24.7619048" id="Path-11" stroke="#FFFFFF" stroke-linecap="round" stroke-linejoin="round"></path>
                    <g id="Cross" transform="translate(129.523810, 26.666667)" stroke="#E01171" stroke-linecap="round" stroke-linejoin="round">
                        <path d="M0,21.9047619 C0,21.9047619 6.66666667,14.6031746 20,0" id="Path-11"></path>
                        <path d="M0,21.9047619 C0,21.9047619 6.66666667,14.6031746 20,0" id="Path-11" transform="translate(10.000000, 10.952381) scale(-1, 1) translate(-10.000000, -10.952381) "></path>
                    </g>
                </g>
            </g>
        </g>
    </g>
</svg>