<?xml version="1.0" encoding="UTF-8"?>
<svg width="370px" height="300px" viewBox="0 0 370 300" version="1.1" xmlns="http://www.w3.org/2000/svg" xmlns:xlink="http://www.w3.org/1999/xlink">
    <!-- Generator: Sketch 60 (88103) - https://sketch.com -->
    <title>Reply SS</title>
    <desc>Created with Sketch.</desc>
    <g id="Boplats-landing-page" stroke="none" stroke-width="1" fill="none" fill-rule="evenodd">
        <g id="Artboard" transform="translate(-445.000000, -555.000000)">
            <g id="Reply-SS" transform="translate(445.000000, 555.000000)">
                <rect id="Rectangle" fill="#EBBDFF" x="0" y="0" width="370" height="300" rx="6"></rect>
                <g id="Number-4" transform="translate(17.000000, 16.000000)">
                    <circle id="Oval" fill="#59097B" cx="40" cy="40" r="40"></circle>
                    <text id="4" font-family="Verdana-Bold, Verdana" font-size="30" font-weight="bold" line-spacing="30" fill="#FFFFFF">
                        <tspan x="29" y="55">4</tspan>
                    </text>
                </g>
                <g id="Choice" transform="translate(95.000000, 112.000000)" stroke-width="4.76190476">
                    <rect id="Rectangle" stroke="#FFFFFF" fill="#59097B" x="2.38095238" y="2.38095238" width="74.2857143" height="71.4285714" rx="9.52380952"></rect>
                    <rect id="Rectangle" stroke="#FFFFFF" fill="#FFFFFF" x="102.380952" y="2.38095238" width="74.2857143" height="71.4285714" rx="9.52380952"></rect>
                    <path d="M21.9047619,41.9047619 C28.8888889,47.6190476 32.3809524,50.4761905 32.3809524,50.4761905 C32.3809524,50.4761905 40.6349206,41.9047619 57.1428571,24.7619048" id="Path-11" stroke="#FFFFFF" stroke-linecap="round" stroke-linejoin="round"></path>
                    <g id="Cross" transform="translate(129.523810, 26.666667)" stroke="#59097B" stroke-linecap="round" stroke-linejoin="round">
                        <path d="M0,21.9047619 C0,21.9047619 6.66666667,14.6031746 20,0" id="Path-11"></path>
                        <path d="M0,21.9047619 C0,21.9047619 6.66666667,14.6031746 20,0" id="Path-11" transform="translate(10.000000, 10.952381) scale(-1, 1) translate(-10.000000, -10.952381) "></path>
                    </g>
                </g>
            </g>
        </g>
    </g>
</svg>