<?xml version="1.0" encoding="UTF-8"?>
<svg width="352px" height="160px" viewBox="0 0 352 160" version="1.1" xmlns="http://www.w3.org/2000/svg" xmlns:xlink="http://www.w3.org/1999/xlink">
    <!-- Generator: Sketch 59 (86127) - https://sketch.com -->
    <title>Small Clouds</title>
    <desc>Created with Sketch.</desc>
    <g id="Boplats-landing-page" stroke="none" stroke-width="1" fill="none" fill-rule="evenodd">
        <g id="Artboard" transform="translate(-12.000000, -61.000000)" fill="#FFFFFF" stroke="#AC1488" stroke-width="3">
            <g id="Small-Clouds" transform="translate(12.000000, 61.000000)">
                <path d="M319.006757,26.5 C317.365316,26.5 315.830762,27.1298322 314.689441,28.2329378 L313.956631,28.9412102 L313.028234,28.5208074 C312.329799,28.2045376 311.566954,28.0384615 310.777027,28.0384615 C307.811598,28.0384615 305.418919,30.3867145 305.418919,33.2692308 C305.418919,33.3973872 305.423611,33.5224867 305.432913,33.6430984 L305.522886,34.80966 L304.413326,35.180926 C302.687469,35.7584093 301.5,37.380915 301.5,39.2307692 C301.5,41.5886003 303.4114,43.5 305.769231,43.5 L323.230769,43.5 C325.5886,43.5 327.5,41.5886003 327.5,39.2307692 C327.5,37.7757152 326.768109,36.4478171 325.574515,35.6628324 L324.669922,35.0679139 L324.949677,34.0219917 C325.081298,33.5298966 325.148649,33.0199758 325.148649,32.5 C325.148649,29.1926493 322.405057,26.5 319.006757,26.5 Z" id="Combined-Shape" stroke-opacity="0.5" transform="translate(314.500000, 35.000000) scale(-1, 1) translate(-314.500000, -35.000000) "></path>
                <path d="M289.5,81.5 C281.311158,81.5 273.977222,86.2289173 270.5239,93.4952271 L269.879506,94.8511291 L268.524136,94.2056172 C264.801089,92.43247 260.718253,91.5 256.5,91.5 C241.036027,91.5 228.5,104.036027 228.5,119.5 C228.5,119.860193 228.506793,120.21563 228.520461,120.566087 L228.567681,121.776899 L227.393856,122.077615 C219.278503,124.156646 213.5,131.502227 213.5,140 C213.5,150.217268 221.782732,158.5 232,158.5 L332,158.5 C342.217268,158.5 350.5,150.217268 350.5,140 C350.5,132.539515 346.043515,125.898569 339.308235,122.999541 L338.306196,122.56824 L338.407788,121.482062 C338.469126,120.826264 338.5,120.165125 338.5,119.5 C338.5,107.90202 329.09798,98.5 317.5,98.5 C315.588759,98.5 313.7136,98.7549504 311.908742,99.2528666 L310.37314,99.6765018 L310.042498,98.1182276 C308.000598,88.4949919 299.464751,81.5 289.5,81.5 Z" id="Combined-Shape" stroke-opacity="0.5"></path>
                <path d="M179.321429,46.5 C176.01606,46.5 173.059832,48.383296 171.670403,51.2728746 L171.025796,52.6134558 L169.679871,51.9800835 C168.140984,51.2559063 166.453032,50.875 164.707143,50.875 C158.316305,50.875 153.142857,55.9858661 153.142857,62.28125 C153.142857,62.424419 153.145524,62.5606851 153.150962,62.6900626 L153.202513,63.9163701 L152.01067,64.2096214 C148.7988,64.9998971 146.5,67.8947829 146.5,71.25 C146.5,75.2540644 149.745936,78.5 153.75,78.5 L198.25,78.5 C202.254064,78.5 205.5,75.2540644 205.5,71.25 C205.5,68.3058042 203.729112,65.6884637 201.062131,64.5648607 L200.050346,64.1385946 L200.1508,63.0452881 C200.174023,62.7925317 200.185714,62.5376995 200.185714,62.28125 C200.185714,57.6772381 196.400183,53.9375 191.721429,53.9375 C190.948742,53.9375 190.191324,54.0391919 189.462709,54.2376013 L187.934649,54.6537086 L187.602047,53.1053252 C186.781261,49.2842578 183.342011,46.5 179.321429,46.5 Z" id="Combined-Shape" stroke-opacity="0.75"></path>
                <path d="M60.7142857,1.5 C55.7820007,1.5 51.3664714,4.33094561 49.2882158,8.67896958 L48.643673,10.0274501 L47.2928776,9.38777305 C45.0263808,8.3144603 42.5407556,7.75 39.9714286,7.75 C30.5570112,7.75 22.9285714,15.3350964 22.9285714,24.6875 C22.9285714,24.898974 22.9324637,25.1105419 22.9402114,25.3220447 L22.9846615,26.5354685 L21.8071001,26.8316481 C16.9596937,28.0508647 13.5,32.4298256 13.5,37.5 C13.5,43.5751322 18.4248678,48.5 24.5,48.5 L87.5,48.5 C93.5751322,48.5 98.5,43.5751322 98.5,37.5 C98.5,33.0495987 95.8330335,29.0905287 91.8086597,27.375308 L90.8021416,26.9463219 L90.9031936,25.8568742 C90.9390791,25.4699914 90.9571429,25.0799484 90.9571429,24.6875 C90.9571429,17.7513422 85.2986502,12.125 78.3142857,12.125 C77.1622432,12.125 76.0324211,12.2777355 74.9458404,12.5758033 L73.4136414,12.9961119 L73.0820551,11.4422961 C71.8538499,5.68691902 66.7154201,1.5 60.7142857,1.5 Z" id="Combined-Shape" stroke-opacity="0.5" transform="translate(56.000000, 25.000000) scale(-1, 1) translate(-56.000000, -25.000000) "></path>
                <path d="M26,95.5 C21.6628259,95.5 18.0331517,98.765841 17.5529726,103.039448 L17.3161885,105.146833 L15.4079774,104.221702 C14.4327204,103.748881 13.3606022,103.5 12.25,103.5 C8.24593556,103.5 5,106.745936 5,110.75 C5,111.017302 5.01440184,111.281939 5.04291105,111.54208 L5.15572717,112.571502 L4.23311568,113.04185 C2.56913683,113.890147 1.5,115.599242 1.5,117.5 C1.5,120.261424 3.73857625,122.5 6.5,122.5 L40.5,122.5 C43.2614237,122.5 45.5,120.261424 45.5,117.5 C45.5,115.524974 44.3450421,113.760665 42.5805674,112.952265 L41.4050574,112.413701 L41.7644553,111.171643 C41.9200959,110.633758 42,110.073004 42,109.5 C42,106.186292 39.3137085,103.5 36.0151685,103.499923 L34.5765318,103.514472 L34.3302917,102.300113 C33.533477,98.3705357 30.0612053,95.5 26,95.5 Z" id="Combined-Shape" stroke-opacity="0.25" transform="translate(23.500000, 109.000000) scale(-1, 1) translate(-23.500000, -109.000000) "></path>
            </g>
        </g>
    </g>
</svg>