<?xml version="1.0" encoding="UTF-8"?>
<svg width="369px" height="52px" viewBox="0 0 369 52" version="1.1" xmlns="http://www.w3.org/2000/svg" xmlns:xlink="http://www.w3.org/1999/xlink">
    <!-- Generator: Sketch 59 (86127) - https://sketch.com -->
    <title>Small Clouds</title>
    <desc>Created with Sketch.</desc>
    <g id="Boplats-landing-page" stroke="none" stroke-width="1" fill="none" fill-rule="evenodd">
        <g id="Artboard" transform="translate(0.000000, -59.000000)" fill="#FFFFFF" stroke="#AC1488" stroke-width="3">
            <g id="Small-Clouds" transform="translate(0.000000, 59.000000)">
                <path d="M359.006757,3.5 C357.365316,3.5 355.830762,4.1298322 354.689441,5.2329378 L353.956631,5.94121021 L353.028234,5.52080742 C352.329799,5.20453762 351.566954,5.03846154 350.777027,5.03846154 C347.811598,5.03846154 345.418919,7.38671448 345.418919,10.2692308 C345.418919,10.3973872 345.423611,10.5224867 345.432913,10.6430984 L345.522886,11.80966 L344.413326,12.180926 C342.687469,12.7584093 341.5,14.380915 341.5,16.2307692 C341.5,18.5886003 343.4114,20.5 345.769231,20.5 L363.230769,20.5 C365.5886,20.5 367.5,18.5886003 367.5,16.2307692 C367.5,14.7757152 366.768109,13.4478171 365.574515,12.6628324 L364.669922,12.0679139 L364.949677,11.0219917 C365.081298,10.5298966 365.148649,10.0199758 365.148649,9.5 C365.148649,6.19264929 362.405057,3.5 359.006757,3.5 Z" id="Combined-Shape" stroke-opacity="0.5" transform="translate(354.500000, 12.000000) scale(-1, 1) translate(-354.500000, -12.000000) "></path>
                <path d="M219.321429,1.5 C216.01606,1.5 213.059832,3.38329603 211.670403,6.27287457 L211.025796,7.61345584 L209.679871,6.9800835 C208.140984,6.25590628 206.453032,5.875 204.707143,5.875 C198.316305,5.875 193.142857,10.9858661 193.142857,17.28125 C193.142857,17.424419 193.145524,17.5606851 193.150962,17.6900626 L193.202513,18.9163701 L192.01067,19.2096214 C188.7988,19.9998971 186.5,22.8947829 186.5,26.25 C186.5,30.2540644 189.745936,33.5 193.75,33.5 L238.25,33.5 C242.254064,33.5 245.5,30.2540644 245.5,26.25 C245.5,23.3058042 243.729112,20.6884637 241.062131,19.5648607 L240.050346,19.1385946 L240.1508,18.0452881 C240.174023,17.7925317 240.185714,17.5376995 240.185714,17.28125 C240.185714,12.6772381 236.400183,8.9375 231.721429,8.9375 C230.948742,8.9375 230.191324,9.03919192 229.462709,9.23760134 L227.934649,9.65370857 L227.602047,8.10532515 C226.781261,4.28425778 223.342011,1.5 219.321429,1.5 Z" id="Combined-Shape" stroke-opacity="0.75"></path>
                <path d="M48.7142857,3.5 C43.7820007,3.5 39.3664714,6.33094561 37.2882158,10.6789696 L36.643673,12.0274501 L35.2928776,11.387773 C33.0263808,10.3144603 30.5407556,9.75 27.9714286,9.75 C18.5570112,9.75 10.9285714,17.3350964 10.9285714,26.6875 C10.9285714,26.898974 10.9324637,27.1105419 10.9402114,27.3220447 L10.9846615,28.5354685 L9.80710012,28.8316481 C4.95969369,30.0508647 1.5,34.4298256 1.5,39.5 C1.5,45.5751322 6.42486775,50.5 12.5,50.5 L75.5,50.5 C81.5751322,50.5 86.5,45.5751322 86.5,39.5 C86.5,35.0495987 83.8330335,31.0905287 79.8086597,29.375308 L78.8021416,28.9463219 L78.9031936,27.8568742 C78.9390791,27.4699914 78.9571429,27.0799484 78.9571429,26.6875 C78.9571429,19.7513422 73.2986502,14.125 66.3142857,14.125 C65.1622432,14.125 64.0324211,14.2777355 62.9458404,14.5758033 L61.4136414,14.9961119 L61.0820551,13.4422961 C59.8538499,7.68691902 54.7154201,3.5 48.7142857,3.5 Z" id="Combined-Shape" stroke-opacity="0.5" transform="translate(44.000000, 27.000000) scale(-1, 1) translate(-44.000000, -27.000000) "></path>
            </g>
        </g>
    </g>
</svg>