<?xml version="1.0" encoding="UTF-8"?>
<svg width="360px" height="160px" viewBox="0 0 360 160" version="1.1" xmlns="http://www.w3.org/2000/svg" xmlns:xlink="http://www.w3.org/1999/xlink">
    <!-- Generator: Sketch 59 (86127) - https://sketch.com -->
    <title>Small Clouds</title>
    <desc>Created with Sketch.</desc>
    <g id="Boplats-landing-page" stroke="none" stroke-width="1" fill="none" fill-rule="evenodd">
        <g id="Artboard" transform="translate(-4.000000, -61.000000)" fill="#FFFFFF" stroke="#AC1488" stroke-width="3">
            <g id="Small-Clouds" transform="translate(4.000000, 61.000000)">
                <path d="M327.006757,1.5 C325.365316,1.5 323.830762,2.1298322 322.689441,3.2329378 L321.956631,3.94121021 L321.028234,3.52080742 C320.329799,3.20453762 319.566954,3.03846154 318.777027,3.03846154 C315.811598,3.03846154 313.418919,5.38671448 313.418919,8.26923077 C313.418919,8.39738717 313.423611,8.52248669 313.432913,8.64309837 L313.522886,9.80965995 L312.413326,10.180926 C310.687469,10.7584093 309.5,12.380915 309.5,14.2307692 C309.5,16.5886003 311.4114,18.5 313.769231,18.5 L331.230769,18.5 C333.5886,18.5 335.5,16.5886003 335.5,14.2307692 C335.5,12.7757152 334.768109,11.4478171 333.574515,10.6628324 L332.669922,10.0679139 L332.949677,9.02199165 C333.081298,8.52989661 333.148649,8.0199758 333.148649,7.5 C333.148649,4.19264929 330.405057,1.5 327.006757,1.5 Z" id="Combined-Shape" stroke-opacity="0.5" transform="translate(322.500000, 10.000000) scale(-1, 1) translate(-322.500000, -10.000000) "></path>
                <path d="M297.5,81.5 C289.311158,81.5 281.977222,86.2289173 278.5239,93.4952271 L277.879506,94.8511291 L276.524136,94.2056172 C272.801089,92.43247 268.718253,91.5 264.5,91.5 C249.036027,91.5 236.5,104.036027 236.5,119.5 C236.5,119.860193 236.506793,120.21563 236.520461,120.566087 L236.567681,121.776899 L235.393856,122.077615 C227.278503,124.156646 221.5,131.502227 221.5,140 C221.5,150.217268 229.782732,158.5 240,158.5 L340,158.5 C350.217268,158.5 358.5,150.217268 358.5,140 C358.5,132.539515 354.043515,125.898569 347.308235,122.999541 L346.306196,122.56824 L346.407788,121.482062 C346.469126,120.826264 346.5,120.165125 346.5,119.5 C346.5,107.90202 337.09798,98.5 325.5,98.5 C323.588759,98.5 321.7136,98.7549504 319.908742,99.2528666 L318.37314,99.6765018 L318.042498,98.1182276 C316.000598,88.4949919 307.464751,81.5 297.5,81.5 Z" id="Combined-Shape" stroke-opacity="0.5"></path>
                <path d="M203.321429,4.5 C200.01606,4.5 197.059832,6.38329603 195.670403,9.27287457 L195.025796,10.6134558 L193.679871,9.9800835 C192.140984,9.25590628 190.453032,8.875 188.707143,8.875 C182.316305,8.875 177.142857,13.9858661 177.142857,20.28125 C177.142857,20.424419 177.145524,20.5606851 177.150962,20.6900626 L177.202513,21.9163701 L176.01067,22.2096214 C172.7988,22.9998971 170.5,25.8947829 170.5,29.25 C170.5,33.2540644 173.745936,36.5 177.75,36.5 L222.25,36.5 C226.254064,36.5 229.5,33.2540644 229.5,29.25 C229.5,26.3058042 227.729112,23.6884637 225.062131,22.5648607 L224.050346,22.1385946 L224.1508,21.0452881 C224.174023,20.7925317 224.185714,20.5376995 224.185714,20.28125 C224.185714,15.6772381 220.400183,11.9375 215.721429,11.9375 C214.948742,11.9375 214.191324,12.0391919 213.462709,12.2376013 L211.934649,12.6537086 L211.602047,11.1053252 C210.781261,7.28425778 207.342011,4.5 203.321429,4.5 Z" id="Combined-Shape" stroke-opacity="0.75"></path>
                <path d="M48.7142857,1.5 C43.7820007,1.5 39.3664714,4.33094561 37.2882158,8.67896958 L36.643673,10.0274501 L35.2928776,9.38777305 C33.0263808,8.3144603 30.5407556,7.75 27.9714286,7.75 C18.5570112,7.75 10.9285714,15.3350964 10.9285714,24.6875 C10.9285714,24.898974 10.9324637,25.1105419 10.9402114,25.3220447 L10.9846615,26.5354685 L9.80710012,26.8316481 C4.95969369,28.0508647 1.5,32.4298256 1.5,37.5 C1.5,43.5751322 6.42486775,48.5 12.5,48.5 L75.5,48.5 C81.5751322,48.5 86.5,43.5751322 86.5,37.5 C86.5,33.0495987 83.8330335,29.0905287 79.8086597,27.375308 L78.8021416,26.9463219 L78.9031936,25.8568742 C78.9390791,25.4699914 78.9571429,25.0799484 78.9571429,24.6875 C78.9571429,17.7513422 73.2986502,12.125 66.3142857,12.125 C65.1622432,12.125 64.0324211,12.2777355 62.9458404,12.5758033 L61.4136414,12.9961119 L61.0820551,11.4422961 C59.8538499,5.68691902 54.7154201,1.5 48.7142857,1.5 Z" id="Combined-Shape" stroke-opacity="0.5" transform="translate(44.000000, 25.000000) scale(-1, 1) translate(-44.000000, -25.000000) "></path>
                <path d="M34,95.5 C29.6628259,95.5 26.0331517,98.765841 25.5529726,103.039448 L25.3161885,105.146833 L23.4079774,104.221702 C22.4327204,103.748881 21.3606022,103.5 20.25,103.5 C16.2459356,103.5 13,106.745936 13,110.75 C13,111.017302 13.0144018,111.281939 13.0429111,111.54208 L13.1557272,112.571502 L12.2331157,113.04185 C10.5691368,113.890147 9.5,115.599242 9.5,117.5 C9.5,120.261424 11.7385763,122.5 14.5,122.5 L48.5,122.5 C51.2614237,122.5 53.5,120.261424 53.5,117.5 C53.5,115.524974 52.3450421,113.760665 50.5805674,112.952265 L49.4050574,112.413701 L49.7644553,111.171643 C49.9200959,110.633758 50,110.073004 50,109.5 C50,106.186292 47.3137085,103.5 44.0151685,103.499923 L42.5765318,103.514472 L42.3302917,102.300113 C41.533477,98.3705357 38.0612053,95.5 34,95.5 Z" id="Combined-Shape" stroke-opacity="0.25" transform="translate(31.500000, 109.000000) scale(-1, 1) translate(-31.500000, -109.000000) "></path>
            </g>
        </g>
    </g>
</svg>