<?xml version="1.0" encoding="UTF-8"?>
<svg width="371px" height="300px" viewBox="0 0 371 300" version="1.1" xmlns="http://www.w3.org/2000/svg" xmlns:xlink="http://www.w3.org/1999/xlink">
    <!-- Generator: Sketch 59 (86127) - https://sketch.com -->
    <title>Applications Illustrations</title>
    <desc>Created with Sketch.</desc>
    <g id="Boplats-landing-page" stroke="none" stroke-width="1" fill="none" fill-rule="evenodd">
        <g id="Desktop-HD" transform="translate(-536.000000, -3185.000000)">
            <g id="Applications-Illustrations" transform="translate(536.000000, 3185.000000)">
                <rect id="Rectangle" fill="#F7C3DB" x="0" y="0" width="371" height="300" rx="6"></rect>
                <g id="Applications" transform="translate(132.000000, 85.000000)">
                    <rect id="Rectangle" fill="#FFFFFF" x="0" y="21.5416667" width="89.7569444" height="107.708333" rx="5.38541667"></rect>
                    <rect id="Rectangle" fill="#E01171" x="8.97569444" y="10.7708333" width="89.7569444" height="107.708333" rx="5.38541667"></rect>
                    <rect id="Rectangle" fill="#FFFFFF" x="19.7465278" y="0" width="89.7569444" height="107.708333" rx="5.38541667"></rect>
                    <g id="User" transform="translate(27.500000, 15.583333)">
                        <circle id="Oval" fill="#E01171" cx="18.3333333" cy="18.3333333" r="18.3333333"></circle>
                        <circle id="Oval" fill="#FFFFFF" cx="18.3333333" cy="11" r="6.11111111"></circle>
                        <path d="M26.8888889,30.5555556 C26.8888889,28.7218649 26.8888889,26.6848278 26.8888889,24.4444444 C26.8888889,21.0838694 22.4064301,18.3333333 18.3847246,18.3333333 C14.363019,18.3333333 9.77777778,21.0838694 9.77777778,24.4444444 C9.77777778,25.1368396 9.77777778,27.1738767 9.77777778,30.5555556 L26.8888889,30.5555556 Z" id="Oval" fill="#FFFFFF"></path>
                    </g>
                    <line x1="86.1666667" y1="30.25" x2="102.666667" y2="30.25" id="Line-2" stroke="#E01171" stroke-width="1.83333333" stroke-linecap="round"></line>
                    <line x1="70.5833333" y1="30.25" x2="81.5833333" y2="30.25" id="Line-2" stroke="#E01171" stroke-width="1.83333333" stroke-linecap="round"></line>
                    <line x1="70.5833333" y1="35.75" x2="102.666667" y2="35.75" id="Line-2" stroke="#E01171" stroke-width="1.83333333" stroke-linecap="round"></line>
                    <line x1="70.5833333" y1="41.25" x2="102.666667" y2="41.25" id="Line-2" stroke="#E01171" stroke-width="1.83333333" stroke-linecap="round"></line>
                    <line x1="31.1666667" y1="62.21875" x2="100.375" y2="61.875" id="Path-16" stroke="#E01171" stroke-width="4.8125" stroke-linecap="round"></line>
                    <line x1="31.1666667" y1="75.0520833" x2="100.375" y2="74.7083333" id="Path-16" stroke="#E01171" stroke-width="4.8125" stroke-linecap="round"></line>
                    <line x1="31.1666667" y1="87.8854167" x2="100.375" y2="87.5416667" id="Path-16" stroke="#E01171" stroke-width="4.8125" stroke-linecap="round"></line>
                </g>
                <g id="Number-2" transform="translate(16.000000, 16.000000)">
                    <circle id="Oval" fill="#E01171" cx="40" cy="40" r="40"></circle>
                    <text id="2" font-family="Verdana-Bold, Verdana" font-size="30" font-weight="bold" line-spacing="30" fill="#FFFFFF">
                        <tspan x="29" y="52">2</tspan>
                    </text>
                </g>
            </g>
        </g>
    </g>
</svg>