<?xml version="1.0" encoding="UTF-8"?>
<svg width="192px" height="101px" viewBox="0 0 192 101" version="1.1" xmlns="http://www.w3.org/2000/svg" xmlns:xlink="http://www.w3.org/1999/xlink">
    <!-- Generator: Sketch 60.1 (88133) - https://sketch.com -->
    <title>Blue House</title>
    <desc>Created with Sketch.</desc>
    <g id="Boplats-landing-page" stroke="none" stroke-width="1" fill="none" fill-rule="evenodd">
        <g id="Desktop-HD" transform="translate(-119.000000, -912.000000)">
            <g id="Blue-House" transform="translate(120.000000, 912.000000)">
                <rect id="Rectangle" fill="#BBBAFF" x="0" y="16.6718741" width="185.903242" height="84.2251564"></rect>
                <g id="Group" transform="translate(117.544202, 32.505586)">
                    <path d="M20.8411706,0 C32.3514314,0 41.6823413,9.33090993 41.6823413,20.8411706 L41.6823413,20.8411706 L41.6823413,68.3590397 L0,68.3590397 L0,20.8411706 L0.00284873909,20.4930493 C0.188725591,9.14335873 9.44717519,0 20.8411706,0 Z" id="Combined-Shape" fill="#E6E6FF"></path>
                    <rect id="Rectangle" fill="#060235" x="0" y="60.0225714" width="41.6823413" height="8.33646826"></rect>
                    <line x1="0.833646826" y1="20.4243472" x2="40.8058063" y2="20.4243472" id="Line-16" stroke="#FFFFFF" stroke-width="1.66729365" stroke-linecap="square"></line>
                    <line x1="20.8411706" y1="20.8411706" x2="20.8411706" y2="59.1889246" id="Line-16" stroke="#FFFFFF" stroke-width="1.66729365" stroke-linecap="square"></line>
                </g>
                <g id="Group" transform="translate(42.515988, 32.505586)">
                    <path d="M20.8411706,0 C32.3514314,0 41.6823413,9.33090993 41.6823413,20.8411706 L41.6823413,20.8411706 L41.6823413,68.3590397 L0,68.3590397 L0,20.8411706 L0.00284873909,20.4930493 C0.188725591,9.14335873 9.44717519,0 20.8411706,0 Z" id="Combined-Shape" fill="#E6E6FF"></path>
                    <rect id="Rectangle" fill="#060235" x="0" y="60.0225714" width="41.6823413" height="8.33646826"></rect>
                    <line x1="0.833646826" y1="20.4243472" x2="40.8058063" y2="20.4243472" id="Line-16" stroke="#FFFFFF" stroke-width="1.66729365" stroke-linecap="square"></line>
                    <line x1="20.8411706" y1="20.8411706" x2="20.8411706" y2="59.1889246" id="Line-16" stroke="#FFFFFF" stroke-width="1.66729365" stroke-linecap="square"></line>
                </g>
                <rect id="Rectangle" fill="#060235" x="0" y="16.6718741" width="190.071476" height="8.33646826"></rect>
                <path d="M9.16726634,52.9986352 L9.17011508,53.3467565 L9.17011508,100.864626 L0,100.863784 L0.000443748606,36.0777836 C5.44402966,39.764114 9.05193872,45.9566994 9.16726634,52.9986352 Z" id="Combined-Shape" fill="#E6E6FF"></path>
                <rect id="Rectangle" fill="#390000" x="3.3345873" y="4.16318747" width="12.5047024" height="12.5086866"></rect>
                <rect id="Rectangle" fill="#390000" x="24.1757579" y="6.66492479" width="12.5047024" height="10.0069493"></rect>
                <rect id="Rectangle" fill="#290000" x="22.5084643" y="2.50067486" width="15.8392897" height="4.16823413"></rect>
                <rect id="Rectangle" fill="#290000" x="1.66729365" y="0" width="15.8392897" height="4.16823413"></rect>
                <g id="Tulips" transform="translate(67.525393, 69.186046)">
                    <path d="M3.05265251,12.647884 C3.72029549,12.647884 3.59378602,12.4720339 3.59378602,11.3521166 C3.59378602,10.8150609 3.04069909,9.9706481 1.54726529,9.44708716 C1.22993846,9.33584023 0.916085369,9.06050279 0.605706007,8.62107483 C0.428155064,9.29422436 0.460499271,9.99972121 0.702738629,10.7375654 C1.06609767,11.8443317 2.38500953,12.647884 3.05265251,12.647884 Z" id="Oval" fill="#156C0A"></path>
                    <path d="M5.15758684,8.98663536 C5.65325733,9.08778837 5.51544985,9.19880761 5.51544985,8.07889036 C5.51544985,7.54183466 5.02819473,7.04968505 4.22483266,6.91422337 C3.89612871,6.85879782 3.54662451,6.68583548 3.17632007,6.39533635 C3.20186473,6.91908283 3.2859152,7.38938494 3.42847145,7.80624268 C3.64230583,8.4315293 4.66191636,8.88548236 5.15758684,8.98663536 Z" id="Oval" fill="#1DA10C" transform="translate(4.354684, 7.721108) scale(-1, 1) translate(-4.354684, -7.721108) "></path>
                    <path d="M8.92254648,15.2259879 C8.98603924,15.2259879 9.28040948,15.4381602 9.28040948,14.3182429 C9.28040948,13.7811872 8.79315436,13.2890376 7.98979229,13.1535759 C7.66108835,13.0981504 7.31158415,12.925188 6.9412797,12.6346889 C6.96682437,13.1584354 7.05087483,13.6287375 7.19343109,14.0455952 C7.40726547,14.6708818 8.85905372,15.2259879 8.92254648,15.2259879 Z" id="Oval" fill="#126707" transform="translate(8.110845, 13.938349) scale(-1, 1) rotate(-24.000000) translate(-8.110845, -13.938349) "></path>
                    <line x1="2.96369246" y1="6.16136063" x2="4.67951441" y2="22.5396611" id="Line-23" stroke="#1D8B0F" stroke-width="0.577791804" stroke-linecap="square"></line>
                    <line x1="7.60421091" y1="11.4258143" x2="4.48453464" y2="22.1886975" id="Line-23" stroke="#1D8B0F" stroke-width="0.577791804" stroke-linecap="square"></line>
                    <path d="M1.40385432,0.948411227 C1.67696792,0.435192715 1.95663334,0.149079206 2.24285058,0.0900706984 C2.52906783,0.0310621908 2.87470355,0.188259332 3.27975776,0.561662122 L2.38324637,1.78421977 L1.40385432,0.948411227 Z" id="Path-19" fill="#8B0F6D"></path>
                    <path d="M3.96902985,6.12595764 C4.94403589,6.12595764 5.47430443,4.19380171 5.21572105,3.17996668 C5.09161127,2.69336603 4.85414067,1.96075254 4.35577968,1.34711991 C3.81425832,0.680343866 3.37031761,0.231303894 3.02395755,1.42108547e-14 C2.09987254,1.18301594 1.63783004,2.31294566 1.63783004,3.38978918 C1.63783004,4.34214514 1.63783004,4.89240846 2.32356631,5.58970077 C2.82902472,6.10367717 3.37683086,6.12595764 3.96902985,6.12595764 Z" id="Oval" fill="#AC1488" transform="translate(3.459363, 3.062979) scale(-1, 1) translate(-3.459363, -3.062979) "></path>
                    <path d="M2.61307006,6.20387533 C3.5880761,6.20394955 4.038218,4.58177127 3.77963462,3.56793624 C3.65552484,3.08133559 3.43945373,2.62481306 2.94109274,2.01118043 C2.39957138,1.34440439 1.60952028,0.778000117 0.570939428,0.311967627 C0.190313143,1.20665207 1.91846539e-13,2.19241606 1.91846539e-13,3.26925957 C1.91846539e-13,4.22161554 0.40488485,5.31368566 1.19286439,5.84377462 C1.74135571,6.21275526 2.02087107,6.20387533 2.61307006,6.20387533 Z" id="Oval" fill="#D818AA"></path>
                    <g id="Group" transform="translate(8.503391, 9.564865) rotate(26.000000) translate(-8.503391, -9.564865) translate(6.003391, 6.564865)">
                        <path d="M1.14063164,0.770584122 C1.36253644,0.353594081 1.58976459,0.121126855 1.8223161,0.0731824424 C2.05486761,0.02523803 2.33569664,0.152960707 2.66480318,0.456350474 L1.93638767,1.44967856 L1.14063164,0.770584122 Z" id="Path-19" fill="#8B0F6D"></path>
                        <path d="M3.22483675,4.97734059 C4.01702916,4.97734059 4.44787235,3.40746389 4.23777335,2.58372293 C4.13693416,2.1883599 3.94398929,1.59311144 3.53907099,1.09453493 C3.09908489,0.552779391 2.73838306,0.187934414 2.45696551,1.42108547e-14 C1.70614644,0.961200448 1.33073691,1.87926835 1.33073691,2.75420371 C1.33073691,3.52799293 1.33073691,3.97508188 1.88789762,4.54163187 C2.29858258,4.9592377 2.74367507,4.97734059 3.22483675,4.97734059 Z" id="Oval" fill="#AC1488" transform="translate(2.810732, 2.488670) scale(-1, 1) translate(-2.810732, -2.488670) "></path>
                        <path d="M2.12311942,5.04064871 C2.91531183,5.04070901 3.28105212,3.72268916 3.07095313,2.8989482 C2.97011393,2.50358517 2.79455615,2.13266061 2.38963785,1.6340841 C1.94965175,1.09232856 1.30773523,0.632125095 0.463888285,0.253473697 C0.154629428,0.98040481 1.91846539e-13,1.78133805 1.91846539e-13,2.6562734 C1.91846539e-13,3.43006262 0.328968941,4.3173696 0.969202315,4.74806688 C1.41485151,5.04786365 1.64195774,5.04064871 2.12311942,5.04064871 Z" id="Oval" fill="#D818AA"></path>
                    </g>
                    <g id="Flower-pot" transform="translate(0.000000, 16.222317)">
                        <path d="M0.779919068,0.779919068 L10.1389479,0.779919068 L8.62155353,7.22884507 C8.59668517,7.33453557 8.50237432,7.40923114 8.39379754,7.40923114 L2.5250694,7.40923114 C2.41649262,7.40923114 2.32218177,7.33453557 2.29731342,7.22884507 L0.779919068,0.779919068 L0.779919068,0.779919068 Z" id="Rectangle" fill="#D9833D"></path>
                        <rect id="Rectangle" fill="#EE964E" x="0" y="0" width="10.9188669" height="1.55983814" rx="0.311967627"></rect>
                    </g>
                </g>
                <line x1="0" y1="53.3467565" x2="8.29358012" y2="53.3467565" id="Line-16" stroke="#FFFFFF" stroke-width="1.66729365" stroke-linecap="square"></line>
                <rect id="Rectangle" fill="#060235" x="0" y="92.5281573" width="9.17011508" height="8.33646826"></rect>
            </g>
        </g>
    </g>
</svg>