<?xml version="1.0" encoding="UTF-8"?>
<svg width="228px" height="170px" viewBox="0 0 228 170" version="1.1" xmlns="http://www.w3.org/2000/svg" xmlns:xlink="http://www.w3.org/1999/xlink">
    <!-- Generator: Sketch 59 (86127) - https://sketch.com -->
    <title>Group 5</title>
    <desc>Created with Sketch.</desc>
    <g id="Boplats-landing-page" stroke="none" stroke-width="1" fill="none" fill-rule="evenodd">
        <g id="Desktop-HD" transform="translate(0.000000, -853.000000)">
            <g id="Group-5" transform="translate(-0.000000, 853.000000)">
                <rect id="Rectangle" fill="#FFFFFF" x="121" y="64" width="80" height="80"></rect>
                <rect id="Rectangle" fill="#BBBAFF" x="0" y="24" width="223" height="146"></rect>
                <g id="Group" transform="translate(141.000000, 64.000000)">
                    <path d="M25,0 C38.8071187,0 50,11.1928813 50,25 L50,25 L50,82 L0,82 L0,25 L0.00334928573,24.5865793 C0.224119049,10.9701429 11.3309524,0 25,0 Z" id="Combined-Shape" fill="#E6E6FF"></path>
                    <rect id="Rectangle" fill="#060235" x="0" y="72" width="50" height="10"></rect>
                    <line x1="1" y1="24.5" x2="48.9485536" y2="24.5" id="Line-16" stroke="#FFFFFF" stroke-width="2" stroke-linecap="square"></line>
                    <line x1="25" y1="25" x2="25" y2="71" id="Line-16" stroke="#FFFFFF" stroke-width="2" stroke-linecap="square"></line>
                </g>
                <g id="Group" transform="translate(51.000000, 64.000000)">
                    <path d="M25,0 C38.8071187,0 50,11.1928813 50,25 L50,25 L50,82 L0,82 L0,25 L0.00334928573,24.5865793 C0.224119049,10.9701429 11.3309524,0 25,0 Z" id="Combined-Shape" fill="#E6E6FF"></path>
                    <rect id="Rectangle" fill="#060235" x="0" y="72" width="50" height="10"></rect>
                    <line x1="1" y1="24.5" x2="48.9485536" y2="24.5" id="Line-16" stroke="#FFFFFF" stroke-width="2" stroke-linecap="square"></line>
                    <line x1="25" y1="25" x2="25" y2="71" id="Line-16" stroke="#FFFFFF" stroke-width="2" stroke-linecap="square"></line>
                </g>
                <rect id="Rectangle" fill="#060235" x="0" y="24" width="228" height="10"></rect>
                <path d="M10.9966507,88.5865793 L11,89 L11,146 L0,145.999721 L8.33612024e-05,68.2847213 C6.53125448,72.707345 10.859662,80.1375161 10.9966507,88.5865793 Z" id="Combined-Shape" fill="#E6E6FF"></path>
                <rect id="Rectangle" fill="#390000" x="4" y="4" width="15" height="20"></rect>
                <rect id="Rectangle" fill="#390000" x="29" y="9" width="15" height="15"></rect>
                <rect id="Rectangle" fill="#290000" x="27" y="4" width="19" height="5"></rect>
                <rect id="Rectangle" fill="#290000" x="2" y="0" width="19" height="5"></rect>
                <g id="Tulips" transform="translate(81.000000, 108.000000)">
                    <path d="M3.66180548,15.1717533 C4.46267577,15.1717533 4.3109215,14.9608125 4.3109215,13.6174172 C4.3109215,12.9731927 3.64746677,11.9602784 1.85602013,11.3322415 C1.47537113,11.1987954 1.09888905,10.8685147 0.726573878,10.3413995 C0.513592868,11.1488751 0.552391321,11.995153 0.842969238,12.8802331 C1.27883611,14.2078531 2.86093518,15.1717533 3.66180548,15.1717533 Z" id="Oval" fill="#156C0A"></path>
                    <path d="M6.1867768,10.7799071 C6.78135771,10.9012451 6.61605092,11.0344181 6.61605092,9.69102275 C6.61605092,9.04679827 6.03156465,8.45644083 5.0678927,8.29394794 C4.67359629,8.22746228 4.25434897,8.01998553 3.81015074,7.67151767 C3.84079281,8.2997771 3.94161544,8.8639274 4.11261861,9.36396858 C4.36912338,10.1140304 5.59219589,10.6585692 6.1867768,10.7799071 Z" id="Oval" fill="#1DA10C" transform="translate(5.223655, 9.261845) scale(-1, 1) translate(-5.223655, -9.261845) "></path>
                    <path d="M10.7030294,18.2643146 C10.7791921,18.2643146 11.1323035,18.5188256 11.1323035,17.1754302 C11.1323035,16.5312058 10.5478172,15.9408483 9.58414529,15.7783554 C9.18984888,15.7118698 8.77060156,15.504393 8.32640333,15.1559252 C8.3570454,15.7841846 8.45786802,16.3483349 8.6288712,16.8483761 C8.88537596,17.5984378 10.6268667,18.2643146 10.7030294,18.2643146 Z" id="Oval" fill="#126707" transform="translate(9.729353, 16.719729) scale(-1, 1) rotate(-24.000000) translate(-9.729353, -16.719729) "></path>
                    <line x1="3.55509356" y1="7.39085239" x2="5.61330561" y2="27.037422" id="Line-23" stroke="#1D8B0F" stroke-width="0.576923077" stroke-linecap="square"></line>
                    <line x1="9.12162162" y1="13.7058212" x2="5.37941788" y2="26.6164241" id="Line-23" stroke="#1D8B0F" stroke-width="0.576923077" stroke-linecap="square"></line>
                    <path d="M1.68399168,1.13766549 C2.01160476,0.522034874 2.34707706,0.178827774 2.69040859,0.108044193 C3.03374013,0.0372606119 3.44834703,0.225826245 3.9342293,0.673741091 L2.85882018,2.14025858 L1.68399168,1.13766549 Z" id="Path-19" fill="#8B0F6D"></path>
                    <path d="M4.76104475,7.34838478 C5.93061202,7.34838478 6.56669498,5.03066956 6.25651161,3.81452503 C6.10763589,3.23082383 5.82277833,2.35201824 5.22497003,1.615936 C4.57538877,0.816105627 4.04286025,0.277460295 3.62738447,1.42108547e-14 C2.51889947,1.41908528 1.96465696,2.77449106 1.96465696,4.06621734 C1.96465696,5.20861474 1.96465696,5.86868241 2.78723104,6.70511852 C3.39355304,7.32165826 4.0506732,7.34838478 4.76104475,7.34838478 Z" id="Oval" fill="#AC1488" transform="translate(4.149674, 3.674192) scale(-1, 1) translate(-4.149674, -3.674192) "></path>
                    <path d="M3.1345049,7.44185084 C4.30407216,7.44193987 4.84403932,5.49605796 4.53385595,4.27991343 C4.38498022,3.69621223 4.12579239,3.1485912 3.52798409,2.41250896 C2.87840283,1.61267859 1.93069802,0.933249061 0.684869672,0.374220374 C0.228289891,1.44743798 1.91846539e-13,2.62990992 1.91846539e-13,3.92163621 C1.91846539e-13,5.0640336 0.485679112,6.37402494 1.43089897,7.00989249 C2.08884104,7.45250275 2.42413334,7.44185084 3.1345049,7.44185084 Z" id="Oval" fill="#D818AA"></path>
                    <g id="Group" transform="translate(10.244489, 11.385354) rotate(26.000000) translate(-10.244489, -11.385354) translate(7.244489, 7.885354)">
                        <path d="M1.36824324,0.924353213 C1.63442887,0.424153335 1.90700011,0.145297566 2.18595698,0.0877859066 C2.46491385,0.0302742472 2.80178196,0.183483824 3.1965613,0.547414636 L2.32279139,1.7389601 L1.36824324,0.924353213 Z" id="Path-19" fill="#8B0F6D"></path>
                        <path d="M3.86834886,5.97056263 C4.81862227,5.97056263 5.33543967,4.08741902 5.08341569,3.09930159 C4.96245416,2.62504437 4.73100739,1.91101482 4.24528815,1.312948 C3.71750337,0.663085822 3.28482395,0.22543649 2.94724988,1.42108547e-14 C2.04660582,1.15300679 1.59628378,2.25427398 1.59628378,3.30380159 C1.59628378,4.23199947 1.59628378,4.76830446 2.26462522,5.44790879 C2.75726184,5.94884734 3.29117198,5.97056263 3.86834886,5.97056263 Z" id="Oval" fill="#AC1488" transform="translate(3.371611, 2.985281) scale(-1, 1) translate(-3.371611, -2.985281) "></path>
                        <path d="M2.54678523,6.04650381 C3.49705863,6.04657615 3.93578194,4.46554709 3.68375796,3.47742966 C3.56279643,3.00317244 3.35220632,2.55823035 2.86648707,1.96016353 C2.3387023,1.31030135 1.56869214,0.758264862 0.556456608,0.304054054 C0.185485536,1.17604336 1.91846539e-13,2.13680181 1.91846539e-13,3.18632942 C1.91846539e-13,4.1145273 0.394614279,5.17889526 1.16260542,5.69553765 C1.69718335,6.05515849 1.96960834,6.04650381 2.54678523,6.04650381 Z" id="Oval" fill="#D818AA"></path>
                    </g>
                    <g id="Flower-pot" transform="translate(0.000000, 19.459459)">
                        <path d="M0.935550936,0.935550936 L12.1621622,0.935550936 L10.3419737,8.671352 C10.3121429,8.7981329 10.1990124,8.88773389 10.0687693,8.88773389 L3.02894382,8.88773389 C2.89870068,8.88773389 2.78557022,8.7981329 2.75573942,8.671352 L0.935550936,0.935550936 L0.935550936,0.935550936 Z" id="Rectangle" fill="#D9833D"></path>
                        <rect id="Rectangle" fill="#EE964E" x="0" y="0" width="13.0977131" height="1.87110187" rx="0.374220374"></rect>
                    </g>
                </g>
                <line x1="0" y1="89" x2="9.94855359" y2="89" id="Line-16" stroke="#FFFFFF" stroke-width="2" stroke-linecap="square"></line>
                <rect id="Rectangle" fill="#060235" x="0" y="136" width="11" height="10"></rect>
            </g>
        </g>
    </g>
</svg>