<?xml version="1.0" encoding="UTF-8"?>
<svg width="1340px" height="256px" viewBox="0 0 1340 256" version="1.1" xmlns="http://www.w3.org/2000/svg" xmlns:xlink="http://www.w3.org/1999/xlink">
    <!-- Generator: Sketch 59 (86127) - https://sketch.com -->
    <title>Cloud</title>
    <desc>Created with Sketch.</desc>
    <g id="Boplats-landing-page" stroke="none" stroke-width="1" fill="none" fill-rule="evenodd">
        <g id="Desktop-HD" transform="translate(-56.000000, -130.000000)" fill="#FFFFFF" stroke="#AC1488" stroke-width="3">
            <g id="Cloud" transform="translate(56.000000, 130.000000)">
                <path d="M720.006757,1.5 C718.365316,1.5 716.830762,2.1298322 715.689441,3.2329378 L714.956631,3.94121021 L714.028234,3.52080742 C713.329799,3.20453762 712.566954,3.03846154 711.777027,3.03846154 C708.811598,3.03846154 706.418919,5.38671448 706.418919,8.26923077 C706.418919,8.39738717 706.423611,8.52248669 706.432913,8.64309837 L706.522886,9.80965995 L705.413326,10.180926 C703.687469,10.7584093 702.5,12.380915 702.5,14.2307692 C702.5,16.5886003 704.4114,18.5 706.769231,18.5 L724.230769,18.5 C726.5886,18.5 728.5,16.5886003 728.5,14.2307692 C728.5,12.7757152 727.768109,11.4478171 726.574515,10.6628324 L725.669922,10.0679139 L725.949677,9.02199165 C726.081298,8.52989661 726.148649,8.0199758 726.148649,7.5 C726.148649,4.19264929 723.405057,1.5 720.006757,1.5 Z" id="Combined-Shape" stroke-opacity="0.5" transform="translate(715.500000, 10.000000) scale(-1, 1) translate(-715.500000, -10.000000) "></path>
                <path d="M879.5,108.5 C871.311158,108.5 863.977222,113.228917 860.5239,120.495227 L859.879506,121.851129 L858.524136,121.205617 C854.801089,119.43247 850.718253,118.5 846.5,118.5 C831.036027,118.5 818.5,131.036027 818.5,146.5 C818.5,146.860193 818.506793,147.21563 818.520461,147.566087 L818.567681,148.776899 L817.393856,149.077615 C809.278503,151.156646 803.5,158.502227 803.5,167 C803.5,177.217268 811.782732,185.5 822,185.5 L922,185.5 C932.217268,185.5 940.5,177.217268 940.5,167 C940.5,159.539515 936.043515,152.898569 929.308235,149.999541 L928.306196,149.56824 L928.407788,148.482062 C928.469126,147.826264 928.5,147.165125 928.5,146.5 C928.5,134.90202 919.09798,125.5 907.5,125.5 C905.588759,125.5 903.7136,125.75495 901.908742,126.252867 L900.37314,126.676502 L900.042498,125.118228 C898.000598,115.494992 889.464751,108.5 879.5,108.5 Z" id="Combined-Shape" stroke-opacity="0.5"></path>
                <path d="M1211.71429,163.5 C1206.782,163.5 1202.36647,166.330946 1200.28822,170.67897 L1199.64367,172.02745 L1198.29288,171.387773 C1196.02638,170.31446 1193.54076,169.75 1190.97143,169.75 C1181.55701,169.75 1173.92857,177.335096 1173.92857,186.6875 C1173.92857,186.898974 1173.93246,187.110542 1173.94021,187.322045 L1173.98466,188.535469 L1172.8071,188.831648 C1167.95969,190.050865 1164.5,194.429826 1164.5,199.5 C1164.5,205.575132 1169.42487,210.5 1175.5,210.5 L1238.5,210.5 C1244.57513,210.5 1249.5,205.575132 1249.5,199.5 C1249.5,195.049599 1246.83303,191.090529 1242.80866,189.375308 L1241.80214,188.946322 L1241.90319,187.856874 C1241.93908,187.469991 1241.95714,187.079948 1241.95714,186.6875 C1241.95714,179.751342 1236.29865,174.125 1229.31429,174.125 C1228.16224,174.125 1227.03242,174.277736 1225.94584,174.575803 L1224.41364,174.996112 L1224.08206,173.442296 C1222.85385,167.686919 1217.71542,163.5 1211.71429,163.5 Z" id="Combined-Shape" stroke-opacity="0.5" transform="translate(1207.000000, 187.000000) scale(-1, 1) translate(-1207.000000, -187.000000) "></path>
                <path d="M565.714286,84.5 C560.782001,84.5 556.366471,87.3309456 554.288216,91.6789696 L553.643673,93.0274501 L552.292878,92.387773 C550.026381,91.3144603 547.540756,90.75 544.971429,90.75 C535.557011,90.75 527.928571,98.3350964 527.928571,107.6875 C527.928571,107.898974 527.932464,108.110542 527.940211,108.322045 L527.984662,109.535469 L526.8071,109.831648 C521.959694,111.050865 518.5,115.429826 518.5,120.5 C518.5,126.575132 523.424868,131.5 529.5,131.5 L592.5,131.5 C598.575132,131.5 603.5,126.575132 603.5,120.5 C603.5,116.049599 600.833033,112.090529 596.80866,110.375308 L595.802142,109.946322 L595.903194,108.856874 C595.939079,108.469991 595.957143,108.079948 595.957143,107.6875 C595.957143,100.751342 590.29865,95.125 583.314286,95.125 C582.162243,95.125 581.032421,95.2777355 579.94584,95.5758033 L578.413641,95.9961119 L578.082055,94.4422961 C576.85385,88.686919 571.71542,84.5 565.714286,84.5 Z" id="Combined-Shape" stroke-opacity="0.75" transform="translate(561.000000, 108.000000) scale(-1, 1) translate(-561.000000, -108.000000) "></path>
                <path d="M1071.32143,21.5 C1068.01606,21.5 1065.05983,23.383296 1063.6704,26.2728746 L1063.0258,27.6134558 L1061.67987,26.9800835 C1060.14098,26.2559063 1058.45303,25.875 1056.70714,25.875 C1050.31631,25.875 1045.14286,30.9858661 1045.14286,37.28125 C1045.14286,37.424419 1045.14552,37.5606851 1045.15096,37.6900626 L1045.20251,38.9163701 L1044.01067,39.2096214 C1040.7988,39.9998971 1038.5,42.8947829 1038.5,46.25 C1038.5,50.2540644 1041.74594,53.5 1045.75,53.5 L1090.25,53.5 C1094.25406,53.5 1097.5,50.2540644 1097.5,46.25 C1097.5,43.3058042 1095.72911,40.6884637 1093.06213,39.5648607 L1092.05035,39.1385946 L1092.1508,38.0452881 C1092.17402,37.7925317 1092.18571,37.5376995 1092.18571,37.28125 C1092.18571,32.6772381 1088.40018,28.9375 1083.72143,28.9375 C1082.94874,28.9375 1082.19132,29.0391919 1081.46271,29.2376013 L1079.93465,29.6537086 L1079.60205,28.1053252 C1078.78126,24.2842578 1075.34201,21.5 1071.32143,21.5 Z" id="Combined-Shape" stroke-opacity="0.75"></path>
                <path d="M136.425532,192.5 C126.116026,192.5 117.490462,200.248669 116.350227,210.390607 L116.113465,212.496509 L114.206038,211.573144 C111.851682,210.433427 109.262717,209.833333 106.585106,209.833333 C96.92545,209.833333 89.0957447,217.650245 89.0957447,227.291667 C89.0957447,227.931903 89.1302052,228.566605 89.1986033,229.193073 L89.3110662,230.223134 L88.387479,230.69288 C84.1958149,232.824805 81.5,237.129784 81.5,241.916667 C81.5,248.86625 87.1337502,254.5 94.0833333,254.5 L167.916667,254.5 C174.86625,254.5 180.5,248.86625 180.5,241.916667 C180.5,236.9426 177.588114,232.498671 173.142949,230.466628 L171.96594,229.928575 L172.325705,228.685426 C172.708064,227.364206 172.904255,225.987627 172.904255,224.583333 C172.904255,216.437683 166.289097,209.833333 158.141931,209.833265 L157.84723,209.83591 L156.474722,209.868974 L156.224713,208.637611 C154.331111,199.311099 146.079297,192.5 136.425532,192.5 Z" id="Combined-Shape" stroke-opacity="0.25"></path>
                <path d="M310.425532,13.5 C300.116026,13.5 291.490462,21.2486689 290.350227,31.3906067 L290.113465,33.4965087 L288.206038,32.5731444 C285.851682,31.4334265 283.262717,30.8333333 280.585106,30.8333333 C270.92545,30.8333333 263.095745,38.650245 263.095745,48.2916667 C263.095745,48.9319035 263.130205,49.5666054 263.198603,50.1930726 L263.311066,51.2231342 L262.387479,51.6928804 C258.195815,53.8248053 255.5,58.129784 255.5,62.9166667 C255.5,69.8662498 261.13375,75.5 268.083333,75.5 L341.916667,75.5 C348.86625,75.5 354.5,69.8662498 354.5,62.9166667 C354.5,57.9425997 351.588114,53.4986715 347.142949,51.4666278 L345.96594,50.9285749 L346.325705,49.6854255 C346.708064,48.3642057 346.904255,46.9876265 346.904255,45.5833333 C346.904255,37.4376829 340.289097,30.8333333 332.141931,30.8332654 L331.84723,30.8359101 L330.474722,30.8689741 L330.224713,29.6376109 C328.331111,20.3110991 320.079297,13.5 310.425532,13.5 Z" id="Combined-Shape" stroke-opacity="0.5" transform="translate(305.000000, 44.500000) scale(-1, 1) translate(-305.000000, -44.500000) "></path>
                <path d="M26,84.5 C21.6628259,84.5 18.0331517,87.765841 17.5529726,92.0394482 L17.3161885,94.1468332 L15.4079774,93.2217016 C14.4327204,92.7488812 13.3606022,92.5 12.25,92.5 C8.24593556,92.5 5,95.7459356 5,99.75 C5,100.017302 5.01440184,100.281939 5.04291105,100.54208 L5.15572717,101.571502 L4.23311568,102.04185 C2.56913683,102.890147 1.5,104.599242 1.5,106.5 C1.5,109.261424 3.73857625,111.5 6.5,111.5 L40.5,111.5 C43.2614237,111.5 45.5,109.261424 45.5,106.5 C45.5,104.524974 44.3450421,102.760665 42.5805674,101.952265 L41.4050574,101.413701 L41.7644553,100.171643 C41.9200959,99.6337577 42,99.0730038 42,98.5 C42,95.1862915 39.3137085,92.5 36.0151685,92.4999233 L34.5765318,92.514472 L34.3302917,91.3001126 C33.533477,87.3705357 30.0612053,84.5 26,84.5 Z" id="Combined-Shape" stroke-opacity="0.75" transform="translate(23.500000, 98.000000) scale(-1, 1) translate(-23.500000, -98.000000) "></path>
                <path d="M1319,78.5 C1314.66283,78.5 1311.03315,81.765841 1310.55297,86.0394482 L1310.31619,88.1468332 L1308.40798,87.2217016 C1307.43272,86.7488812 1306.3606,86.5 1305.25,86.5 C1301.24594,86.5 1298,89.7459356 1298,93.75 C1298,94.0173023 1298.0144,94.2819393 1298.04291,94.5420797 L1298.15573,95.5715024 L1297.23312,96.04185 C1295.56914,96.8901467 1294.5,98.5992423 1294.5,100.5 C1294.5,103.261424 1296.73858,105.5 1299.5,105.5 L1333.5,105.5 C1336.26142,105.5 1338.5,103.261424 1338.5,100.5 C1338.5,98.5249742 1337.34504,96.7606646 1335.58057,95.9522646 L1334.40506,95.4137008 L1334.76446,94.1716428 C1334.9201,93.6337577 1335,93.0730038 1335,92.5 C1335,89.1862915 1332.31371,86.5 1329.01517,86.4999233 L1327.57653,86.514472 L1327.33029,85.3001126 C1326.53348,81.3705357 1323.06121,78.5 1319,78.5 Z" id="Combined-Shape" stroke-opacity="0.25" transform="translate(1316.500000, 92.000000) scale(-1, 1) translate(-1316.500000, -92.000000) "></path>
            </g>
        </g>
    </g>
</svg>