<?xml version="1.0" encoding="UTF-8"?>
<svg width="25px" height="26px" viewBox="0 0 25 26" version="1.1" xmlns="http://www.w3.org/2000/svg" xmlns:xlink="http://www.w3.org/1999/xlink">
    <!-- Generator: Sketch 60.1 (88133) - https://sketch.com -->
    <title>Group</title>
    <desc>Created with Sketch.</desc>
    <g id="Boplats-landing-page" stroke="none" stroke-width="1" fill="none" fill-rule="evenodd">
        <g id="Artboard" transform="translate(-561.000000, -843.000000)">
            <g id="Group" transform="translate(561.000000, 843.000000)">
                <circle id="Oval" fill="#59097B" cx="10.8241206" cy="8.68844221" r="8.68844221"></circle>
                <path d="M10.8894472,11.3668342 C13.5896147,11.3668342 15.5058626,12.5862647 16.638191,15.0251256 L5.14070352,15.0251256 C6.27303183,12.5862647 8.18927973,11.3668342 10.8894472,11.3668342 Z" id="Triangle" fill="#FFFFFF" transform="translate(10.889447, 13.195980) scale(1, -1) translate(-10.889447, -13.195980) "></path>
                <path d="M10.758794,18.160804 C18.0753769,18.160804 21.3718593,20.7738693 20.6482412,26 L1,26 C0.189279732,20.7738693 3.44221106,18.160804 10.758794,18.160804 Z" id="Triangle" fill="#59097B"></path>
                <g id="Group-3" transform="translate(13.857143, 0.000000)">
                    <circle id="Oval" stroke="#FFFFFF" stroke-width="0.627135678" fill="#59097B" cx="5.25226131" cy="5.25226131" r="4.93869347"></circle>
                    <rect id="Rectangle" fill="#FFFFFF" x="4.54673367" y="2.03819095" width="1.5678392" height="6.27135678" rx="0.783919598"></rect>
                    <rect id="Rectangle" fill="#FFFFFF" transform="translate(5.173869, 5.173869) rotate(90.000000) translate(-5.173869, -5.173869) " x="4.38994975" y="2.03819095" width="1.5678392" height="6.27135678" rx="0.783919598"></rect>
                </g>
            </g>
        </g>
    </g>
</svg>