<?xml version="1.0" encoding="UTF-8"?>
<svg width="26px" height="28px" viewBox="0 0 26 28" version="1.1" xmlns="http://www.w3.org/2000/svg" xmlns:xlink="http://www.w3.org/1999/xlink">
    <!-- Generator: Sketch 60.1 (88133) - https://sketch.com -->
    <title>create-account-icon</title>
    <desc>Created with Sketch.</desc>
    <g id="Boplats-landing-page" stroke="none" stroke-width="1" fill="none" fill-rule="evenodd">
        <g id="Artboard" transform="translate(-484.000000, -137.000000)">
            <g id="create-account-icon" transform="translate(484.000000, 137.000000)">
                <path d="M10.3684211,13.6888889 C16.5906433,13.6888889 19.8721248,18.4592593 20.2128655,28 L0.523976608,28 C0.864717349,18.4592593 4.14619883,13.6888889 10.3684211,13.6888889 Z M10.4666667,0 C13.9031051,0 16.6888889,2.78578378 16.6888889,6.22222222 C16.6888889,9.65866067 13.9031051,12.4444444 10.4666667,12.4444444 C7.03022822,12.4444444 4.24444444,9.65866067 4.24444444,6.22222222 C4.24444444,2.78578378 7.03022822,0 10.4666667,0 Z" id="Oval-2" fill="#59097B"></path>
                <ellipse id="Oval" fill="#EBBDFF" cx="18.8666667" cy="21.7777778" rx="6.53333333" ry="6.22222222"></ellipse>
                <path d="M18.8666667,18.0444444 C19.3821324,18.0444444 19.8,18.462312 19.8,18.9777778 L19.8,24.5777778 C19.8,25.0932435 19.3821324,25.5111111 18.8666667,25.5111111 C18.3512009,25.5111111 17.9333333,25.0932435 17.9333333,24.5777778 L17.9333333,18.9777778 C17.9333333,18.462312 18.3512009,18.0444444 18.8666667,18.0444444 Z" id="Rectangle" fill="#59097B" transform="translate(18.866667, 21.777778) rotate(90.000000) translate(-18.866667, -21.777778) "></path>
                <rect id="Rectangle" fill="#59097B" x="17.9333333" y="18.0444444" width="1.86666667" height="7.46666667" rx="0.933333333"></rect>
            </g>
        </g>
    </g>
</svg>