<?xml version="1.0" encoding="UTF-8"?>
<svg width="26px" height="27px" viewBox="0 0 26 27" version="1.1" xmlns="http://www.w3.org/2000/svg" xmlns:xlink="http://www.w3.org/1999/xlink">
    <!-- Generator: Sketch 60.1 (88133) - https://sketch.com -->
    <title>english-icon</title>
    <desc>Created with Sketch.</desc>
    <g id="Boplats-landing-page" stroke="none" stroke-width="1" fill="none" fill-rule="evenodd">
        <g id="Artboard" transform="translate(-290.000000, -33.000000)">
            <g id="english-icon" transform="translate(290.000000, 33.000000)">
                <rect id="Rectangle" fill="#19107B" x="0.0429034502" y="2.18382353" width="25.6951283" height="22.7390516" rx="2.37496761"></rect>
                <polygon id="cross-left-to-right" fill="#FFFFFF" transform="translate(13.231553, 13.496502) rotate(49.000000) translate(-13.231553, -13.496502) " points="-3.14056377 11.8479204 29.6036705 11.8479204 29.6036705 15.1450829 -3.14056377 15.1450829"></polygon>
                <polygon id="cross-right-to-left" fill="#FFFFFF" transform="translate(13.231553, 13.496502) scale(-1, 1) rotate(49.000000) translate(-13.231553, -13.496502) " points="-3.14056377 11.8479204 29.6036705 11.8479204 29.6036705 15.1450829 -3.14056377 15.1450829"></polygon>
                <polygon id="white-right-to-left" fill="#E01171" transform="translate(13.069091, 13.452575) scale(-1, 1) rotate(49.000000) translate(-13.069091, -13.452575) " points="-1.09154195 12.4525749 28.8186424 12.5263115 27.0049768 14.3657148 -2.68045954 14.4525749"></polygon>
                <polygon id="white-left-to-right" fill="#E01171" transform="translate(13.152574, 13.208670) rotate(49.000000) translate(-13.152574, -13.208670) " points="-0.788208049 12.2937693 28.8972283 12.2086698 27.2985181 14.0553504 -2.5920812 14.2086698"></polygon>
                <rect id="pink-middle" fill="#FFFFFF" x="10.0480861" y="2.18382353" width="5.68476289" height="22.7390516"></rect>
                <polygon id="whit-horizontal" fill="#FFFFFF" transform="translate(12.890468, 13.553349) rotate(90.000000) translate(-12.890468, -13.553349) " points="10.0480861 0.705785178 15.732849 0.705785178 15.732849 26.4009134 10.0480861 26.4009134"></polygon>
                <rect id="white-middle" fill="#E01171" x="11" y="2.2" width="3.8" height="22.7390516"></rect>
                <polygon id="pink-hori" fill="#E01171" transform="translate(12.900000, 13.654779) rotate(90.000000) translate(-12.900000, -13.654779) " points="11 0.8 14.8 0.8 14.8 26.5095588 11 26.5095588"></polygon>
            </g>
        </g>
    </g>
</svg>