<?xml version="1.0" encoding="UTF-8"?>
<svg width="36px" height="27px" viewBox="0 0 36 27" version="1.1" xmlns="http://www.w3.org/2000/svg" xmlns:xlink="http://www.w3.org/1999/xlink">
    <!-- Generator: Sketch 60.1 (88133) - https://sketch.com -->
    <title>english-icon</title>
    <desc>Created with Sketch.</desc>
    <defs>
        <rect id="path-1" x="2.23820962e-13" y="0.359477124" width="34.8366013" height="25.8300654" rx="6.45751634"></rect>
    </defs>
    <g id="Boplats-landing-page" stroke="none" stroke-width="1" fill="none" fill-rule="evenodd">
        <g id="Artboard" transform="translate(-146.000000, -216.000000)">
            <g id="english-icon" transform="translate(146.000000, 215.500000)">
                <g id="Path-12-+-Path-12-+-Path-22-+-Path-22-Mask" transform="translate(1.000000, 0.225490)">
                    <mask id="mask-2" fill="white">
                        <use xlink:href="#path-1"></use>
                    </mask>
                    <use id="Mask" fill="#6787F5" xlink:href="#path-1"></use>
                    <path d="M1.35947712,1.20915033 L28.5490196,28.3986928 C30.8148148,28.0588235 32.1742919,27.7189542 32.627451,27.379085 C33.08061,27.0392157 33.4204793,26.1895425 33.6470588,24.8300654 L7.81699346,-1 L1.35947712,1.20915033 Z" id="Path-12" fill="#FFFFFF" mask="url(#mask-2)"></path>
                    <path d="M1.35947712,1.20915033 L28.5490196,28.3986928 C30.8148148,28.0588235 32.1742919,27.7189542 32.627451,27.379085 C33.08061,27.0392157 33.4204793,26.1895425 33.6470588,24.8300654 L7.81699346,-1 L1.35947712,1.20915033 Z" id="Path-12" fill="#FFFFFF" mask="url(#mask-2)" transform="translate(17.503268, 13.699346) scale(-1, 1) translate(-17.503268, -13.699346) "></path>
                    <polygon id="Path-22" fill="#FF337A" mask="url(#mask-2)" points="3.56862745 25.8496732 29.7385621 -0.320261438 31.4379085 1.03921569 5.60784314 26.6993464"></polygon>
                    <polygon id="Path-22" fill="#FF337A" mask="url(#mask-2)" transform="translate(17.503268, 13.189542) scale(-1, 1) translate(-17.503268, -13.189542) " points="3.56862745 25.8496732 29.7385621 -0.320261438 31.4379085 1.03921569 5.60784314 26.6993464"></polygon>
                </g>
                <polygon id="Path-21" fill="#FFFFFF" points="13.9150327 26.5849673 23.0915033 26.5849673 23.0915033 0.58496732 13.9150327 0.58496732"></polygon>
                <polygon id="Path-21" fill="#FFFFFF" transform="translate(18.418301, 13.584967) rotate(-90.000000) translate(-18.418301, -13.584967) " points="13.8300654 31.0882353 23.0065359 31.0882353 23.0065359 -3.91830065 13.8300654 -3.91830065"></polygon>
                <polygon id="Path-10" fill="#FF337A" points="15.9542484 0.58496732 15.9542484 26.5849673 20.8823529 26.5849673 20.8823529 0.58496732"></polygon>
                <polygon id="Path-10" fill="#FF337A" transform="translate(18.421569, 13.500000) rotate(90.000000) translate(-18.421569, -13.500000) " points="15.9575163 -4 15.9575163 31 20.8856209 31 20.8856209 -4"></polygon>
            </g>
        </g>
    </g>
</svg>