<?xml version="1.0" encoding="UTF-8"?>
<svg width="22px" height="30px" viewBox="0 0 22 30" version="1.1" xmlns="http://www.w3.org/2000/svg" xmlns:xlink="http://www.w3.org/1999/xlink">
    <!-- Generator: Sketch 60.1 (88133) - https://sketch.com -->
    <title>Combined Shape</title>
    <desc>Created with Sketch.</desc>
    <g id="Boplats-landing-page" stroke="none" stroke-width="1" fill="none" fill-rule="evenodd">
        <g id="Desktop-HD" transform="translate(-263.000000, -20.000000)" fill="#E01171">
            <g id="Navigation-Bar" transform="translate(0.000000, -9.000000)">
                <g id="Logo-/-Coral" transform="translate(121.961778, 26.991719)">
                    <g id="Logo-/-Logo" transform="translate(0.780013, 0.856551)">
                        <g id="Logo">
                            <path d="M151.510715,1.85655133 C157.396257,1.85655133 162.167432,7.37813632 162.167432,14.1893566 C162.167432,18.7301701 158.615193,24.2114169 151.510715,30.6330969 C144.406237,24.2114169 140.853998,18.7301701 140.853998,14.1893566 C140.853998,7.37813632 145.625173,1.85655133 151.510715,1.85655133 Z M151.510715,9.53029682 C148.835468,9.53029682 146.666753,11.6775799 146.666753,14.3263878 C146.666753,16.9751956 148.835468,19.1224787 151.510715,19.1224787 C154.185961,19.1224787 156.354677,16.9751956 156.354677,14.3263878 C156.354677,11.6775799 154.185961,9.53029682 151.510715,9.53029682 Z" id="Combined-Shape"></path>
                        </g>
                    </g>
                </g>
            </g>
        </g>
    </g>
</svg>