<?xml version="1.0" encoding="UTF-8"?>
<svg width="358px" height="110px" viewBox="0 0 358 110" version="1.1" xmlns="http://www.w3.org/2000/svg" xmlns:xlink="http://www.w3.org/1999/xlink">
    <!-- Generator: Sketch 60.1 (88133) - https://sketch.com -->
    <title>Footer Illustration</title>
    <desc>Created with Sketch.</desc>
    <defs>
        <rect id="path-1" x="0" y="0" width="103" height="80"></rect>
        <rect id="path-3" x="0" y="0" width="106" height="60"></rect>
    </defs>
    <g id="Boplats-landing-page" stroke="none" stroke-width="1" fill="none" fill-rule="evenodd">
        <g id="Artboard" transform="translate(-23.000000, -851.000000)">
            <g id="Footer-Illustration" transform="translate(23.000000, 851.000000)">
                <g id="Blue-window-+-Blue-window-+-Blue-window-+-Blue-window-Mask" transform="translate(4.000000, 30.000000)">
                    <mask id="mask-2" fill="white">
                        <use xlink:href="#path-1"></use>
                    </mask>
                    <use id="Mask" fill="#BBBAFF" xlink:href="#path-1"></use>
                    <g id="Blue-window" mask="url(#mask-2)">
                        <g transform="translate(7.000000, 64.000000)">
                            <path d="M7.5,0 C11.6421356,0 15,3.35786438 15,7.5 L15,7.5 L15,24.6 L0,24.6 L0,7.5 L0.00385356806,7.25726895 C0.131982483,3.22747441 3.43908272,0 7.5,0 Z" id="Combined-Shape" stroke="none" fill="#E6E6FF" fill-rule="evenodd"></path>
                            <line x1="0.3" y1="7.35" x2="14.6845661" y2="7.35" id="Line-16" stroke="#FFFFFF" stroke-width="0.6" fill="none" stroke-linecap="square"></line>
                            <line x1="7.5" y1="7.5" x2="7.5" y2="21.3" id="Line-16" stroke="#FFFFFF" stroke-width="0.6" fill="none" stroke-linecap="square"></line>
                        </g>
                    </g>
                    <g id="Blue-window" mask="url(#mask-2)">
                        <g transform="translate(80.000000, 64.000000)">
                            <path d="M7.5,0 C11.6421356,0 15,3.35786438 15,7.5 L15,7.5 L15,24.6 L0,24.6 L0,7.5 L0.00385356806,7.25726895 C0.131982483,3.22747441 3.43908272,0 7.5,0 Z" id="Combined-Shape" stroke="none" fill="#E6E6FF" fill-rule="evenodd"></path>
                            <line x1="0.3" y1="7.35" x2="14.6845661" y2="7.35" id="Line-16" stroke="#FFFFFF" stroke-width="0.6" fill="none" stroke-linecap="square"></line>
                            <line x1="7.5" y1="7.5" x2="7.5" y2="21.3" id="Line-16" stroke="#FFFFFF" stroke-width="0.6" fill="none" stroke-linecap="square"></line>
                        </g>
                    </g>
                    <g id="Blue-window" mask="url(#mask-2)">
                        <g transform="translate(32.000000, 64.000000)">
                            <path d="M7.5,0 C11.6421356,0 15,3.35786438 15,7.5 L15,7.5 L15,24.6 L0,24.6 L0,7.5 L0.00385356806,7.25726895 C0.131982483,3.22747441 3.43908272,0 7.5,0 Z" id="Combined-Shape" stroke="none" fill="#E6E6FF" fill-rule="evenodd"></path>
                            <line x1="0.3" y1="7.35" x2="14.6845661" y2="7.35" id="Line-16" stroke="#FFFFFF" stroke-width="0.6" fill="none" stroke-linecap="square"></line>
                            <line x1="7.5" y1="7.5" x2="7.5" y2="21.3" id="Line-16" stroke="#FFFFFF" stroke-width="0.6" fill="none" stroke-linecap="square"></line>
                        </g>
                    </g>
                    <g id="Blue-window" mask="url(#mask-2)">
                        <g transform="translate(56.000000, 64.000000)">
                            <path d="M7.5,0 C11.6421356,0 15,3.35786438 15,7.5 L15,7.5 L15,24.6 L0,24.6 L0,7.5 L0.00385356806,7.25726895 C0.131982483,3.22747441 3.43908272,0 7.5,0 Z" id="Combined-Shape" stroke="none" fill="#E6E6FF" fill-rule="evenodd"></path>
                            <line x1="0.3" y1="7.35" x2="14.6845661" y2="7.35" id="Line-16" stroke="#FFFFFF" stroke-width="0.6" fill="none" stroke-linecap="square"></line>
                            <line x1="7.5" y1="7.5" x2="7.5" y2="21.3" id="Line-16" stroke="#FFFFFF" stroke-width="0.6" fill="none" stroke-linecap="square"></line>
                        </g>
                    </g>
                </g>
                <rect id="Rectangle" fill="#F7C3DB" x="123" y="10" width="110" height="100"></rect>
                <g id="Window-purple-+-Window-purple-+-Window-purple-Mask" transform="translate(249.000000, 50.000000)">
                    <mask id="mask-4" fill="white">
                        <use xlink:href="#path-3"></use>
                    </mask>
                    <use id="Mask" fill="#EBBDFF" xlink:href="#path-3"></use>
                    <g id="Window-purple" mask="url(#mask-4)">
                        <g transform="translate(43.000000, 43.000000)">
                            <rect id="Rectangle" stroke="none" fill="#F5DFFF" fill-rule="evenodd" x="2" y="0" width="16" height="24"></rect>
                            <rect id="Rectangle" stroke="none" fill="#2E0041" fill-rule="evenodd" x="0" y="0" width="20" height="4"></rect>
                            <line x1="10" y1="4.4" x2="10" y2="19.6" id="Line-17" stroke="#FFFFFF" stroke-width="0.8" fill="none" stroke-linecap="square"></line>
                            <line x1="10" y1="4.4" x2="10" y2="19.6" id="Line-17" stroke="#FFFFFF" stroke-width="0.8" fill="none" stroke-linecap="square" transform="translate(10.000000, 12.000000) rotate(-90.000000) translate(-10.000000, -12.000000) "></line>
                        </g>
                    </g>
                    <g id="Window-purple" mask="url(#mask-4)">
                        <g transform="translate(75.000000, 43.000000)">
                            <rect id="Rectangle" stroke="none" fill="#F5DFFF" fill-rule="evenodd" x="2" y="0" width="16" height="24"></rect>
                            <rect id="Rectangle" stroke="none" fill="#2E0041" fill-rule="evenodd" x="0" y="0" width="20" height="4"></rect>
                            <line x1="10" y1="4.4" x2="10" y2="19.6" id="Line-17" stroke="#FFFFFF" stroke-width="0.8" fill="none" stroke-linecap="square"></line>
                            <line x1="10" y1="4.4" x2="10" y2="19.6" id="Line-17" stroke="#FFFFFF" stroke-width="0.8" fill="none" stroke-linecap="square" transform="translate(10.000000, 12.000000) rotate(-90.000000) translate(-10.000000, -12.000000) "></line>
                        </g>
                    </g>
                    <g id="Window-purple" mask="url(#mask-4)">
                        <g transform="translate(11.000000, 43.000000)">
                            <rect id="Rectangle" stroke="none" fill="#F5DFFF" fill-rule="evenodd" x="2" y="0" width="16" height="24"></rect>
                            <rect id="Rectangle" stroke="none" fill="#2E0041" fill-rule="evenodd" x="0" y="0" width="20" height="4"></rect>
                            <line x1="10" y1="4.4" x2="10" y2="19.6" id="Line-17" stroke="#FFFFFF" stroke-width="0.8" fill="none" stroke-linecap="square"></line>
                            <line x1="10" y1="4.4" x2="10" y2="19.6" id="Line-17" stroke="#FFFFFF" stroke-width="0.8" fill="none" stroke-linecap="square" transform="translate(10.000000, 12.000000) rotate(-90.000000) translate(-10.000000, -12.000000) "></line>
                        </g>
                    </g>
                </g>
                <polygon id="Rectangle" fill="#0F0766" points="0 21 111 21 109 25 111 30 0 30 2 25"></polygon>
                <rect id="Rectangle" fill="#E01171" x="118" y="4" width="120" height="6"></rect>
                <rect id="Rectangle" fill="#E01171" x="128" y="0" width="100" height="4"></rect>
                <polygon id="Rectangle" fill="#59097B" points="249 43 355 43 358 50 246 50"></polygon>
                <g id="Window-purple" transform="translate(292.000000, 62.000000)">
                    <rect id="Rectangle" fill="#F5DFFF" x="2" y="0" width="16" height="24"></rect>
                    <rect id="Rectangle" fill="#2E0041" x="0" y="0" width="20" height="4"></rect>
                    <rect id="Rectangle" fill="#2E0041" x="0" y="20" width="20" height="4"></rect>
                    <line x1="10" y1="4.4" x2="10" y2="19.6" id="Line-17" stroke="#FFFFFF" stroke-width="0.8" stroke-linecap="square"></line>
                    <line x1="10" y1="4.4" x2="10" y2="19.6" id="Line-17" stroke="#FFFFFF" stroke-width="0.8" stroke-linecap="square" transform="translate(10.000000, 12.000000) rotate(-90.000000) translate(-10.000000, -12.000000) "></line>
                </g>
                <g id="Window-purple" transform="translate(324.000000, 62.000000)">
                    <rect id="Rectangle" fill="#F5DFFF" x="2" y="0" width="16" height="24"></rect>
                    <rect id="Rectangle" fill="#2E0041" x="0" y="0" width="20" height="4"></rect>
                    <rect id="Rectangle" fill="#2E0041" x="0" y="20" width="20" height="4"></rect>
                    <line x1="10" y1="4.4" x2="10" y2="19.6" id="Line-17" stroke="#FFFFFF" stroke-width="0.8" stroke-linecap="square"></line>
                    <line x1="10" y1="4.4" x2="10" y2="19.6" id="Line-17" stroke="#FFFFFF" stroke-width="0.8" stroke-linecap="square" transform="translate(10.000000, 12.000000) rotate(-90.000000) translate(-10.000000, -12.000000) "></line>
                </g>
                <g id="Window-purple" transform="translate(260.000000, 62.000000)">
                    <rect id="Rectangle" fill="#F5DFFF" x="2" y="0" width="16" height="24"></rect>
                    <rect id="Rectangle" fill="#2E0041" x="0" y="0" width="20" height="4"></rect>
                    <rect id="Rectangle" fill="#2E0041" x="0" y="20" width="20" height="4"></rect>
                    <line x1="10" y1="4.4" x2="10" y2="19.6" id="Line-17" stroke="#FFFFFF" stroke-width="0.8" stroke-linecap="square"></line>
                    <line x1="10" y1="4.4" x2="10" y2="19.6" id="Line-17" stroke="#FFFFFF" stroke-width="0.8" stroke-linecap="square" transform="translate(10.000000, 12.000000) rotate(-90.000000) translate(-10.000000, -12.000000) "></line>
                </g>
                <g id="Light-purple-window" transform="translate(132.000000, 22.000000)">
                    <rect id="Rectangle" stroke="#FFFFFF" stroke-width="0.8" fill="#FFEDF5" x="0.4" y="0.5" width="39.2" height="31.2"></rect>
                    <line x1="26.4" y1="1.3" x2="26.4" y2="31.3" id="Line-19" stroke="#FFFFFF" stroke-width="1.6" stroke-linecap="square"></line>
                    <line x1="20.1" y1="-12.4" x2="20.3" y2="24.6" id="Line-19" stroke="#FFFFFF" stroke-width="1.6" stroke-linecap="square" transform="translate(20.100000, 6.200000) rotate(-90.000000) translate(-20.100000, -6.200000) "></line>
                    <g id="Balcony" transform="translate(0.000000, 18.100000)">
                        <rect id="Rectangle" fill="#76085C" x="0" y="12" width="40" height="2"></rect>
                        <line x1="0.582803568" y1="0.2" x2="39.4499714" y2="0.2" id="Line-20" stroke="#76085C" stroke-width="1.2" stroke-linecap="square"></line>
                        <line x1="0.6" y1="0.2" x2="0.6" y2="12.2" id="Line-21" stroke="#76085C" stroke-width="1.2" stroke-linecap="square"></line>
                        <line x1="39.4" y1="0.2" x2="39.4" y2="12.2" id="Line-21" stroke="#76085C" stroke-width="1.2" stroke-linecap="square"></line>
                        <line x1="20.2" y1="1" x2="20.2" y2="12.2" id="Line-22" stroke="#76085C" stroke-width="0.8" stroke-linecap="square"></line>
                        <line x1="10.4" y1="0.8" x2="10.4" y2="12" id="Line-22" stroke="#76085C" stroke-width="0.8" stroke-linecap="square"></line>
                        <line x1="5.6" y1="0.8" x2="5.6" y2="12" id="Line-22" stroke="#76085C" stroke-width="0.5" stroke-linecap="square"></line>
                        <line x1="3.2" y1="0.8" x2="3.2" y2="12" id="Line-22" stroke="#76085C" stroke-width="0.5" stroke-linecap="square"></line>
                        <line x1="8" y1="0.8" x2="8" y2="12" id="Line-22" stroke="#76085C" stroke-width="0.5" stroke-linecap="square"></line>
                        <line x1="15.2" y1="0.8" x2="15.2" y2="12" id="Line-22" stroke="#76085C" stroke-width="0.5" stroke-linecap="square"></line>
                        <line x1="17.6" y1="0.8" x2="17.6" y2="12" id="Line-22" stroke="#76085C" stroke-width="0.5" stroke-linecap="square"></line>
                        <line x1="12.8" y1="0.8" x2="12.8" y2="12" id="Line-22" stroke="#76085C" stroke-width="0.5" stroke-linecap="square"></line>
                        <line x1="25.2" y1="0.8" x2="25.2" y2="12" id="Line-22" stroke="#76085C" stroke-width="0.5" stroke-linecap="square"></line>
                        <line x1="27.2" y1="0.8" x2="27.2" y2="12" id="Line-22" stroke="#76085C" stroke-width="0.5" stroke-linecap="square"></line>
                        <line x1="22.8" y1="0.8" x2="22.8" y2="12" id="Line-22" stroke="#76085C" stroke-width="0.5" stroke-linecap="square"></line>
                        <line x1="34.4" y1="0.8" x2="34.4" y2="12" id="Line-22" stroke="#76085C" stroke-width="0.5" stroke-linecap="square"></line>
                        <line x1="36.8" y1="0.8" x2="36.8" y2="12" id="Line-22" stroke="#76085C" stroke-width="0.5" stroke-linecap="square"></line>
                        <line x1="32" y1="0.8" x2="32" y2="12" id="Line-22" stroke="#76085C" stroke-width="0.5" stroke-linecap="square"></line>
                        <line x1="29.6" y1="0.8" x2="29.6" y2="12" id="Line-22" stroke="#76085C" stroke-width="0.8" stroke-linecap="square"></line>
                    </g>
                </g>
                <g id="Light-purple-window" transform="translate(184.000000, 22.000000)">
                    <rect id="Rectangle" stroke="#FFFFFF" stroke-width="0.8" fill="#FFEDF5" x="0.4" y="0.5" width="39.2" height="31.2"></rect>
                    <line x1="26.4" y1="1.3" x2="26.4" y2="31.3" id="Line-19" stroke="#FFFFFF" stroke-width="1.6" stroke-linecap="square"></line>
                    <line x1="20.1" y1="-12.4" x2="20.3" y2="24.6" id="Line-19" stroke="#FFFFFF" stroke-width="1.6" stroke-linecap="square" transform="translate(20.100000, 6.200000) rotate(-90.000000) translate(-20.100000, -6.200000) "></line>
                    <g id="Balcony" transform="translate(0.000000, 18.100000)">
                        <rect id="Rectangle" fill="#76085C" x="0" y="12" width="40" height="2"></rect>
                        <line x1="0.582803568" y1="0.2" x2="39.4499714" y2="0.2" id="Line-20" stroke="#76085C" stroke-width="1.2" stroke-linecap="square"></line>
                        <line x1="0.6" y1="0.2" x2="0.6" y2="12.2" id="Line-21" stroke="#76085C" stroke-width="1.2" stroke-linecap="square"></line>
                        <line x1="39.4" y1="0.2" x2="39.4" y2="12.2" id="Line-21" stroke="#76085C" stroke-width="1.2" stroke-linecap="square"></line>
                        <line x1="20.2" y1="1" x2="20.2" y2="12.2" id="Line-22" stroke="#76085C" stroke-width="0.8" stroke-linecap="square"></line>
                        <line x1="10.4" y1="0.8" x2="10.4" y2="12" id="Line-22" stroke="#76085C" stroke-width="0.8" stroke-linecap="square"></line>
                        <line x1="5.6" y1="0.8" x2="5.6" y2="12" id="Line-22" stroke="#76085C" stroke-width="0.5" stroke-linecap="square"></line>
                        <line x1="3.2" y1="0.8" x2="3.2" y2="12" id="Line-22" stroke="#76085C" stroke-width="0.5" stroke-linecap="square"></line>
                        <line x1="8" y1="0.8" x2="8" y2="12" id="Line-22" stroke="#76085C" stroke-width="0.5" stroke-linecap="square"></line>
                        <line x1="15.2" y1="0.8" x2="15.2" y2="12" id="Line-22" stroke="#76085C" stroke-width="0.5" stroke-linecap="square"></line>
                        <line x1="17.6" y1="0.8" x2="17.6" y2="12" id="Line-22" stroke="#76085C" stroke-width="0.5" stroke-linecap="square"></line>
                        <line x1="12.8" y1="0.8" x2="12.8" y2="12" id="Line-22" stroke="#76085C" stroke-width="0.5" stroke-linecap="square"></line>
                        <line x1="25.2" y1="0.8" x2="25.2" y2="12" id="Line-22" stroke="#76085C" stroke-width="0.5" stroke-linecap="square"></line>
                        <line x1="27.2" y1="0.8" x2="27.2" y2="12" id="Line-22" stroke="#76085C" stroke-width="0.5" stroke-linecap="square"></line>
                        <line x1="22.8" y1="0.8" x2="22.8" y2="12" id="Line-22" stroke="#76085C" stroke-width="0.5" stroke-linecap="square"></line>
                        <line x1="34.4" y1="0.8" x2="34.4" y2="12" id="Line-22" stroke="#76085C" stroke-width="0.5" stroke-linecap="square"></line>
                        <line x1="36.8" y1="0.8" x2="36.8" y2="12" id="Line-22" stroke="#76085C" stroke-width="0.5" stroke-linecap="square"></line>
                        <line x1="32" y1="0.8" x2="32" y2="12" id="Line-22" stroke="#76085C" stroke-width="0.5" stroke-linecap="square"></line>
                        <line x1="29.6" y1="0.8" x2="29.6" y2="12" id="Line-22" stroke="#76085C" stroke-width="0.8" stroke-linecap="square"></line>
                    </g>
                </g>
                <g id="Light-purple-window" transform="translate(132.000000, 67.000000)">
                    <rect id="Rectangle" stroke="#FFFFFF" stroke-width="0.8" fill="#FFEDF5" x="0.4" y="0.5" width="39.2" height="31.2"></rect>
                    <line x1="26.4" y1="1.3" x2="26.4" y2="31.3" id="Line-19" stroke="#FFFFFF" stroke-width="1.6" stroke-linecap="square"></line>
                    <line x1="20.1" y1="-12.4" x2="20.3" y2="24.6" id="Line-19" stroke="#FFFFFF" stroke-width="1.6" stroke-linecap="square" transform="translate(20.100000, 6.200000) rotate(-90.000000) translate(-20.100000, -6.200000) "></line>
                    <g id="Balcony" transform="translate(0.000000, 18.100000)">
                        <rect id="Rectangle" fill="#76085C" x="0" y="12" width="40" height="2"></rect>
                        <line x1="0.582803568" y1="0.2" x2="39.4499714" y2="0.2" id="Line-20" stroke="#76085C" stroke-width="1.2" stroke-linecap="square"></line>
                        <line x1="0.6" y1="0.2" x2="0.6" y2="12.2" id="Line-21" stroke="#76085C" stroke-width="1.2" stroke-linecap="square"></line>
                        <line x1="39.4" y1="0.2" x2="39.4" y2="12.2" id="Line-21" stroke="#76085C" stroke-width="1.2" stroke-linecap="square"></line>
                        <line x1="20.2" y1="1" x2="20.2" y2="12.2" id="Line-22" stroke="#76085C" stroke-width="0.8" stroke-linecap="square"></line>
                        <line x1="10.4" y1="0.8" x2="10.4" y2="12" id="Line-22" stroke="#76085C" stroke-width="0.8" stroke-linecap="square"></line>
                        <line x1="5.6" y1="0.8" x2="5.6" y2="12" id="Line-22" stroke="#76085C" stroke-width="0.5" stroke-linecap="square"></line>
                        <line x1="3.2" y1="0.8" x2="3.2" y2="12" id="Line-22" stroke="#76085C" stroke-width="0.5" stroke-linecap="square"></line>
                        <line x1="8" y1="0.8" x2="8" y2="12" id="Line-22" stroke="#76085C" stroke-width="0.5" stroke-linecap="square"></line>
                        <line x1="15.2" y1="0.8" x2="15.2" y2="12" id="Line-22" stroke="#76085C" stroke-width="0.5" stroke-linecap="square"></line>
                        <line x1="17.6" y1="0.8" x2="17.6" y2="12" id="Line-22" stroke="#76085C" stroke-width="0.5" stroke-linecap="square"></line>
                        <line x1="12.8" y1="0.8" x2="12.8" y2="12" id="Line-22" stroke="#76085C" stroke-width="0.5" stroke-linecap="square"></line>
                        <line x1="25.2" y1="0.8" x2="25.2" y2="12" id="Line-22" stroke="#76085C" stroke-width="0.5" stroke-linecap="square"></line>
                        <line x1="27.2" y1="0.8" x2="27.2" y2="12" id="Line-22" stroke="#76085C" stroke-width="0.5" stroke-linecap="square"></line>
                        <line x1="22.8" y1="0.8" x2="22.8" y2="12" id="Line-22" stroke="#76085C" stroke-width="0.5" stroke-linecap="square"></line>
                        <line x1="34.4" y1="0.8" x2="34.4" y2="12" id="Line-22" stroke="#76085C" stroke-width="0.5" stroke-linecap="square"></line>
                        <line x1="36.8" y1="0.8" x2="36.8" y2="12" id="Line-22" stroke="#76085C" stroke-width="0.5" stroke-linecap="square"></line>
                        <line x1="32" y1="0.8" x2="32" y2="12" id="Line-22" stroke="#76085C" stroke-width="0.5" stroke-linecap="square"></line>
                        <line x1="29.6" y1="0.8" x2="29.6" y2="12" id="Line-22" stroke="#76085C" stroke-width="0.8" stroke-linecap="square"></line>
                    </g>
                </g>
                <g id="Light-purple-window" transform="translate(184.000000, 67.000000)">
                    <rect id="Rectangle" stroke="#FFFFFF" stroke-width="0.8" fill="#FFEDF5" x="0.4" y="0.5" width="39.2" height="31.2"></rect>
                    <line x1="26.4" y1="1.3" x2="26.4" y2="31.3" id="Line-19" stroke="#FFFFFF" stroke-width="1.6" stroke-linecap="square"></line>
                    <line x1="20.1" y1="-12.4" x2="20.3" y2="24.6" id="Line-19" stroke="#FFFFFF" stroke-width="1.6" stroke-linecap="square" transform="translate(20.100000, 6.200000) rotate(-90.000000) translate(-20.100000, -6.200000) "></line>
                    <g id="Balcony" transform="translate(0.000000, 18.100000)">
                        <rect id="Rectangle" fill="#76085C" x="0" y="12" width="40" height="2"></rect>
                        <line x1="0.582803568" y1="0.2" x2="39.4499714" y2="0.2" id="Line-20" stroke="#76085C" stroke-width="1.2" stroke-linecap="square"></line>
                        <line x1="0.6" y1="0.2" x2="0.6" y2="12.2" id="Line-21" stroke="#76085C" stroke-width="1.2" stroke-linecap="square"></line>
                        <line x1="39.4" y1="0.2" x2="39.4" y2="12.2" id="Line-21" stroke="#76085C" stroke-width="1.2" stroke-linecap="square"></line>
                        <line x1="20.2" y1="1" x2="20.2" y2="12.2" id="Line-22" stroke="#76085C" stroke-width="0.8" stroke-linecap="square"></line>
                        <line x1="10.4" y1="0.8" x2="10.4" y2="12" id="Line-22" stroke="#76085C" stroke-width="0.8" stroke-linecap="square"></line>
                        <line x1="5.6" y1="0.8" x2="5.6" y2="12" id="Line-22" stroke="#76085C" stroke-width="0.5" stroke-linecap="square"></line>
                        <line x1="3.2" y1="0.8" x2="3.2" y2="12" id="Line-22" stroke="#76085C" stroke-width="0.5" stroke-linecap="square"></line>
                        <line x1="8" y1="0.8" x2="8" y2="12" id="Line-22" stroke="#76085C" stroke-width="0.5" stroke-linecap="square"></line>
                        <line x1="15.2" y1="0.8" x2="15.2" y2="12" id="Line-22" stroke="#76085C" stroke-width="0.5" stroke-linecap="square"></line>
                        <line x1="17.6" y1="0.8" x2="17.6" y2="12" id="Line-22" stroke="#76085C" stroke-width="0.5" stroke-linecap="square"></line>
                        <line x1="12.8" y1="0.8" x2="12.8" y2="12" id="Line-22" stroke="#76085C" stroke-width="0.5" stroke-linecap="square"></line>
                        <line x1="25.2" y1="0.8" x2="25.2" y2="12" id="Line-22" stroke="#76085C" stroke-width="0.5" stroke-linecap="square"></line>
                        <line x1="27.2" y1="0.8" x2="27.2" y2="12" id="Line-22" stroke="#76085C" stroke-width="0.5" stroke-linecap="square"></line>
                        <line x1="22.8" y1="0.8" x2="22.8" y2="12" id="Line-22" stroke="#76085C" stroke-width="0.5" stroke-linecap="square"></line>
                        <line x1="34.4" y1="0.8" x2="34.4" y2="12" id="Line-22" stroke="#76085C" stroke-width="0.5" stroke-linecap="square"></line>
                        <line x1="36.8" y1="0.8" x2="36.8" y2="12" id="Line-22" stroke="#76085C" stroke-width="0.5" stroke-linecap="square"></line>
                        <line x1="32" y1="0.8" x2="32" y2="12" id="Line-22" stroke="#76085C" stroke-width="0.5" stroke-linecap="square"></line>
                        <line x1="29.6" y1="0.8" x2="29.6" y2="12" id="Line-22" stroke="#76085C" stroke-width="0.8" stroke-linecap="square"></line>
                    </g>
                </g>
                <g id="Blue-window" transform="translate(12.000000, 36.000000)">
                    <path d="M7.5,0 C11.6421356,0 15,3.35786438 15,7.5 L15,7.5 L15,24.6 L0,24.6 L0,7.5 L0.00385356806,7.25726895 C0.131982483,3.22747441 3.43908272,0 7.5,0 Z" id="Combined-Shape" fill="#E6E6FF"></path>
                    <rect id="Rectangle" fill="#060235" x="0" y="21.6" width="15" height="3"></rect>
                    <line x1="0.3" y1="7.35" x2="14.6845661" y2="7.35" id="Line-16" stroke="#FFFFFF" stroke-width="0.6" stroke-linecap="square"></line>
                    <line x1="7.5" y1="7.5" x2="7.5" y2="21.3" id="Line-16" stroke="#FFFFFF" stroke-width="0.6" stroke-linecap="square"></line>
                </g>
                <g id="Blue-window" transform="translate(84.000000, 36.000000)">
                    <path d="M7.5,0 C11.6421356,0 15,3.35786438 15,7.5 L15,7.5 L15,24.6 L0,24.6 L0,7.5 L0.00385356806,7.25726895 C0.131982483,3.22747441 3.43908272,0 7.5,0 Z" id="Combined-Shape" fill="#E6E6FF"></path>
                    <rect id="Rectangle" fill="#060235" x="0" y="21.6" width="15" height="3"></rect>
                    <line x1="0.3" y1="7.35" x2="14.6845661" y2="7.35" id="Line-16" stroke="#FFFFFF" stroke-width="0.6" stroke-linecap="square"></line>
                    <line x1="7.5" y1="7.5" x2="7.5" y2="21.3" id="Line-16" stroke="#FFFFFF" stroke-width="0.6" stroke-linecap="square"></line>
                </g>
                <g id="Blue-window" transform="translate(36.000000, 36.000000)">
                    <path d="M7.5,0 C11.6421356,0 15,3.35786438 15,7.5 L15,7.5 L15,24.6 L0,24.6 L0,7.5 L0.00385356806,7.25726895 C0.131982483,3.22747441 3.43908272,0 7.5,0 Z" id="Combined-Shape" fill="#E6E6FF"></path>
                    <rect id="Rectangle" fill="#060235" x="0" y="21.6" width="15" height="3"></rect>
                    <line x1="0.3" y1="7.35" x2="14.6845661" y2="7.35" id="Line-16" stroke="#FFFFFF" stroke-width="0.6" stroke-linecap="square"></line>
                    <line x1="7.5" y1="7.5" x2="7.5" y2="21.3" id="Line-16" stroke="#FFFFFF" stroke-width="0.6" stroke-linecap="square"></line>
                </g>
                <g id="Blue-window" transform="translate(60.000000, 36.000000)">
                    <path d="M7.5,0 C11.6421356,0 15,3.35786438 15,7.5 L15,7.5 L15,24.6 L0,24.6 L0,7.5 L0.00385356806,7.25726895 C0.131982483,3.22747441 3.43908272,0 7.5,0 Z" id="Combined-Shape" fill="#E6E6FF"></path>
                    <rect id="Rectangle" fill="#060235" x="0" y="21.6" width="15" height="3"></rect>
                    <line x1="0.3" y1="7.35" x2="14.6845661" y2="7.35" id="Line-16" stroke="#FFFFFF" stroke-width="0.6" stroke-linecap="square"></line>
                    <line x1="7.5" y1="7.5" x2="7.5" y2="21.3" id="Line-16" stroke="#FFFFFF" stroke-width="0.6" stroke-linecap="square"></line>
                </g>
                <g id="Blue-window" transform="translate(12.000000, 65.000000)">
                    <path d="M7.5,0 C11.6421356,0 15,3.35786438 15,7.5 L15,7.5 L15,24.6 L0,24.6 L0,7.5 L0.00385356806,7.25726895 C0.131982483,3.22747441 3.43908272,0 7.5,0 Z" id="Combined-Shape" fill="#E6E6FF"></path>
                    <rect id="Rectangle" fill="#060235" x="0" y="21.6" width="15" height="3"></rect>
                    <line x1="0.3" y1="7.35" x2="14.6845661" y2="7.35" id="Line-16" stroke="#FFFFFF" stroke-width="0.6" stroke-linecap="square"></line>
                    <line x1="7.5" y1="7.5" x2="7.5" y2="21.3" id="Line-16" stroke="#FFFFFF" stroke-width="0.6" stroke-linecap="square"></line>
                </g>
                <g id="Blue-window" transform="translate(84.000000, 65.000000)">
                    <path d="M7.5,0 C11.6421356,0 15,3.35786438 15,7.5 L15,7.5 L15,24.6 L0,24.6 L0,7.5 L0.00385356806,7.25726895 C0.131982483,3.22747441 3.43908272,0 7.5,0 Z" id="Combined-Shape" fill="#E6E6FF"></path>
                    <rect id="Rectangle" fill="#060235" x="0" y="21.6" width="15" height="3"></rect>
                    <line x1="0.3" y1="7.35" x2="14.6845661" y2="7.35" id="Line-16" stroke="#FFFFFF" stroke-width="0.6" stroke-linecap="square"></line>
                    <line x1="7.5" y1="7.5" x2="7.5" y2="21.3" id="Line-16" stroke="#FFFFFF" stroke-width="0.6" stroke-linecap="square"></line>
                </g>
                <g id="Blue-window" transform="translate(36.000000, 65.000000)">
                    <path d="M7.5,0 C11.6421356,0 15,3.35786438 15,7.5 L15,7.5 L15,24.6 L0,24.6 L0,7.5 L0.00385356806,7.25726895 C0.131982483,3.22747441 3.43908272,0 7.5,0 Z" id="Combined-Shape" fill="#E6E6FF"></path>
                    <rect id="Rectangle" fill="#060235" x="0" y="21.6" width="15" height="3"></rect>
                    <line x1="0.3" y1="7.35" x2="14.6845661" y2="7.35" id="Line-16" stroke="#FFFFFF" stroke-width="0.6" stroke-linecap="square"></line>
                    <line x1="7.5" y1="7.5" x2="7.5" y2="21.3" id="Line-16" stroke="#FFFFFF" stroke-width="0.6" stroke-linecap="square"></line>
                </g>
                <g id="Blue-window" transform="translate(60.000000, 65.000000)">
                    <path d="M7.5,0 C11.6421356,0 15,3.35786438 15,7.5 L15,7.5 L15,24.6 L0,24.6 L0,7.5 L0.00385356806,7.25726895 C0.131982483,3.22747441 3.43908272,0 7.5,0 Z" id="Combined-Shape" fill="#E6E6FF"></path>
                    <rect id="Rectangle" fill="#060235" x="0" y="21.6" width="15" height="3"></rect>
                    <line x1="0.3" y1="7.35" x2="14.6845661" y2="7.35" id="Line-16" stroke="#FFFFFF" stroke-width="0.6" stroke-linecap="square"></line>
                    <line x1="7.5" y1="7.5" x2="7.5" y2="21.3" id="Line-16" stroke="#FFFFFF" stroke-width="0.6" stroke-linecap="square"></line>
                </g>
                <rect id="Rectangle" fill="#0F0766" x="12" y="13" width="6" height="8"></rect>
                <rect id="Rectangle" fill="#0F0766" x="19" y="15" width="4" height="6"></rect>
                <rect id="Rectangle" fill="#59097B" transform="translate(347.000000, 39.000000) scale(-1, 1) translate(-347.000000, -39.000000) " x="344" y="35" width="6" height="8"></rect>
                <rect id="Rectangle" stroke="#59097B" x="343.5" y="34.5" width="7" height="1"></rect>
                <rect id="Rectangle" stroke="#59097B" x="337.5" y="36.5" width="5" height="1"></rect>
                <rect id="Rectangle" fill="#59097B" transform="translate(340.000000, 40.000000) scale(-1, 1) translate(-340.000000, -40.000000) " x="338" y="37" width="4" height="6"></rect>
            </g>
        </g>
    </g>
</svg>