<?xml version="1.0" encoding="UTF-8"?>
<svg width="20px" height="18px" viewBox="0 0 20 18" version="1.1" xmlns="http://www.w3.org/2000/svg" xmlns:xlink="http://www.w3.org/1999/xlink">
    <!-- Generator: Sketch 60.1 (88133) - https://sketch.com -->
    <title>Group</title>
    <desc>Created with Sketch.</desc>
    <g id="Boplats-landing-page" stroke="none" stroke-width="1" fill="none" fill-rule="evenodd">
        <g id="iPhone-8-Plus" transform="translate(-234.000000, -217.000000)">
            <g id="Group" transform="translate(234.000000, 217.000000)">
                <rect id="Rectangle" fill="#59097B" x="14.3666667" y="2.06666667" width="2.16666667" height="3.96666667" rx="0.166666667"></rect>
                <path d="M1.84507062,7.51680734 L9.95712053,0.702685424 C9.98191366,0.681859189 10.0180863,0.681859189 10.0428795,0.702685424 L18.1549294,7.51680734 C18.2680271,7.61180945 18.3333333,7.75195568 18.3333333,7.89965978 L18.3333333,16.8333333 C18.3333333,17.1094757 18.1094757,17.3333333 17.8333333,17.3333333 L2.16666667,17.3333333 C1.89052429,17.3333333 1.66666667,17.1094757 1.66666667,16.8333333 L1.66666667,7.89965978 C1.66666667,7.75195568 1.73197288,7.61180945 1.84507062,7.51680734 Z" id="Rectangle" fill="#59097B"></path>
                <path d="M9.45278704,1.5205164 C9.79124677,1.23651497 10.2958512,1.28066214 10.5798527,1.61912187 L10.5152391,1.55010247 C10.5191276,1.55324505 10.5229952,1.55642997 10.5268413,1.55965726 L19.6938398,9.25168232 C20.0322995,9.53568376 20.0764467,10.0402882 19.7924453,10.378748 C19.5084438,10.7172077 19.0038394,10.7613549 18.6653796,10.4773534 L9.966,3.17733333 L1.31424871,10.4382126 C1.00399396,10.6985472 0.55413147,10.6831459 0.262555515,10.4180709 L0.187183072,10.3396071 C-0.0968183638,10.0011474 -0.0526711926,9.4965429 0.285788538,9.21254147 L0.285788538,9.21254147 Z" id="Combined-Shape" fill="#FFFFFF"></path>
                <path d="M9.45278704,0.187183072 C9.79124677,-0.0968183638 10.2958512,-0.0526711926 10.5798527,0.285788538 L10.5152391,0.216769132 C10.5191276,0.219911722 10.5229952,0.223096636 10.5268413,0.226323925 L19.6938398,7.91834899 C20.0322995,8.20235042 20.0764467,8.7069549 19.7924453,9.04541463 C19.5084438,9.38387436 19.0038394,9.42802153 18.6653796,9.1440201 L9.966,1.844 L1.31424871,9.10487924 C1.00399396,9.36521389 0.55413147,9.34981256 0.262555515,9.08473762 L0.187183072,9.00627378 C-0.0968183638,8.66781405 -0.0526711926,8.16320957 0.285788538,7.87920813 L0.285788538,7.87920813 Z" id="Combined-Shape" fill="#FFFFFF"></path>
                <path d="M9.45278704,0.853849738 C9.79124677,0.569848303 10.2958512,0.613995474 10.5798527,0.952455205 L10.5152391,0.883435799 C10.5191276,0.886578388 10.5229952,0.889763303 10.5268413,0.892990592 L19.6938398,8.58501565 C20.0322995,8.86901709 20.0764467,9.37362157 19.7924453,9.7120813 C19.5084438,10.050541 19.0038394,10.0946882 18.6653796,9.81068676 L9.966,2.51066667 L1.31424871,9.77154591 C1.00399396,10.0318806 0.55413147,10.0164792 0.262555515,9.75140428 L0.187183072,9.67294044 C-0.0968183638,9.33448071 -0.0526711926,8.82987624 0.285788538,8.5458748 L0.285788538,8.5458748 Z" id="Combined-Shape" fill="#59097B"></path>
                <path d="M8.7,12.2 L11.2666667,12.2 C11.4691711,12.2 11.6333333,12.3641623 11.6333333,12.5666667 L11.6333333,17.3666667 L11.6333333,17.3666667 L8.33333333,17.3666667 L8.33333333,12.5666667 C8.33333333,12.3641623 8.49749559,12.2 8.7,12.2 Z" id="Rectangle" fill="#FFFFFF"></path>
            </g>
        </g>
    </g>
</svg>