<?xml version="1.0" encoding="UTF-8"?>
<svg width="20px" height="20px" viewBox="0 0 20 20" version="1.1" xmlns="http://www.w3.org/2000/svg" xmlns:xlink="http://www.w3.org/1999/xlink">
    <!-- Generator: Sketch 60.1 (88133) - https://sketch.com -->
    <title>Group 2</title>
    <desc>Created with Sketch.</desc>
    <g id="Boplats-landing-page" stroke="none" stroke-width="1" fill="none" fill-rule="evenodd">
        <g id="iPhone-8-Plus" transform="translate(-234.000000, -380.000000)">
            <g id="Group-2" transform="translate(234.000000, 380.000000)">
                <path d="M9.53974895,8.52651283e-14 C14.8084068,8.52651283e-14 19.0794979,4.27109109 19.0794979,9.53974895 C19.0794979,11.5171101 18.4778938,13.353959 17.4477362,14.877245 L18.2928306,19.3749145 C18.3440409,19.6474426 18.1646273,19.9098844 17.8920992,19.9610947 C17.8017253,19.9780766 17.7084234,19.9699138 17.6223714,19.9374965 L13.3010101,18.309376 C12.14692,18.8050134 10.8753891,19.0794979 9.53974895,19.0794979 C4.27109109,19.0794979 0,14.8084068 0,9.53974895 C0,4.27109109 4.27109109,8.52651283e-14 9.53974895,8.52651283e-14 Z" id="Combined-Shape" fill="#59097B"></path>
                <g id="Group" transform="translate(3.096234, 3.682008)" stroke="#FFFFFF" stroke-linecap="round">
                    <line x1="6.45167364" y1="0" x2="6.45167364" y2="11.5481172" id="Path-24" stroke-width="0.753138075"></line>
                    <line x1="6.45167364" y1="-0.585774059" x2="6.45167364" y2="12.3012552" id="Path-24" stroke-width="0.753138075" transform="translate(6.451674, 5.857741) rotate(-90.000000) translate(-6.451674, -5.857741) "></line>
                    <line x1="6.45167364" y1="-3.17991632" x2="6.45167364" y2="6.19246862" id="Path-24" stroke-width="0.753138075" transform="translate(6.451674, 1.506276) rotate(-90.000000) translate(-6.451674, -1.506276) "></line>
                    <line x1="6.45167364" y1="5.52301255" x2="6.45167364" y2="14.8953975" id="Path-24" stroke-width="0.753138075" transform="translate(6.451674, 10.209205) rotate(-90.000000) translate(-6.451674, -10.209205) "></line>
                    <path d="M4.43514644,0 C2.81729428,1.98605281 2.0083682,3.93863301 2.0083682,5.85774059 C2.0083682,7.77684817 2.81729428,9.67364035 4.43514644,11.5481172" id="Path-25" stroke-width="0.669456067"></path>
                    <path d="M10.8786611,0.0836820084 C9.26080893,2.06973482 8.45188285,4.02231501 8.45188285,5.94142259 C8.45188285,7.86053017 9.26080893,9.75732236 10.8786611,11.6317992" id="Path-25" stroke-width="0.669456067" transform="translate(9.665272, 5.857741) scale(-1, 1) translate(-9.665272, -5.857741) "></path>
                </g>
            </g>
        </g>
    </g>
</svg>