<?xml version="1.0" encoding="UTF-8"?>
<svg width="370px" height="300px" viewBox="0 0 370 300" version="1.1" xmlns="http://www.w3.org/2000/svg" xmlns:xlink="http://www.w3.org/1999/xlink">
    <!-- Generator: Sketch 60.1 (88133) - https://sketch.com -->
    <title>Infographic-4</title>
    <desc>Created with Sketch.</desc>
    <g id="Boplats-landing-page" stroke="none" stroke-width="1" fill="none" fill-rule="evenodd">
        <g id="Desktop-HD" transform="translate(-122.000000, -3675.000000)">
            <g id="Infographic-4" transform="translate(122.000000, 3675.000000)">
                <rect id="Rectangle" fill="#EBBDFF" x="0" y="0" width="370" height="300" rx="6"></rect>
                <g id="Contract" transform="translate(127.000000, 75.000000)">
                    <rect id="Rectangle" fill="#FFFFFF" x="0" y="0" width="116.97325" height="150" rx="5.67010309"></rect>
                    <g id="Group-14" transform="translate(23.000000, 18.000000)" stroke="#59097B">
                        <g id="Group-10" transform="translate(0.000000, 37.000000)" stroke-linecap="round" stroke-width="3">
                            <line x1="1.96450639e-13" y1="13.1665711" x2="70.1839499" y2="13.1665711" id="Path-16"></line>
                            <line x1="1.96450639e-13" y1="1.16657106" x2="70.1839499" y2="1.16657106" id="Path-16"></line>
                            <line x1="1.96450639e-13" y1="25" x2="70.1839499" y2="25" id="Path-16"></line>
                            <line x1="1.96450639e-13" y1="37" x2="70.1839499" y2="37" id="Path-16"></line>
                        </g>
                        <path d="M35.4118283,0.427761235 L25.4118283,7.70048851 C25.153084,7.88866615 25,8.18928801 25,8.50922459 L25,20 C25,20.5522847 25.4477153,21 26,21 L46,21 C46.5522847,21 47,20.5522847 47,20 L47,8.50922459 C47,8.18928801 46.846916,7.88866615 46.5881717,7.70048851 L36.5881717,0.427761235 C36.2375212,0.17274268 35.7624788,0.17274268 35.4118283,0.427761235 Z" id="Path-2" fill="#59097B" stroke-linejoin="round"></path>
                        <line x1="0" y1="92" x2="46.9973963" y2="92.4947094" id="Path-15" stroke-linecap="round" stroke-dasharray="2"></line>
                        <line x1="0" y1="100" x2="30" y2="100" id="Path-15" stroke-linecap="round" stroke-dasharray="2"></line>
                    </g>
                </g>
                <g id="Number-4" transform="translate(12.000000, 12.000000)">
                    <circle id="Oval" fill="#59097B" cx="40" cy="40" r="40"></circle>
                    <text id="4" font-family="Verdana-Bold, Verdana" font-size="30" font-weight="bold" line-spacing="30" fill="#FFFFFF">
                        <tspan x="29" y="52">4</tspan>
                    </text>
                </g>
            </g>
        </g>
    </g>
</svg>