<?xml version="1.0" encoding="UTF-8"?>
<svg width="370px" height="300px" viewBox="0 0 370 300" version="1.1" xmlns="http://www.w3.org/2000/svg" xmlns:xlink="http://www.w3.org/1999/xlink">
    <!-- Generator: Sketch 60.1 (88133) - https://sketch.com -->
    <title>Infographic-3</title>
    <desc>Created with Sketch.</desc>
    <g id="Boplats-landing-page" stroke="none" stroke-width="1" fill="none" fill-rule="evenodd">
        <g id="Desktop-HD" transform="translate(-951.000000, -3185.000000)">
            <g id="Infographic-3" transform="translate(951.000000, 3185.000000)">
                <rect id="Rectangle" fill="#BBBAFF" x="0" y="0" width="370" height="300" rx="6"></rect>
                <g id="Number-3" transform="translate(11.951482, 12.000000)">
                    <ellipse id="Oval" fill="#0F0766" cx="39.8921833" cy="40" rx="39.8921833" ry="40"></ellipse>
                    <text id="3" font-family="Verdana-Bold, Verdana" font-size="30" font-weight="bold" line-spacing="30" fill="#FFFFFF">
                        <tspan x="28.9218329" y="55">3</tspan>
                    </text>
                </g>
                <g id="Group-11" transform="translate(138.000000, 75.000000)">
                    <path d="M92.4309593,133.4375 L92.4309593,13.4375 L3,13.4375 C2.72385763,13.4375 2.5,13.6613576 2.5,13.9375 L2.5,132.9375 C2.5,133.213642 2.72385763,133.4375 3,133.4375 L92.4309593,133.4375 Z" id="Rectangle" stroke="#0F0766" stroke-width="5" fill="#EFEFFF"></path>
                    <path d="M23.2477917,136.094543 L91.3596543,149.307221 C92.9861878,149.622744 94.5605357,148.55996 94.8760587,146.933426 C94.912575,146.745183 94.9309593,146.553873 94.9309593,146.362121 L94.9309593,3.48658533 C94.9309593,1.82973108 93.5878136,0.486585327 91.9309593,0.486585327 C91.7811416,0.486585327 91.6315343,0.49780798 91.4833932,0.52015909 L23.2890381,10.809132 C22.7999029,10.8829313 22.4382267,11.3032696 22.4382267,11.7979407 L22.4382267,135.112844 C22.4382267,135.591703 22.777696,136.003352 23.2477917,136.094543 Z" id="Path-7" fill="#0F0766" transform="translate(58.684593, 75.000000) scale(-1, 1) translate(-58.684593, -75.000000) "></path>
                    <rect id="Rectangle" fill="#A1A0DD" x="26.7532703" y="71.875" width="5.17805233" height="11.71875" rx="2"></rect>
                    <path d="M30.0417878,77.34375 L37.2728924,77.34375 C38.1358374,77.34375 38.8353924,78.0433051 38.8353924,78.90625 C38.8353924,79.7691949 38.1358374,80.46875 37.2728924,80.46875 L30.0417878,80.46875 C29.1788429,80.46875 28.4792878,79.7691949 28.4792878,78.90625 C28.4792878,78.0433051 29.1788429,77.34375 30.0417878,77.34375 Z" id="Rectangle" fill="#BBBAFF"></path>
                    <polygon id="Path-13" fill="#E3E3FF" points="51.7805233 17.1875 51.7805233 131.25 44.0134448 132.8125 44.0134448 15.625"></polygon>
                </g>
            </g>
        </g>
    </g>
</svg>