<?xml version="1.0" encoding="UTF-8"?>
<svg width="370px" height="300px" viewBox="0 0 370 300" version="1.1" xmlns="http://www.w3.org/2000/svg" xmlns:xlink="http://www.w3.org/1999/xlink">
    <!-- Generator: Sketch 60.1 (88133) - https://sketch.com -->
    <title>Infographic-5</title>
    <desc>Created with Sketch.</desc>
    <g id="Boplats-landing-page" stroke="none" stroke-width="1" fill="none" fill-rule="evenodd">
        <g id="Desktop-HD" transform="translate(-535.000000, -3677.000000)">
            <g id="Infographic-5" transform="translate(535.000000, 3677.000000)">
                <rect id="Rectangle" fill="#BBBAFF" x="0" y="0" width="370" height="300" rx="6"></rect>
                <g id="Number-5" transform="translate(11.871314, 12.000000)">
                    <ellipse id="Oval" fill="#0F0766" cx="39.6782842" cy="40" rx="39.6782842" ry="40"></ellipse>
                    <text id="5" font-family="Verdana-Bold, Verdana" font-size="30" font-weight="bold" line-spacing="30" fill="#FFFFFF">
                        <tspan x="28.766756" y="52">5</tspan>
                    </text>
                </g>
                <g id="Group-15" transform="translate(115.000000, 71.000000)">
                    <path d="M67.2781181,44.7228936 C57.3932069,45.1060768 52.4507512,49.716273 52.4507512,58.5534823 C52.4507512,67.3906916 57.1806795,72.4705678 66.6405361,73.793111" id="Path-18" stroke="#E3E3FF" stroke-width="2.09302326" stroke-linecap="round" transform="translate(59.864435, 59.258002) rotate(29.000000) translate(-59.864435, -59.258002) "></path>
                    <path d="M139.362826,-2.84217094e-14 C139.748141,-3.2377187e-14 140.0605,0.312359477 140.0605,0.697674419 C140.0605,0.748578381 140.054929,0.79932946 140.043887,0.84902125 L137.485933,12.3598142 C137.457149,12.4893411 137.392026,12.6079741 137.298202,12.7017977 L135.635128,14.3648721 C135.458093,14.5419071 135.199771,14.6105083 134.958227,14.5446328 L128.408329,12.7582969 C128.036591,12.6569138 127.653051,12.8760797 127.551668,13.2478176 C127.54638,13.2672054 127.541933,13.2868125 127.538338,13.3065841 L126.341472,19.8893477 C126.302189,20.1054037 126.163475,20.2903556 125.96706,20.3885629 L125.131193,20.8064967 C124.972233,20.8859763 124.788935,20.9017966 124.618708,20.8507286 L118.805126,19.1066542 C118.436062,18.9959348 118.04712,19.2053651 117.9364,19.5744298 C117.916889,19.6394671 117.906977,19.7070042 117.906977,19.7749051 L117.906977,26.2226417 C117.906977,26.4076765 117.833472,26.5851327 117.702633,26.715972 L117.495593,26.9230116 C117.318558,27.1000466 117.060236,27.1686478 116.818692,27.1027724 L110.289137,25.3219846 C109.917399,25.2206015 109.533859,25.4397674 109.432476,25.8115053 C109.425523,25.8370005 109.420024,25.8628701 109.416005,25.8889892 L108.186285,33.882174 C108.1565,34.0757734 108.046703,34.2479347 107.883723,34.3565878 L102.046672,38.2485645 C102.381506,39.7478245 102.55814,41.3067731 102.55814,42.9069767 C102.55814,54.6590825 93.0311755,64.1860465 81.2790698,64.1860465 C69.526964,64.1860465 60,54.6590825 60,42.9069767 C60,31.154871 69.526964,21.627907 81.2790698,21.627907 C85.5546995,21.627907 89.5358013,22.8889309 92.8707464,25.0593499 L128.372093,-2.84217094e-14 L139.362826,-2.84217094e-14 Z M77.0930233,39.7674419 C73.4325313,39.7674419 70.4651163,42.7348569 70.4651163,46.3953488 C70.4651163,50.0558408 73.4325313,53.0232558 77.0930233,53.0232558 C80.7535152,53.0232558 83.7209302,50.0558408 83.7209302,46.3953488 C83.7209302,42.7348569 80.7535152,39.7674419 77.0930233,39.7674419 Z" id="Combined-Shape" fill="#0F0766"></path>
                    <g id="Group-13" transform="translate(42.000000, 105.000000) rotate(8.000000) translate(-42.000000, -105.000000) translate(7.000000, 57.000000)">
                        <path d="M72.9302326,28 C75.6274372,28 77.8139535,30.1865163 77.8139535,32.8837209 L77.8139535,63.5813953 C77.8139535,66.2785999 75.6274372,68.4651163 72.9302326,68.4651163 L8.81516958,68.4651163 C7.43101831,68.4651091 6.11187918,67.8777608 5.18573993,66.849101 C-3.60475336,57.0855299 -8,50.8800156 -8,48.2325581 C-8,45.5851001 -3.60475145,39.3795836 5.18574566,29.6160089 C6.11188707,28.587349 7.4310277,28 8.81518054,28 L72.9302326,28 Z M4.20930233,42.6511628 C0.934125321,42.6511628 -1.72093023,45.3062183 -1.72093023,48.5813953 C-1.72093023,51.8565724 0.934125321,54.5116279 4.20930233,54.5116279 C7.48447933,54.5116279 10.1395349,51.8565724 10.1395349,48.5813953 C10.1395349,45.3062183 7.48447933,42.6511628 4.20930233,42.6511628 Z" id="Combined-Shape" fill="#FFFFFF" transform="translate(34.906977, 48.232558) rotate(111.000000) translate(-34.906977, -48.232558) "></path>
                        <path d="M32.8415992,43.0583951 L23.7463611,49.641615 C23.5112872,49.8117638 23.372093,50.084344 23.372093,50.3745341 L23.372093,60.7696567 C23.372093,61.2693429 23.7771687,61.6744186 24.2768549,61.6744186 L42.4673311,61.6744186 C42.9670173,61.6744186 43.372093,61.2693429 43.372093,60.7696567 L43.372093,50.3745341 C43.372093,50.084344 43.2328989,49.8117638 42.9978249,49.641615 L33.9025868,43.0583951 C33.5860343,42.8292713 33.1581517,42.8292713 32.8415992,43.0583951 Z" id="Path-2" stroke="#0F0766" stroke-width="0.904761905" fill="#0F0766" stroke-linejoin="round" transform="translate(33.372093, 52.174419) rotate(22.000000) translate(-33.372093, -52.174419) "></path>
                    </g>
                    <path d="M80.1547672,52.3355164 C70.2038382,52.5798338 64.579417,57.0174027 63.2815034,65.648223 C63.7330118,74.7997442 68.3874535,80.0060155 77.2448284,81.2670371" id="Path-18" stroke="#E3E3FF" stroke-width="2.09302326" stroke-linecap="round" transform="translate(71.718135, 66.801277) scale(-1, 1) rotate(-36.000000) translate(-71.718135, -66.801277) "></path>
                </g>
            </g>
        </g>
    </g>
</svg>