<?xml version="1.0" encoding="UTF-8"?>
<svg width="370px" height="300px" viewBox="0 0 370 300" version="1.1" xmlns="http://www.w3.org/2000/svg" xmlns:xlink="http://www.w3.org/1999/xlink">
    <!-- Generator: Sketch 60.1 (88133) - https://sketch.com -->
    <title>Infographic-1</title>
    <desc>Created with Sketch.</desc>
    <g id="Boplats-landing-page" stroke="none" stroke-width="1" fill="none" fill-rule="evenodd">
        <g id="Desktop-HD" transform="translate(-122.000000, -3185.000000)">
            <g id="Infographic-1" transform="translate(122.000000, 3185.000000)">
                <g id="flat-apply-illustration">
                    <rect id="Rectangle" fill="#EBBDFF" x="0" y="0" width="370" height="300" rx="6"></rect>
                    <g id="Group-8" transform="translate(12.000000, 12.000000)">
                        <circle id="Oval" fill="#59097B" cx="40" cy="40" r="40"></circle>
                        <text id="1" font-family="Verdana-Bold, Verdana" font-size="30" font-weight="bold" line-spacing="30" fill="#FFFFFF">
                            <tspan x="29" y="55">1</tspan>
                        </text>
                    </g>
                </g>
                <g id="Group-12" transform="translate(143.000000, 115.000000)">
                    <path d="M63.5456088,0 C79.5361633,0 92.4808978,18.2396607 78.7747083,38.7592789 C69.8622135,52.1022282 57.810555,62.3120703 42.6197329,69.3888053 L42.5911013,69.4014832 C42.5727097,69.409197 42.5540418,69.4162356 42.5351386,69.4225841 L42.6197329,69.3888053 C42.5774165,69.4085177 42.5342716,69.4242756 42.4907149,69.4362307 C42.4705313,69.441656 42.4494755,69.4465516 42.4282323,69.4506073 C42.4136554,69.4535134 42.3996552,69.4557905 42.385647,69.4576935 C42.3669582,69.46014 42.3475577,69.4620986 42.3280707,69.4633563 C42.3107764,69.4645119 42.2937561,69.4650427 42.2767756,69.465039 C42.2596903,69.4650635 42.2422654,69.4645288 42.2248243,69.4634244 C42.2046106,69.4620549 42.1845388,69.460003 42.1646011,69.4572157 C42.1520141,69.4555819 42.139609,69.4535579 42.1272202,69.4512365 C42.1045275,69.4468559 42.0816746,69.4415502 42.0591056,69.4352784 C42.0165982,69.4235517 41.97446,69.4080662 41.9331126,69.3888053 L42.0189027,69.4229847 C41.9995909,69.416532 41.9805236,69.4093596 41.9617442,69.4014832 L41.9331126,69.3888053 C26.7422905,62.3120703 14.690632,52.1022282 5.77813724,38.7592789 C-7.92805227,18.2396607 5.01668227,0 21.0072367,0 C30.9916849,0 38.0816573,4.22222598 42.2771537,12.6666779 C46.4711883,4.22222598 53.5611606,0 63.5456088,0 Z" id="Combined-Shape" fill="#59097B"></path>
                    <path d="M65.5803599,25.7024991 L46.4982587,69.3187303 C46.3182863,69.730096 46.5058675,70.2094702 46.9172331,70.3894427 C47.0199912,70.4343993 47.13094,70.4576074 47.2431021,70.4576074 L59.5501355,70.4576074 L59.5501355,70.4576074 L59.5501355,92.873403 C59.5501355,93.322415 59.9141316,93.6864111 60.3631436,93.6864111 L72.2872629,93.6864111 C72.7362749,93.6864111 73.100271,93.322415 73.100271,92.873403 L73.100271,70.4576074 L73.100271,70.4576074 L85.4073044,70.4576074 C85.8563164,70.4576074 86.2203125,70.0936113 86.2203125,69.6445993 C86.2203125,69.5324372 86.1971044,69.4214884 86.1521478,69.3187303 L67.0700466,25.7024991 C66.8900742,25.2911335 66.4106999,25.1035523 65.9993343,25.2835247 C65.8119451,25.3655075 65.6623426,25.51511 65.5803599,25.7024991 Z" id="Path-8" stroke="#59097B" stroke-width="2.43902439" fill="#FFFFFF" transform="translate(66.325203, 58.843206) rotate(-30.000000) translate(-66.325203, -58.843206) "></path>
                </g>
            </g>
        </g>
    </g>
</svg>