<?xml version="1.0" encoding="UTF-8"?>
<svg width="163px" height="37px" viewBox="0 0 163 37" version="1.1" xmlns="http://www.w3.org/2000/svg" xmlns:xlink="http://www.w3.org/1999/xlink">
    <!-- Generator: Sketch 59 (86127) - https://sketch.com -->
    <title>Logo / Coral</title>
    <desc>Created with Sketch.</desc>
    <g id="Boplats-landing-page" stroke="none" stroke-width="1" fill="none" fill-rule="evenodd">
        <g id="Desktop-HD" transform="translate(-123.000000, -28.000000)">
            <g id="Navigation-Bar">
                <g id="Logo-/-Coral" transform="translate(120.000000, 26.000000)">
                    <g id="Logo-/-Original">
                        <g id="Logo">
                            <text id="boplats" font-family="STHeitiTC-Light, Heiti TC" font-size="38.6049724" font-weight="300" fill="#232323">
                                <tspan x="0" y="33">boplats</tspan>
                            </text>
                            <path d="M154.607143,3.71428571 C160.504755,3.71428571 165.285714,9.23762997 165.285714,16.0510204 C165.285714,20.5932807 161.72619,26.0762739 154.607143,32.5 C147.488095,26.0762739 143.928571,20.5932807 143.928571,16.0510204 C143.928571,9.23762997 148.709531,3.71428571 154.607143,3.71428571 Z M154.607143,11.3904762 C151.92641,11.3904762 149.753247,13.5384434 149.753247,16.1880952 C149.753247,18.8377471 151.92641,20.9857143 154.607143,20.9857143 C157.287876,20.9857143 159.461039,18.8377471 159.461039,16.1880952 C159.461039,13.5384434 157.287876,11.3904762 154.607143,11.3904762 Z" id="Combined-Shape" fill="#E01171"></path>
                        </g>
                    </g>
                </g>
            </g>
        </g>
    </g>
</svg>