<?xml version="1.0" encoding="UTF-8"?>
<svg width="175px" height="40px" viewBox="0 0 175 40" version="1.1" xmlns="http://www.w3.org/2000/svg" xmlns:xlink="http://www.w3.org/1999/xlink">
    <!-- Generator: Sketch 60 (88103) - https://sketch.com -->
    <title>Logo / Logo</title>
    <desc>Created with Sketch.</desc>
    <g id="Symbols" stroke="none" stroke-width="1" fill="none" fill-rule="evenodd">
        <g id="Logo-/-Coral" transform="translate(-3.000000, -2.000000)">
            <g id="Logo-/-Logo" transform="translate(3.000000, 2.000000)">
                <g id="Logo">
                    <path d="M11.9252762,32.2538674 C15.0572284,32.2538674 17.7457182,31.1036372 19.9907459,28.8031768 C22.2357735,26.5027164 23.3582873,23.7449355 23.3582873,20.5298343 C23.3582873,17.314733 22.2565608,14.5638812 20.0531077,12.277279 C17.8496547,9.9906768 15.1680939,8.84737569 12.0084254,8.84737569 C8.51616022,8.84737569 5.56436464,10.3024862 3.15303867,13.2127072 L3.15303867,13.2127072 L3.15303867,0.906629834 L0.367541436,0.906629834 L0.367541436,31.5055249 L3.15303867,31.5055249 L3.15303867,27.4312155 C5.50893186,30.6463168 8.43301105,32.2538674 11.9252762,32.2538674 Z M11.7174033,29.5099448 C9.27836096,29.5099448 7.21348987,28.6230203 5.52279006,26.8491713 C3.83209024,25.0753223 2.98674033,22.8995856 2.98674033,20.3219613 C2.98674033,17.7720534 3.82516114,15.6517495 5.50200276,13.9610497 C7.17884438,12.2703499 9.26450276,11.425 11.7589779,11.425 C14.253453,11.425 16.3321823,12.3257827 17.9951657,14.1273481 C19.6581492,15.9289134 20.4896409,18.0422882 20.4896409,20.4674724 C20.4896409,22.8926565 19.6373619,25.0060313 17.9328039,26.8075967 C16.2282459,28.6091621 14.1564457,29.5099448 11.7174033,29.5099448 Z M38.9903315,32.2538674 C42.2331492,32.2538674 44.9562845,31.1105663 47.1597376,28.8239641 C49.3631906,26.5373619 50.4649171,23.7865101 50.4649171,20.5714088 C50.4649171,17.3563076 49.3493324,14.5985267 47.118163,12.2980663 C44.8869936,9.99760589 42.1707873,8.84737569 38.9695442,8.84737569 C35.7683011,8.84737569 33.0520948,9.99760589 30.8209254,12.2980663 C28.589756,14.5985267 27.4741713,17.3701657 27.4741713,20.6129834 C27.4741713,23.8003683 28.5828269,26.5373619 30.8001381,28.8239641 C33.0174494,31.1105663 35.7475138,32.2538674 38.9903315,32.2538674 Z M38.9279696,29.5515193 C36.5027855,29.5515193 34.4725599,28.6923112 32.8372928,26.973895 C31.2020258,25.2554788 30.3843923,23.1628913 30.3843923,20.6961326 C30.3843923,18.2293738 31.2297422,16.1021409 32.920442,14.3144337 C34.6111418,12.5267265 36.6275092,11.6328729 38.9695442,11.6328729 C41.3115792,11.6328729 43.3348757,12.5267265 45.0394337,14.3144337 C46.7439917,16.1021409 47.5962707,18.2155157 47.5962707,20.654558 C47.5962707,23.1213168 46.7578499,25.2208333 45.0810083,26.9531077 C43.4041667,28.6853821 41.3531538,29.5515193 38.9279696,29.5515193 Z M58.6135359,39.5709945 L58.6135359,27.7222376 C61.1357274,30.7433241 64.087523,32.2538674 67.4689227,32.2538674 C70.5731584,32.2538674 73.2339319,31.1036372 75.4512431,28.8031768 C77.6685543,26.5027164 78.7772099,23.7449355 78.7772099,20.5298343 C78.7772099,17.314733 77.6546961,14.5638812 75.4096685,12.277279 C73.1646409,9.9906768 70.4900092,8.84737569 67.3857735,8.84737569 C63.7826427,8.84737569 60.8585635,10.3856354 58.6135359,13.4621547 L58.6135359,9.42941989 L55.7864641,9.42941989 L55.7864641,39.5709945 L58.6135359,39.5709945 Z M67.1571133,29.6346685 C64.7596455,29.6346685 62.7017035,28.7685313 60.9832873,27.0362569 C59.2648711,25.3039825 58.405663,23.1628913 58.405663,20.6129834 C58.405663,18.0630755 59.2440838,15.9219843 60.9209254,14.1897099 C62.597767,12.4574355 64.6695672,11.5912983 67.136326,11.5912983 C69.6030847,11.5912983 71.6887431,12.4712937 73.3933011,14.2312845 C75.0978591,15.9912753 75.9501381,18.1046501 75.9501381,20.5714088 C75.9501381,23.0936004 75.0840009,25.2346915 73.3517265,26.9946823 C71.6194521,28.7546731 69.554581,29.6346685 67.1571133,29.6346685 Z M86.5100829,31.5055249 L86.5100829,0.906629834 L83.683011,0.906629834 L83.683011,31.5055249 L86.5100829,31.5055249 Z M102.973619,32.2538674 C106.216436,32.2538674 109.098941,30.7433241 111.621133,27.7222376 L111.621133,31.5055249 L114.40663,31.5055249 L114.40663,9.42941989 L111.621133,9.42941989 L111.621133,13.4621547 C109.376105,10.3856354 106.452026,8.84737569 102.848895,8.84737569 C99.7169429,8.84737569 97.028453,9.9906768 94.7834254,12.277279 C92.5383978,14.5638812 91.415884,17.3078039 91.415884,20.509047 C91.415884,23.7102901 92.5314687,26.4680709 94.7626381,28.7823895 C96.9938076,31.0967081 99.7308011,32.2538674 102.973619,32.2538674 Z M103.035981,29.6346685 C100.638513,29.6346685 98.5805709,28.7408149 96.8621547,26.9531077 C95.1437385,25.1654006 94.2845304,23.0520258 94.2845304,20.6129834 C94.2845304,18.1739411 95.1298803,16.0605663 96.8205801,14.2728591 C98.5112799,12.4851519 100.58308,11.5912983 103.035981,11.5912983 C105.488881,11.5912983 107.560681,12.4574355 109.251381,14.1897099 C110.942081,15.9219843 111.787431,18.0492173 111.787431,20.5714088 C111.787431,23.1767495 110.928223,25.338628 109.209807,27.0570442 C107.49139,28.7754604 105.433448,29.6346685 103.035981,29.6346685 Z M126.92058,32.2538674 C127.585773,32.2538674 128.500414,32.15686 129.664503,31.9628453 L129.664503,31.9628453 L129.664503,29.5515193 L127.959945,29.5515193 C127.156169,29.5515193 126.657274,29.4822284 126.46326,29.3436464 C126.269245,29.2050645 126.172238,28.7616022 126.172238,28.0132597 L126.172238,28.0132597 L126.172238,11.8407459 L130.662293,11.8407459 L130.662293,9.42941989 L126.172238,9.42941989 L126.172238,0.906629834 L123.303591,0.906629834 L123.303591,9.42941989 L119.39558,9.42941989 L119.39558,11.8407459 L123.303591,11.8407459 L123.303591,28.4705801 C123.303591,29.7732505 123.594613,30.7294659 124.176657,31.3392265 C124.758702,31.9489871 125.673343,32.2538674 126.92058,32.2538674 Z M139.351381,32.2538674 C141.236096,32.2538674 142.822859,31.6163904 144.111671,30.3414365 C145.400483,29.0664825 146.04489,27.5005064 146.04489,25.6435083 C146.04489,24.1745396 145.608356,22.9342311 144.73529,21.9225829 C143.862224,20.9109346 142.594199,19.9685773 140.931215,19.095511 C139.268232,18.2224448 138.097215,17.4741022 137.418163,16.8504834 C136.739111,16.2268646 136.399586,15.4785221 136.399586,14.6054558 C136.399586,13.7323895 136.718324,12.9979052 137.355801,12.4020028 C137.993278,11.8061004 138.783195,11.5081492 139.725552,11.5081492 C141.166805,11.5081492 142.649632,12.2426335 144.174033,13.7116022 L144.174033,13.7116022 L146.003315,11.8407459 C143.980018,9.84516575 142.019084,8.84737569 140.120511,8.84737569 C138.221938,8.84737569 136.697537,9.4017035 135.547307,10.5103591 C134.397076,11.6190147 133.821961,12.9563306 133.821961,14.5223066 C133.821961,16.0882827 134.230778,17.3632366 135.048412,18.3471685 C135.866045,19.3311004 137.099424,20.2388122 138.74855,21.0703039 C140.397675,21.9017956 141.575622,22.643209 142.28239,23.2945442 C142.989157,23.9458794 143.342541,24.7773711 143.342541,25.7890193 C143.342541,26.8006676 142.940654,27.680663 142.136878,28.4290055 C141.333103,29.1773481 140.363029,29.5515193 139.226657,29.5515193 C137.619107,29.5515193 136.080847,28.7338858 134.611878,27.0986188 L134.611878,27.0986188 L132.824171,29.0941989 C133.627947,30.091989 134.604949,30.8680479 135.75518,31.4223757 C136.90541,31.9767035 138.104144,32.2538674 139.351381,32.2538674 Z" id="boplats" fill="#232323" fill-rule="nonzero"></path>
                    <path d="M163.5,2 C169.851275,2 175,7.9482169 175,15.2857143 C175,20.1773792 171.166667,26.0821411 163.5,33 C155.833333,26.0821411 152,20.1773792 152,15.2857143 C152,7.9482169 157.148725,2 163.5,2 Z M163.5,10.2666667 C160.613057,10.2666667 158.272727,12.5798621 158.272727,15.4333333 C158.272727,18.2868045 160.613057,20.6 163.5,20.6 C166.386943,20.6 168.727273,18.2868045 168.727273,15.4333333 C168.727273,12.5798621 166.386943,10.2666667 163.5,10.2666667 Z" id="Combined-Shape" fill="#E01171"></path>
                </g>
            </g>
        </g>
    </g>
</svg>