<?xml version="1.0" encoding="UTF-8"?>
<svg width="175px" height="40px" viewBox="0 0 175 40" version="1.1" xmlns="http://www.w3.org/2000/svg" xmlns:xlink="http://www.w3.org/1999/xlink">
    <!-- Generator: Sketch 60 (88103) - https://sketch.com -->
    <title>Logo / Logo-White</title>
    <desc>Created with Sketch.</desc>
    <g id="Symbols" stroke="none" stroke-width="1" fill="none" fill-rule="evenodd">
        <g id="Logo-/-White-text" transform="translate(-3.000000, -2.000000)" fill="#FFFFFF">
            <g id="Logo-/-Logo-White">
                <g id="Logo">
                    <path d="M14.9252762,34.2538674 C18.0572284,34.2538674 20.7457182,33.1036372 22.9907459,30.8031768 C25.2357735,28.5027164 26.3582873,25.7449355 26.3582873,22.5298343 C26.3582873,19.314733 25.2565608,16.5638812 23.0531077,14.277279 C20.8496547,11.9906768 18.1680939,10.8473757 15.0084254,10.8473757 C11.5161602,10.8473757 8.56436464,12.3024862 6.15303867,15.2127072 L6.15303867,15.2127072 L6.15303867,2.90662983 L3.36754144,2.90662983 L3.36754144,33.5055249 L6.15303867,33.5055249 L6.15303867,29.4312155 C8.50893186,32.6463168 11.433011,34.2538674 14.9252762,34.2538674 Z M14.7174033,31.5099448 C12.278361,31.5099448 10.2134899,30.6230203 8.52279006,28.8491713 C6.83209024,27.0753223 5.98674033,24.8995856 5.98674033,22.3219613 C5.98674033,19.7720534 6.82516114,17.6517495 8.50200276,15.9610497 C10.1788444,14.2703499 12.2645028,13.425 14.7589779,13.425 C17.253453,13.425 19.3321823,14.3257827 20.9951657,16.1273481 C22.6581492,17.9289134 23.4896409,20.0422882 23.4896409,22.4674724 C23.4896409,24.8926565 22.6373619,27.0060313 20.9328039,28.8075967 C19.2282459,30.6091621 17.1564457,31.5099448 14.7174033,31.5099448 Z M41.9903315,34.2538674 C45.2331492,34.2538674 47.9562845,33.1105663 50.1597376,30.8239641 C52.3631906,28.5373619 53.4649171,25.7865101 53.4649171,22.5714088 C53.4649171,19.3563076 52.3493324,16.5985267 50.118163,14.2980663 C47.8869936,11.9976059 45.1707873,10.8473757 41.9695442,10.8473757 C38.7683011,10.8473757 36.0520948,11.9976059 33.8209254,14.2980663 C31.589756,16.5985267 30.4741713,19.3701657 30.4741713,22.6129834 C30.4741713,25.8003683 31.5828269,28.5373619 33.8001381,30.8239641 C36.0174494,33.1105663 38.7475138,34.2538674 41.9903315,34.2538674 Z M41.9279696,31.5515193 C39.5027855,31.5515193 37.4725599,30.6923112 35.8372928,28.973895 C34.2020258,27.2554788 33.3843923,25.1628913 33.3843923,22.6961326 C33.3843923,20.2293738 34.2297422,18.1021409 35.920442,16.3144337 C37.6111418,14.5267265 39.6275092,13.6328729 41.9695442,13.6328729 C44.3115792,13.6328729 46.3348757,14.5267265 48.0394337,16.3144337 C49.7439917,18.1021409 50.5962707,20.2155157 50.5962707,22.654558 C50.5962707,25.1213168 49.7578499,27.2208333 48.0810083,28.9531077 C46.4041667,30.6853821 44.3531538,31.5515193 41.9279696,31.5515193 Z M61.6135359,41.5709945 L61.6135359,29.7222376 C64.1357274,32.7433241 67.087523,34.2538674 70.4689227,34.2538674 C73.5731584,34.2538674 76.2339319,33.1036372 78.4512431,30.8031768 C80.6685543,28.5027164 81.7772099,25.7449355 81.7772099,22.5298343 C81.7772099,19.314733 80.6546961,16.5638812 78.4096685,14.277279 C76.1646409,11.9906768 73.4900092,10.8473757 70.3857735,10.8473757 C66.7826427,10.8473757 63.8585635,12.3856354 61.6135359,15.4621547 L61.6135359,15.4621547 L61.6135359,11.4294199 L58.7864641,11.4294199 L58.7864641,41.5709945 L61.6135359,41.5709945 Z M70.1571133,31.6346685 C67.7596455,31.6346685 65.7017035,30.7685313 63.9832873,29.0362569 C62.2648711,27.3039825 61.405663,25.1628913 61.405663,22.6129834 C61.405663,20.0630755 62.2440838,17.9219843 63.9209254,16.1897099 C65.597767,14.4574355 67.6695672,13.5912983 70.136326,13.5912983 C72.6030847,13.5912983 74.6887431,14.4712937 76.3933011,16.2312845 C78.0978591,17.9912753 78.9501381,20.1046501 78.9501381,22.5714088 C78.9501381,25.0936004 78.0840009,27.2346915 76.3517265,28.9946823 C74.6194521,30.7546731 72.554581,31.6346685 70.1571133,31.6346685 Z M89.5100829,33.5055249 L89.5100829,2.90662983 L86.683011,2.90662983 L86.683011,33.5055249 L89.5100829,33.5055249 Z M105.973619,34.2538674 C109.216436,34.2538674 112.098941,32.7433241 114.621133,29.7222376 L114.621133,29.7222376 L114.621133,33.5055249 L117.40663,33.5055249 L117.40663,11.4294199 L114.621133,11.4294199 L114.621133,15.4621547 C112.376105,12.3856354 109.452026,10.8473757 105.848895,10.8473757 C102.716943,10.8473757 100.028453,11.9906768 97.7834254,14.277279 C95.5383978,16.5638812 94.415884,19.3078039 94.415884,22.509047 C94.415884,25.7102901 95.5314687,28.4680709 97.7626381,30.7823895 C99.9938076,33.0967081 102.730801,34.2538674 105.973619,34.2538674 Z M106.035981,31.6346685 C103.638513,31.6346685 101.580571,30.7408149 99.8621547,28.9531077 C98.1437385,27.1654006 97.2845304,25.0520258 97.2845304,22.6129834 C97.2845304,20.1739411 98.1298803,18.0605663 99.8205801,16.2728591 C101.51128,14.4851519 103.58308,13.5912983 106.035981,13.5912983 C108.488881,13.5912983 110.560681,14.4574355 112.251381,16.1897099 C113.942081,17.9219843 114.787431,20.0492173 114.787431,22.5714088 C114.787431,25.1767495 113.928223,27.338628 112.209807,29.0570442 C110.49139,30.7754604 108.433448,31.6346685 106.035981,31.6346685 Z M129.92058,34.2538674 C130.585773,34.2538674 131.500414,34.15686 132.664503,33.9628453 L132.664503,33.9628453 L132.664503,31.5515193 L130.959945,31.5515193 C130.156169,31.5515193 129.657274,31.4822284 129.46326,31.3436464 C129.269245,31.2050645 129.172238,30.7616022 129.172238,30.0132597 L129.172238,30.0132597 L129.172238,13.8407459 L133.662293,13.8407459 L133.662293,11.4294199 L129.172238,11.4294199 L129.172238,2.90662983 L126.303591,2.90662983 L126.303591,11.4294199 L122.39558,11.4294199 L122.39558,13.8407459 L126.303591,13.8407459 L126.303591,30.4705801 C126.303591,31.7732505 126.594613,32.7294659 127.176657,33.3392265 C127.758702,33.9489871 128.673343,34.2538674 129.92058,34.2538674 Z M142.351381,34.2538674 C144.236096,34.2538674 145.822859,33.6163904 147.111671,32.3414365 C148.400483,31.0664825 149.04489,29.5005064 149.04489,27.6435083 C149.04489,26.1745396 148.608356,24.9342311 147.73529,23.9225829 C146.862224,22.9109346 145.594199,21.9685773 143.931215,21.095511 C142.268232,20.2224448 141.097215,19.4741022 140.418163,18.8504834 C139.739111,18.2268646 139.399586,17.4785221 139.399586,16.6054558 C139.399586,15.7323895 139.718324,14.9979052 140.355801,14.4020028 C140.993278,13.8061004 141.783195,13.5081492 142.725552,13.5081492 C144.166805,13.5081492 145.649632,14.2426335 147.174033,15.7116022 L147.174033,15.7116022 L149.003315,13.8407459 C146.980018,11.8451657 145.019084,10.8473757 143.120511,10.8473757 C141.221938,10.8473757 139.697537,11.4017035 138.547307,12.5103591 C137.397076,13.6190147 136.821961,14.9563306 136.821961,16.5223066 C136.821961,18.0882827 137.230778,19.3632366 138.048412,20.3471685 C138.866045,21.3311004 140.099424,22.2388122 141.74855,23.0703039 C143.397675,23.9017956 144.575622,24.643209 145.28239,25.2945442 C145.989157,25.9458794 146.342541,26.7773711 146.342541,27.7890193 C146.342541,28.8006676 145.940654,29.680663 145.136878,30.4290055 C144.333103,31.1773481 143.363029,31.5515193 142.226657,31.5515193 C140.619107,31.5515193 139.080847,30.7338858 137.611878,29.0986188 L137.611878,29.0986188 L135.824171,31.0941989 C136.627947,32.091989 137.604949,32.8680479 138.75518,33.4223757 C139.90541,33.9767035 141.104144,34.2538674 142.351381,34.2538674 Z" id="boplats" fill-rule="nonzero"></path>
                    <path d="M166.5,4 C172.851275,4 178,9.9482169 178,17.2857143 C178,22.1773792 174.166667,28.0821411 166.5,35 C158.833333,28.0821411 155,22.1773792 155,17.2857143 C155,9.9482169 160.148725,4 166.5,4 Z M166.5,12.2666667 C163.613057,12.2666667 161.272727,14.5798621 161.272727,17.4333333 C161.272727,20.2868045 163.613057,22.6 166.5,22.6 C169.386943,22.6 171.727273,20.2868045 171.727273,17.4333333 C171.727273,14.5798621 169.386943,12.2666667 166.5,12.2666667 Z" id="Combined-Shape"></path>
                </g>
            </g>
        </g>
    </g>
</svg>