<?xml version="1.0" encoding="UTF-8"?>
<svg width="175px" height="40px" viewBox="0 0 175 40" version="1.1" xmlns="http://www.w3.org/2000/svg" xmlns:xlink="http://www.w3.org/1999/xlink">
    <!-- Generator: Sketch 59 (86127) - https://sketch.com -->
    <title>Logo White</title>
    <desc>Created with Sketch.</desc>
    <g id="Boplats-landing-page" stroke="none" stroke-width="1" fill="none" fill-rule="evenodd">
        <g id="Desktop-HD" transform="translate(-223.000000, -4378.000000)" fill="#FFFFFF">
            <g id="Logo-/-White-text" transform="translate(220.000000, 4376.000000)">
                <g id="Logo-/-Original">
                    <g id="Logo">
                        <text id="boplats" font-family="STHeitiTC-Light, Heiti TC" font-size="41.5745856" font-weight="300">
                            <tspan x="0" y="36">boplats</tspan>
                        </text>
                        <path d="M166.5,4 C172.851275,4 178,9.9482169 178,17.2857143 C178,22.1773792 174.166667,28.0821411 166.5,35 C158.833333,28.0821411 155,22.1773792 155,17.2857143 C155,9.9482169 160.148725,4 166.5,4 Z M166.5,12.2666667 C163.613057,12.2666667 161.272727,14.5798621 161.272727,17.4333333 C161.272727,20.2868045 163.613057,22.6 166.5,22.6 C169.386943,22.6 171.727273,20.2868045 171.727273,17.4333333 C171.727273,14.5798621 169.386943,12.2666667 166.5,12.2666667 Z" id="Combined-Shape"></path>
                    </g>
                </g>
            </g>
        </g>
    </g>
</svg>