<?xml version="1.0" encoding="UTF-8"?>
<svg width="150px" height="150px" viewBox="0 0 150 150" version="1.1" xmlns="http://www.w3.org/2000/svg" xmlns:xlink="http://www.w3.org/1999/xlink">
    <!-- Generator: Sketch 60.1 (88133) - https://sketch.com -->
    <title>Medlemskap</title>
    <desc>Created with Sketch.</desc>
    <g id="Boplats-landing-page" stroke="none" stroke-width="1" fill="none" fill-rule="evenodd">
        <g id="Desktop-HD" transform="translate(-647.000000, -1123.000000)">
            <g id="Group-7" transform="translate(120.000000, 1123.000000)">
                <g id="Medlemskap" transform="translate(527.000000, 0.000000)">
                    <circle id="Oval" fill="#BBBAFF" cx="75" cy="75" r="75"></circle>
                    <g id="Credit-Card" transform="translate(38.000000, 49.000000)">
                        <rect id="Rectangle" fill="#FFFFFF" x="0" y="0" width="74.6535499" height="50.9001476" rx="4.75068045"></rect>
                        <path d="M63.4555174,6.10801772 C66.2666549,6.10801772 68.5455321,8.38689495 68.5455321,11.1980325 C68.5455321,14.00917 66.2666549,16.2880472 63.4555174,16.2880472 C62.457287,16.2880472 61.5261719,16.0006925 60.7403787,15.5041897 C59.955395,16.0007292 59.024335,16.2880472 58.0261683,16.2880472 C55.2150308,16.2880472 52.9361535,14.00917 52.9361535,11.1980325 C52.9361535,8.38689495 55.2150308,6.10801772 58.0261683,6.10801772 C59.024335,6.10801772 59.955395,6.39533575 60.7411565,6.89178014 C61.5261719,6.39537244 62.457287,6.10801772 63.4555174,6.10801772 Z" id="Combined-Shape" fill="#0F0766"></path>
                        <rect id="Rectangle" fill="#0F0766" x="7.46535499" y="35.9694377" width="16.9667159" height="2.71467454"></rect>
                        <rect id="Rectangle" fill="#0F0766" x="27.1467454" y="35.9694377" width="20.3600591" height="2.71467454" rx="1.35733727"></rect>
                        <path d="M16.627355,26.4680531 L16.627355,29.1820531 L10.1800295,29.1827513 C8.68075618,29.1827513 7.46535499,27.9673501 7.46535499,26.4680768 L16.627355,26.4680531 Z M21.0387277,26.4680768 C21.0387277,27.9673501 19.8233265,29.1827513 18.3240531,29.1827513 L17.984355,29.1820531 L17.984355,26.4680531 L21.0387277,26.4680768 Z M21.038355,23.0740531 L21.038355,25.1100531 L7.46535499,25.1100531 L7.46535499,23.0740531 L21.038355,23.0740531 Z M10.519355,18.3240531 L10.519355,21.7170531 L7.46535499,21.7170531 L7.46535499,21.0387277 C7.46535499,19.5394543 8.68075618,18.3240531 10.1800295,18.3240531 L10.519355,18.3240531 Z M18.3240531,18.3240531 C19.8233265,18.3240531 21.0387277,19.5394543 21.0387277,21.0387277 L21.038355,21.7170531 L11.876355,21.7170531 L11.876355,18.3240531 L18.3240531,18.3240531 Z" id="Combined-Shape" fill="#0F0766"></path>
                    </g>
                </g>
            </g>
        </g>
    </g>
</svg>