<?xml version="1.0" encoding="UTF-8"?>
<svg width="20px" height="12px" viewBox="0 0 20 12" version="1.1" xmlns="http://www.w3.org/2000/svg" xmlns:xlink="http://www.w3.org/1999/xlink">
    <!-- Generator: Sketch 60.1 (88133) - https://sketch.com -->
    <title>Group</title>
    <desc>Created with Sketch.</desc>
    <g id="Boplats-landing-page" stroke="none" stroke-width="1" fill="none" fill-rule="evenodd">
        <g id="iPhone-8-Plus" transform="translate(-234.000000, -179.000000)">
            <g id="Group" transform="translate(234.000000, 179.000000)">
                <path d="M11.5920916,0.187953014 C12.0707596,-0.0409751856 12.653486,-0.0825984947 13.132154,0.187953014 C13.451266,0.368320687 13.8674991,0.770679341 14.3808533,1.39502898 C15.199445,1.45052672 15.802983,1.61008274 16.1914672,1.87369703 C16.5799514,2.13731132 17.266736,2.72003765 18.251821,3.62187601 L18.1873658,3.5625642 C19.2871516,4.37778519 20,5.68541187 20,7.15953322 C20,9.63073449 17.9966956,11.6340389 15.5254943,11.6340389 C13.2533668,11.6340389 11.3767873,9.94049639 11.0891873,7.7468426 C10.7701566,7.9288099 10.3930175,8.03362271 9.98959417,8.03362271 C9.59449748,8.03362271 9.22461114,7.93309189 8.90781473,7.75799652 C8.61695345,9.94613939 6.74284462,11.6340389 4.47450572,11.6340389 C2.00330445,11.6340389 0,9.63073449 0,7.15953322 C0,5.64412461 0.753338597,4.30466765 1.90594623,3.49523191 L1.76899063,3.62155195 C2.75407562,2.71971359 3.44086022,2.13698726 3.82934443,1.87337297 C4.21782865,1.60975868 4.82136663,1.45020266 5.63995838,1.39470492 C6.15331252,0.770355279 6.56954561,0.367996625 6.88865765,0.187628952 C7.3673257,-0.0829225564 7.95005203,-0.0412992473 8.42872008,0.187628952 C8.74783212,0.340247752 9.01144641,0.65242257 9.21956296,1.12415341 L9.23105761,1.13489474 C9.4509843,1.00980213 9.71546464,0.936848515 10,0.936848515 C10.2902023,0.936848515 10.5595428,1.01273704 10.7820297,1.14243088 L10.8012487,1.12447747 C11.0093652,0.652746632 11.2729795,0.340571814 11.5920916,0.187953014 Z" id="Combined-Shape" fill="#59097B"></path>
                <circle id="Oval" fill="#FFFFFF" cx="9.98959417" cy="5.82726327" r="1.04058273"></circle>
                <circle id="Oval" fill="#FFFFFF" cx="4.38085328" cy="7.29448491" r="3.06971904"></circle>
                <path d="M4.38085328,5.47346514 C4.51010973,5.47346514 4.63622084,5.48693198 4.75786007,5.51253912 C4.57025781,5.68367503 4.45369407,5.92916158 4.45369407,6.20187305 C4.45369407,6.71910122 4.87299035,7.1383975 5.39021852,7.1383975 C5.68929604,7.1383975 5.95562988,6.99820519 6.1270899,6.77995074 C6.17607057,6.94267863 6.20187305,7.11556852 6.20187305,7.29448491 C6.20187305,8.30020636 5.38657473,9.11550468 4.38085328,9.11550468 C3.37513183,9.11550468 2.55983351,8.30020636 2.55983351,7.29448491 C2.55983351,6.28876346 3.37513183,5.47346514 4.38085328,5.47346514 Z" id="Combined-Shape" fill="#59097B"></path>
                <circle id="Oval" fill="#FFFFFF" cx="15.5567118" cy="7.29448491" r="3.06971904"></circle>
                <path d="M15.5567118,5.47346514 C15.6859682,5.47346514 15.8120793,5.48693198 15.9337185,5.51253912 C15.7461163,5.68367503 15.6295525,5.92916158 15.6295525,6.20187305 C15.6295525,6.71910122 16.0488488,7.1383975 16.566077,7.1383975 C16.8651545,7.1383975 17.1314884,6.99820519 17.3029484,6.77995074 C17.3519291,6.94267863 17.3777315,7.11556852 17.3777315,7.29448491 C17.3777315,8.30020636 16.5624332,9.11550468 15.5567118,9.11550468 C14.5509903,9.11550468 13.735692,8.30020636 13.735692,7.29448491 C13.735692,6.28876346 14.5509903,5.47346514 15.5567118,5.47346514 Z" id="Combined-Shape" fill="#59097B"></path>
            </g>
        </g>
    </g>
</svg>