<?xml version="1.0" encoding="UTF-8"?>
<svg width="334px" height="141px" viewBox="0 0 334 141" version="1.1" xmlns="http://www.w3.org/2000/svg" xmlns:xlink="http://www.w3.org/1999/xlink">
    <!-- Generator: Sketch 60.1 (88133) - https://sketch.com -->
    <title>small-clouds</title>
    <desc>Created with Sketch.</desc>
    <g id="Boplats-landing-page" stroke="none" stroke-width="1" fill="none" fill-rule="evenodd">
        <g id="iPhone-8" transform="translate(-15.000000, -13.000000)" fill="#FFFFFF" stroke-width="2.99904446">
            <g id="small-clouds" transform="translate(15.000000, 13.000000)">
                <path d="M294.698769,92.4995222 C289.767876,92.4995222 285.353627,95.329778 283.276742,99.676207 L282.632472,101.024512 L281.281939,100.384926 C279.016084,99.3118627 276.531143,98.7475315 273.962519,98.7475315 C264.551101,98.7475315 256.925091,106.330212 256.925091,115.679637 C256.925091,115.891235 256.928989,116.103045 256.936724,116.3139 L256.981227,117.527001 L255.803976,117.823102 C250.958114,119.04193 247.499522,123.419496 247.499522,128.488056 C247.499522,134.561253 252.422821,139.484552 258.496019,139.484552 L321.475952,139.484552 C327.549149,139.484552 332.472448,134.561253 332.472448,128.488056 C332.472448,124.039024 329.806277,120.081205 325.783292,118.366822 L324.777002,117.937994 L324.878045,116.84882 C324.91393,116.462001 324.931994,116.072021 324.931994,115.679637 C324.931994,108.745688 319.275303,103.121138 312.293164,103.121138 C311.141024,103.121138 310.011675,103.273948 308.926646,103.57218 L307.394307,103.993359 L307.06271,102.439171 C305.835101,96.6853782 300.698189,92.4995222 294.698769,92.4995222 Z" id="Combined-Shape" stroke-opacity="0.360713505" stroke="#AC1488"></path>
                <path d="M34.3104967,99.4995222 C31.0061157,99.4995222 28.0502446,101.382392 26.6607812,104.270657 L26.0163041,105.610325 L24.6711199,104.977441 C23.1329586,104.253766 21.44586,103.873129 19.7008658,103.873129 C13.3120638,103.873129 8.14026352,108.982367 8.14026352,115.275746 C8.14026352,115.418869 8.14292908,115.555092 8.14836608,115.684428 L8.19990076,116.910345 L7.00843671,117.203503 C3.79758958,117.993527 1.49952223,120.887491 1.49952223,124.241639 C1.49952223,128.244428 4.74442391,131.48933 8.74721299,131.48933 L53.2330391,131.48933 C57.2358282,131.48933 60.4807298,128.244428 60.4807298,124.241639 C60.4807298,121.298371 58.7103913,118.681847 56.0442831,117.558633 L55.0328113,117.132506 L55.1332335,116.03954 C55.1564494,115.786864 55.1681368,115.532113 55.1681368,115.275746 C55.1681368,110.6732 51.3838117,106.934653 46.7065471,106.934653 C45.9339199,106.934653 45.176445,107.036364 44.4486974,107.234618 L42.9210079,107.650794 L42.5884779,106.102743 C41.7679528,102.282893 38.3297988,99.4995222 34.3104967,99.4995222 Z" id="Combined-Shape" stroke="#EAC4E1"></path>
                <path d="M263.991719,1.49952223 C259.655616,1.49952223 256.027052,4.76474104 255.548261,9.03656396 L255.312035,11.1441939 L253.40376,10.2187803 C252.428632,9.74589444 251.35661,9.49697411 250.246098,9.49697411 C246.243309,9.49697411 242.998407,12.7418758 242.998407,16.7446649 C242.998407,17.0125523 243.012877,17.2760992 243.041574,17.5332174 L243.156662,18.5643939 L242.232226,19.0355509 C240.568528,19.8834878 239.499522,21.5921783 239.499522,23.4925149 C239.499522,26.2530591 241.737385,28.4909223 244.49793,28.4909223 L278.4871,28.4909223 C281.247644,28.4909223 283.485508,26.2530591 283.485508,23.4925149 C283.485508,21.5181182 282.330918,19.7543706 280.567005,18.946228 L279.391869,18.4078357 L279.751153,17.1661734 C279.906744,16.6284596 279.986622,16.0678843 279.986622,15.495063 C279.986622,12.18241 277.301186,9.49697411 274.008917,9.49683556 L272.566443,9.51644525 L272.319476,8.29805733 C271.523149,4.3694513 268.051851,1.49952223 263.991719,1.49952223 Z" id="Combined-Shape" stroke-opacity="0.5" stroke="#AC1488" transform="translate(261.492515, 14.995222) scale(-1, 1) translate(-261.492515, -14.995222) "></path>
                <path d="M78.6987695,2.49952223 C73.7678761,2.49952223 69.3536267,5.32977804 67.2767421,9.67620699 L66.6324722,11.0245117 L65.2819391,10.3849263 C63.0160839,9.31186274 60.5311432,8.74753151 57.9625193,8.74753151 C48.5511005,8.74753151 40.9250905,16.3302119 40.9250905,25.6796367 C40.9250905,25.8912353 40.9289886,26.1030445 40.9367239,26.3138998 L40.9812266,27.5270005 L39.8039764,27.8231018 C34.9581139,29.0419301 31.4995222,33.4194962 31.4995222,38.4880557 C31.4995222,44.5612529 36.4228213,49.484552 42.4960186,49.484552 L105.475952,49.484552 C111.549149,49.484552 116.472448,44.5612529 116.472448,38.4880557 C116.472448,34.0390241 113.806277,30.081205 109.783292,28.3668218 L108.777002,27.9379944 L108.878045,26.8488196 C108.91393,26.4620006 108.931994,26.0720213 108.931994,25.6796367 C108.931994,18.7456881 103.275303,13.121138 96.2931636,13.121138 C95.1410244,13.121138 94.0116746,13.2739485 92.9266457,13.5721798 L91.3943065,13.993359 L91.0627104,12.4391713 C89.835101,6.68537822 84.6981888,2.49952223 78.6987695,2.49952223 Z" id="Combined-Shape" stroke-opacity="0.75" stroke="#AC1488" transform="translate(73.985985, 25.992037) scale(-1, 1) translate(-73.985985, -25.992037) "></path>
            </g>
        </g>
    </g>
</svg>