<?xml version="1.0" encoding="UTF-8"?>
<svg width="400px" height="96px" viewBox="0 0 400 96" version="1.1" xmlns="http://www.w3.org/2000/svg" xmlns:xlink="http://www.w3.org/1999/xlink">
    <!-- Generator: Sketch 59 (86127) - https://sketch.com -->
    <title>Small Clouds</title>
    <desc>Created with Sketch.</desc>
    <g id="Boplats-landing-page" stroke="none" stroke-width="1" fill="none" fill-rule="evenodd">
        <g id="Artboard" transform="translate(-4.000000, -34.000000)" fill="#FFFFFF" stroke="#AC1488" stroke-width="3">
            <g id="Small-Clouds" transform="translate(4.000000, 34.000000)">
                <path d="M270.006757,1.5 C268.365316,1.5 266.830762,2.1298322 265.689441,3.2329378 L264.956631,3.94121021 L264.028234,3.52080742 C263.329799,3.20453762 262.566954,3.03846154 261.777027,3.03846154 C258.811598,3.03846154 256.418919,5.38671448 256.418919,8.26923077 C256.418919,8.39738717 256.423611,8.52248669 256.432913,8.64309837 L256.522886,9.80965995 L255.413326,10.180926 C253.687469,10.7584093 252.5,12.380915 252.5,14.2307692 C252.5,16.5886003 254.4114,18.5 256.769231,18.5 L274.230769,18.5 C276.5886,18.5 278.5,16.5886003 278.5,14.2307692 C278.5,12.7757152 277.768109,11.4478171 276.574515,10.6628324 L275.669922,10.0679139 L275.949677,9.02199165 C276.081298,8.52989661 276.148649,8.0199758 276.148649,7.5 C276.148649,4.19264929 273.405057,1.5 270.006757,1.5 Z" id="Combined-Shape" stroke-opacity="0.5" transform="translate(265.500000, 10.000000) scale(-1, 1) translate(-265.500000, -10.000000) "></path>
                <path d="M372.321429,27.5 C369.01606,27.5 366.059832,29.383296 364.670403,32.2728746 L364.025796,33.6134558 L362.679871,32.9800835 C361.140984,32.2559063 359.453032,31.875 357.707143,31.875 C351.316305,31.875 346.142857,36.9858661 346.142857,43.28125 C346.142857,43.424419 346.145524,43.5606851 346.150962,43.6900626 L346.202513,44.9163701 L345.01067,45.2096214 C341.7988,45.9998971 339.5,48.8947829 339.5,52.25 C339.5,56.2540644 342.745936,59.5 346.75,59.5 L391.25,59.5 C395.254064,59.5 398.5,56.2540644 398.5,52.25 C398.5,49.3058042 396.729112,46.6884637 394.062131,45.5648607 L393.050346,45.1385946 L393.1508,44.0452881 C393.174023,43.7925317 393.185714,43.5376995 393.185714,43.28125 C393.185714,38.6772381 389.400183,34.9375 384.721429,34.9375 C383.948742,34.9375 383.191324,35.0391919 382.462709,35.2376013 L380.934649,35.6537086 L380.602047,34.1053252 C379.781261,30.2842578 376.342011,27.5 372.321429,27.5 Z" id="Combined-Shape" stroke-opacity="0.75"></path>
                <path d="M48.7142857,47.5 C43.7820007,47.5 39.3664714,50.3309456 37.2882158,54.6789696 L36.643673,56.0274501 L35.2928776,55.387773 C33.0263808,54.3144603 30.5407556,53.75 27.9714286,53.75 C18.5570112,53.75 10.9285714,61.3350964 10.9285714,70.6875 C10.9285714,70.898974 10.9324637,71.1105419 10.9402114,71.3220447 L10.9846615,72.5354685 L9.80710012,72.8316481 C4.95969369,74.0508647 1.5,78.4298256 1.5,83.5 C1.5,89.5751322 6.42486775,94.5 12.5,94.5 L75.5,94.5 C81.5751322,94.5 86.5,89.5751322 86.5,83.5 C86.5,79.0495987 83.8330335,75.0905287 79.8086597,73.375308 L78.8021416,72.9463219 L78.9031936,71.8568742 C78.9390791,71.4699914 78.9571429,71.0799484 78.9571429,70.6875 C78.9571429,63.7513422 73.2986502,58.125 66.3142857,58.125 C65.1622432,58.125 64.0324211,58.2777355 62.9458404,58.5758033 L61.4136414,58.9961119 L61.0820551,57.4422961 C59.8538499,51.686919 54.7154201,47.5 48.7142857,47.5 Z" id="Combined-Shape" stroke-opacity="0.5" transform="translate(44.000000, 71.000000) scale(-1, 1) translate(-44.000000, -71.000000) "></path>
                <path d="M150,6.5 C145.662826,6.5 142.033152,9.76584096 141.552973,14.0394482 L141.316189,16.1468332 L139.407977,15.2217016 C138.43272,14.7488812 137.360602,14.5 136.25,14.5 C132.245936,14.5 129,17.7459356 129,21.75 C129,22.0173023 129.014402,22.2819393 129.042911,22.5420797 L129.155727,23.5715024 L128.233116,24.04185 C126.569137,24.8901467 125.5,26.5992423 125.5,28.5 C125.5,31.2614237 127.738576,33.5 130.5,33.5 L164.5,33.5 C167.261424,33.5 169.5,31.2614237 169.5,28.5 C169.5,26.5249742 168.345042,24.7606646 166.580567,23.9522646 L165.405057,23.4137008 L165.764455,22.1716428 C165.920096,21.6337577 166,21.0730038 166,20.5 C166,17.1862915 163.313708,14.5 160.015169,14.4999233 L158.576532,14.514472 L158.330292,13.3001126 C157.533477,9.37053572 154.061205,6.5 150,6.5 Z" id="Combined-Shape" stroke-opacity="0.75" transform="translate(147.500000, 20.000000) scale(-1, 1) translate(-147.500000, -20.000000) "></path>
            </g>
        </g>
    </g>
</svg>